# This file uses centimeters as units for non-parametric coordinates.

mtllib SillaMaquina_Model.mtl
g default
v 40.538509 6.265989 1.557330
v 40.463535 6.265989 1.877559
v 40.236942 6.265989 2.111981
v 39.919445 6.265989 2.197789
v 34.857323 6.265989 1.877559
v 34.782349 6.265989 1.557330
v 35.083920 6.265989 2.111981
v 35.401417 6.265989 2.197789
v 35.272900 6.265988 -3.489129
v 35.596230 6.265988 -3.574929
v 35.030376 6.265988 -3.254703
v 34.933640 6.265988 -2.934476
v 40.290482 6.265988 -3.254703
v 40.387218 6.265988 -2.934476
v 40.047958 6.265988 -3.489129
v 39.724632 6.265988 -3.574929
v 34.889690 -0.000003 2.157927
v 35.284870 6.061463 1.721095
v 34.902946 -0.000003 2.224572
v 35.298115 6.061463 1.787740
v 34.940697 -0.000003 2.281070
v 35.335861 6.061463 1.844237
v 34.997196 -0.000003 2.318816
v 35.392357 6.061463 1.881988
v 35.063839 -0.000003 2.332074
v 35.459003 6.061463 1.895246
v 35.130482 -0.000003 2.318816
v 35.525658 6.061463 1.881988
v 35.186977 -0.000003 2.281070
v 35.582169 6.061463 1.844237
v 35.224728 -0.000003 2.224572
v 35.619934 6.061463 1.787740
v 35.237984 -0.000003 2.157927
v 35.633205 6.061463 1.721095
v 35.224728 -0.000003 2.091283
v 35.619961 6.061463 1.654454
v 35.186977 -0.000003 2.034787
v 35.582218 6.061463 1.597957
v 35.130482 -0.000003 1.997041
v 35.525723 6.061463 1.560204
v 35.063839 -0.000003 1.983781
v 35.459072 6.061463 1.546950
v 34.997196 -0.000003 1.997041
v 35.392418 6.061463 1.560204
v 34.940697 -0.000003 2.034787
v 35.335903 6.061463 1.597957
v 34.902946 -0.000003 2.091283
v 35.298138 6.061463 1.654454
v 35.103069 4.674254 1.961429
v 35.115822 4.674254 2.028069
v 35.153072 4.674254 2.084567
v 35.209152 4.674254 2.122317
v 35.275719 4.674254 2.135575
v 35.342422 4.674254 2.122317
v 35.399349 4.674254 2.084567
v 35.437618 4.674254 2.028069
v 35.451397 4.674254 1.961429
v 35.438606 4.674254 1.894786
v 35.401009 4.674254 1.838288
v 35.344326 4.674254 1.800538
v 35.277435 4.674254 1.787282
v 35.211021 4.674254 1.800538
v 35.154697 4.674254 1.838288
v 35.116787 4.674254 1.894786
v 35.144455 5.136657 1.912421
v 35.206028 5.599061 1.824389
v 35.218914 5.599061 1.891030
v 35.156883 5.136657 1.979066
v 35.255989 5.599061 1.947528
v 35.194046 5.136657 2.035562
v 35.311996 5.599061 1.985278
v 35.249931 5.136657 2.073312
v 35.378670 5.599061 1.998532
v 35.316608 5.136657 2.086566
v 35.445328 5.599061 1.985278
v 35.383320 5.136657 2.073312
v 35.502342 5.599061 1.947528
v 35.440456 5.136657 2.035562
v 35.540722 5.599061 1.891030
v 35.478760 5.136657 1.979066
v 35.554317 5.599061 1.824389
v 35.492718 5.136657 1.912421
v 35.541161 5.599061 1.757745
v 35.479858 5.136657 1.845777
v 35.503067 5.599061 1.701249
v 35.442116 5.136657 1.789279
v 35.445839 5.599061 1.663499
v 35.385017 5.136657 1.751533
v 35.378689 5.599061 1.650243
v 35.317406 5.136657 1.738275
v 35.312565 5.599061 1.663499
v 35.251797 5.136657 1.751533
v 35.256805 5.599061 1.701249
v 35.195923 5.136657 1.789279
v 35.219395 5.599061 1.757745
v 35.158157 5.136657 1.845777
v 34.889690 -0.000003 2.157927
v 34.902946 -0.000003 2.224572
v 34.940697 -0.000003 2.281070
v 34.997196 -0.000003 2.318816
v 35.063839 -0.000003 2.332074
v 35.130482 -0.000003 2.318816
v 35.186977 -0.000003 2.281070
v 34.940697 -0.000003 2.034787
v 34.902946 -0.000003 2.091283
v 35.582169 6.061463 1.844237
v 35.335903 6.061463 1.597957
v 40.163963 12.650468 -3.650537
v 40.492065 12.306404 -3.545259
v 40.334419 12.604370 -3.609540
v 40.454514 12.478436 -3.571321
v 34.828793 12.306404 -3.545259
v 35.156898 12.650468 -3.650537
v 34.866344 12.478436 -3.571321
v 34.986439 12.604370 -3.609540
v 40.335659 9.231403 -3.330062
v 39.972557 8.887343 -3.384624
v 40.280609 9.059374 -3.331878
v 40.147701 8.933438 -3.351567
v 35.348305 8.887343 -3.384624
v 34.985199 9.231403 -3.330058
v 35.173157 8.933438 -3.351567
v 35.040253 9.059374 -3.331876
v 37.660431 12.650467 -3.962319
v 36.408665 12.650467 -3.873525
v 38.816494 8.887343 -3.579763
v 36.504368 8.887343 -3.579763
v 38.912197 12.650467 -3.873525
v 37.660431 8.887343 -3.656205
v 39.919445 6.265989 2.197789
v 40.236942 6.265989 2.111981
v 35.401417 6.265989 2.197789
v 35.083916 6.265989 2.111981
v 40.236942 5.890428 2.111981
v 39.919445 5.890428 2.197789
v 35.083916 5.890428 2.111981
v 35.401417 5.890428 2.197789
v 34.857323 6.265989 1.877559
v 34.857323 5.890428 1.877559
v 35.083920 6.265989 2.111981
v 35.083920 5.890428 2.111981
v 34.782349 6.265989 1.557330
v 40.387218 6.265988 -2.934476
v 39.724632 6.265988 -3.574929
v 40.290482 6.265988 -3.254703
v 40.047958 6.265988 -3.489129
v 35.596230 6.265988 -3.574929
v 34.933640 6.265988 -2.934476
v 35.272900 6.265988 -3.489129
v 35.030376 6.265988 -3.254703
v 40.463535 5.890428 1.877559
v 40.538509 5.890428 1.557330
v 40.538509 6.265989 1.557330
v 40.463535 6.265989 1.877559
v 34.857323 6.265989 1.877559
v 34.782349 5.890428 1.557330
v 34.857323 5.890428 1.877559
v 35.596230 5.890427 -3.574929
v 35.272900 5.890427 -3.489129
v 35.030376 5.890427 -3.254703
v 34.933640 5.890427 -2.934476
v 40.387218 5.890427 -2.934476
v 40.290482 5.890427 -3.254703
v 40.047958 5.890427 -3.489129
v 39.724632 5.890427 -3.574929
v 38.912197 12.675493 -3.498796
v 37.660431 12.675493 -3.587590
v 36.504368 8.912372 -3.205039
v 37.660431 8.912372 -3.281482
v 38.912197 12.650467 -3.873525
v 37.660431 8.887343 -3.656205
v 36.504368 8.887343 -3.579763
v 40.454514 12.503464 -3.196593
v 40.492065 12.331434 -3.170531
v 40.492065 12.306404 -3.545259
v 40.454514 12.478436 -3.571321
v 40.334419 12.629399 -3.234813
v 40.334419 12.604370 -3.609540
v 40.163963 12.675493 -3.275813
v 40.163963 12.650468 -3.650537
v 34.866344 12.478436 -3.571321
v 34.828793 12.306404 -3.545259
v 34.828793 12.331434 -3.170528
v 34.866344 12.503464 -3.196593
v 34.986439 12.604370 -3.609540
v 34.986439 12.629399 -3.234809
v 35.156898 12.650468 -3.650537
v 35.156898 12.675493 -3.275813
v 35.173157 8.933438 -3.351567
v 35.348305 8.887343 -3.384624
v 35.348305 8.912372 -3.009894
v 35.173157 8.958467 -2.976840
v 35.040253 9.059374 -3.331876
v 35.040253 9.084402 -2.957149
v 34.985199 9.231403 -3.330058
v 34.985199 9.256432 -2.955335
v 40.280609 9.059374 -3.331878
v 40.335659 9.231403 -3.330062
v 40.335659 9.256432 -2.955335
v 40.280609 9.084402 -2.957149
v 40.147701 8.933438 -3.351567
v 40.147701 8.958467 -2.976840
v 39.972557 8.887343 -3.384624
v 39.972553 8.912372 -3.009894
v 36.408665 12.675493 -3.498796
v 38.816494 8.912372 -3.205039
v 36.408665 12.650467 -3.873525
v 37.660431 12.650467 -3.962319
v 38.816494 8.887343 -3.579763
v 40.463535 6.265989 1.877559
v 40.463535 5.890428 1.877559
v 40.236942 5.890428 2.111981
v 40.236942 6.265989 2.111981
v 40.538509 5.890428 1.557330
v 39.919445 5.890428 2.197789
v 40.463535 5.890428 1.877559
v 40.236942 5.890428 2.111981
v 35.401417 5.890428 2.197789
v 34.782349 5.890428 1.557330
v 35.083920 5.890428 2.111981
v 34.857323 5.890428 1.877559
v 39.724632 5.890427 -3.574929
v 40.387218 5.890427 -2.934476
v 40.047958 5.890427 -3.489129
v 40.290482 5.890427 -3.254703
v 34.933640 5.890427 -2.934476
v 35.596230 5.890427 -3.574929
v 35.030376 5.890427 -3.254703
v 35.272900 5.890427 -3.489129
v 34.889690 -0.000004 -3.702317
v 35.284870 6.061462 -3.265489
v 34.902946 -0.000004 -3.768960
v 35.298115 6.061462 -3.332133
v 34.940697 -0.000004 -3.825456
v 35.335861 6.061462 -3.388629
v 34.997196 -0.000004 -3.863206
v 35.392357 6.061462 -3.426379
v 35.063839 -0.000004 -3.876462
v 35.459003 6.061462 -3.439637
v 35.130482 -0.000004 -3.863206
v 35.525658 6.061462 -3.426379
v 35.186977 -0.000004 -3.825456
v 35.582169 6.061462 -3.388629
v 35.224728 -0.000004 -3.768960
v 35.619934 6.061462 -3.332133
v 35.237984 -0.000004 -3.702317
v 35.633205 6.061462 -3.265489
v 35.224728 -0.000004 -3.635675
v 35.619961 6.061462 -3.198848
v 35.186977 -0.000004 -3.579179
v 35.582218 6.061462 -3.142350
v 35.130482 -0.000004 -3.541429
v 35.525723 6.061462 -3.104600
v 35.063839 -0.000004 -3.528173
v 35.459072 6.061462 -3.091346
v 34.997196 -0.000004 -3.541429
v 35.392418 6.061462 -3.104600
v 34.940697 -0.000004 -3.579179
v 35.335903 6.061462 -3.142350
v 34.902946 -0.000004 -3.635675
v 35.298138 6.061462 -3.198848
v 35.103069 4.674253 -3.505817
v 35.115822 4.674253 -3.572461
v 35.153072 4.674253 -3.628957
v 35.209148 4.674253 -3.666707
v 35.275719 4.674253 -3.679963
v 35.342422 4.674253 -3.666707
v 35.399349 4.674253 -3.628957
v 35.437618 4.674253 -3.572461
v 35.451397 4.674253 -3.505817
v 35.438606 4.674253 -3.439174
v 35.401009 4.674253 -3.382676
v 35.344326 4.674253 -3.344926
v 35.277435 4.674253 -3.331672
v 35.211021 4.674253 -3.344926
v 35.154697 4.674253 -3.382676
v 35.116787 4.674253 -3.439174
v 35.144451 5.136656 -3.456813
v 35.206028 5.599060 -3.368777
v 35.218914 5.599060 -3.435422
v 35.156883 5.136656 -3.523454
v 35.255989 5.599060 -3.491920
v 35.194046 5.136656 -3.579953
v 35.311996 5.599060 -3.529668
v 35.249931 5.136656 -3.617703
v 35.378670 5.599060 -3.542928
v 35.316608 5.136656 -3.630956
v 35.445328 5.599060 -3.529668
v 35.383320 5.136656 -3.617703
v 35.502342 5.599060 -3.491920
v 35.440456 5.136656 -3.579953
v 35.540722 5.599060 -3.435422
v 35.478760 5.136656 -3.523454
v 35.554317 5.599060 -3.368777
v 35.492718 5.136656 -3.456813
v 35.541161 5.599060 -3.302135
v 35.479858 5.136656 -3.390168
v 35.503067 5.599060 -3.245637
v 35.442116 5.136656 -3.333673
v 35.445839 5.599060 -3.207887
v 35.385017 5.136656 -3.295922
v 35.378689 5.599060 -3.194629
v 35.317402 5.136656 -3.282666
v 35.312565 5.599060 -3.207887
v 35.251797 5.136656 -3.295922
v 35.256805 5.599060 -3.245637
v 35.195923 5.136656 -3.333673
v 35.219395 5.599060 -3.302135
v 35.158157 5.136656 -3.390168
v 35.104446 12.416669 -3.781190
v 35.117702 12.411236 -3.847615
v 35.155453 12.406629 -3.903920
v 35.211952 12.403551 -3.941548
v 35.278595 12.402471 -3.954759
v 35.345238 12.403551 -3.941548
v 35.401733 12.406629 -3.903920
v 35.439484 12.411236 -3.847615
v 35.452740 12.416669 -3.781190
v 35.439484 12.422102 -3.714772
v 35.401733 12.426709 -3.658460
v 35.345238 12.429787 -3.620839
v 35.278595 12.430867 -3.607629
v 35.211952 12.429787 -3.620839
v 35.155453 12.426709 -3.658460
v 35.117702 12.422102 -3.714772
v 34.889690 -0.000004 -3.702317
v 34.902946 -0.000004 -3.768960
v 35.298115 6.061462 -3.332133
v 34.940697 -0.000004 -3.825456
v 35.335861 6.061462 -3.388629
v 34.997196 -0.000004 -3.863206
v 35.392357 6.061462 -3.426379
v 35.063839 -0.000004 -3.876462
v 35.459003 6.061462 -3.439637
v 35.130482 -0.000004 -3.863206
v 35.525658 6.061462 -3.426379
v 35.619961 6.061462 -3.198848
v 35.582218 6.061462 -3.142350
v 35.525723 6.061462 -3.104600
v 35.459072 6.061462 -3.091346
v 35.392418 6.061462 -3.104600
v 34.902946 -0.000004 -3.635675
v 35.117702 12.411236 -3.847615
v 35.104446 12.416669 -3.781190
v 35.155453 12.406629 -3.903920
v 35.211952 12.403551 -3.941548
v 35.278595 12.402471 -3.954759
v 35.345238 12.403551 -3.941548
v 35.401733 12.406629 -3.903920
v 40.492065 12.331434 -3.170531
v 40.163963 12.675493 -3.275813
v 40.454514 12.503464 -3.196593
v 40.334419 12.629399 -3.234813
v 35.156898 12.675493 -3.275813
v 34.828793 12.331434 -3.170528
v 34.986439 12.629399 -3.234809
v 34.866344 12.503464 -3.196593
v 39.972557 8.912372 -3.009894
v 40.335659 9.256431 -2.955335
v 40.147701 8.958467 -2.976840
v 40.280609 9.084402 -2.957149
v 34.985199 9.256431 -2.955335
v 35.348305 8.912372 -3.009894
v 35.040253 9.084402 -2.957149
v 35.173157 8.958467 -2.976840
v 36.408665 12.675493 -3.498796
v 38.816494 8.912372 -3.205039
v 38.912197 12.675493 -3.498796
v 37.660431 12.675493 -3.587590
v 36.504368 8.912372 -3.205039
v 37.660431 8.912371 -3.281482
v 40.430859 -0.000004 -3.702317
v 40.035683 6.061463 -3.265489
v 40.417603 -0.000004 -3.768960
v 40.022434 6.061463 -3.332133
v 40.379852 -0.000004 -3.825456
v 39.984692 6.061463 -3.388629
v 40.323357 -0.000004 -3.863206
v 39.928192 6.061463 -3.426379
v 40.256714 -0.000004 -3.876462
v 39.861546 6.061463 -3.439637
v 40.190071 -0.000004 -3.863206
v 39.794891 6.061463 -3.426379
v 40.133572 -0.000004 -3.825456
v 39.738380 6.061463 -3.388629
v 40.095821 -0.000004 -3.768960
v 39.700615 6.061463 -3.332133
v 40.082565 -0.000004 -3.702317
v 39.687344 6.061463 -3.265489
v 40.095821 -0.000004 -3.635675
v 39.700588 6.061463 -3.198848
v 40.133572 -0.000004 -3.579179
v 39.738331 6.061463 -3.142350
v 40.190071 -0.000004 -3.541429
v 39.794830 6.061463 -3.104600
v 40.256714 -0.000004 -3.528173
v 39.861481 6.061463 -3.091346
v 40.323357 -0.000004 -3.541429
v 39.928135 6.061463 -3.104600
v 40.379852 -0.000004 -3.579179
v 39.984646 6.061463 -3.142350
v 40.417603 -0.000004 -3.635675
v 40.022411 6.061463 -3.198848
v 40.217480 4.674254 -3.505817
v 40.204731 4.674253 -3.572461
v 40.167477 4.674254 -3.628957
v 40.111401 4.674254 -3.666707
v 40.044830 4.674254 -3.679963
v 39.978127 4.674254 -3.666707
v 39.921200 4.674254 -3.628957
v 39.882931 4.674253 -3.572461
v 39.869152 4.674254 -3.505817
v 39.881947 4.674254 -3.439174
v 39.919540 4.674253 -3.382676
v 39.976223 4.674254 -3.344926
v 40.043114 4.674254 -3.331672
v 40.109528 4.674254 -3.344926
v 40.165855 4.674253 -3.382676
v 40.203762 4.674254 -3.439174
v 40.176098 5.136657 -3.456813
v 40.114525 5.599060 -3.368777
v 40.101639 5.599060 -3.435422
v 40.163666 5.136657 -3.523454
v 40.064560 5.599060 -3.491920
v 40.126507 5.136657 -3.579953
v 40.008556 5.599060 -3.529668
v 40.070621 5.136657 -3.617703
v 39.941879 5.599060 -3.542928
v 40.003944 5.136657 -3.630956
v 39.875221 5.599060 -3.529668
v 39.937229 5.136657 -3.617703
v 39.818207 5.599060 -3.491920
v 39.880093 5.136657 -3.579953
v 39.779831 5.599060 -3.435422
v 39.841789 5.136657 -3.523454
v 39.766232 5.599060 -3.368777
v 39.827831 5.136657 -3.456813
v 39.779392 5.599060 -3.302135
v 39.840694 5.136657 -3.390168
v 39.817482 5.599060 -3.245637
v 39.878433 5.136657 -3.333673
v 39.874710 5.599060 -3.207887
v 39.935532 5.136657 -3.295922
v 39.941860 5.599060 -3.194629
v 40.003147 5.136657 -3.282666
v 40.007988 5.599060 -3.207887
v 40.068752 5.136657 -3.295922
v 40.063744 5.599060 -3.245637
v 40.124626 5.136657 -3.333673
v 40.101154 5.599060 -3.302135
v 40.162395 5.136657 -3.390168
v 40.216103 12.416669 -3.781190
v 40.202847 12.411236 -3.847615
v 40.165096 12.406629 -3.903920
v 40.108601 12.403552 -3.941548
v 40.041958 12.402471 -3.954759
v 39.975315 12.403552 -3.941548
v 39.918816 12.406629 -3.903920
v 39.881065 12.411236 -3.847615
v 39.867809 12.416669 -3.781190
v 39.881065 12.422102 -3.714772
v 39.918816 12.426709 -3.658460
v 39.975315 12.429787 -3.620839
v 40.041958 12.430867 -3.607629
v 40.108601 12.429787 -3.620839
v 40.165096 12.426709 -3.658460
v 40.202847 12.422102 -3.714772
v 40.430859 -0.000004 -3.702317
v 40.417603 -0.000004 -3.768960
v 40.022434 6.061463 -3.332133
v 40.379852 -0.000004 -3.825456
v 39.984692 6.061463 -3.388629
v 40.323357 -0.000004 -3.863206
v 39.928192 6.061463 -3.426379
v 40.256714 -0.000004 -3.876462
v 39.861546 6.061463 -3.439637
v 40.190071 -0.000004 -3.863206
v 39.794891 6.061463 -3.426379
v 39.700588 6.061463 -3.198848
v 39.738331 6.061463 -3.142350
v 39.794830 6.061463 -3.104600
v 39.861481 6.061463 -3.091346
v 39.928135 6.061463 -3.104600
v 40.417603 -0.000004 -3.635675
v 40.202847 12.411236 -3.847615
v 40.216103 12.416669 -3.781190
v 40.165096 12.406629 -3.903920
v 40.108601 12.403552 -3.941548
v 40.041958 12.402471 -3.954759
v 39.975315 12.403552 -3.941548
v 39.918816 12.406629 -3.903920
v 40.430859 -0.000003 2.157929
v 40.035683 6.061464 1.721099
v 40.417603 -0.000003 2.224572
v 40.022434 6.061464 1.787740
v 40.379852 -0.000003 2.281070
v 39.984692 6.061464 1.844237
v 40.323357 -0.000003 2.318820
v 39.928192 6.061464 1.881988
v 40.256714 -0.000003 2.332074
v 39.861546 6.061464 1.895246
v 40.190071 -0.000003 2.318820
v 39.794891 6.061464 1.881988
v 40.133572 -0.000003 2.281070
v 39.738380 6.061464 1.844237
v 40.095821 -0.000003 2.224572
v 39.700615 6.061464 1.787740
v 40.082565 -0.000003 2.157929
v 39.687344 6.061464 1.721099
v 40.095821 -0.000003 2.091285
v 39.700588 6.061464 1.654456
v 40.133572 -0.000003 2.034787
v 39.738331 6.061464 1.597959
v 40.190071 -0.000003 1.997041
v 39.794830 6.061464 1.560208
v 40.256714 -0.000003 1.983783
v 39.861481 6.061464 1.546950
v 40.323357 -0.000003 1.997041
v 39.928135 6.061464 1.560208
v 40.379852 -0.000003 2.034787
v 39.984646 6.061464 1.597959
v 40.417603 -0.000003 2.091285
v 40.022411 6.061464 1.654456
v 40.217480 4.674255 1.961429
v 40.204731 4.674254 2.028073
v 40.167477 4.674255 2.084567
v 40.111401 4.674255 2.122317
v 40.044830 4.674255 2.135575
v 39.978127 4.674255 2.122317
v 39.921200 4.674255 2.084567
v 39.882931 4.674254 2.028073
v 39.869152 4.674255 1.961429
v 39.881947 4.674255 1.894786
v 39.919540 4.674254 1.838288
v 39.976223 4.674255 1.800538
v 40.043114 4.674255 1.787282
v 40.109528 4.674255 1.800538
v 40.165855 4.674254 1.838288
v 40.203762 4.674255 1.894786
v 40.176098 5.136658 1.912425
v 40.114525 5.599061 1.824391
v 40.101639 5.599061 1.891034
v 40.163666 5.136658 1.979066
v 40.064560 5.599061 1.947532
v 40.126507 5.136658 2.035563
v 40.008556 5.599061 1.985282
v 40.070621 5.136658 2.073314
v 39.941879 5.599061 1.998536
v 40.003944 5.136658 2.086570
v 39.875221 5.599061 1.985282
v 39.937229 5.136658 2.073314
v 39.818207 5.599061 1.947532
v 39.880093 5.136658 2.035563
v 39.779831 5.599061 1.891034
v 39.841789 5.136658 1.979066
v 39.766232 5.599061 1.824391
v 39.827831 5.136658 1.912425
v 39.779392 5.599061 1.757745
v 39.840694 5.136658 1.845780
v 39.817482 5.599061 1.701249
v 39.878433 5.136658 1.789283
v 39.874710 5.599061 1.663499
v 39.935532 5.136658 1.751533
v 39.941860 5.599061 1.650243
v 40.003147 5.136658 1.738278
v 40.007988 5.599061 1.663499
v 40.068752 5.136658 1.751533
v 40.063744 5.599061 1.701249
v 40.124626 5.136658 1.789283
v 40.101154 5.599061 1.757745
v 40.162395 5.136658 1.845780
v 40.430859 -0.000003 2.157929
v 40.417603 -0.000003 2.224572
v 40.379852 -0.000003 2.281070
v 40.323357 -0.000003 2.318820
v 40.256714 -0.000003 2.332074
v 40.190071 -0.000003 2.318820
v 40.133572 -0.000003 2.281070
v 40.379852 -0.000003 2.034787
v 40.417603 -0.000003 2.091285
v 39.738380 6.061464 1.844237
v 39.984646 6.061464 1.597959
vt 0.297903 0.275933
vt 0.300937 0.275933
vt 0.296235 0.296985
vt 0.293201 0.296985
vt 0.301911 0.254882
vt 0.304945 0.254882
vt 0.303509 0.275933
vt 0.298807 0.296985
vt 0.294869 0.275933
vt 0.290167 0.296985
vt 0.304142 0.233831
vt 0.307176 0.233831
vt 0.307517 0.254882
vt 0.298877 0.254882
vt 0.305228 0.275933
vt 0.300525 0.296985
vt 0.292297 0.275933
vt 0.287595 0.296985
vt 0.313088 0.021032
vt 0.316122 0.021032
vt 0.309748 0.233831
vt 0.301108 0.233831
vt 0.309236 0.254882
vt 0.296305 0.254882
vt 0.318694 0.021032
vt 0.310054 0.021032
vt 0.311467 0.233831
vt 0.298536 0.233831
vt 0.294586 0.254882
vt 0.290579 0.275933
vt 0.320412 0.021032
vt 0.307482 0.021032
vt 0.296818 0.233831
vt 0.287595 0.296985
vt 0.285876 0.296985
vt 0.305763 0.021032
vt 0.376790 0.275933
vt 0.379824 0.275933
vt 0.384526 0.296985
vt 0.381492 0.296985
vt 0.372782 0.254882
vt 0.375816 0.254882
vt 0.382858 0.275933
vt 0.387560 0.296985
vt 0.374218 0.275933
vt 0.378920 0.296985
vt 0.370551 0.233831
vt 0.373585 0.233831
vt 0.378850 0.254882
vt 0.370210 0.254882
vt 0.385430 0.275933
vt 0.390133 0.296985
vt 0.361605 0.021032
vt 0.364639 0.021032
vt 0.376619 0.233831
vt 0.367979 0.233831
vt 0.381422 0.254882
vt 0.368492 0.254882
vt 0.372499 0.275933
vt 0.387149 0.275933
vt 0.391851 0.296985
vt 0.367673 0.021032
vt 0.359033 0.021032
vt 0.379191 0.233831
vt 0.366261 0.233831
vt 0.383141 0.254882
vt 0.378920 0.296985
vt 0.377202 0.296985
vt 0.370246 0.021032
vt 0.357315 0.021032
vt 0.380910 0.233831
vt 0.371964 0.021032
vt 0.343711 0.326086
vt 0.360809 0.326086
vt 0.360809 0.530578
vt 0.343712 0.530578
vt 0.343711 0.311507
vt 0.360809 0.311507
vt 0.360809 0.545157
vt 0.343712 0.545157
vt 0.343711 0.300835
vt 0.360809 0.300835
vt 0.320696 0.315413
vt 0.337793 0.315413
vt 0.337793 0.519906
vt 0.320696 0.519906
vt 0.320696 0.300835
vt 0.337793 0.300835
vt 0.337793 0.534484
vt 0.320696 0.534484
vt 0.337793 0.545157
vt 0.320696 0.545157
vt 0.163078 0.605461
vt 0.180138 0.604322
vt 0.189935 0.744313
vt 0.172875 0.745453
vt 0.163160 0.597630
vt 0.180220 0.596490
vt 0.191121 0.752145
vt 0.174061 0.753285
vt 0.164057 0.591896
vt 0.181116 0.590757
vt 0.192861 0.757879
vt 0.175801 0.759018
vt 0.147363 0.745453
vt 0.130303 0.744313
vt 0.140100 0.604322
vt 0.157160 0.605461
vt 0.146176 0.753285
vt 0.129117 0.752145
vt 0.140017 0.596490
vt 0.157077 0.597630
vt 0.144436 0.759018
vt 0.127377 0.757879
vt 0.139121 0.590757
vt 0.156181 0.591896
vt 0.048568 0.275933
vt 0.053271 0.296985
vt 0.050237 0.296985
vt 0.045534 0.275933
vt 0.051602 0.275933
vt 0.056305 0.296985
vt 0.047665 0.296985
vt 0.042962 0.275933
vt 0.044561 0.254882
vt 0.041527 0.254882
vt 0.054175 0.275933
vt 0.058877 0.296985
vt 0.032817 0.586557
vt 0.029793 0.586309
vt 0.047595 0.254882
vt 0.045946 0.296985
vt 0.041244 0.275933
vt 0.038955 0.254882
vt 0.042330 0.233831
vt 0.039296 0.233831
vt 0.055893 0.275933
vt 0.060595 0.296985
vt 0.035380 0.586766
vt 0.050167 0.254882
vt 0.050237 0.296985
vt 0.026769 0.586062
vt 0.045364 0.233831
vt 0.037236 0.254882
vt 0.036724 0.233831
vt 0.033384 0.021032
vt 0.030350 0.021032
vt 0.051885 0.254882
vt 0.060595 0.296985
vt 0.037093 0.586907
vt 0.047936 0.233831
vt 0.047665 0.296985
vt 0.024206 0.585852
vt 0.036418 0.021032
vt 0.035005 0.233831
vt 0.027778 0.021032
vt 0.049654 0.233831
vt 0.038990 0.021032
vt 0.045946 0.296985
vt 0.026059 0.021032
vt 0.040708 0.021032
vt 0.082861 0.275933
vt 0.078158 0.296985
vt 0.075124 0.296985
vt 0.079827 0.275933
vt 0.085433 0.275933
vt 0.080730 0.296985
vt 0.101626 0.586062
vt 0.098602 0.586309
vt 0.072091 0.296985
vt 0.076793 0.275933
vt 0.086868 0.254882
vt 0.083835 0.254882
vt 0.087151 0.275933
vt 0.082449 0.296985
vt 0.104189 0.585852
vt 0.089441 0.254882
vt 0.072091 0.296985
vt 0.095578 0.586557
vt 0.069518 0.296985
vt 0.074221 0.275933
vt 0.080801 0.254882
vt 0.089099 0.233831
vt 0.086065 0.233831
vt 0.091159 0.254882
vt 0.105902 0.585712
vt 0.091672 0.233831
vt 0.069518 0.296985
vt 0.093015 0.586766
vt 0.067800 0.296985
vt 0.072502 0.275933
vt 0.078229 0.254882
vt 0.083032 0.233831
vt 0.098045 0.021032
vt 0.095011 0.021032
vt 0.093390 0.233831
vt 0.100617 0.021032
vt 0.067800 0.296985
vt 0.091302 0.586907
vt 0.076510 0.254882
vt 0.080459 0.233831
vt 0.091977 0.021032
vt 0.102336 0.021032
vt 0.078741 0.233831
vt 0.089405 0.021032
vt 0.087687 0.021032
vt 0.124946 0.275933
vt 0.127980 0.275933
vt 0.123278 0.296985
vt 0.120244 0.296985
vt 0.128954 0.254882
vt 0.131988 0.254882
vt 0.130552 0.275933
vt 0.125850 0.296985
vt 0.121912 0.275933
vt 0.117210 0.296985
vt 0.131185 0.233831
vt 0.134219 0.233831
vt 0.134560 0.254882
vt 0.125920 0.254882
vt 0.132271 0.275933
vt 0.127568 0.296985
vt 0.143721 0.586309
vt 0.140697 0.586557
vt 0.119340 0.275933
vt 0.114638 0.296985
vt 0.140130 0.021032
vt 0.143164 0.021032
vt 0.136791 0.233831
vt 0.128151 0.233831
vt 0.136278 0.254882
vt 0.123348 0.254882
vt 0.123278 0.296985
vt 0.146745 0.586062
vt 0.138134 0.586766
vt 0.117621 0.275933
vt 0.112919 0.296985
vt 0.145736 0.021032
vt 0.137096 0.021032
vt 0.138509 0.233831
vt 0.125579 0.233831
vt 0.121629 0.254882
vt 0.125850 0.296985
vt 0.149309 0.585852
vt 0.112919 0.296985
vt 0.147455 0.021032
vt 0.134524 0.021032
vt 0.123860 0.233831
vt 0.151022 0.585712
vt 0.132806 0.021032
vt 0.181080 0.275933
vt 0.184114 0.275933
vt 0.188816 0.296985
vt 0.185782 0.296985
vt 0.177072 0.254882
vt 0.180106 0.254882
vt 0.187148 0.275933
vt 0.191850 0.296985
vt 0.165339 0.586309
vt 0.162315 0.586062
vt 0.178508 0.275933
vt 0.183210 0.296985
vt 0.174841 0.233831
vt 0.177875 0.233831
vt 0.183140 0.254882
vt 0.174500 0.254882
vt 0.189720 0.275933
vt 0.194422 0.296985
vt 0.191850 0.296985
vt 0.168362 0.586557
vt 0.159751 0.585852
vt 0.176790 0.275933
vt 0.181492 0.296985
vt 0.165895 0.021032
vt 0.168929 0.021032
vt 0.180909 0.233831
vt 0.172269 0.233831
vt 0.185712 0.254882
vt 0.172782 0.254882
vt 0.191439 0.275933
vt 0.196141 0.296985
vt 0.194422 0.296985
vt 0.170926 0.586766
vt 0.181492 0.296985
vt 0.171964 0.021032
vt 0.163324 0.021032
vt 0.183481 0.233831
vt 0.170551 0.233831
vt 0.187431 0.254882
vt 0.172639 0.586907
vt 0.174536 0.021032
vt 0.161605 0.021032
vt 0.185200 0.233831
vt 0.176254 0.021032
vt 0.571581 0.275933
vt 0.576283 0.296985
vt 0.573249 0.296985
vt 0.568547 0.275933
vt 0.574615 0.275933
vt 0.579317 0.296985
vt 0.570677 0.296985
vt 0.565975 0.275933
vt 0.567573 0.254882
vt 0.564539 0.254882
vt 0.577187 0.275933
vt 0.581889 0.296985
vt 0.570607 0.254882
vt 0.568959 0.296985
vt 0.564256 0.275933
vt 0.561967 0.254882
vt 0.565342 0.233831
vt 0.562308 0.233831
vt 0.573179 0.254882
vt 0.568376 0.233831
vt 0.560248 0.254882
vt 0.559736 0.233831
vt 0.556396 0.021032
vt 0.553362 0.021032
vt 0.574898 0.254882
vt 0.578905 0.275933
vt 0.570948 0.233831
vt 0.559430 0.021032
vt 0.558017 0.233831
vt 0.550790 0.021032
vt 0.583608 0.296985
vt 0.581889 0.296985
vt 0.572667 0.233831
vt 0.562002 0.021032
vt 0.549072 0.021032
vt 0.563721 0.021032
vt 0.635571 0.275933
vt 0.630869 0.296985
vt 0.627835 0.296985
vt 0.632537 0.275933
vt 0.638143 0.275933
vt 0.633441 0.296985
vt 0.624801 0.296985
vt 0.629503 0.275933
vt 0.639579 0.254882
vt 0.636545 0.254882
vt 0.642151 0.254882
vt 0.622229 0.296985
vt 0.626931 0.275933
vt 0.633511 0.254882
vt 0.641810 0.233831
vt 0.638776 0.233831
vt 0.643870 0.254882
vt 0.639862 0.275933
vt 0.644382 0.233831
vt 0.620510 0.296985
vt 0.625213 0.275933
vt 0.630939 0.254882
vt 0.635742 0.233831
vt 0.650756 0.021032
vt 0.647722 0.021032
vt 0.635159 0.296985
vt 0.633441 0.296985
vt 0.646101 0.233831
vt 0.653328 0.021032
vt 0.629221 0.254882
vt 0.633170 0.233831
vt 0.644688 0.021032
vt 0.655047 0.021032
vt 0.631451 0.233831
vt 0.642116 0.021032
vt 0.640397 0.021032
vt 0.716259 0.701525
vt 0.701239 0.697539
vt 0.689973 0.686649
vt 0.685479 0.671774
vt 0.678451 0.463113
vt 0.681934 0.448237
vt 0.692460 0.437348
vt 0.707209 0.433362
vt 0.917088 0.433362
vt 0.931837 0.437348
vt 0.942363 0.448237
vt 0.945845 0.463113
vt 0.938817 0.671774
vt 0.934324 0.686649
vt 0.923058 0.697539
vt 0.908038 0.701525
vt 0.072422 0.598685
vt 0.073025 0.595651
vt 0.074744 0.593079
vt 0.077316 0.591361
vt 0.080350 0.590757
vt 0.083384 0.591361
vt 0.085956 0.593079
vt 0.087674 0.595651
vt 0.088278 0.598685
vt 0.087674 0.601719
vt 0.085956 0.604291
vt 0.083384 0.606009
vt 0.080350 0.606613
vt 0.077316 0.606009
vt 0.074744 0.604291
vt 0.073025 0.601719
vt 0.242334 0.375458
vt 0.225275 0.375458
vt 0.234159 0.322827
vt 0.251218 0.322828
vt 0.238854 0.428088
vt 0.221795 0.428088
vt 0.235663 0.314854
vt 0.252723 0.314854
vt 0.242334 0.480719
vt 0.225275 0.480719
vt 0.251218 0.533350
vt 0.234159 0.533350
vt 0.252723 0.541323
vt 0.235663 0.541323
vt 0.293675 0.492333
vt 0.310735 0.492333
vt 0.300583 0.549320
vt 0.283524 0.549320
vt 0.297718 0.435345
vt 0.314778 0.435345
vt 0.298717 0.557081
vt 0.281657 0.557081
vt 0.293675 0.378358
vt 0.310735 0.378358
vt 0.283524 0.321370
vt 0.300583 0.321370
vt 0.281657 0.313610
vt 0.298717 0.313610
vt 0.737057 0.973617
vt 0.722308 0.969631
vt 0.711782 0.958741
vt 0.708299 0.943865
vt 0.715327 0.735205
vt 0.719821 0.720329
vt 0.731087 0.709439
vt 0.746106 0.705454
vt 0.937886 0.705454
vt 0.952905 0.709439
vt 0.964171 0.720329
vt 0.968665 0.735205
vt 0.975693 0.943865
vt 0.972210 0.958741
vt 0.961684 0.969631
vt 0.946935 0.973617
vt 0.058575 0.606613
vt 0.055541 0.606009
vt 0.052969 0.604291
vt 0.051251 0.601719
vt 0.050647 0.598685
vt 0.051251 0.595651
vt 0.052969 0.593079
vt 0.055541 0.591360
vt 0.058575 0.590757
vt 0.061609 0.591360
vt 0.064181 0.593079
vt 0.065900 0.595651
vt 0.066503 0.598685
vt 0.065900 0.601719
vt 0.064181 0.604291
vt 0.061609 0.606009
vt 0.039851 0.606010
vt 0.036827 0.606613
vt 0.033804 0.606010
vt 0.031240 0.604291
vt 0.029527 0.601719
vt 0.028926 0.598685
vt 0.029527 0.595651
vt 0.031240 0.593079
vt 0.033804 0.591360
vt 0.036827 0.590757
vt 0.039851 0.591360
vt 0.042415 0.593079
vt 0.044128 0.595651
vt 0.044729 0.598685
vt 0.044128 0.601719
vt 0.042415 0.604291
vt 0.030421 0.610463
vt 0.033455 0.611067
vt 0.036027 0.612785
vt 0.037745 0.615357
vt 0.038349 0.618391
vt 0.037745 0.621425
vt 0.036027 0.623998
vt 0.033455 0.625716
vt 0.030421 0.626320
vt 0.027387 0.625716
vt 0.024815 0.623998
vt 0.023096 0.621425
vt 0.022493 0.618391
vt 0.023096 0.615357
vt 0.024815 0.612785
vt 0.027387 0.611067
vt 0.056166 0.611067
vt 0.058729 0.612785
vt 0.060442 0.615357
vt 0.061044 0.618391
vt 0.060442 0.621425
vt 0.058729 0.623998
vt 0.056166 0.625716
vt 0.053142 0.626320
vt 0.050118 0.625716
vt 0.047554 0.623998
vt 0.045842 0.621425
vt 0.045240 0.618391
vt 0.045842 0.615357
vt 0.047554 0.612785
vt 0.050118 0.611067
vt 0.053142 0.610463
vt 0.075728 0.610463
vt 0.078762 0.611067
vt 0.081334 0.612785
vt 0.083053 0.615357
vt 0.083656 0.618391
vt 0.083053 0.621425
vt 0.081334 0.623998
vt 0.078762 0.625716
vt 0.075728 0.626320
vt 0.072694 0.625716
vt 0.070122 0.623998
vt 0.068403 0.621425
vt 0.067800 0.618391
vt 0.068403 0.615357
vt 0.070122 0.612785
vt 0.072694 0.611067
vt 0.341567 0.275933
vt 0.344602 0.275933
vt 0.348259 0.296985
vt 0.345225 0.296985
vt 0.338741 0.254882
vt 0.341777 0.254882
vt 0.347637 0.275933
vt 0.351294 0.296985
vt 0.336885 0.233831
vt 0.339915 0.233831
vt 0.344814 0.254882
vt 0.327235 0.021032
vt 0.330269 0.021032
vt 0.342952 0.233831
vt 0.333303 0.021032
vt 0.419099 0.042083
vt 0.416042 0.042083
vt 0.419701 0.021032
vt 0.422736 0.021032
vt 0.416330 0.063135
vt 0.413252 0.063135
vt 0.413031 0.042083
vt 0.416667 0.021032
vt 0.414477 0.084186
vt 0.411432 0.084186
vt 0.410265 0.063135
vt 0.404742 0.296985
vt 0.401708 0.296985
vt 0.408409 0.084186
vt 0.398674 0.296985
vt 0.702260 0.796704
vt 0.527450 0.792258
vt 0.527450 0.734109
vt 0.702260 0.743000
vt 0.702260 0.850407
vt 0.527450 0.850407
vt 0.529591 0.726190
vt 0.535441 0.720612
vt 0.543433 0.718867
vt 0.686278 0.726133
vt 0.694269 0.728690
vt 0.700119 0.734864
vt 0.702260 0.904110
vt 0.527450 0.908556
vt 0.702260 0.957813
vt 0.527450 0.966705
vt 0.700119 0.965949
vt 0.694269 0.972123
vt 0.686278 0.974681
vt 0.543433 0.981946
vt 0.535441 0.980202
vt 0.529591 0.974623
vt 0.258641 0.328065
vt 0.275739 0.328065
vt 0.275739 0.533751
vt 0.258641 0.533751
vt 0.258641 0.313610
vt 0.275739 0.313610
vt 0.275739 0.548205
vt 0.258641 0.548205
vt 0.215877 0.793425
vt 0.198779 0.793425
vt 0.198779 0.605476
vt 0.215877 0.605476
vt 0.215877 0.808145
vt 0.198779 0.808145
vt 0.198779 0.590757
vt 0.215877 0.590757
vt 0.443085 0.042083
vt 0.446744 0.021032
vt 0.449778 0.021032
vt 0.446120 0.042083
vt 0.452812 0.021032
vt 0.449155 0.042083
vt 0.440260 0.063135
vt 0.443295 0.063135
vt 0.446332 0.063135
vt 0.438403 0.084186
vt 0.441434 0.084186
vt 0.444470 0.084186
vt 0.428754 0.296984
vt 0.431788 0.296984
vt 0.434822 0.296984
vt 0.479258 0.275933
vt 0.482895 0.296985
vt 0.479860 0.296985
vt 0.476201 0.275933
vt 0.476826 0.296985
vt 0.473190 0.275933
vt 0.476489 0.254882
vt 0.473411 0.254882
vt 0.470424 0.254882
vt 0.474636 0.233831
vt 0.471591 0.233831
vt 0.468568 0.233831
vt 0.464901 0.021032
vt 0.461867 0.021032
vt 0.458833 0.021032
vt 0.211373 0.021032
vt 0.214408 0.021032
vt 0.206191 0.311004
vt 0.203157 0.310954
vt 0.217442 0.021032
vt 0.209225 0.310954
vt 0.255764 0.309760
vt 0.244517 0.021032
vt 0.247551 0.021081
vt 0.258798 0.309760
vt 0.521411 0.792258
vt 0.346600 0.796704
vt 0.346600 0.743000
vt 0.521411 0.734109
vt 0.521411 0.850407
vt 0.346600 0.850407
vt 0.348742 0.734864
vt 0.354592 0.728690
vt 0.362583 0.726133
vt 0.505428 0.718867
vt 0.513420 0.720612
vt 0.519270 0.726190
vt 0.521411 0.908556
vt 0.346600 0.904110
vt 0.521411 0.966705
vt 0.346600 0.957813
vt 0.519270 0.974623
vt 0.513420 0.980202
vt 0.505428 0.981946
vt 0.362583 0.974681
vt 0.354592 0.972123
vt 0.348742 0.965949
vt 0.498640 0.042083
vt 0.495604 0.042083
vt 0.491947 0.021032
vt 0.494981 0.021032
vt 0.501465 0.063135
vt 0.498430 0.063135
vt 0.492570 0.042083
vt 0.488913 0.021032
vt 0.503322 0.084186
vt 0.500291 0.084186
vt 0.495393 0.063135
vt 0.512971 0.296985
vt 0.509937 0.296985
vt 0.497254 0.084186
vt 0.506903 0.296985
vt 0.522629 0.275933
vt 0.525686 0.275933
vt 0.522026 0.296985
vt 0.518992 0.296985
vt 0.525398 0.254882
vt 0.528476 0.254882
vt 0.528696 0.275933
vt 0.525061 0.296985
vt 0.527250 0.233831
vt 0.530295 0.233831
vt 0.531463 0.254882
vt 0.536986 0.021032
vt 0.540020 0.021032
vt 0.533319 0.233831
vt 0.543054 0.021032
vt 0.238122 0.310954
vt 0.235088 0.311004
vt 0.226872 0.021032
vt 0.223837 0.021032
vt 0.268231 0.309760
vt 0.276444 0.021082
vt 0.271265 0.309760
vt 0.273410 0.021032
vt 0.600158 0.275933
vt 0.596499 0.296985
vt 0.593465 0.296985
vt 0.597123 0.275933
vt 0.590431 0.296985
vt 0.594088 0.275933
vt 0.602984 0.254882
vt 0.599948 0.254882
vt 0.596911 0.254882
vt 0.604840 0.233831
vt 0.601809 0.233831
vt 0.598773 0.233831
vt 0.614489 0.021032
vt 0.611456 0.021032
vt 0.608422 0.021032
vt 0.665506 0.042083
vt 0.661870 0.021032
vt 0.664904 0.021032
vt 0.668563 0.042083
vt 0.667938 0.021032
vt 0.671574 0.042083
vt 0.668275 0.063135
vt 0.671353 0.063135
vt 0.674340 0.063135
vt 0.670128 0.084186
vt 0.673173 0.084186
vt 0.676196 0.084186
vt 0.679863 0.296985
vt 0.682897 0.296985
vt 0.685931 0.296985
vt 0.104868 0.590757
vt 0.104868 0.607854
vt 0.094196 0.607854
vt 0.094196 0.590757
vt 0.110786 0.607854
vt 0.110786 0.590757
vt 0.121458 0.590757
vt 0.121458 0.607854
vn 0.000000 1.000000 -0.000000
vn 0.000000 1.000000 -0.000000
vn 0.000000 1.000000 -0.000000
vn 0.000000 1.000000 -0.000000
vn 0.000000 1.000000 -0.000000
vn 0.000000 1.000000 -0.000000
vn 0.000000 1.000000 -0.000000
vn 0.000000 1.000000 -0.000000
vn 0.000000 1.000000 -0.000000
vn 0.000000 1.000000 -0.000000
vn 0.000000 1.000000 -0.000000
vn 0.000000 1.000000 -0.000000
vn 0.000000 1.000000 -0.000000
vn 0.000000 1.000000 -0.000000
vn 0.000000 1.000000 -0.000000
vn 0.000000 1.000000 -0.000000
vn -0.988748 0.149553 -0.003367
vn -0.904834 0.213707 0.368245
vn -0.905847 0.234084 0.353052
vn -0.986396 0.161795 -0.029062
vn -0.904834 0.213707 0.368245
vn -0.689068 0.245759 0.681753
vn -0.686175 0.269307 0.675750
vn -0.905847 0.234084 0.353052
vn -0.689068 0.245759 0.681753
vn -0.373457 0.241977 0.895532
vn -0.361673 0.262540 0.894575
vn -0.686175 0.269307 0.675750
vn -0.373457 0.241977 0.895532
vn -0.001055 0.202638 0.979253
vn 0.021210 0.214437 0.976507
vn -0.361673 0.262540 0.894575
vn -0.001055 0.202638 0.979253
vn 0.376024 0.132421 0.917099
vn 0.405874 0.131679 0.904393
vn 0.021210 0.214437 0.976507
vn 0.376024 0.132421 0.917099
vn 0.701498 0.040447 0.711523
vn 0.551534 0.089734 0.829312
vn 0.405874 0.131679 0.904393
vn 0.701498 0.040447 0.711523
vn 0.918989 -0.059044 0.389837
vn 0.931670 -0.080500 0.354275
vn 0.829157 -0.017782 0.558732
vn 0.918989 -0.059044 0.389837
vn 0.988834 -0.148882 0.006445
vn 0.984542 -0.173470 -0.024183
vn 0.931670 -0.080500 0.354275
vn 0.988834 -0.148882 0.006445
vn 0.903123 -0.214286 -0.372088
vn 0.890800 -0.238426 -0.386817
vn 0.984542 -0.173470 -0.024183
vn 0.903123 -0.214286 -0.372088
vn 0.683175 -0.246422 -0.687422
vn 0.676451 -0.269011 -0.685600
vn 0.890800 -0.238426 -0.386817
vn 0.683175 -0.246422 -0.687422
vn 0.367002 -0.242078 -0.898169
vn 0.375041 -0.263167 -0.888869
vn 0.676451 -0.269011 -0.685600
vn 0.367002 -0.242078 -0.898169
vn -0.004840 -0.201879 -0.979399
vn 0.018864 -0.221077 -0.975074
vn 0.375041 -0.263167 -0.888869
vn -0.004840 -0.201879 -0.979399
vn -0.385752 -0.129839 -0.913421
vn -0.353668 -0.145456 -0.923992
vn 0.018864 -0.221077 -0.975074
vn -0.385752 -0.129839 -0.913421
vn -0.711245 -0.036739 -0.701983
vn -0.555825 -0.089095 -0.826511
vn -0.353668 -0.145456 -0.923992
vn -0.711245 -0.036739 -0.701983
vn -0.922824 0.061685 -0.380252
vn -0.909155 0.063099 -0.411650
vn -0.832428 0.018363 -0.553828
vn -0.922824 0.061685 -0.380252
vn -0.988748 0.149553 -0.003367
vn -0.986396 0.161795 -0.029062
vn -0.909155 0.063099 -0.411650
vn 0.000000 -1.000000 0.000000
vn 0.000000 -1.000000 0.000000
vn 0.000000 -1.000000 0.000000
vn -0.288218 -0.673420 -0.680761
vn -0.004432 -0.681014 -0.732257
vn 0.275771 -0.686278 -0.673033
vn 0.512727 -0.688446 -0.512985
vn 0.672613 -0.687077 -0.274803
vn 0.731028 -0.682316 0.006450
vn 0.678637 -0.675029 0.289461
vn 0.000000 -1.000000 0.000000
vn 0.000000 -1.000000 0.000000
vn 0.000000 -1.000000 0.000000
vn 0.000000 -1.000000 0.000000
vn 0.000000 -1.000000 0.000000
vn 0.000000 -1.000000 0.000000
vn -0.925369 0.026419 -0.378147
vn -0.998955 0.045669 0.001673
vn -0.997739 0.067176 -0.002080
vn -0.923887 0.034589 -0.381099
vn -0.712402 0.003102 -0.701765
vn -0.925369 0.026419 -0.378147
vn -0.923887 0.034589 -0.381099
vn -0.710686 -0.003668 -0.703500
vn -0.288218 -0.673420 -0.680761
vn -0.712402 0.003102 -0.701765
vn -0.710686 -0.003668 -0.703500
vn -0.387533 -0.041875 -0.920904
vn -0.004432 -0.681014 -0.732257
vn -0.288218 -0.673420 -0.680761
vn -0.387533 -0.041875 -0.920904
vn -0.003737 -0.073591 -0.997281
vn 0.275771 -0.686278 -0.673033
vn -0.004432 -0.681014 -0.732257
vn -0.003737 -0.073591 -0.997281
vn 0.378687 -0.093765 -0.920763
vn 0.512727 -0.688446 -0.512985
vn 0.275771 -0.686278 -0.673033
vn 0.378687 -0.093765 -0.920763
vn 0.703877 -0.099745 -0.703284
vn 0.672613 -0.687077 -0.274803
vn 0.512727 -0.688446 -0.512985
vn 0.703877 -0.099745 -0.703284
vn 0.922272 -0.090172 -0.375877
vn 0.731028 -0.682316 0.006450
vn 0.672613 -0.687077 -0.274803
vn 0.922272 -0.090172 -0.375877
vn 0.997749 -0.066351 0.009709
vn 0.678637 -0.675029 0.289461
vn 0.731028 -0.682316 0.006450
vn 0.997749 -0.066351 0.009709
vn 0.919400 -0.032374 0.391990
vn 0.699920 -0.001784 0.714219
vn 0.678637 -0.675029 0.289461
vn 0.919400 -0.032374 0.391990
vn 0.701022 0.006230 0.713113
vn 0.375145 0.021936 0.926706
vn 0.699920 -0.001784 0.714219
vn 0.701022 0.006230 0.713113
vn 0.377431 0.043417 0.925020
vn -0.005670 0.042259 0.999091
vn 0.375145 0.021936 0.926706
vn 0.377431 0.043417 0.925020
vn -0.002516 0.073777 0.997272
vn -0.385852 0.056221 0.920846
vn -0.005670 0.042259 0.999091
vn -0.002516 0.073777 0.997272
vn -0.383150 0.093099 0.918982
vn -0.707645 0.061751 0.703864
vn -0.385852 0.056221 0.920846
vn -0.383150 0.093099 0.918982
vn -0.705763 0.098606 0.701553
vn -0.922597 0.058053 0.381371
vn -0.707645 0.061751 0.703864
vn -0.705763 0.098606 0.701553
vn -0.921393 0.089553 0.378173
vn -0.998955 0.045669 0.001673
vn -0.922597 0.058053 0.381371
vn -0.921393 0.089553 0.378173
vn -0.997739 0.067176 -0.002080
vn -0.923887 0.034589 -0.381099
vn -0.997739 0.067176 -0.002080
vn -0.993858 0.110626 -0.002885
vn -0.923923 0.047315 -0.379642
vn -0.923923 0.047315 -0.379642
vn -0.993858 0.110626 -0.002885
vn -0.988748 0.149553 -0.003367
vn -0.922824 0.061685 -0.380252
vn -0.710686 -0.003668 -0.703500
vn -0.923887 0.034589 -0.381099
vn -0.923923 0.047315 -0.379642
vn -0.712508 -0.024187 -0.701247
vn -0.712508 -0.024187 -0.701247
vn -0.923923 0.047315 -0.379642
vn -0.922824 0.061685 -0.380252
vn -0.711245 -0.036739 -0.701983
vn -0.387533 -0.041875 -0.920904
vn -0.710686 -0.003668 -0.703500
vn -0.712508 -0.024187 -0.701247
vn -0.388544 -0.092661 -0.916759
vn -0.388544 -0.092661 -0.916759
vn -0.712508 -0.024187 -0.701247
vn -0.711245 -0.036739 -0.701983
vn -0.385752 -0.129839 -0.913421
vn -0.003737 -0.073591 -0.997281
vn -0.387533 -0.041875 -0.920904
vn -0.388544 -0.092661 -0.916759
vn -0.005211 -0.146225 -0.989238
vn -0.005211 -0.146225 -0.989238
vn -0.388544 -0.092661 -0.916759
vn -0.385752 -0.129839 -0.913421
vn -0.004840 -0.201879 -0.979399
vn 0.378687 -0.093765 -0.920763
vn -0.003737 -0.073591 -0.997281
vn -0.005211 -0.146225 -0.989238
vn 0.373191 -0.176616 -0.910788
vn 0.373191 -0.176616 -0.910788
vn -0.005211 -0.146225 -0.989238
vn -0.004840 -0.201879 -0.979399
vn 0.367002 -0.242078 -0.898169
vn 0.703877 -0.099745 -0.703284
vn 0.378687 -0.093765 -0.920763
vn 0.373191 -0.176616 -0.910788
vn 0.695143 -0.180487 -0.695845
vn 0.695143 -0.180487 -0.695845
vn 0.373191 -0.176616 -0.910788
vn 0.367002 -0.242078 -0.898169
vn 0.683175 -0.246422 -0.687422
vn 0.922272 -0.090172 -0.375877
vn 0.703877 -0.099745 -0.703284
vn 0.695143 -0.180487 -0.695845
vn 0.914867 -0.156772 -0.372076
vn 0.914867 -0.156772 -0.372076
vn 0.695143 -0.180487 -0.695845
vn 0.683175 -0.246422 -0.687422
vn 0.903123 -0.214286 -0.372088
vn 0.997749 -0.066351 0.009709
vn 0.922272 -0.090172 -0.375877
vn 0.914867 -0.156772 -0.372076
vn 0.994044 -0.108298 0.012188
vn 0.994044 -0.108298 0.012188
vn 0.914867 -0.156772 -0.372076
vn 0.903123 -0.214286 -0.372088
vn 0.988834 -0.148882 0.006445
vn 0.919400 -0.032374 0.391990
vn 0.997749 -0.066351 0.009709
vn 0.994044 -0.108298 0.012188
vn 0.917765 -0.042734 0.394817
vn 0.917765 -0.042734 0.394817
vn 0.994044 -0.108298 0.012188
vn 0.988834 -0.148882 0.006445
vn 0.918989 -0.059044 0.389837
vn 0.701022 0.006230 0.713113
vn 0.919400 -0.032374 0.391990
vn 0.917765 -0.042734 0.394817
vn 0.699064 0.028969 0.714472
vn 0.699064 0.028969 0.714472
vn 0.917765 -0.042734 0.394817
vn 0.918989 -0.059044 0.389837
vn 0.701498 0.040447 0.711523
vn 0.377431 0.043417 0.925020
vn 0.701022 0.006230 0.713113
vn 0.699064 0.028969 0.714472
vn 0.375351 0.095093 0.921992
vn 0.375351 0.095093 0.921992
vn 0.699064 0.028969 0.714472
vn 0.701498 0.040447 0.711523
vn 0.376024 0.132421 0.917099
vn -0.002516 0.073777 0.997272
vn 0.377431 0.043417 0.925020
vn 0.375351 0.095093 0.921992
vn -0.002036 0.146095 0.989268
vn -0.002036 0.146095 0.989268
vn 0.375351 0.095093 0.921992
vn 0.376024 0.132421 0.917099
vn -0.001055 0.202638 0.979253
vn -0.383150 0.093099 0.918982
vn -0.002516 0.073777 0.997272
vn -0.002036 0.146095 0.989268
vn -0.378934 0.175402 0.908649
vn -0.378934 0.175402 0.908649
vn -0.002036 0.146095 0.989268
vn -0.001055 0.202638 0.979253
vn -0.373457 0.241977 0.895532
vn -0.705763 0.098606 0.701553
vn -0.383150 0.093099 0.918982
vn -0.378934 0.175402 0.908649
vn -0.698663 0.179088 0.692674
vn -0.698663 0.179088 0.692674
vn -0.378934 0.175402 0.908649
vn -0.373457 0.241977 0.895532
vn -0.689068 0.245759 0.681753
vn -0.921393 0.089553 0.378173
vn -0.705763 0.098606 0.701553
vn -0.698663 0.179088 0.692674
vn -0.914423 0.156603 0.373238
vn -0.914423 0.156603 0.373238
vn -0.698663 0.179088 0.692674
vn -0.689068 0.245759 0.681753
vn -0.904834 0.213707 0.368245
vn -0.997739 0.067176 -0.002080
vn -0.921393 0.089553 0.378173
vn -0.914423 0.156603 0.373238
vn -0.993858 0.110626 -0.002885
vn -0.993858 0.110626 -0.002885
vn -0.914423 0.156603 0.373238
vn -0.904834 0.213707 0.368245
vn -0.988748 0.149553 -0.003367
vn -0.194099 -0.079623 -0.977745
vn -0.223499 -0.079662 -0.971443
vn -0.223499 -0.079662 -0.971443
vn -0.223499 -0.079662 -0.971443
vn -0.223499 -0.079662 -0.971443
vn -0.223499 -0.079662 -0.971443
vn -0.223499 -0.079662 -0.971443
vn -0.195388 -0.079626 -0.977488
vn -0.120064 -0.079937 -0.989543
vn 0.000000 -0.080315 -0.996769
vn 0.120064 -0.079937 -0.989543
vn 0.195386 -0.079626 -0.977489
vn 0.223495 -0.079662 -0.971444
vn 0.223495 -0.079662 -0.971444
vn 0.223495 -0.079662 -0.971444
vn 0.223495 -0.079662 -0.971444
vn 0.223495 -0.079662 -0.971444
vn 0.223495 -0.079662 -0.971444
vn 0.194097 -0.079623 -0.977746
vn 0.119032 -0.079943 -0.989667
vn 0.000000 -0.080315 -0.996769
vn -0.119032 -0.079943 -0.989667
vn 0.131594 0.000000 0.991304
vn 0.131594 0.000000 0.991304
vn -0.131594 0.000000 0.991304
vn -0.131594 0.000000 0.991304
vn 0.260900 0.000000 0.965366
vn 0.260900 0.000000 0.965366
vn 0.131594 0.000000 0.991304
vn 0.131594 0.000000 0.991304
vn -0.260900 0.000000 0.965366
vn -0.260900 0.000000 0.965366
vn -0.131594 0.000000 0.991304
vn -0.131594 0.000000 0.991304
vn -0.719012 0.000000 0.694998
vn -0.719012 0.000000 0.694998
vn -0.719012 0.000000 0.694998
vn -0.719012 0.000000 0.694998
vn 0.986661 -0.000000 -0.162790
vn 0.986661 -0.000000 -0.162790
vn 0.995186 0.000000 0.098001
vn 0.995186 0.000000 0.098001
vn -0.129336 -0.000000 -0.991601
vn -0.129336 -0.000000 -0.991601
vn 0.129336 -0.000000 -0.991601
vn 0.129336 -0.000000 -0.991601
vn -0.995186 0.000000 0.098001
vn -0.995186 0.000000 0.098001
vn -0.986661 -0.000000 -0.162790
vn -0.986661 -0.000000 -0.162790
vn 0.995186 0.000000 0.098001
vn 0.995186 0.000000 0.098001
vn 0.973670 0.000000 0.227964
vn 0.973670 0.000000 0.227964
vn -0.995186 0.000000 0.098001
vn -0.995186 0.000000 0.098001
vn -0.973670 0.000000 0.227964
vn -0.973670 0.000000 0.227964
vn -0.129336 -0.000000 -0.991601
vn -0.129336 -0.000000 -0.991601
vn -0.491586 -0.000000 -0.870829
vn -0.491586 -0.000000 -0.870829
vn -0.491586 -0.000000 -0.870829
vn -0.491586 -0.000000 -0.870829
vn -0.853636 -0.000000 -0.520870
vn -0.853636 -0.000000 -0.520870
vn -0.853636 -0.000000 -0.520870
vn -0.853636 -0.000000 -0.520870
vn -0.986661 -0.000000 -0.162790
vn -0.986661 -0.000000 -0.162790
vn 0.986661 -0.000000 -0.162790
vn 0.986661 -0.000000 -0.162790
vn 0.853636 -0.000000 -0.520870
vn 0.853636 -0.000000 -0.520870
vn 0.853636 -0.000000 -0.520870
vn 0.853636 -0.000000 -0.520870
vn 0.491586 -0.000000 -0.870829
vn 0.491586 -0.000000 -0.870829
vn 0.491586 -0.000000 -0.870829
vn 0.491586 -0.000000 -0.870829
vn 0.129336 -0.000000 -0.991601
vn 0.129336 -0.000000 -0.991601
vn 0.984265 -0.176307 0.011776
vn 0.983213 -0.182058 0.012160
vn 0.996407 0.084507 -0.005644
vn 0.996990 0.077363 -0.005167
vn -0.008073 -0.997745 0.066638
vn -0.007565 -0.997749 0.066639
vn 0.101627 -0.992611 0.066296
vn 0.131273 -0.989143 0.066064
vn -0.996990 0.077362 -0.005167
vn -0.996407 0.084507 -0.005644
vn -0.983213 -0.182057 0.012160
vn -0.984265 -0.176307 0.011776
vn 0.996990 0.077363 -0.005167
vn 0.996407 0.084507 -0.005644
vn 0.875470 0.482198 -0.032206
vn 0.895853 0.443363 -0.029612
vn 0.895853 0.443363 -0.029612
vn 0.875470 0.482198 -0.032206
vn 0.492894 0.868155 -0.057984
vn 0.549652 0.833537 -0.055672
vn 0.160741 0.984803 -0.065773
vn 0.549652 0.833537 -0.055672
vn 0.492894 0.868155 -0.057984
vn 0.128130 0.989553 -0.066089
vn 0.008008 0.997745 -0.066635
vn -0.000000 0.997777 -0.066637
vn -0.008008 0.997745 -0.066635
vn -0.128133 0.989552 -0.066089
vn -0.492897 0.868153 -0.057984
vn -0.549655 0.833535 -0.055672
vn -0.160746 0.984802 -0.065773
vn -0.008569 0.997741 -0.066635
vn -0.000000 0.997777 -0.066637
vn 0.008569 0.997741 -0.066634
vn -0.996407 0.084507 -0.005644
vn -0.996990 0.077362 -0.005167
vn -0.895853 0.443363 -0.029613
vn -0.875470 0.482198 -0.032206
vn -0.875470 0.482198 -0.032206
vn -0.895853 0.443363 -0.029613
vn -0.549655 0.833535 -0.055672
vn -0.492897 0.868153 -0.057984
vn -0.101627 -0.992611 0.066296
vn -0.131273 -0.989143 0.066064
vn -0.503660 -0.861981 0.057572
vn -0.452974 -0.889542 0.059413
vn -0.452974 -0.889542 0.059413
vn -0.503660 -0.861981 0.057572
vn -0.854908 -0.517627 0.034573
vn -0.834885 -0.549201 0.036681
vn -0.834885 -0.549201 0.036681
vn -0.854908 -0.517627 0.034573
vn -0.984265 -0.176307 0.011776
vn -0.983213 -0.182057 0.012160
vn 0.983213 -0.182058 0.012160
vn 0.984265 -0.176307 0.011776
vn 0.854907 -0.517629 0.034573
vn 0.834885 -0.549201 0.036681
vn 0.834885 -0.549201 0.036681
vn 0.854907 -0.517629 0.034573
vn 0.503659 -0.861982 0.057572
vn 0.452974 -0.889542 0.059413
vn 0.452974 -0.889542 0.059413
vn 0.503659 -0.861982 0.057572
vn 0.131273 -0.989143 0.066064
vn 0.101627 -0.992611 0.066296
vn -0.131273 -0.989143 0.066064
vn -0.101627 -0.992611 0.066296
vn 0.007565 -0.997749 0.066639
vn 0.008073 -0.997745 0.066638
vn 0.008073 -0.997745 0.066638
vn 0.007565 -0.997749 0.066639
vn -0.000000 -0.997777 0.066641
vn -0.000000 -0.997777 0.066641
vn -0.000000 -0.997777 0.066641
vn -0.000000 -0.997777 0.066641
vn -0.007565 -0.997749 0.066639
vn -0.008073 -0.997745 0.066638
vn 0.719012 0.000000 0.694998
vn 0.719012 0.000000 0.694998
vn 0.719012 0.000000 0.694998
vn 0.719012 0.000000 0.694998
vn 0.000000 -1.000000 0.000000
vn 0.000000 -1.000000 0.000000
vn 0.000000 -1.000000 0.000000
vn 0.000000 -1.000000 0.000000
vn 0.000000 -1.000000 0.000000
vn 0.000000 -1.000000 0.000000
vn 0.000000 -1.000000 0.000000
vn 0.000000 -1.000000 0.000000
vn 0.000000 -1.000000 0.000000
vn 0.000000 -1.000000 0.000000
vn 0.000000 -1.000000 0.000000
vn 0.000000 -1.000000 0.000000
vn 0.000000 -1.000000 0.000000
vn 0.000000 -1.000000 0.000000
vn 0.000000 -1.000000 0.000000
vn 0.000000 -1.000000 0.000000
vn -0.988748 0.149555 0.003372
vn -0.997458 0.068296 0.020346
vn -0.905845 0.234092 -0.353053
vn -0.904833 0.213714 -0.368245
vn -0.904833 0.213714 -0.368245
vn -0.905845 0.234092 -0.353053
vn -0.686170 0.269312 -0.675753
vn -0.689069 0.245760 -0.681752
vn -0.689069 0.245760 -0.681752
vn -0.686170 0.269312 -0.675753
vn -0.361684 0.262541 -0.894571
vn -0.373466 0.241977 -0.895528
vn -0.373466 0.241977 -0.895528
vn -0.361684 0.262541 -0.894571
vn 0.021212 0.214450 -0.976505
vn -0.001055 0.202641 -0.979253
vn -0.001055 0.202641 -0.979253
vn 0.021212 0.214450 -0.976505
vn 0.405881 0.131694 -0.904388
vn 0.376033 0.132428 -0.917095
vn 0.376033 0.132428 -0.917095
vn 0.405881 0.131694 -0.904388
vn 0.721315 -0.004578 -0.692592
vn 0.701497 0.040452 -0.711523
vn 0.701497 0.040452 -0.711523
vn 0.721315 -0.004578 -0.692592
vn 0.930395 -0.042056 -0.364138
vn 0.918989 -0.059044 -0.389837
vn 0.918989 -0.059044 -0.389837
vn 0.930395 -0.042056 -0.364138
vn 0.997292 -0.071663 0.016501
vn 0.988834 -0.148880 -0.006439
vn 0.988834 -0.148880 -0.006439
vn 0.997292 -0.071663 0.016501
vn 0.890805 -0.238414 0.386814
vn 0.903124 -0.214283 0.372088
vn 0.903124 -0.214283 0.372088
vn 0.890805 -0.238414 0.386814
vn 0.676459 -0.269001 0.685596
vn 0.683180 -0.246421 0.687416
vn 0.683180 -0.246421 0.687416
vn 0.676459 -0.269001 0.685596
vn 0.375042 -0.263167 0.888868
vn 0.367006 -0.242082 0.898166
vn 0.367006 -0.242082 0.898166
vn 0.375042 -0.263167 0.888868
vn 0.018864 -0.221074 0.975075
vn -0.004840 -0.201881 0.979398
vn -0.004840 -0.201881 0.979398
vn 0.018864 -0.221074 0.975075
vn -0.353669 -0.145445 0.923994
vn -0.385755 -0.129838 0.913419
vn -0.385755 -0.129838 0.913419
vn -0.353669 -0.145445 0.923994
vn -0.692695 -0.003708 0.721221
vn -0.711250 -0.036737 0.701978
vn -0.382519 -0.085606 -0.919973
vn -0.709245 -0.077071 -0.700737
vn -0.707816 -0.077147 -0.702172
vn -0.385002 -0.085592 -0.918938
vn -0.003475 -0.081064 -0.996703
vn 0.003520 -0.080866 -0.996719
vn -0.711250 -0.036737 0.701978
vn -0.692695 -0.003708 0.721221
vn -0.914761 0.034587 0.402513
vn -0.922824 0.061685 0.380252
vn -0.922824 0.061685 0.380252
vn -0.914761 0.034587 0.402513
vn -0.997458 0.068296 0.020346
vn -0.988748 0.149555 0.003372
vn 0.000000 -1.000000 0.000000
vn 0.000000 -1.000000 0.000000
vn 0.000000 -1.000000 0.000000
vn 0.000000 -1.000000 0.000000
vn 0.000000 -1.000000 0.000000
vn 0.000000 -1.000000 0.000000
vn 0.521914 -0.666312 -0.532573
vn 0.678634 -0.675030 -0.289466
vn 0.731029 -0.682316 -0.006449
vn 0.672610 -0.687081 0.274800
vn 0.512734 -0.688447 0.512977
vn 0.275765 -0.686270 0.673043
vn -0.004432 -0.681022 0.732250
vn -0.288213 -0.673412 0.680771
vn -0.532377 -0.664505 0.524412
vn 0.000000 -1.000000 0.000000
vn -0.925370 0.026419 0.378144
vn -0.923887 0.034589 0.381099
vn -0.997739 0.067176 0.002081
vn -0.998955 0.045668 -0.001671
vn -0.532377 -0.664505 0.524412
vn -0.710692 -0.003662 0.703494
vn -0.923887 0.034589 0.381099
vn -0.925370 0.026419 0.378144
vn -0.288213 -0.673412 0.680771
vn -0.387526 -0.041868 0.920907
vn -0.710692 -0.003662 0.703494
vn -0.532377 -0.664505 0.524412
vn -0.004432 -0.681022 0.732250
vn -0.003737 -0.073585 0.997282
vn -0.387526 -0.041868 0.920907
vn -0.288213 -0.673412 0.680771
vn 0.275765 -0.686270 0.673043
vn 0.378681 -0.093760 0.920766
vn -0.003737 -0.073585 0.997282
vn -0.004432 -0.681022 0.732250
vn 0.512734 -0.688447 0.512977
vn 0.703883 -0.099741 0.703278
vn 0.378681 -0.093760 0.920766
vn 0.275765 -0.686270 0.673043
vn 0.672610 -0.687081 0.274800
vn 0.922271 -0.090174 0.375879
vn 0.703883 -0.099741 0.703278
vn 0.512734 -0.688447 0.512977
vn 0.731029 -0.682316 -0.006449
vn 0.997749 -0.066353 -0.009707
vn 0.922271 -0.090174 0.375879
vn 0.672610 -0.687081 0.274800
vn 0.678634 -0.675030 -0.289466
vn 0.919398 -0.032373 -0.391994
vn 0.997749 -0.066353 -0.009707
vn 0.731029 -0.682316 -0.006449
vn 0.521914 -0.666312 -0.532573
vn 0.701023 0.006228 -0.713111
vn 0.919398 -0.032373 -0.391994
vn 0.678634 -0.675030 -0.289466
vn 0.375143 0.021936 -0.926707
vn 0.377431 0.043414 -0.925020
vn 0.701023 0.006228 -0.713111
vn 0.521914 -0.666312 -0.532573
vn -0.005669 0.042258 -0.999091
vn -0.002517 0.073773 -0.997272
vn 0.377431 0.043414 -0.925020
vn 0.375143 0.021936 -0.926707
vn -0.385851 0.056221 -0.920847
vn -0.383149 0.093096 -0.918983
vn -0.002517 0.073773 -0.997272
vn -0.005669 0.042258 -0.999091
vn -0.707648 0.061751 -0.703862
vn -0.705764 0.098605 -0.701551
vn -0.383149 0.093096 -0.918983
vn -0.385851 0.056221 -0.920847
vn -0.922595 0.058052 -0.381376
vn -0.921392 0.089553 -0.378176
vn -0.705764 0.098605 -0.701551
vn -0.707648 0.061751 -0.703862
vn -0.998955 0.045668 -0.001671
vn -0.997739 0.067176 0.002081
vn -0.921392 0.089553 -0.378176
vn -0.922595 0.058052 -0.381376
vn -0.923887 0.034589 0.381099
vn -0.923922 0.047314 0.379645
vn -0.993858 0.110629 0.002885
vn -0.997739 0.067176 0.002081
vn -0.923922 0.047314 0.379645
vn -0.922824 0.061685 0.380252
vn -0.988748 0.149555 0.003372
vn -0.993858 0.110629 0.002885
vn -0.710692 -0.003662 0.703494
vn -0.712515 -0.024181 0.701241
vn -0.923922 0.047314 0.379645
vn -0.923887 0.034589 0.381099
vn -0.712515 -0.024181 0.701241
vn -0.711250 -0.036737 0.701978
vn -0.922824 0.061685 0.380252
vn -0.923922 0.047314 0.379645
vn -0.387526 -0.041868 0.920907
vn -0.388548 -0.092658 0.916758
vn -0.712515 -0.024181 0.701241
vn -0.710692 -0.003662 0.703494
vn -0.388548 -0.092658 0.916758
vn -0.385755 -0.129838 0.913419
vn -0.711250 -0.036737 0.701978
vn -0.712515 -0.024181 0.701241
vn -0.003737 -0.073585 0.997282
vn -0.005211 -0.146224 0.989238
vn -0.388548 -0.092658 0.916758
vn -0.387526 -0.041868 0.920907
vn -0.005211 -0.146224 0.989238
vn -0.004840 -0.201881 0.979398
vn -0.385755 -0.129838 0.913419
vn -0.388548 -0.092658 0.916758
vn 0.378681 -0.093760 0.920766
vn 0.373195 -0.176615 0.910787
vn -0.005211 -0.146224 0.989238
vn -0.003737 -0.073585 0.997282
vn 0.373195 -0.176615 0.910787
vn 0.367006 -0.242082 0.898166
vn -0.004840 -0.201881 0.979398
vn -0.005211 -0.146224 0.989238
vn 0.703883 -0.099741 0.703278
vn 0.695149 -0.180488 0.695839
vn 0.373195 -0.176615 0.910787
vn 0.378681 -0.093760 0.920766
vn 0.695149 -0.180488 0.695839
vn 0.683180 -0.246421 0.687416
vn 0.367006 -0.242082 0.898166
vn 0.373195 -0.176615 0.910787
vn 0.922271 -0.090174 0.375879
vn 0.914865 -0.156775 0.372080
vn 0.695149 -0.180488 0.695839
vn 0.703883 -0.099741 0.703278
vn 0.914865 -0.156775 0.372080
vn 0.903124 -0.214283 0.372088
vn 0.683180 -0.246421 0.687416
vn 0.695149 -0.180488 0.695839
vn 0.997749 -0.066353 -0.009707
vn 0.994044 -0.108298 -0.012186
vn 0.914865 -0.156775 0.372080
vn 0.922271 -0.090174 0.375879
vn 0.994044 -0.108298 -0.012186
vn 0.988834 -0.148880 -0.006439
vn 0.903124 -0.214283 0.372088
vn 0.914865 -0.156775 0.372080
vn 0.919398 -0.032373 -0.391994
vn 0.917767 -0.042734 -0.394813
vn 0.994044 -0.108298 -0.012186
vn 0.997749 -0.066353 -0.009707
vn 0.917767 -0.042734 -0.394813
vn 0.918989 -0.059044 -0.389837
vn 0.988834 -0.148880 -0.006439
vn 0.994044 -0.108298 -0.012186
vn 0.701023 0.006228 -0.713111
vn 0.699066 0.028969 -0.714470
vn 0.917767 -0.042734 -0.394813
vn 0.919398 -0.032373 -0.391994
vn 0.699066 0.028969 -0.714470
vn 0.701497 0.040452 -0.711523
vn 0.918989 -0.059044 -0.389837
vn 0.917767 -0.042734 -0.394813
vn 0.377431 0.043414 -0.925020
vn 0.375356 0.095087 -0.921990
vn 0.699066 0.028969 -0.714470
vn 0.701023 0.006228 -0.713111
vn 0.375356 0.095087 -0.921990
vn 0.376033 0.132428 -0.917095
vn 0.701497 0.040452 -0.711523
vn 0.699066 0.028969 -0.714470
vn -0.002517 0.073773 -0.997272
vn -0.002037 0.146091 -0.989269
vn 0.375356 0.095087 -0.921990
vn 0.377431 0.043414 -0.925020
vn -0.002037 0.146091 -0.989269
vn -0.001055 0.202641 -0.979253
vn 0.376033 0.132428 -0.917095
vn 0.375356 0.095087 -0.921990
vn -0.383149 0.093096 -0.918983
vn -0.378939 0.175398 -0.908648
vn -0.002037 0.146091 -0.989269
vn -0.002517 0.073773 -0.997272
vn -0.378939 0.175398 -0.908648
vn -0.373466 0.241977 -0.895528
vn -0.001055 0.202641 -0.979253
vn -0.002037 0.146091 -0.989269
vn -0.705764 0.098605 -0.701551
vn -0.698666 0.179085 -0.692672
vn -0.378939 0.175398 -0.908648
vn -0.383149 0.093096 -0.918983
vn -0.698666 0.179085 -0.692672
vn -0.689069 0.245760 -0.681752
vn -0.373466 0.241977 -0.895528
vn -0.378939 0.175398 -0.908648
vn -0.921392 0.089553 -0.378176
vn -0.914424 0.156606 -0.373234
vn -0.698666 0.179085 -0.692672
vn -0.705764 0.098605 -0.701551
vn -0.914424 0.156606 -0.373234
vn -0.904833 0.213714 -0.368245
vn -0.689069 0.245760 -0.681752
vn -0.698666 0.179085 -0.692672
vn -0.997739 0.067176 0.002081
vn -0.993858 0.110629 0.002885
vn -0.914424 0.156606 -0.373234
vn -0.921392 0.089553 -0.378176
vn -0.993858 0.110629 0.002885
vn -0.988748 0.149555 0.003372
vn -0.904833 0.213714 -0.368245
vn -0.914424 0.156606 -0.373234
vn 0.000003 0.996671 -0.081530
vn 0.000003 0.996671 -0.081530
vn -0.697801 0.677231 0.233306
vn -0.533533 0.699242 0.475819
vn -0.288957 0.715662 0.635871
vn -0.002641 0.724029 0.689764
vn 0.281535 0.723216 0.630632
vn 0.521085 0.713415 0.468518
vn 0.680657 0.696150 0.228215
vn 0.736768 0.673960 -0.054318
vn 0.681001 0.650137 -0.336985
vn 0.000003 0.996671 -0.081530
vn 0.000003 0.996671 -0.081530
vn 0.000003 0.996671 -0.081530
vn 0.000003 0.996671 -0.081530
vn 0.000003 0.996671 -0.081530
vn 0.997292 -0.071663 0.016501
vn 0.930395 -0.042056 -0.364138
vn 0.681001 0.650137 -0.336985
vn 0.736768 0.673960 -0.054318
vn -0.926008 -0.056610 -0.373235
vn -0.997458 0.068296 0.020346
vn -0.999599 -0.028270 0.001372
vn -0.923555 -0.057026 -0.379203
vn -0.707816 -0.077147 -0.702172
vn -0.709245 -0.077071 -0.700737
vn -0.002641 0.724029 0.689764
vn -0.288957 0.715662 0.635871
vn -0.375688 0.064298 0.924513
vn 0.003497 0.080893 0.996717
vn 0.381403 0.085428 0.920453
vn 0.281535 0.723216 0.630632
vn 0.379335 -0.064184 -0.923031
vn 0.705038 -0.037465 -0.708179
vn 0.721315 -0.004578 -0.692592
vn 0.388809 -0.063597 -0.919121
vn 0.003520 -0.080866 -0.996719
vn -0.003475 -0.081064 -0.996703
vn 0.521085 0.713415 0.468518
vn 0.281535 0.723216 0.630632
vn 0.381403 0.085428 0.920453
vn 0.702733 0.077274 0.707245
vn 0.919925 0.057560 0.387846
vn 0.680657 0.696150 0.228215
vn -0.697801 0.677231 0.233306
vn -0.999599 -0.028270 0.001372
vn -0.997458 0.068296 0.020346
vn -0.914761 0.034587 0.402513
vn -0.692695 -0.003708 0.721221
vn -0.375688 0.064298 0.924513
vn -0.288957 0.715662 0.635871
vn -0.533533 0.699242 0.475819
vn 0.919925 0.057560 0.387846
vn 0.997292 -0.071663 0.016501
vn 0.736768 0.673960 -0.054318
vn 0.680657 0.696150 0.228215
vn 0.930395 -0.042056 -0.364138
vn 0.721315 -0.004578 -0.692592
vn 0.705038 -0.037465 -0.708179
vn 0.681001 0.650137 -0.336985
vn 0.194098 0.079623 0.977745
vn 0.119033 0.079944 0.989667
vn 0.000000 0.080315 0.996770
vn -0.119033 0.079944 0.989667
vn -0.194096 0.079624 0.977746
vn -0.223496 0.079663 0.971444
vn -0.223496 0.079663 0.971444
vn -0.223496 0.079663 0.971444
vn -0.223496 0.079663 0.971444
vn -0.223496 0.079663 0.971444
vn -0.223496 0.079663 0.971444
vn -0.195386 0.079627 0.977489
vn -0.120064 0.079938 0.989543
vn 0.000000 0.080315 0.996770
vn 0.120064 0.079938 0.989543
vn 0.195388 0.079627 0.977488
vn 0.223500 0.079662 0.971443
vn 0.223500 0.079662 0.971443
vn 0.223500 0.079662 0.971443
vn 0.223500 0.079662 0.971443
vn 0.223500 0.079662 0.971443
vn 0.223500 0.079662 0.971443
vn 0.988748 0.149554 0.003371
vn 0.904833 0.213710 -0.368245
vn 0.905846 0.234086 -0.353054
vn 0.997458 0.068294 0.020345
vn 0.904833 0.213710 -0.368245
vn 0.689069 0.245759 -0.681753
vn 0.686171 0.269310 -0.675753
vn 0.905846 0.234086 -0.353054
vn 0.689069 0.245759 -0.681753
vn 0.373466 0.241978 -0.895528
vn 0.361682 0.262540 -0.894572
vn 0.686171 0.269310 -0.675753
vn 0.373466 0.241978 -0.895528
vn 0.001054 0.202639 -0.979253
vn -0.021212 0.214443 -0.976506
vn 0.361682 0.262540 -0.894572
vn 0.001054 0.202639 -0.979253
vn -0.376033 0.132426 -0.917095
vn -0.405881 0.131690 -0.904389
vn -0.021212 0.214443 -0.976506
vn -0.376033 0.132426 -0.917095
vn -0.701497 0.040451 -0.711523
vn -0.721316 -0.004579 -0.692591
vn -0.405881 0.131690 -0.904389
vn -0.701497 0.040451 -0.711523
vn -0.918989 -0.059045 -0.389836
vn -0.930394 -0.042056 -0.364140
vn -0.721316 -0.004579 -0.692591
vn -0.918989 -0.059045 -0.389836
vn -0.988834 -0.148881 -0.006441
vn -0.997293 -0.071663 0.016500
vn -0.930394 -0.042056 -0.364140
vn -0.988834 -0.148881 -0.006441
vn -0.903124 -0.214284 0.372088
vn -0.890803 -0.238420 0.386815
vn -0.997293 -0.071663 0.016500
vn -0.903124 -0.214284 0.372088
vn -0.683179 -0.246421 0.687418
vn -0.676457 -0.269003 0.685598
vn -0.890803 -0.238420 0.386815
vn -0.683179 -0.246421 0.687418
vn -0.367005 -0.242082 0.898167
vn -0.375042 -0.263166 0.888868
vn -0.676457 -0.269003 0.685598
vn -0.367005 -0.242082 0.898167
vn 0.004839 -0.201879 0.979398
vn -0.018864 -0.221073 0.975075
vn -0.375042 -0.263166 0.888868
vn 0.004839 -0.201879 0.979398
vn 0.385755 -0.129838 0.913419
vn 0.353669 -0.145442 0.923994
vn -0.018864 -0.221073 0.975075
vn 0.385755 -0.129838 0.913419
vn 0.711250 -0.036742 0.701978
vn 0.692695 -0.003709 0.721221
vn 0.353669 -0.145442 0.923994
vn 0.385002 -0.085593 -0.918938
vn 0.707816 -0.077147 -0.702172
vn 0.709246 -0.077071 -0.700736
vn 0.382519 -0.085606 -0.919973
vn -0.003519 -0.080866 -0.996719
vn 0.003476 -0.081064 -0.996703
vn 0.711250 -0.036742 0.701978
vn 0.922824 0.061684 0.380252
vn 0.914760 0.034584 0.402515
vn 0.692695 -0.003709 0.721221
vn 0.922824 0.061684 0.380252
vn 0.988748 0.149554 0.003371
vn 0.997458 0.068294 0.020345
vn 0.914760 0.034584 0.402515
vn -0.000000 -1.000000 0.000000
vn -0.000000 -1.000000 0.000000
vn 0.532376 -0.664505 0.524412
vn 0.288213 -0.673413 0.680770
vn 0.004431 -0.681022 0.732249
vn -0.275766 -0.686270 0.673043
vn -0.512734 -0.688447 0.512976
vn -0.672611 -0.687081 0.274799
vn -0.731029 -0.682316 -0.006449
vn -0.678635 -0.675030 -0.289464
vn -0.521914 -0.666312 -0.532573
vn -0.000000 -1.000000 0.000000
vn -0.000000 -1.000000 0.000000
vn -0.000000 -1.000000 0.000000
vn -0.000000 -1.000000 0.000000
vn -0.000000 -1.000000 0.000000
vn 0.925370 0.026419 0.378145
vn 0.998955 0.045669 -0.001671
vn 0.997739 0.067175 0.002082
vn 0.923886 0.034590 0.381100
vn 0.532376 -0.664505 0.524412
vn 0.925370 0.026419 0.378145
vn 0.923886 0.034590 0.381100
vn 0.710692 -0.003662 0.703494
vn 0.288213 -0.673413 0.680770
vn 0.532376 -0.664505 0.524412
vn 0.710692 -0.003662 0.703494
vn 0.387527 -0.041867 0.920907
vn 0.004431 -0.681022 0.732249
vn 0.288213 -0.673413 0.680770
vn 0.387527 -0.041867 0.920907
vn 0.003737 -0.073583 0.997282
vn -0.275766 -0.686270 0.673043
vn 0.004431 -0.681022 0.732249
vn 0.003737 -0.073583 0.997282
vn -0.378682 -0.093760 0.920766
vn -0.512734 -0.688447 0.512976
vn -0.275766 -0.686270 0.673043
vn -0.378682 -0.093760 0.920766
vn -0.703883 -0.099742 0.703278
vn -0.672611 -0.687081 0.274799
vn -0.512734 -0.688447 0.512976
vn -0.703883 -0.099742 0.703278
vn -0.922272 -0.090174 0.375878
vn -0.731029 -0.682316 -0.006449
vn -0.672611 -0.687081 0.274799
vn -0.922272 -0.090174 0.375878
vn -0.997749 -0.066352 -0.009708
vn -0.678635 -0.675030 -0.289464
vn -0.731029 -0.682316 -0.006449
vn -0.997749 -0.066352 -0.009708
vn -0.919399 -0.032373 -0.391992
vn -0.521914 -0.666312 -0.532573
vn -0.678635 -0.675030 -0.289464
vn -0.919399 -0.032373 -0.391992
vn -0.701023 0.006228 -0.713111
vn -0.375143 0.021936 -0.926707
vn -0.521914 -0.666312 -0.532573
vn -0.701023 0.006228 -0.713111
vn -0.377430 0.043414 -0.925020
vn 0.005669 0.042258 -0.999091
vn -0.375143 0.021936 -0.926707
vn -0.377430 0.043414 -0.925020
vn 0.002516 0.073774 -0.997272
vn 0.385851 0.056221 -0.920846
vn 0.005669 0.042258 -0.999091
vn 0.002516 0.073774 -0.997272
vn 0.383150 0.093096 -0.918983
vn 0.707646 0.061751 -0.703863
vn 0.385851 0.056221 -0.920846
vn 0.383150 0.093096 -0.918983
vn 0.705763 0.098605 -0.701552
vn 0.922595 0.058052 -0.381378
vn 0.707646 0.061751 -0.703863
vn 0.705763 0.098605 -0.701552
vn 0.921392 0.089553 -0.378177
vn 0.998955 0.045669 -0.001671
vn 0.922595 0.058052 -0.381378
vn 0.921392 0.089553 -0.378177
vn 0.997739 0.067175 0.002082
vn 0.923886 0.034590 0.381100
vn 0.997739 0.067175 0.002082
vn 0.993858 0.110628 0.002887
vn 0.923921 0.047316 0.379645
vn 0.923921 0.047316 0.379645
vn 0.993858 0.110628 0.002887
vn 0.988748 0.149554 0.003371
vn 0.922824 0.061684 0.380252
vn 0.710692 -0.003662 0.703494
vn 0.923886 0.034590 0.381100
vn 0.923921 0.047316 0.379645
vn 0.712514 -0.024183 0.701241
vn 0.712514 -0.024183 0.701241
vn 0.923921 0.047316 0.379645
vn 0.922824 0.061684 0.380252
vn 0.711250 -0.036742 0.701978
vn 0.387527 -0.041867 0.920907
vn 0.710692 -0.003662 0.703494
vn 0.712514 -0.024183 0.701241
vn 0.388548 -0.092658 0.916758
vn 0.388548 -0.092658 0.916758
vn 0.712514 -0.024183 0.701241
vn 0.711250 -0.036742 0.701978
vn 0.385755 -0.129838 0.913419
vn 0.003737 -0.073583 0.997282
vn 0.387527 -0.041867 0.920907
vn 0.388548 -0.092658 0.916758
vn 0.005210 -0.146221 0.989238
vn 0.005210 -0.146221 0.989238
vn 0.388548 -0.092658 0.916758
vn 0.385755 -0.129838 0.913419
vn 0.004839 -0.201879 0.979398
vn -0.378682 -0.093760 0.920766
vn 0.003737 -0.073583 0.997282
vn 0.005210 -0.146221 0.989238
vn -0.373194 -0.176616 0.910787
vn -0.373194 -0.176616 0.910787
vn 0.005210 -0.146221 0.989238
vn 0.004839 -0.201879 0.979398
vn -0.367005 -0.242082 0.898167
vn -0.703883 -0.099742 0.703278
vn -0.378682 -0.093760 0.920766
vn -0.373194 -0.176616 0.910787
vn -0.695148 -0.180487 0.695840
vn -0.695148 -0.180487 0.695840
vn -0.373194 -0.176616 0.910787
vn -0.367005 -0.242082 0.898167
vn -0.683179 -0.246421 0.687418
vn -0.922272 -0.090174 0.375878
vn -0.703883 -0.099742 0.703278
vn -0.695148 -0.180487 0.695840
vn -0.914866 -0.156775 0.372079
vn -0.914866 -0.156775 0.372079
vn -0.695148 -0.180487 0.695840
vn -0.683179 -0.246421 0.687418
vn -0.903124 -0.214284 0.372088
vn -0.997749 -0.066352 -0.009708
vn -0.922272 -0.090174 0.375878
vn -0.914866 -0.156775 0.372079
vn -0.994044 -0.108299 -0.012188
vn -0.994044 -0.108299 -0.012188
vn -0.914866 -0.156775 0.372079
vn -0.903124 -0.214284 0.372088
vn -0.988834 -0.148881 -0.006441
vn -0.919399 -0.032373 -0.391992
vn -0.997749 -0.066352 -0.009708
vn -0.994044 -0.108299 -0.012188
vn -0.917767 -0.042734 -0.394814
vn -0.917767 -0.042734 -0.394814
vn -0.994044 -0.108299 -0.012188
vn -0.988834 -0.148881 -0.006441
vn -0.918989 -0.059045 -0.389836
vn -0.701023 0.006228 -0.713111
vn -0.919399 -0.032373 -0.391992
vn -0.917767 -0.042734 -0.394814
vn -0.699066 0.028969 -0.714470
vn -0.699066 0.028969 -0.714470
vn -0.917767 -0.042734 -0.394814
vn -0.918989 -0.059045 -0.389836
vn -0.701497 0.040451 -0.711523
vn -0.377430 0.043414 -0.925020
vn -0.701023 0.006228 -0.713111
vn -0.699066 0.028969 -0.714470
vn -0.375357 0.095088 -0.921990
vn -0.375357 0.095088 -0.921990
vn -0.699066 0.028969 -0.714470
vn -0.701497 0.040451 -0.711523
vn -0.376033 0.132426 -0.917095
vn 0.002516 0.073774 -0.997272
vn -0.377430 0.043414 -0.925020
vn -0.375357 0.095088 -0.921990
vn 0.002037 0.146093 -0.989269
vn 0.002037 0.146093 -0.989269
vn -0.375357 0.095088 -0.921990
vn -0.376033 0.132426 -0.917095
vn 0.001054 0.202639 -0.979253
vn 0.383150 0.093096 -0.918983
vn 0.002516 0.073774 -0.997272
vn 0.002037 0.146093 -0.989269
vn 0.378939 0.175400 -0.908647
vn 0.378939 0.175400 -0.908647
vn 0.002037 0.146093 -0.989269
vn 0.001054 0.202639 -0.979253
vn 0.373466 0.241978 -0.895528
vn 0.705763 0.098605 -0.701552
vn 0.383150 0.093096 -0.918983
vn 0.378939 0.175400 -0.908647
vn 0.698665 0.179086 -0.692672
vn 0.698665 0.179086 -0.692672
vn 0.378939 0.175400 -0.908647
vn 0.373466 0.241978 -0.895528
vn 0.689069 0.245759 -0.681753
vn 0.921392 0.089553 -0.378177
vn 0.705763 0.098605 -0.701552
vn 0.698665 0.179086 -0.692672
vn 0.914424 0.156605 -0.373235
vn 0.914424 0.156605 -0.373235
vn 0.698665 0.179086 -0.692672
vn 0.689069 0.245759 -0.681753
vn 0.904833 0.213710 -0.368245
vn 0.997739 0.067175 0.002082
vn 0.921392 0.089553 -0.378177
vn 0.914424 0.156605 -0.373235
vn 0.993858 0.110628 0.002887
vn 0.993858 0.110628 0.002887
vn 0.914424 0.156605 -0.373235
vn 0.904833 0.213710 -0.368245
vn 0.988748 0.149554 0.003371
vn -0.000002 0.996671 -0.081528
vn -0.000002 0.996671 -0.081528
vn -0.000002 0.996671 -0.081528
vn -0.000002 0.996671 -0.081528
vn -0.000002 0.996671 -0.081528
vn -0.000002 0.996671 -0.081528
vn -0.681000 0.650138 -0.336986
vn -0.736769 0.673960 -0.054317
vn -0.680656 0.696150 0.228217
vn -0.521084 0.713415 0.468519
vn -0.281535 0.723215 0.630633
vn 0.002642 0.724029 0.689764
vn 0.288959 0.715662 0.635871
vn 0.533533 0.699241 0.475819
vn 0.697800 0.677231 0.233309
vn -0.000002 0.996671 -0.081528
vn -0.736769 0.673960 -0.054317
vn -0.681000 0.650138 -0.336986
vn -0.930394 -0.042056 -0.364140
vn -0.997293 -0.071663 0.016500
vn -0.919925 0.057560 0.387847
vn -0.680656 0.696150 0.228217
vn 0.923554 -0.057026 -0.379203
vn 0.999599 -0.028270 0.001371
vn 0.997458 0.068294 0.020345
vn 0.926008 -0.056611 -0.373236
vn 0.709246 -0.077071 -0.700736
vn 0.707816 -0.077147 -0.702172
vn 0.288959 0.715662 0.635871
vn 0.002642 0.724029 0.689764
vn -0.003497 0.080893 0.996717
vn 0.375690 0.064299 0.924512
vn 0.692695 -0.003709 0.721221
vn 0.533533 0.699241 0.475819
vn -0.388811 -0.063597 -0.919120
vn -0.721316 -0.004579 -0.692591
vn -0.705037 -0.037464 -0.708180
vn -0.379337 -0.064185 -0.923030
vn 0.003476 -0.081064 -0.996703
vn -0.003519 -0.080866 -0.996719
vn -0.281535 0.723215 0.630633
vn -0.521084 0.713415 0.468519
vn -0.702732 0.077273 0.707246
vn -0.381403 0.085429 0.920453
vn -0.003497 0.080893 0.996717
vn 0.002642 0.724029 0.689764
vn 0.914760 0.034584 0.402515
vn 0.997458 0.068294 0.020345
vn 0.999599 -0.028270 0.001371
vn 0.697800 0.677231 0.233309
vn 0.533533 0.699241 0.475819
vn 0.692695 -0.003709 0.721221
vn -0.930394 -0.042056 -0.364140
vn -0.681000 0.650138 -0.336986
vn -0.705037 -0.037464 -0.708180
vn -0.721316 -0.004579 -0.692591
vn -0.702732 0.077273 0.707246
vn -0.521084 0.713415 0.468519
vn -0.680656 0.696150 0.228217
vn -0.919925 0.057560 0.387847
vn 0.988747 0.149558 -0.003364
vn 0.986395 0.161806 -0.029055
vn 0.905847 0.234087 0.353051
vn 0.904834 0.213709 0.368245
vn 0.904834 0.213709 0.368245
vn 0.905847 0.234087 0.353051
vn 0.686174 0.269310 0.675749
vn 0.689070 0.245759 0.681751
vn 0.689070 0.245759 0.681751
vn 0.686174 0.269310 0.675749
vn 0.361671 0.262539 0.894577
vn 0.373455 0.241977 0.895532
vn 0.373455 0.241977 0.895532
vn 0.361671 0.262539 0.894577
vn -0.021209 0.214445 0.976506
vn 0.001055 0.202641 0.979253
vn 0.001055 0.202641 0.979253
vn -0.021209 0.214445 0.976506
vn -0.405874 0.131690 0.904392
vn -0.376023 0.132427 0.917098
vn -0.376023 0.132427 0.917098
vn -0.405874 0.131690 0.904392
vn -0.551535 0.089742 0.829311
vn -0.701500 0.040452 0.711521
vn -0.701500 0.040452 0.711521
vn -0.829157 -0.017780 0.558733
vn -0.931669 -0.080493 0.354278
vn -0.918989 -0.059041 0.389838
vn -0.918989 -0.059041 0.389838
vn -0.931669 -0.080493 0.354278
vn -0.984542 -0.173470 -0.024179
vn -0.988834 -0.148881 0.006449
vn -0.988834 -0.148881 0.006449
vn -0.984542 -0.173470 -0.024179
vn -0.890802 -0.238423 -0.386816
vn -0.903123 -0.214285 -0.372089
vn -0.903123 -0.214285 -0.372089
vn -0.890802 -0.238423 -0.386816
vn -0.676454 -0.269002 -0.685601
vn -0.683178 -0.246418 -0.687420
vn -0.683178 -0.246418 -0.687420
vn -0.676454 -0.269002 -0.685601
vn -0.375050 -0.263168 -0.888865
vn -0.367007 -0.242081 -0.898166
vn -0.367007 -0.242081 -0.898166
vn -0.375050 -0.263168 -0.888865
vn -0.018866 -0.221080 -0.975073
vn 0.004842 -0.201881 -0.979398
vn 0.004842 -0.201881 -0.979398
vn -0.018866 -0.221080 -0.975073
vn 0.353679 -0.145447 -0.923989
vn 0.385755 -0.129840 -0.913419
vn 0.385755 -0.129840 -0.913419
vn 0.353679 -0.145447 -0.923989
vn 0.555826 -0.089086 -0.826511
vn 0.711248 -0.036740 -0.701981
vn 0.711248 -0.036740 -0.701981
vn 0.832425 0.018361 -0.553834
vn 0.909155 0.063106 -0.411649
vn 0.922823 0.061691 -0.380252
vn 0.922823 0.061691 -0.380252
vn 0.909155 0.063106 -0.411649
vn 0.986395 0.161806 -0.029055
vn 0.988747 0.149558 -0.003364
vn 0.000000 -1.000000 0.000000
vn 0.000000 -1.000000 0.000000
vn 0.000000 -1.000000 0.000000
vn 0.000000 -1.000000 0.000000
vn 0.000000 -1.000000 0.000000
vn 0.000000 -1.000000 0.000000
vn 0.000000 -1.000000 0.000000
vn -0.678635 -0.675030 0.289465
vn -0.731028 -0.682317 0.006452
vn -0.672612 -0.687080 -0.274799
vn -0.512731 -0.688443 -0.512985
vn -0.275765 -0.686274 -0.673039
vn 0.004431 -0.681024 -0.732247
vn 0.288213 -0.673416 -0.680767
vn 0.000000 -1.000000 0.000000
vn 0.000000 -1.000000 0.000000
vn 0.925371 0.026420 -0.378141
vn 0.923888 0.034591 -0.381097
vn 0.997739 0.067176 -0.002082
vn 0.998955 0.045669 0.001673
vn 0.712406 0.003102 -0.701761
vn 0.710692 -0.003665 -0.703494
vn 0.923888 0.034591 -0.381097
vn 0.925371 0.026420 -0.378141
vn 0.288213 -0.673416 -0.680767
vn 0.387529 -0.041873 -0.920906
vn 0.710692 -0.003665 -0.703494
vn 0.712406 0.003102 -0.701761
vn 0.004431 -0.681024 -0.732247
vn 0.003736 -0.073588 -0.997282
vn 0.387529 -0.041873 -0.920906
vn 0.288213 -0.673416 -0.680767
vn -0.275765 -0.686274 -0.673039
vn -0.378682 -0.093761 -0.920765
vn 0.003736 -0.073588 -0.997282
vn 0.004431 -0.681024 -0.732247
vn -0.512731 -0.688443 -0.512985
vn -0.703882 -0.099741 -0.703280
vn -0.378682 -0.093761 -0.920765
vn -0.275765 -0.686274 -0.673039
vn -0.672612 -0.687080 -0.274799
vn -0.922273 -0.090173 -0.375875
vn -0.703882 -0.099741 -0.703280
vn -0.512731 -0.688443 -0.512985
vn -0.731028 -0.682317 0.006452
vn -0.997749 -0.066353 0.009709
vn -0.922273 -0.090173 -0.375875
vn -0.672612 -0.687080 -0.274799
vn -0.678635 -0.675030 0.289465
vn -0.919399 -0.032373 0.391993
vn -0.997749 -0.066353 0.009709
vn -0.731028 -0.682317 0.006452
vn -0.699923 -0.001784 0.714216
vn -0.701023 0.006227 0.713111
vn -0.919399 -0.032373 0.391993
vn -0.678635 -0.675030 0.289465
vn -0.375143 0.021936 0.926707
vn -0.377431 0.043414 0.925020
vn -0.701023 0.006227 0.713111
vn -0.699923 -0.001784 0.714216
vn 0.005669 0.042259 0.999091
vn 0.002516 0.073775 0.997272
vn -0.377431 0.043414 0.925020
vn -0.375143 0.021936 0.926707
vn 0.385852 0.056221 0.920846
vn 0.383151 0.093096 0.918982
vn 0.002516 0.073775 0.997272
vn 0.005669 0.042259 0.999091
vn 0.707647 0.061751 0.703863
vn 0.705764 0.098605 0.701552
vn 0.383151 0.093096 0.918982
vn 0.385852 0.056221 0.920846
vn 0.922595 0.058052 0.381376
vn 0.921392 0.089553 0.378177
vn 0.705764 0.098605 0.701552
vn 0.707647 0.061751 0.703863
vn 0.998955 0.045669 0.001673
vn 0.997739 0.067176 -0.002082
vn 0.921392 0.089553 0.378177
vn 0.922595 0.058052 0.381376
vn 0.923888 0.034591 -0.381097
vn 0.923923 0.047317 -0.379642
vn 0.993858 0.110628 -0.002886
vn 0.997739 0.067176 -0.002082
vn 0.923923 0.047317 -0.379642
vn 0.922823 0.061691 -0.380252
vn 0.988747 0.149558 -0.003364
vn 0.993858 0.110628 -0.002886
vn 0.710692 -0.003665 -0.703494
vn 0.712516 -0.024185 -0.701239
vn 0.923923 0.047317 -0.379642
vn 0.923888 0.034591 -0.381097
vn 0.712516 -0.024185 -0.701239
vn 0.711248 -0.036740 -0.701981
vn 0.922823 0.061691 -0.380252
vn 0.923923 0.047317 -0.379642
vn 0.387529 -0.041873 -0.920906
vn 0.388544 -0.092665 -0.916759
vn 0.712516 -0.024185 -0.701239
vn 0.710692 -0.003665 -0.703494
vn 0.388544 -0.092665 -0.916759
vn 0.385755 -0.129840 -0.913419
vn 0.711248 -0.036740 -0.701981
vn 0.712516 -0.024185 -0.701239
vn 0.003736 -0.073588 -0.997282
vn 0.005210 -0.146223 -0.989238
vn 0.388544 -0.092665 -0.916759
vn 0.387529 -0.041873 -0.920906
vn 0.005210 -0.146223 -0.989238
vn 0.004842 -0.201881 -0.979398
vn 0.385755 -0.129840 -0.913419
vn 0.388544 -0.092665 -0.916759
vn -0.378682 -0.093761 -0.920765
vn -0.373190 -0.176614 -0.910789
vn 0.005210 -0.146223 -0.989238
vn 0.003736 -0.073588 -0.997282
vn -0.373190 -0.176614 -0.910789
vn -0.367007 -0.242081 -0.898166
vn 0.004842 -0.201881 -0.979398
vn 0.005210 -0.146223 -0.989238
vn -0.703882 -0.099741 -0.703280
vn -0.695150 -0.180485 -0.695839
vn -0.373190 -0.176614 -0.910789
vn -0.378682 -0.093761 -0.920765
vn -0.695150 -0.180485 -0.695839
vn -0.683178 -0.246418 -0.687420
vn -0.367007 -0.242081 -0.898166
vn -0.373190 -0.176614 -0.910789
vn -0.922273 -0.090173 -0.375875
vn -0.914868 -0.156771 -0.372075
vn -0.695150 -0.180485 -0.695839
vn -0.703882 -0.099741 -0.703280
vn -0.914868 -0.156771 -0.372075
vn -0.903123 -0.214285 -0.372089
vn -0.683178 -0.246418 -0.687420
vn -0.695150 -0.180485 -0.695839
vn -0.997749 -0.066353 0.009709
vn -0.994044 -0.108299 0.012190
vn -0.914868 -0.156771 -0.372075
vn -0.922273 -0.090173 -0.375875
vn -0.994044 -0.108299 0.012190
vn -0.988834 -0.148881 0.006449
vn -0.903123 -0.214285 -0.372089
vn -0.914868 -0.156771 -0.372075
vn -0.919399 -0.032373 0.391993
vn -0.917767 -0.042733 0.394814
vn -0.994044 -0.108299 0.012190
vn -0.997749 -0.066353 0.009709
vn -0.917767 -0.042733 0.394814
vn -0.918989 -0.059041 0.389838
vn -0.988834 -0.148881 0.006449
vn -0.994044 -0.108299 0.012190
vn -0.701023 0.006227 0.713111
vn -0.699066 0.028968 0.714470
vn -0.917767 -0.042733 0.394814
vn -0.919399 -0.032373 0.391993
vn -0.699066 0.028968 0.714470
vn -0.701500 0.040452 0.711521
vn -0.918989 -0.059041 0.389838
vn -0.917767 -0.042733 0.394814
vn -0.377431 0.043414 0.925020
vn -0.375351 0.095089 0.921992
vn -0.699066 0.028968 0.714470
vn -0.701023 0.006227 0.713111
vn -0.375351 0.095089 0.921992
vn -0.376023 0.132427 0.917098
vn -0.701500 0.040452 0.711521
vn -0.699066 0.028968 0.714470
vn 0.002516 0.073775 0.997272
vn 0.002036 0.146093 0.989269
vn -0.375351 0.095089 0.921992
vn -0.377431 0.043414 0.925020
vn 0.002036 0.146093 0.989269
vn 0.001055 0.202641 0.979253
vn -0.376023 0.132427 0.917098
vn -0.375351 0.095089 0.921992
vn 0.383151 0.093096 0.918982
vn 0.378935 0.175400 0.908649
vn 0.002036 0.146093 0.989269
vn 0.002516 0.073775 0.997272
vn 0.378935 0.175400 0.908649
vn 0.373455 0.241977 0.895532
vn 0.001055 0.202641 0.979253
vn 0.002036 0.146093 0.989269
vn 0.705764 0.098605 0.701552
vn 0.698665 0.179086 0.692672
vn 0.378935 0.175400 0.908649
vn 0.383151 0.093096 0.918982
vn 0.698665 0.179086 0.692672
vn 0.689070 0.245759 0.681751
vn 0.373455 0.241977 0.895532
vn 0.378935 0.175400 0.908649
vn 0.921392 0.089553 0.378177
vn 0.914423 0.156603 0.373237
vn 0.698665 0.179086 0.692672
vn 0.705764 0.098605 0.701552
vn 0.914423 0.156603 0.373237
vn 0.904834 0.213709 0.368245
vn 0.689070 0.245759 0.681751
vn 0.698665 0.179086 0.692672
vn 0.997739 0.067176 -0.002082
vn 0.993858 0.110628 -0.002886
vn 0.914423 0.156603 0.373237
vn 0.921392 0.089553 0.378177
vn 0.993858 0.110628 -0.002886
vn 0.988747 0.149558 -0.003364
vn 0.904834 0.213709 0.368245
vn 0.914423 0.156603 0.373237
s off
g polySurface157
usemtl LandingTrack1StraightSG
f 10/367/1 9/368/2 11/369/3 12/370/4 6/371/5 5/372/6 7/373/7 8/374/8 4/375/9 3/376/10 2/377/11 1/378/12 14/379/13 13/380/14 15/381/15 16/382/16
f 66/1/17 67/2/18 20/3/19 18/4/20
f 67/2/21 69/7/22 22/8/23 20/3/24
f 69/7/25 71/15/26 24/16/27 22/8/28
f 71/523/29 73/524/30 26/525/31 24/526/32
f 73/524/33 75/529/34 28/530/35 26/525/36
f 75/59/37 77/45/38 106/67/39 28/68/40
f 77/45/41 79/37/42 32/40/43 30/46/44
f 79/37/45 81/38/46 34/39/47 32/40/48
f 81/38/49 83/43/50 36/44/51 34/39/52
f 83/43/53 85/51/54 38/52/55 36/44/56
f 85/51/57 87/60/58 40/61/59 38/52/60
f 87/538/61 89/539/62 42/540/63 40/541/64
f 89/539/65 91/544/66 44/545/67 42/540/68
f 91/30/69 93/17/70 107/34/71 44/35/72
f 93/17/73 95/9/74 48/10/75 46/18/76
f 95/9/77 66/1/78 18/4/79 48/10/80
f 97/383/81 105/384/82 104/385/83 43/386/84 41/387/85 39/388/86 37/389/87 35/390/88 33/391/89 31/392/90 103/393/91 102/394/92 101/395/93 100/396/94 99/397/95 98/398/96
f 47/26/97 17/19/98 49/11/99 64/22/100
f 45/32/101 47/26/102 64/22/103 63/28/104
f 43/36/105 45/32/106 63/28/107 62/33/108
f 41/550/109 43/552/110 62/551/111 61/547/112
f 39/549/113 41/550/114 61/547/115 60/546/116
f 37/69/117 39/72/118 60/71/119 59/64/120
f 35/62/121 37/69/122 59/64/123 58/55/124
f 33/54/125 35/62/126 58/55/127 57/48/128
f 31/53/129 33/54/130 57/48/131 56/47/132
f 29/63/133 31/53/134 56/47/135 55/56/136
f 27/70/137 29/63/138 55/56/139 54/65/140
f 25/535/141 27/537/142 54/536/143 53/532/144
f 23/534/145 25/535/146 53/532/147 52/531/148
f 21/25/149 23/31/150 52/27/151 51/21/152
f 19/20/153 21/25/154 51/21/155 50/12/156
f 17/19/157 19/20/158 50/12/159 49/11/160
f 64/22/161 49/11/162 65/5/163 96/14/164
f 96/14/165 65/5/166 66/1/167 95/9/168
f 63/28/169 64/22/170 96/14/171 94/24/172
f 94/24/173 96/14/174 95/9/175 93/17/176
f 62/33/177 63/28/178 94/24/179 92/29/180
f 92/29/181 94/24/182 93/17/183 91/30/184
f 61/547/185 62/551/186 92/548/187 90/543/188
f 90/543/189 92/548/190 91/544/191 89/539/192
f 60/546/193 61/547/194 90/543/195 88/542/196
f 88/542/197 90/543/198 89/539/199 87/538/200
f 59/64/201 60/71/202 88/66/203 86/57/204
f 86/57/205 88/66/206 87/60/207 85/51/208
f 58/55/209 59/64/210 86/57/211 84/49/212
f 84/49/213 86/57/214 85/51/215 83/43/216
f 57/48/217 58/55/218 84/49/219 82/42/220
f 82/42/221 84/49/222 83/43/223 81/38/224
f 56/47/225 57/48/226 82/42/227 80/41/228
f 80/41/229 82/42/230 81/38/231 79/37/232
f 55/56/233 56/47/234 80/41/235 78/50/236
f 78/50/237 80/41/238 79/37/239 77/45/240
f 54/65/241 55/56/242 78/50/243 76/58/244
f 76/58/245 78/50/246 77/45/247 75/59/248
f 53/532/249 54/536/250 76/533/251 74/528/252
f 74/528/253 76/533/254 75/529/255 73/524/256
f 52/531/257 53/532/258 74/528/259 72/527/260
f 72/527/261 74/528/262 73/524/263 71/523/264
f 51/21/265 52/27/266 72/23/267 70/13/268
f 70/13/269 72/23/270 71/15/271 69/7/272
f 50/12/273 51/21/274 70/13/275 68/6/276
f 68/6/277 70/13/278 69/7/279 67/2/280
f 49/11/281 50/12/282 68/6/283 65/5/284
f 65/5/285 68/6/286 67/2/287 66/1/288
f 120/567/289 122/569/290 123/570/291 121/571/292 112/572/293 114/573/294 115/574/295 113/568/296 125/566/297 124/558/298 128/554/299 108/555/300 110/559/301 111/560/302 109/561/303 116/562/304 118/563/305 119/564/306 117/556/307 126/553/308 129/557/309 127/565/310
f 135/575/311 130/576/312 132/577/313 137/578/314
f 134/579/315 131/580/316 130/576/317 135/575/318
f 133/581/319 136/582/320 137/578/321 132/577/322
f 138/725/323 139/726/324 141/727/325 140/728/326
f 162/73/327 143/74/328 153/75/329 152/76/330
f 158/583/331 147/584/332 144/585/333 165/586/334
f 156/83/335 142/84/336 148/85/337 161/86/338
f 152/76/339 153/75/340 154/79/341 151/80/342
f 142/84/343 156/83/344 157/87/345 155/88/346
f 147/584/347 158/583/348 159/587/349 149/588/350
f 149/91/351 159/92/352 160/90/353 150/89/354
f 150/89/355 160/90/356 161/86/357 148/85/358
f 143/74/359 162/73/360 163/77/361 145/78/362
f 145/78/363 163/77/364 164/81/365 146/82/366
f 146/589/367 164/590/368 165/586/369 144/585/370
f 199/93/371 198/94/372 175/95/373 174/96/374
f 206/399/375 209/400/376 203/401/377 204/402/378
f 183/105/379 182/106/380 195/107/381 196/108/382
f 174/96/383 175/95/384 176/99/385 173/100/386
f 173/100/387 176/99/388 178/103/389 177/104/390
f 179/423/391 177/425/392 178/426/393 180/424/394 170/422/395 208/418/396 207/414/397 187/415/398 185/419/399 186/420/400 188/416/401 205/413/402 167/417/403 166/421/404
f 182/106/405 183/105/406 184/109/407 181/110/408
f 181/110/409 184/109/410 186/113/411 185/114/412
f 190/410/413 191/409/414 192/411/415 189/412/416
f 189/115/417 192/116/418 194/112/419 193/111/420
f 193/111/421 194/112/422 196/108/423 195/107/424
f 198/94/425 199/93/426 200/97/427 197/98/428
f 197/98/429 200/97/430 202/101/431 201/102/432
f 201/405/433 202/406/434 204/402/435 203/401/436
f 191/409/437 190/410/438 172/408/439 168/407/440
f 168/407/441 172/408/442 171/404/443 169/403/444
f 169/403/445 171/404/446 209/400/447 206/399/448
f 211/721/449 210/722/450 213/723/451 212/724/452
f 218/427/453 220/428/454 221/429/455 219/430/456 226/431/457 228/432/458 229/433/459 227/434/460 222/435/461 224/436/462 225/437/463 223/438/464 214/439/465 216/440/466 217/441/467 215/442/468
f 279/117/469 231/118/470 328/119/471 280/120/472
f 280/120/473 328/119/474 330/123/475 282/124/476
f 282/124/477 330/123/478 332/132/479 284/133/480
f 284/591/481 332/592/482 334/593/483 286/594/484
f 286/594/485 334/593/486 336/595/487 288/596/488
f 288/174/489 336/175/490 243/167/491 290/166/492
f 290/166/493 243/167/494 245/163/495 292/162/496
f 292/162/497 245/163/498 247/164/499 294/165/500
f 294/165/501 247/164/502 337/170/503 296/171/504
f 296/171/505 337/170/506 338/180/507 298/181/508
f 298/181/509 338/180/510 339/190/511 300/191/512
f 300/606/513 339/607/514 340/608/515 302/609/516
f 302/609/517 340/608/518 341/610/519 304/611/520
f 304/137/521 341/138/522 259/128/523 306/127/524
f 237/159/525 235/152/526 312/153/527 346/628/528 314/629/529 239/627/530
f 306/127/531 259/128/532 261/122/533 308/121/534
f 308/121/535 261/122/536 231/118/537 279/117/538
f 326/443/539 327/444/540 329/445/541 331/446/542 333/447/543 335/448/544 242/449/545 244/450/546 246/451/547 248/452/548 250/453/549 252/454/550 254/455/551 256/456/552 258/457/553 342/458/554
f 260/154/555 277/143/556 262/135/557 230/146/558
f 258/158/559 276/151/560 277/143/561 260/154/562
f 256/161/563 275/157/564 276/151/565 258/158/566
f 254/619/567 274/616/568 275/617/569 256/620/570
f 252/618/571 273/615/572 274/616/573 254/619/574
f 250/205/575 272/201/576 273/204/577 252/206/578
f 248/202/579 271/193/580 272/201/581 250/205/582
f 246/195/583 270/184/584 271/193/585 248/202/586
f 244/194/587 269/183/588 270/184/589 246/195/590
f 242/197/591 268/187/592 269/183/593 244/194/594
f 240/203/595 267/196/596 268/187/597 242/197/598
f 238/604/599 266/601/600 267/602/601 240/605/602
f 236/603/603 265/600/604 266/601/605 238/604/606
f 234/156/607 264/145/608 265/155/609 236/160/610
f 232/147/611 263/136/612 264/145/613 234/156/614
f 230/146/615 262/135/616 263/136/617 232/147/618
f 277/143/619 309/131/620 278/125/621 262/135/622
f 309/131/623 308/121/624 279/117/625 278/125/626
f 276/151/627 307/140/628 309/131/629 277/143/630
f 307/140/631 306/127/632 308/121/633 309/131/634
f 275/157/635 305/148/636 307/140/637 276/151/638
f 305/148/639 304/137/640 306/127/641 307/140/642
f 274/616/643 303/613/644 305/614/645 275/617/646
f 303/613/647 302/609/648 304/611/649 305/614/650
f 273/615/651 301/612/652 303/613/653 274/616/654
f 301/612/655 300/606/656 302/609/657 303/613/658
f 272/201/659 299/192/660 301/200/661 273/204/662
f 299/192/663 298/181/664 300/191/665 301/200/666
f 271/193/667 297/182/668 299/192/669 272/201/670
f 297/182/671 296/171/672 298/181/673 299/192/674
f 270/184/675 295/173/676 297/182/677 271/193/678
f 295/173/679 294/165/680 296/171/681 297/182/682
f 269/183/683 293/172/684 295/173/685 270/184/686
f 293/172/687 292/162/688 294/165/689 295/173/690
f 268/187/691 291/177/692 293/172/693 269/183/694
f 291/177/695 290/166/696 292/162/697 293/172/698
f 267/196/699 289/185/700 291/177/701 268/187/702
f 289/185/703 288/174/704 290/166/705 291/177/706
f 266/601/707 287/598/708 289/599/709 267/602/710
f 287/598/711 286/594/712 288/596/713 289/599/714
f 265/600/715 285/597/716 287/598/717 266/601/718
f 285/597/719 284/591/720 286/594/721 287/598/722
f 264/145/723 283/134/724 285/144/725 265/155/726
f 283/134/727 282/124/728 284/133/729 285/144/730
f 263/136/731 281/126/732 283/134/733 264/145/734
f 281/126/735 280/120/736 282/124/737 283/134/738
f 262/135/739 278/125/740 281/126/741 263/136/742
f 278/125/743 279/117/744 280/120/745 281/126/746
f 343/459/747 344/460/748 325/461/749 324/462/750 323/463/751 322/464/752 321/465/753 320/466/754 319/467/755 318/468/756 317/469/757 349/470/758 348/471/759 347/472/760 313/473/761 345/474/762
f 247/164/763 245/163/764 317/168/765 318/169/766
f 233/141/767 231/118/768 310/130/769 311/142/770 312/153/771 235/152/772
f 322/623/773 323/624/774 257/621/775 255/622/776 253/625/777 321/626/778
f 315/186/779 316/176/780 243/167/781 241/630/782 239/627/783 314/629/784
f 320/189/785 321/199/786 253/198/787 251/188/788 249/178/789 319/179/790
f 325/129/791 310/130/792 231/118/793 261/122/794 259/128/795 257/149/796 323/150/797 324/139/798
f 249/178/799 247/164/800 318/169/801 319/179/802
f 245/163/803 243/167/804 316/176/805 317/168/806
f 363/646/807 370/644/808 371/636/809 367/632/810 358/633/811 360/637/812 361/638/813 359/639/814 350/640/815 352/641/816 353/642/817 351/634/818 368/631/819 369/635/820 366/643/821 354/645/822 356/647/823 357/648/824 355/649/825 362/650/826 364/651/827 365/652/828
f 421/207/829 422/208/830 470/209/831 373/210/832
f 422/208/833 424/213/834 472/214/835 470/209/836
f 424/213/837 426/221/838 474/222/839 472/214/840
f 426/653/841 428/654/842 476/655/843 474/656/844
f 428/654/845 430/659/846 478/660/847 476/655/848
f 430/272/849 432/261/850 385/262/851 478/273/852
f 432/261/853 434/251/854 387/254/855 385/262/856
f 434/251/857 436/252/858 389/253/859 387/254/860
f 436/252/861 438/257/862 479/258/863 389/253/864
f 438/257/865 440/267/866 480/268/867 479/258/868
f 440/267/869 442/280/870 481/281/871 480/268/872
f 442/668/873 444/669/874 482/670/875 481/671/876
f 444/669/877 446/674/878 483/675/879 482/670/880
f 446/236/881 448/225/882 401/226/883 483/237/884
f 488/249/885 454/244/886 377/243/887 379/689/888 381/687/889 456/688/890
f 448/225/891 450/215/892 403/216/893 401/226/894
f 450/215/895 421/207/896 373/210/897 403/216/898
f 468/475/899 484/476/900 400/477/901 398/478/902 396/479/903 394/480/904 392/481/905 390/482/906 388/483/907 386/484/908 384/485/909 477/486/910 475/487/911 473/488/912 471/489/913 469/490/914
f 402/239/915 372/227/916 404/217/917 419/230/918
f 400/247/919 402/239/920 419/230/921 418/241/922
f 398/250/923 400/247/924 418/241/925 417/248/926
f 396/680/927 398/682/928 417/681/929 416/677/930
f 394/679/931 396/680/932 416/677/933 415/676/934
f 392/291/935 394/294/936 415/293/937 414/287/938
f 390/285/939 392/291/940 414/287/941 413/276/942
f 388/275/943 390/285/944 413/276/945 412/264/946
f 386/274/947 388/275/948 412/264/949 411/263/950
f 384/286/951 386/274/952 411/263/953 410/277/954
f 382/292/955 384/286/956 410/277/957 409/288/958
f 380/665/959 382/667/960 409/666/961 408/662/962
f 378/664/963 380/665/964 408/662/965 407/661/966
f 376/238/967 378/246/968 407/240/969 406/229/970
f 374/228/971 376/238/972 406/229/973 405/218/974
f 372/227/975 374/228/976 405/218/977 404/217/978
f 419/230/979 404/217/980 420/211/981 451/220/982
f 451/220/983 420/211/984 421/207/985 450/215/986
f 418/241/987 419/230/988 451/220/989 449/232/990
f 449/232/991 451/220/992 450/215/993 448/225/994
f 417/248/995 418/241/996 449/232/997 447/242/998
f 447/242/999 449/232/1000 448/225/1001 446/236/1002
f 416/677/1003 417/681/1004 447/678/1005 445/673/1006
f 445/673/1007 447/678/1008 446/674/1009 444/669/1010
f 415/676/1011 416/677/1012 445/673/1013 443/672/1014
f 443/672/1015 445/673/1016 444/669/1017 442/668/1018
f 414/287/1019 415/293/1020 443/289/1021 441/278/1022
f 441/278/1023 443/289/1024 442/280/1025 440/267/1026
f 413/276/1027 414/287/1028 441/278/1029 439/265/1030
f 439/265/1031 441/278/1032 440/267/1033 438/257/1034
f 412/264/1035 413/276/1036 439/265/1037 437/256/1038
f 437/256/1039 439/265/1040 438/257/1041 436/252/1042
f 411/263/1043 412/264/1044 437/256/1045 435/255/1046
f 435/255/1047 437/256/1048 436/252/1049 434/251/1050
f 410/277/1051 411/263/1052 435/255/1053 433/266/1054
f 433/266/1055 435/255/1056 434/251/1057 432/261/1058
f 409/288/1059 410/277/1060 433/266/1061 431/279/1062
f 431/279/1063 433/266/1064 432/261/1065 430/272/1066
f 408/662/1067 409/666/1068 431/663/1069 429/658/1070
f 429/658/1071 431/663/1072 430/659/1073 428/654/1074
f 407/661/1075 408/662/1076 429/658/1077 427/657/1078
f 427/657/1079 429/658/1080 428/654/1081 426/653/1082
f 406/229/1083 407/240/1084 427/231/1085 425/219/1086
f 425/219/1087 427/231/1088 426/221/1089 424/213/1090
f 405/218/1091 406/229/1092 425/219/1093 423/212/1094
f 423/212/1095 425/219/1096 424/213/1097 422/208/1098
f 404/217/1099 405/218/1100 423/212/1101 420/211/1102
f 420/211/1103 423/212/1104 422/208/1105 421/207/1106
f 485/491/1107 487/492/1108 455/493/1109 489/494/1110 490/495/1111 491/496/1112 459/497/1113 460/498/1114 461/499/1115 462/500/1116 463/501/1117 464/502/1118 465/503/1119 466/504/1120 467/505/1121 486/506/1122
f 460/259/1123 459/260/1124 387/254/1125 389/253/1126 391/269/1127 461/270/1128
f 453/234/1129 452/223/1130 373/210/1131 375/233/1132 377/243/1133 454/244/1134
f 465/683/1135 464/684/1136 397/685/1137 399/245/1138 401/226/1139 466/235/1140
f 383/284/1141 385/262/1142 458/271/1143 457/690/1144 456/688/1145 381/687/1146
f 463/290/1147 462/283/1148 393/282/1149 395/686/1150 397/685/1151 464/684/1152
f 403/216/1153 373/210/1154 452/223/1155 467/224/1156 466/235/1157 401/226/1158
f 387/254/1159 459/260/1160 458/271/1161 385/262/1162
f 393/282/1163 462/283/1164 461/270/1165 391/269/1166
f 541/295/1167 493/296/1168 495/297/1169 542/298/1170
f 542/298/1171 495/297/1172 497/301/1173 544/302/1174
f 544/302/1175 497/301/1176 499/308/1177 546/309/1178
f 546/691/1179 499/692/1180 501/693/1181 548/694/1182
f 548/694/1183 501/693/1184 503/695/1185 550/696/1186
f 550/348/1187 503/356/1188 581/357/1189 552/335/1190
f 552/335/1191 505/336/1192 507/332/1193 554/331/1194
f 554/331/1195 507/332/1196 509/333/1197 556/334/1198
f 556/334/1199 509/333/1200 511/337/1201 558/338/1202
f 558/338/1203 511/337/1204 513/342/1205 560/343/1206
f 560/343/1207 513/342/1208 515/350/1209 562/351/1210
f 562/706/1211 515/707/1212 517/708/1213 564/709/1214
f 564/709/1215 517/708/1216 519/710/1217 566/711/1218
f 566/320/1219 519/325/1220 582/326/1221 568/305/1222
f 568/305/1223 521/306/1224 523/300/1225 570/299/1226
f 570/299/1227 523/300/1228 493/296/1229 541/295/1230
f 572/507/1231 573/508/1232 574/509/1233 575/510/1234 576/511/1235 577/512/1236 578/513/1237 506/514/1238 508/515/1239 510/516/1240 512/517/1241 514/518/1242 516/519/1243 518/520/1244 579/521/1245 580/522/1246
f 522/322/1247 539/314/1248 524/311/1249 492/317/1250
f 520/328/1251 538/321/1252 539/314/1253 522/322/1254
f 518/330/1255 537/327/1256 538/321/1257 520/328/1258
f 516/719/1259 536/716/1260 537/717/1261 518/720/1262
f 514/718/1263 535/715/1264 536/716/1265 516/719/1266
f 512/365/1267 534/361/1268 535/364/1269 514/366/1270
f 510/362/1271 533/353/1272 534/361/1273 512/365/1274
f 508/355/1275 532/346/1276 533/353/1277 510/362/1278
f 506/354/1279 531/345/1280 532/346/1281 508/355/1282
f 504/359/1283 530/349/1284 531/345/1285 506/354/1286
f 502/363/1287 529/358/1288 530/349/1289 504/359/1290
f 500/704/1291 528/701/1292 529/702/1293 502/705/1294
f 498/703/1295 527/700/1296 528/701/1297 500/704/1298
f 496/324/1299 526/316/1300 527/323/1301 498/329/1302
f 494/318/1303 525/312/1304 526/316/1305 496/324/1306
f 492/317/1307 524/311/1308 525/312/1309 494/318/1310
f 539/314/1311 571/307/1312 540/303/1313 524/311/1314
f 571/307/1315 570/299/1316 541/295/1317 540/303/1318
f 538/321/1319 569/313/1320 571/307/1321 539/314/1322
f 569/313/1323 568/305/1324 570/299/1325 571/307/1326
f 537/327/1327 567/319/1328 569/313/1329 538/321/1330
f 567/319/1331 566/320/1332 568/305/1333 569/313/1334
f 536/716/1335 565/713/1336 567/714/1337 537/717/1338
f 565/713/1339 564/709/1340 566/711/1341 567/714/1342
f 535/715/1343 563/712/1344 565/713/1345 536/716/1346
f 563/712/1347 562/706/1348 564/709/1349 565/713/1350
f 534/361/1351 561/352/1352 563/360/1353 535/364/1354
f 561/352/1355 560/343/1356 562/351/1357 563/360/1358
f 533/353/1359 559/344/1360 561/352/1361 534/361/1362
f 559/344/1363 558/338/1364 560/343/1365 561/352/1366
f 532/346/1367 557/340/1368 559/344/1369 533/353/1370
f 557/340/1371 556/334/1372 558/338/1373 559/344/1374
f 531/345/1375 555/339/1376 557/340/1377 532/346/1378
f 555/339/1379 554/331/1380 556/334/1381 557/340/1382
f 530/349/1383 553/341/1384 555/339/1385 531/345/1386
f 553/341/1387 552/335/1388 554/331/1389 555/339/1390
f 529/358/1391 551/347/1392 553/341/1393 530/349/1394
f 551/347/1395 550/348/1396 552/335/1397 553/341/1398
f 528/701/1399 549/698/1400 551/699/1401 529/702/1402
f 549/698/1403 548/694/1404 550/696/1405 551/699/1406
f 527/700/1407 547/697/1408 549/698/1409 528/701/1410
f 547/697/1411 546/691/1412 548/694/1413 549/698/1414
f 526/316/1415 545/310/1416 547/315/1417 527/323/1418
f 545/310/1419 544/302/1420 546/309/1421 547/315/1422
f 525/312/1423 543/304/1424 545/310/1425 526/316/1426
f 543/304/1427 542/298/1428 544/302/1429 545/310/1430
f 524/311/1431 540/303/1432 543/304/1433 525/312/1434
f 540/303/1435 541/295/1436 542/298/1437 543/304/1438
