# This file uses centimeters as units for non-parametric coordinates.

mtllib Pantalla_Model.mtl
g default
v -9.341909 3.509059 -32.780061
v -8.603840 2.752563 -32.614098
v -9.282764 3.204286 -32.766756
v -9.129926 2.969840 -32.732392
v -8.901190 2.813186 -32.680960
v -8.603850 22.641164 -32.614103
v -9.341920 21.884671 -32.780060
v -8.901202 22.580543 -32.680961
v -9.129936 22.423889 -32.732394
v -9.282774 22.189442 -32.766760
v 3.556009 2.752570 -29.879871
v 4.294076 3.509067 -29.713909
v 3.853357 2.813194 -29.813010
v 4.082095 2.969847 -29.761577
v 4.234930 3.204294 -29.727208
v 4.294067 21.884676 -29.713913
v 3.555998 22.641171 -29.879876
v 4.234920 22.189448 -29.727212
v 4.082083 22.423895 -29.761579
v 3.853346 22.580550 -29.813012
v -8.351355 2.465996 -33.865630
v -9.341473 3.480834 -34.088262
v -8.730256 2.543246 -33.950829
v -9.051474 2.763236 -34.023054
v -9.266105 3.092473 -34.071321
v -9.341483 21.912894 -34.088263
v -8.351366 22.927734 -33.865632
v -9.266115 22.301254 -34.071319
v -9.051484 22.630492 -34.023055
v -8.730267 22.850480 -33.950830
v 4.853685 3.480842 -30.896384
v 3.863569 2.466002 -31.119019
v 4.778318 3.092482 -30.913334
v 4.563687 2.763243 -30.961592
v 4.242471 2.543254 -31.033820
v 3.863557 22.927742 -31.119020
v 4.853676 21.912899 -30.896385
v 4.242460 22.850487 -31.033821
v 4.563677 22.630499 -30.961594
v 4.778307 22.301260 -30.913332
v -8.631379 2.465996 -32.620288
v -9.010280 2.543246 -32.705489
v -9.331496 2.763236 -32.777717
v -9.546128 3.092473 -32.825976
v -9.621497 3.480834 -32.842926
v 3.583534 22.927741 -29.873678
v 3.962437 22.850486 -29.788485
v 4.283653 22.630499 -29.716254
v 4.498285 22.301260 -29.667993
v 4.573653 21.912899 -29.651049
v -9.010291 22.850480 -32.705488
v -8.631389 22.927734 -32.620295
v -9.331507 22.630494 -32.777718
v -9.546140 22.301254 -32.825980
v -9.621506 21.912894 -32.842924
v 3.962448 2.543254 -29.788481
v 3.583545 2.466002 -29.873679
v 4.283665 2.763243 -29.716253
v 4.498295 3.092481 -29.667992
v 4.573662 3.480842 -29.651045
v -8.505095 2.752563 -33.053244
v -8.802445 2.813186 -33.120105
v -9.031181 2.969840 -33.171538
v -9.184018 3.204286 -33.205907
v -9.243165 3.509059 -33.219204
v 3.654743 22.641171 -30.319021
v 3.952091 22.580548 -30.252157
v 4.180828 22.423895 -30.200724
v 4.333666 22.189448 -30.166360
v 4.392811 21.884676 -30.153058
v -8.802456 22.580543 -33.120110
v -8.505106 22.641164 -33.053245
v -9.031191 22.423887 -33.171539
v -9.184028 22.189442 -33.205909
v -9.243174 21.884671 -33.219208
v 3.952104 2.813194 -30.252158
v 3.654754 2.752570 -30.319020
v 4.180840 2.969847 -30.200725
v 4.333675 3.204294 -30.166359
v 4.392821 3.509067 -30.153060
v -8.781864 3.509059 -35.270735
v -8.043793 2.752563 -35.104780
v -8.722717 3.204286 -35.257438
v -8.569879 2.969840 -35.223071
v -8.341144 2.813186 -35.171639
v -8.043804 22.641164 -35.104779
v -8.781872 21.884669 -35.270741
v -8.341154 22.580543 -35.171640
v -8.569890 22.423888 -35.223073
v -8.722727 22.189440 -35.257439
v 4.116056 2.752570 -32.370553
v 4.854123 3.509067 -32.204590
v 4.413405 2.813194 -32.303689
v 4.642140 2.969847 -32.252259
v 4.794977 3.204294 -32.217890
v 4.854113 21.884677 -32.204595
v 4.116044 22.641171 -32.370552
v 4.794967 22.189449 -32.217891
v 4.642130 22.423896 -32.252258
v 4.413394 22.580550 -32.303693
v -8.071332 2.465996 -35.110970
v -8.450233 2.543246 -35.196168
v -8.771450 2.763236 -35.268396
v -8.986081 3.092474 -35.316657
v -9.061449 3.480834 -35.333604
v 4.143581 22.927741 -32.364360
v 4.522483 22.850487 -32.279164
v 4.843700 22.630500 -32.206930
v 5.058332 22.301262 -32.158675
v 5.133700 21.912900 -32.141722
v -8.450244 22.850480 -35.196170
v -8.071342 22.927734 -35.110968
v -8.771462 22.630493 -35.268398
v -8.986090 22.301253 -35.316658
v -9.061460 21.912892 -35.333606
v 4.522494 2.543254 -32.279160
v 4.143593 2.466003 -32.364361
v 4.843711 2.763243 -32.206932
v 5.058342 3.092481 -32.158673
v 5.133709 3.480842 -32.141724
v -8.142539 2.752563 -34.665629
v -8.439890 2.813186 -34.732491
v -8.668625 2.969840 -34.783923
v -8.821462 3.204287 -34.818292
v -8.880609 3.509059 -34.831589
v 4.017298 22.641171 -31.931403
v 4.314648 22.580550 -31.864542
v 4.543385 22.423896 -31.813109
v 4.696221 22.189449 -31.778743
v 4.755367 21.884677 -31.765446
v -8.439901 22.580543 -34.732492
v -8.142550 22.641164 -34.665630
v -8.668635 22.423888 -34.783924
v -8.821473 22.189440 -34.818291
v -8.880619 21.884669 -34.831590
v 4.314659 2.813193 -31.864544
v 4.017310 2.752570 -31.931402
v 4.543395 2.969847 -31.813108
v 4.696232 3.204294 -31.778744
v 4.755378 3.509067 -31.765445
v -8.631379 2.465996 -32.620288
v -9.010280 2.543246 -32.705489
v -9.331496 2.763236 -32.777717
v -9.546128 3.092473 -32.825976
v -9.621497 3.480834 -32.842926
v 3.583534 22.927741 -29.873678
v 3.962437 22.850486 -29.788485
v 4.283653 22.630499 -29.716254
v 4.498285 22.301260 -29.667993
v 4.573653 21.912899 -29.651049
v -9.010291 22.850480 -32.705488
v -8.631389 22.927734 -32.620295
v -9.331507 22.630494 -32.777718
v -9.546140 22.301254 -32.825980
v -9.621506 21.912894 -32.842924
v 3.962448 2.543254 -29.788481
v 3.583545 2.466002 -29.873679
v 4.283665 2.763243 -29.716253
v 4.498295 3.092481 -29.667992
v 4.573662 3.480842 -29.651045
v -8.603840 2.752563 -32.614098
v -8.901190 2.813186 -32.680960
v -9.129926 2.969840 -32.732392
v -9.282764 3.204286 -32.766756
v -9.341909 3.509059 -32.780061
v 3.555998 22.641171 -29.879876
v 3.853346 22.580550 -29.813012
v 4.082083 22.423895 -29.761579
v 4.234920 22.189448 -29.727212
v 4.294067 21.884676 -29.713913
v -8.901202 22.580543 -32.680961
v -8.603850 22.641164 -32.614103
v -9.129936 22.423889 -32.732394
v -9.282774 22.189442 -32.766760
v -9.341920 21.884671 -32.780060
v 3.853357 2.813194 -29.813010
v 3.556009 2.752570 -29.879871
v 4.082095 2.969847 -29.761577
v 4.234930 3.204294 -29.727208
v 4.294076 3.509067 -29.713909
v -8.071332 2.465996 -35.110970
v -8.450233 2.543246 -35.196168
v -8.771450 2.763236 -35.268396
v -8.986081 3.092474 -35.316657
v -9.061449 3.480834 -35.333604
v 4.143581 22.927741 -32.364360
v 4.522483 22.850487 -32.279164
v 4.843700 22.630500 -32.206930
v 5.058332 22.301262 -32.158675
v 5.133700 21.912900 -32.141722
v -8.450244 22.850480 -35.196170
v -8.071342 22.927734 -35.110968
v -8.771462 22.630493 -35.268398
v -8.986090 22.301253 -35.316658
v -9.061460 21.912892 -35.333606
v 4.522494 2.543254 -32.279160
v 4.143593 2.466003 -32.364361
v 4.843711 2.763243 -32.206932
v 5.058342 3.092481 -32.158673
v 5.133709 3.480842 -32.141724
v -8.043793 2.752563 -35.104780
v -8.341144 2.813186 -35.171639
v -8.569879 2.969840 -35.223071
v -8.722717 3.204286 -35.257438
v -8.781864 3.509059 -35.270735
v 4.116044 22.641171 -32.370552
v 4.413394 22.580550 -32.303693
v 4.642130 22.423896 -32.252258
v 4.794967 22.189449 -32.217891
v 4.854113 21.884677 -32.204595
v -8.341154 22.580543 -35.171640
v -8.043804 22.641164 -35.104779
v -8.569890 22.423888 -35.223073
v -8.722727 22.189440 -35.257439
v -8.781872 21.884669 -35.270741
v 4.413405 2.813194 -32.303689
v 4.116056 2.752570 -32.370553
v 4.642140 2.969847 -32.252259
v 4.794977 3.204294 -32.217890
v 4.854123 3.509067 -32.204590
v -9.160882 2.717991 -32.960158
v 4.207708 2.717999 -29.954137
v -9.314660 21.786944 -32.994738
v -9.314658 19.696614 -32.994738
v 4.361468 17.501429 -29.919562
v 4.361466 19.702501 -29.919565
v -9.314652 8.415017 -32.994737
v 4.361472 8.415025 -29.919561
v -9.314652 7.001007 -32.994737
v 4.361474 7.001015 -29.919561
v -9.314651 6.321489 -32.994731
v 4.361474 6.321497 -29.919561
v -9.314650 5.297768 -32.994731
v 4.361475 5.297776 -29.919561
v -9.314650 4.560689 -32.994731
v 4.361475 4.560696 -29.919561
v -9.314649 3.311748 -32.994731
v 4.361475 3.311756 -29.919561
v 4.361476 3.644808 -29.919561
v -9.314650 3.644800 -32.994731
v 4.361474 4.102752 -29.919561
v -9.314651 4.102744 -32.994731
v -7.975028 2.717992 -32.693513
v 2.764516 2.717998 -30.278645
v 4.361470 13.554187 -29.919562
v 4.361470 13.326036 -29.919562
v 4.361472 10.508391 -29.919561
v 4.361472 10.380049 -29.919561
v 4.361471 9.263015 -29.919562
v 4.361473 9.144181 -29.919561
v -9.314657 19.459982 -32.994737
v -9.314658 18.749173 -32.994737
v -9.314654 10.848837 -32.994737
v -9.314654 10.685756 -32.994737
v -9.314660 22.284622 -32.994738
v -8.933073 22.675739 -32.908932
v 3.979878 22.675745 -30.005365
v 4.361465 22.284628 -29.919565
v 4.673029 2.717999 -32.024360
v -8.695561 2.717991 -35.030382
v 4.826787 21.786951 -31.989786
v 4.826787 19.696620 -31.989783
v -8.849336 17.501421 -35.064955
v -8.849338 19.702495 -35.064956
v 4.826793 8.415024 -31.989782
v -8.849331 8.415017 -35.064955
v 4.826793 7.001014 -31.989782
v -8.849331 7.001007 -35.064955
v 4.826794 6.321497 -31.989782
v -8.849330 6.321489 -35.064955
v 4.826794 5.297776 -31.989782
v -8.849330 5.297769 -35.064955
v 4.826795 4.560697 -31.989782
v -8.849329 4.560689 -35.064954
v 4.826795 3.311756 -31.989782
v -8.849329 3.311749 -35.064954
v -8.849329 3.644800 -35.064954
v 4.826795 3.644808 -31.989782
v -8.849329 4.102745 -35.064954
v 4.826795 4.102752 -31.989782
v 3.487176 2.717998 -32.291008
v -7.252368 2.717992 -34.705867
v -8.849334 13.554179 -35.064955
v -8.849334 13.326028 -35.064955
v -8.849333 10.508382 -35.064955
v -8.849332 10.380041 -35.064955
v -8.849332 9.263007 -35.064955
v -8.849332 9.144172 -35.064955
v 4.826788 19.459990 -31.989783
v 4.826788 18.749179 -31.989783
v 4.826793 10.848844 -31.989782
v 4.826792 10.685763 -31.989782
v 4.826786 22.284630 -31.989786
v 4.445199 22.675746 -32.075588
v -8.467751 22.675739 -34.979156
v -8.849339 22.284621 -35.064956
v -2.019978 1.521647 -33.487808
v -2.019979 2.716397 -33.487808
v -1.655954 1.521648 -33.326324
v -1.655955 2.716397 -33.326325
v -1.381438 1.521648 -33.037825
v -1.381438 2.716397 -33.037825
v -1.238221 1.521648 -32.666235
v -1.238221 2.716397 -32.666235
v -1.248108 1.521648 -32.268124
v -1.248109 2.716397 -32.268124
v -1.409593 1.521648 -31.904098
v -1.409593 2.716397 -31.904098
v -1.698091 1.521647 -31.629585
v -1.698091 2.716397 -31.629585
v -2.069681 1.521647 -31.486367
v -2.069682 2.716397 -31.486367
v -2.467792 1.521647 -31.496252
v -2.467793 2.716397 -31.496252
v -2.831816 1.521647 -31.657738
v -2.831817 2.716397 -31.657738
v -3.106333 1.521647 -31.946235
v -3.106334 2.716396 -31.946235
v -3.249550 1.521647 -32.317825
v -3.249550 2.716397 -32.317825
v -3.239663 1.521647 -32.715939
v -3.239663 2.716397 -32.715939
v -3.078178 1.521647 -33.079959
v -3.078179 2.716396 -33.079959
v -2.789680 1.521647 -33.354478
v -2.789680 2.716397 -33.354478
v -2.418089 1.521647 -33.497696
v -2.418090 2.716397 -33.497696
v -1.980386 1.478035 -33.663878
v -1.551998 1.478036 -33.473839
v -1.228942 1.478036 -33.134333
v -1.060403 1.478036 -32.697037
v -1.072037 1.478036 -32.228530
v -1.262075 1.478036 -31.800142
v -1.601585 1.478036 -31.477087
v -2.038879 1.478035 -31.308548
v -2.507383 1.478035 -31.320181
v -2.935773 1.478035 -31.510218
v -3.258828 1.478035 -31.849730
v -3.427369 1.478035 -32.287026
v -3.415734 1.478034 -32.755527
v -3.225695 1.478035 -33.183918
v -2.886185 1.478035 -33.506973
v -2.448891 1.478035 -33.675514
v -1.980387 0.459759 -33.663878
v -1.551997 0.459759 -33.473839
v -1.228941 0.459760 -33.134333
v -1.060402 0.459760 -32.697037
v -1.072037 0.459760 -32.228530
v -1.262075 0.459760 -31.800142
v -1.601584 0.459759 -31.477090
v -2.038878 0.459759 -31.308548
v -2.507383 0.459759 -31.320181
v -2.935773 0.459759 -31.510218
v -3.258827 0.459758 -31.849729
v -3.427367 0.459758 -32.287020
v -3.415733 0.459758 -32.755527
v -3.225694 0.459758 -33.183918
v -2.886185 0.459759 -33.506973
v -2.448891 0.459759 -33.675514
v -10.110119 -0.000004 -30.887473
v -8.872291 0.467735 -31.670826
v -8.666095 -0.000004 -37.309441
v -7.882744 0.467735 -36.071618
v 4.178326 0.000004 -27.674618
v 3.394973 0.467742 -28.912445
v 5.622351 0.000004 -34.096584
v 4.384521 0.467742 -33.313234
v -10.110119 0.114809 -30.887473
v -8.666095 0.114809 -37.309441
v 5.622351 0.114817 -34.096584
v 4.178326 0.114817 -27.674618
v -2.019978 1.521647 -33.487808
v -1.655954 1.521648 -33.326324
v -1.381438 1.521648 -33.037825
v -1.238221 1.521648 -32.666235
v -1.248108 1.521648 -32.268124
v -1.409593 1.521648 -31.904098
v -1.698091 1.521647 -31.629585
v -2.069681 1.521647 -31.486367
v -2.467792 1.521647 -31.496252
v -2.831816 1.521647 -31.657738
v -3.106333 1.521647 -31.946235
v -3.249550 1.521647 -32.317825
v -3.239663 1.521647 -32.715939
v -3.078178 1.521647 -33.079959
v -2.789680 1.521647 -33.354478
v -2.418089 1.521647 -33.497696
v -1.980386 1.478035 -33.663878
v -1.551998 1.478036 -33.473839
v -1.228942 1.478036 -33.134333
v -1.060403 1.478036 -32.697037
v -1.072037 1.478036 -32.228530
v -1.262075 1.478036 -31.800142
v -1.601585 1.478036 -31.477087
v -2.038879 1.478035 -31.308548
v -2.507383 1.478035 -31.320181
v -2.935773 1.478035 -31.510218
v -3.258828 1.478035 -31.849730
v -3.427369 1.478035 -32.287026
v -3.415734 1.478034 -32.755527
v -3.225695 1.478035 -33.183918
v -2.886185 1.478035 -33.506973
v -2.448891 1.478035 -33.675514
v -8.666095 -0.000004 -37.309441
v -8.666095 -0.000004 -37.309441
v -10.110119 -0.000004 -30.887473
v -10.110119 -0.000004 -30.887473
v -10.110119 0.114809 -30.887473
v -10.110119 0.114809 -30.887473
v -8.666095 0.114809 -37.309441
v -8.666095 0.114809 -37.309441
v 5.622351 0.000004 -34.096584
v 5.622351 0.000004 -34.096584
v 5.622351 0.114817 -34.096584
v 5.622351 0.114817 -34.096584
v 4.178326 0.000004 -27.674618
v 4.178326 0.000004 -27.674618
v 4.178326 0.114817 -27.674618
v 4.178326 0.114817 -27.674618
vt 0.033708 0.023134
vt 0.027678 0.024334
vt 0.025465 0.018992
vt 0.033149 0.017464
vt 0.023039 0.027433
vt 0.018951 0.023345
vt 0.280306 0.023134
vt 0.280864 0.017464
vt 0.019939 0.032072
vt 0.014598 0.029860
vt 0.286337 0.024334
vt 0.288549 0.018992
vt 0.018740 0.038102
vt 0.013070 0.037543
vt 0.290975 0.027433
vt 0.295063 0.023345
vt 0.018740 0.401677
vt 0.013070 0.402235
vt 0.294074 0.032072
vt 0.299416 0.029860
vt 0.019939 0.407707
vt 0.014598 0.409919
vt 0.295274 0.038102
vt 0.300944 0.037543
vt 0.023039 0.412345
vt 0.018951 0.416433
vt 0.295274 0.401677
vt 0.300944 0.402235
vt 0.027678 0.415445
vt 0.025465 0.420785
vt 0.294074 0.407707
vt 0.299416 0.409919
vt 0.033708 0.416644
vt 0.033149 0.422314
vt 0.290975 0.412345
vt 0.295063 0.416433
vt 0.280306 0.416644
vt 0.280864 0.422314
vt 0.286337 0.415445
vt 0.288549 0.420785
vt 0.327254 0.416644
vt 0.326696 0.422314
vt 0.319012 0.420786
vt 0.321224 0.415445
vt 0.573853 0.416644
vt 0.579883 0.415445
vt 0.582095 0.420786
vt 0.574411 0.422314
vt 0.312498 0.416433
vt 0.316586 0.412345
vt 0.584522 0.412345
vt 0.588609 0.416433
vt 0.308145 0.409919
vt 0.313486 0.407706
vt 0.587621 0.407706
vt 0.592962 0.409919
vt 0.306617 0.402235
vt 0.312287 0.401676
vt 0.588821 0.401676
vt 0.594491 0.402235
vt 0.306617 0.037543
vt 0.312287 0.038102
vt 0.588821 0.038102
vt 0.594491 0.037543
vt 0.308145 0.029859
vt 0.313486 0.032072
vt 0.587621 0.032072
vt 0.592962 0.029859
vt 0.312498 0.023345
vt 0.316586 0.027433
vt 0.584522 0.027433
vt 0.588609 0.023345
vt 0.319012 0.018993
vt 0.321224 0.024333
vt 0.579883 0.024333
vt 0.582095 0.018993
vt 0.326696 0.017464
vt 0.327254 0.023134
vt 0.573853 0.023134
vt 0.574411 0.017464
vt 0.953063 0.583932
vt 0.983268 0.583932
vt 0.986487 0.596057
vt 0.986487 0.602858
vt 0.986487 0.612209
vt 0.986487 0.621560
vt 0.986487 0.636612
vt 0.986487 0.657516
vt 0.986487 0.671392
vt 0.986487 0.700266
vt 0.986487 0.715156
vt 0.986487 0.717582
vt 0.986487 0.740392
vt 0.986487 0.743013
vt 0.986487 0.800550
vt 0.986487 0.805209
vt 0.986487 0.885812
vt 0.986487 0.930758
vt 0.986487 0.983485
vt 0.700246 0.983485
vt 0.700246 0.973323
vt 0.700246 0.930638
vt 0.700246 0.925806
vt 0.700246 0.911291
vt 0.700246 0.749965
vt 0.700246 0.746635
vt 0.700246 0.700266
vt 0.700246 0.671392
vt 0.700246 0.657516
vt 0.700246 0.636612
vt 0.700246 0.621560
vt 0.700246 0.612209
vt 0.700246 0.602858
vt 0.700246 0.596057
vt 0.703464 0.583932
vt 0.728284 0.583932
vt 0.978500 0.991472
vt 0.708233 0.991472
vt 0.691490 0.884955
vt 0.691671 0.929901
vt 0.691883 0.982628
vt 0.405645 0.983781
vt 0.405604 0.973618
vt 0.405432 0.930934
vt 0.405412 0.926102
vt 0.405354 0.911587
vt 0.404704 0.750263
vt 0.404691 0.746933
vt 0.404504 0.700564
vt 0.404388 0.671690
vt 0.404332 0.657815
vt 0.404248 0.636910
vt 0.404187 0.621859
vt 0.404149 0.612508
vt 0.404112 0.603157
vt 0.404084 0.596356
vt 0.407254 0.584218
vt 0.432073 0.584118
vt 0.656850 0.583213
vt 0.687056 0.583091
vt 0.690323 0.595203
vt 0.690350 0.602004
vt 0.690388 0.611355
vt 0.690426 0.620706
vt 0.690486 0.635757
vt 0.690571 0.656662
vt 0.690626 0.670538
vt 0.690743 0.699411
vt 0.690803 0.714301
vt 0.690812 0.716727
vt 0.690904 0.739537
vt 0.690915 0.742158
vt 0.691147 0.799694
vt 0.691165 0.804353
vt 0.683929 0.990647
vt 0.413663 0.991735
vt 0.342854 0.839454
vt 0.342854 0.847182
vt 0.319215 0.847182
vt 0.319215 0.839454
vt 0.319215 0.831726
vt 0.342854 0.831726
vt 0.319215 0.853734
vt 0.342854 0.853734
vt 0.342854 0.858111
vt 0.319215 0.858111
vt 0.319215 0.825175
vt 0.319215 0.820798
vt 0.342854 0.820798
vt 0.342854 0.825175
vt 0.373451 0.843221
vt 0.373451 0.850949
vt 0.349812 0.850949
vt 0.349812 0.843221
vt 0.349812 0.835493
vt 0.373451 0.835493
vt 0.373451 0.857501
vt 0.373451 0.861878
vt 0.349812 0.861878
vt 0.349812 0.857501
vt 0.373451 0.828942
vt 0.349812 0.828942
vt 0.349812 0.824565
vt 0.373451 0.824565
vt 0.285369 0.741408
vt 0.285369 0.750502
vt 0.265221 0.750502
vt 0.265221 0.741408
vt 0.265221 0.732314
vt 0.285369 0.732314
vt 0.285369 0.758212
vt 0.285369 0.763364
vt 0.265221 0.763364
vt 0.265221 0.758212
vt 0.265221 0.724604
vt 0.265221 0.719452
vt 0.285369 0.719452
vt 0.285369 0.724604
vt 0.312366 0.842753
vt 0.312366 0.851847
vt 0.292218 0.851847
vt 0.292218 0.842753
vt 0.292218 0.833658
vt 0.312366 0.833658
vt 0.292218 0.859557
vt 0.312366 0.859557
vt 0.312366 0.864708
vt 0.292218 0.864708
vt 0.292218 0.825948
vt 0.292218 0.820797
vt 0.312366 0.820797
vt 0.312366 0.825948
vt 0.306272 0.426000
vt 0.308544 0.426000
vt 0.308544 0.715766
vt 0.306272 0.715766
vt 0.300606 0.715766
vt 0.298334 0.715766
vt 0.298334 0.426001
vt 0.300606 0.426001
vt 0.627038 0.400706
vt 0.627038 0.036014
vt 0.652293 0.036014
vt 0.652293 0.400706
vt 0.601783 0.400706
vt 0.601783 0.036014
vt 0.627038 0.028331
vt 0.652293 0.028331
vt 0.652293 0.408390
vt 0.627038 0.408390
vt 0.601783 0.408390
vt 0.601783 0.028331
vt 0.627038 0.021816
vt 0.652293 0.021816
vt 0.652293 0.414904
vt 0.627038 0.414904
vt 0.601783 0.414904
vt 0.601783 0.021816
vt 0.627038 0.017464
vt 0.652293 0.017464
vt 0.652293 0.419257
vt 0.627038 0.419257
vt 0.601783 0.419257
vt 0.601783 0.017464
vt 0.684632 0.028331
vt 0.709887 0.028331
vt 0.709887 0.036015
vt 0.684632 0.036015
vt 0.684632 0.021817
vt 0.709887 0.021817
vt 0.709887 0.400706
vt 0.684632 0.400706
vt 0.659376 0.036015
vt 0.659376 0.028331
vt 0.684632 0.017464
vt 0.709887 0.017464
vt 0.659376 0.021817
vt 0.709887 0.408390
vt 0.684632 0.408390
vt 0.659376 0.400706
vt 0.659376 0.017464
vt 0.709887 0.414905
vt 0.684632 0.414905
vt 0.659376 0.408390
vt 0.709887 0.419257
vt 0.684632 0.419257
vt 0.659376 0.414905
vt 0.659376 0.419257
vt 0.366831 0.803343
vt 0.366831 0.809373
vt 0.357925 0.809373
vt 0.357925 0.803343
vt 0.366831 0.814012
vt 0.357925 0.814012
vt 0.366831 0.439769
vt 0.357925 0.439769
vt 0.366831 0.817112
vt 0.357925 0.817111
vt 0.366831 0.433738
vt 0.357925 0.433738
vt 0.366831 0.429100
vt 0.357925 0.429100
vt 0.366831 0.426000
vt 0.357925 0.426000
vt 0.352259 0.439768
vt 0.352259 0.803343
vt 0.343354 0.803343
vt 0.343354 0.439768
vt 0.352259 0.809373
vt 0.343354 0.809373
vt 0.352259 0.433738
vt 0.343354 0.433738
vt 0.352259 0.814011
vt 0.343354 0.814011
vt 0.352259 0.429099
vt 0.343354 0.429099
vt 0.352259 0.817111
vt 0.343354 0.817111
vt 0.352259 0.426000
vt 0.343354 0.426000
vt 0.328782 0.803343
vt 0.337688 0.803343
vt 0.337688 0.809373
vt 0.328782 0.809373
vt 0.328782 0.439769
vt 0.337688 0.439769
vt 0.337688 0.814012
vt 0.328782 0.814012
vt 0.328782 0.433738
vt 0.337688 0.433738
vt 0.337688 0.817112
vt 0.328782 0.817112
vt 0.328782 0.429100
vt 0.337688 0.429100
vt 0.328782 0.426000
vt 0.337688 0.426000
vt 0.314210 0.439768
vt 0.323116 0.439768
vt 0.323116 0.803343
vt 0.314210 0.803343
vt 0.314210 0.433738
vt 0.323116 0.433738
vt 0.323116 0.809373
vt 0.314210 0.809373
vt 0.314210 0.429099
vt 0.323116 0.429099
vt 0.323116 0.814011
vt 0.314210 0.814011
vt 0.314210 0.426000
vt 0.323116 0.426000
vt 0.323116 0.817111
vt 0.314210 0.817111
vt 0.210737 0.901871
vt 0.203009 0.901871
vt 0.203009 0.878232
vt 0.210737 0.878232
vt 0.218465 0.878232
vt 0.218465 0.901871
vt 0.232334 0.878232
vt 0.240063 0.878232
vt 0.240063 0.901870
vt 0.232334 0.901870
vt 0.224607 0.901870
vt 0.224607 0.878232
vt 0.255299 0.898379
vt 0.246204 0.898379
vt 0.246204 0.878232
vt 0.255299 0.878232
vt 0.264393 0.878232
vt 0.264393 0.898379
vt 0.280496 0.878232
vt 0.289590 0.878232
vt 0.289590 0.898379
vt 0.280496 0.898379
vt 0.271401 0.898379
vt 0.271401 0.878232
vt 0.193229 0.719452
vt 0.195501 0.719452
vt 0.195501 0.849688
vt 0.193229 0.849688
vt 0.204500 0.849688
vt 0.202228 0.849688
vt 0.202228 0.719452
vt 0.204500 0.719452
vt 0.038325 0.974851
vt 0.038325 0.727136
vt 0.063580 0.727136
vt 0.063580 0.974851
vt 0.013070 0.974851
vt 0.013070 0.727136
vt 0.038325 0.719452
vt 0.063580 0.719452
vt 0.063580 0.982536
vt 0.038325 0.982536
vt 0.013070 0.982536
vt 0.013070 0.719452
vt 0.096099 0.974852
vt 0.096099 0.727136
vt 0.121354 0.727136
vt 0.121354 0.974852
vt 0.070843 0.974852
vt 0.070843 0.727136
vt 0.096099 0.719453
vt 0.121354 0.719453
vt 0.121354 0.982536
vt 0.096099 0.982536
vt 0.070843 0.982536
vt 0.070843 0.719453
vt 0.137342 0.719453
vt 0.137342 0.725483
vt 0.128437 0.725483
vt 0.128437 0.719453
vt 0.137342 0.972081
vt 0.128437 0.972081
vt 0.137342 0.978112
vt 0.128437 0.978112
vt 0.153541 0.972080
vt 0.153541 0.978111
vt 0.144635 0.978111
vt 0.144635 0.972080
vt 0.153541 0.725482
vt 0.144635 0.725482
vt 0.153541 0.719452
vt 0.144635 0.719452
vt 0.160833 0.719452
vt 0.169739 0.719452
vt 0.169739 0.725482
vt 0.160833 0.725482
vt 0.160833 0.972081
vt 0.169739 0.972081
vt 0.169739 0.978111
vt 0.160833 0.978111
vt 0.177031 0.972080
vt 0.185937 0.972080
vt 0.185937 0.978111
vt 0.177031 0.978111
vt 0.177031 0.725482
vt 0.185937 0.725482
vt 0.177031 0.719452
vt 0.185937 0.719452
vt 0.220713 0.757496
vt 0.227264 0.761874
vt 0.225898 0.765173
vt 0.218188 0.760021
vt 0.213036 0.752311
vt 0.216335 0.750945
vt 0.234992 0.766982
vt 0.234992 0.763411
vt 0.242720 0.761874
vt 0.244087 0.765173
vt 0.214798 0.743217
vt 0.211227 0.743217
vt 0.213036 0.734123
vt 0.216335 0.735489
vt 0.251796 0.760021
vt 0.249271 0.757496
vt 0.253649 0.750945
vt 0.256948 0.752311
vt 0.218188 0.726413
vt 0.225898 0.721261
vt 0.227264 0.724560
vt 0.220713 0.728938
vt 0.258757 0.743217
vt 0.255186 0.743217
vt 0.253649 0.735489
vt 0.256948 0.734123
vt 0.234992 0.723023
vt 0.234992 0.719452
vt 0.244086 0.721261
vt 0.242720 0.724560
vt 0.249271 0.728938
vt 0.251796 0.726413
vt 0.162433 0.715766
vt 0.162433 0.426001
vt 0.292669 0.426001
vt 0.292669 0.715766
vt 0.047026 0.695272
vt 0.047026 0.446495
vt 0.136273 0.446495
vt 0.136273 0.695272
vt 0.026531 0.715766
vt 0.026531 0.426001
vt 0.156767 0.426001
vt 0.156767 0.715766
vn -0.095630 -0.995185 -0.021503
vn 0.095631 -0.995185 0.021503
vn 0.095631 -0.995185 0.021503
vn -0.095630 -0.995185 -0.021503
vn 0.095631 0.995185 0.021503
vn -0.095632 0.995184 -0.021504
vn -0.095632 0.995184 -0.021504
vn 0.095631 0.995185 0.021503
vn 0.970942 -0.098017 0.218323
vn 0.970942 0.098018 0.218323
vn 0.970942 0.098018 0.218323
vn 0.970942 -0.098017 0.218323
vn -0.689883 -0.707105 -0.155125
vn -0.373362 -0.923879 -0.083953
vn -0.373362 -0.923879 -0.083953
vn -0.689883 -0.707105 -0.155125
vn -0.095630 -0.995185 -0.021503
vn -0.095630 -0.995185 -0.021503
vn -0.373362 -0.923879 -0.083953
vn -0.373362 -0.923879 -0.083953
vn -0.373362 -0.923879 -0.083953
vn -0.373362 -0.923879 -0.083953
vn -0.689881 -0.707107 -0.155125
vn -0.689881 -0.707107 -0.155125
vn -0.689881 -0.707107 -0.155125
vn -0.689881 -0.707107 -0.155125
vn -0.901373 -0.382684 -0.202680
vn -0.901373 -0.382684 -0.202680
vn -0.901373 -0.382684 -0.202680
vn -0.901373 -0.382684 -0.202680
vn -0.970942 -0.098018 -0.218323
vn -0.970942 -0.098018 -0.218323
vn 0.095631 0.995185 0.021503
vn 0.095631 0.995185 0.021503
vn 0.373362 0.923879 0.083953
vn 0.373362 0.923879 0.083953
vn 0.373362 0.923879 0.083953
vn 0.373362 0.923879 0.083953
vn 0.689880 0.707108 0.155124
vn 0.689881 0.707107 0.155125
vn 0.689881 0.707107 0.155125
vn 0.689880 0.707108 0.155124
vn 0.901373 0.382684 0.202680
vn 0.901373 0.382684 0.202680
vn 0.901373 0.382684 0.202680
vn 0.901373 0.382684 0.202680
vn 0.970942 0.098018 0.218323
vn 0.970942 0.098018 0.218323
vn -0.095632 0.995184 -0.021504
vn -0.095632 0.995184 -0.021504
vn -0.373364 0.923879 -0.083953
vn -0.373364 0.923878 -0.083953
vn -0.373364 0.923878 -0.083953
vn -0.373364 0.923879 -0.083953
vn -0.689882 0.707106 -0.155125
vn -0.689882 0.707106 -0.155125
vn -0.689882 0.707106 -0.155125
vn -0.689882 0.707106 -0.155125
vn -0.901374 0.382683 -0.202680
vn -0.901374 0.382683 -0.202680
vn -0.901374 0.382683 -0.202680
vn -0.901374 0.382683 -0.202680
vn -0.970942 0.098017 -0.218323
vn -0.970942 0.098017 -0.218323
vn 0.095631 -0.995185 0.021503
vn 0.095631 -0.995185 0.021503
vn 0.373363 -0.923879 0.083953
vn 0.373363 -0.923879 0.083953
vn 0.373363 -0.923879 0.083953
vn 0.373363 -0.923879 0.083953
vn 0.689882 -0.707106 0.155125
vn 0.689881 -0.707107 0.155125
vn 0.689881 -0.707107 0.155125
vn 0.689882 -0.707106 0.155125
vn 0.901374 -0.382683 0.202680
vn 0.901373 -0.382684 0.202680
vn 0.901373 -0.382684 0.202680
vn 0.901374 -0.382683 0.202680
vn 0.970942 -0.098017 0.218323
vn 0.970942 -0.098017 0.218323
vn -0.970942 -0.098018 -0.218323
vn -0.970942 0.098017 -0.218323
vn -0.970942 0.098017 -0.218323
vn -0.970942 -0.098018 -0.218323
vn -0.219379 -0.000000 0.975640
vn -0.219379 -0.000000 0.975640
vn -0.219379 -0.000000 0.975640
vn -0.219379 -0.000000 0.975640
vn -0.219379 -0.000000 0.975640
vn -0.219379 -0.000000 0.975640
vn -0.219379 -0.000000 0.975640
vn -0.219379 -0.000000 0.975640
vn -0.219379 -0.000000 0.975640
vn -0.219379 -0.000000 0.975640
vn -0.219379 -0.000000 0.975640
vn -0.219379 -0.000000 0.975640
vn -0.219379 -0.000000 0.975640
vn -0.219379 -0.000000 0.975640
vn -0.219379 -0.000000 0.975640
vn -0.219379 -0.000000 0.975640
vn -0.219379 -0.000000 0.975640
vn -0.219380 -0.000000 0.975640
vn -0.219380 -0.000000 0.975640
vn -0.219379 -0.000000 0.975640
vn -0.219380 -0.000000 0.975640
vn -0.219380 -0.000000 0.975640
vn -0.219380 -0.000000 0.975640
vn -0.219380 -0.000000 0.975640
vn -0.219380 -0.000000 0.975640
vn -0.219379 -0.000000 0.975640
vn -0.219379 -0.000000 0.975640
vn -0.219380 -0.000000 0.975640
vn -0.219379 -0.000000 0.975640
vn -0.219379 -0.000000 0.975640
vn -0.219379 -0.000000 0.975640
vn -0.219379 -0.000000 0.975640
vn -0.219379 -0.000000 0.975640
vn -0.219379 -0.000000 0.975640
vn -0.219379 -0.000000 0.975640
vn -0.219379 -0.000000 0.975640
vn -0.219380 -0.000000 0.975640
vn -0.219379 -0.000000 0.975640
vn -0.219379 -0.000000 0.975640
vn -0.219380 -0.000000 0.975640
vn -0.219379 -0.000000 0.975640
vn -0.219380 -0.000000 0.975640
vn -0.219380 -0.000000 0.975640
vn -0.219379 -0.000000 0.975640
vn -0.219379 -0.000000 0.975640
vn -0.219379 -0.000000 0.975640
vn -0.219379 -0.000000 0.975640
vn -0.219379 -0.000000 0.975640
vn -0.219379 -0.000000 0.975640
vn -0.219379 -0.000000 0.975640
vn -0.219379 -0.000000 0.975640
vn -0.219379 -0.000000 0.975640
vn -0.219380 -0.000000 0.975640
vn -0.219379 -0.000000 0.975640
vn -0.219379 -0.000000 0.975640
vn -0.219380 -0.000000 0.975640
vn -0.219379 -0.000000 0.975640
vn -0.219380 -0.000000 0.975640
vn -0.219380 -0.000000 0.975640
vn -0.219379 -0.000000 0.975640
vn -0.219379 -0.000000 0.975640
vn -0.219379 -0.000000 0.975640
vn -0.219379 -0.000000 0.975640
vn -0.219379 -0.000000 0.975640
vn -0.219379 -0.000000 0.975640
vn -0.219379 -0.000000 0.975640
vn -0.219379 -0.000000 0.975640
vn -0.219379 -0.000000 0.975640
vn -0.219379 -0.000000 0.975640
vn -0.219379 -0.000000 0.975640
vn -0.219379 -0.000000 0.975640
vn -0.219379 -0.000000 0.975640
vn -0.219379 -0.000000 0.975640
vn -0.219379 -0.000000 0.975640
vn -0.219379 -0.000000 0.975640
vn -0.219379 -0.000000 0.975640
vn -0.219379 -0.000000 0.975640
vn -0.219379 -0.000000 0.975640
vn -0.219379 -0.000000 0.975640
vn -0.219379 -0.000000 0.975640
vn -0.373364 0.923878 -0.083953
vn -0.689883 0.707106 -0.155125
vn -0.689883 0.707106 -0.155125
vn -0.373364 0.923878 -0.083953
vn -0.901373 -0.382684 -0.202680
vn -0.689883 -0.707105 -0.155125
vn -0.689883 -0.707105 -0.155125
vn -0.901373 -0.382684 -0.202680
vn -0.689883 0.707106 -0.155125
vn -0.901373 0.382684 -0.202680
vn -0.901373 0.382684 -0.202680
vn -0.689883 0.707106 -0.155125
vn -0.970942 -0.098018 -0.218323
vn -0.901373 -0.382684 -0.202680
vn -0.901373 -0.382684 -0.202680
vn -0.970942 -0.098018 -0.218323
vn 0.373362 0.923879 0.083953
vn 0.095629 0.995185 0.021503
vn 0.095629 0.995185 0.021503
vn 0.373362 0.923879 0.083953
vn -0.901373 0.382684 -0.202680
vn -0.970942 0.098016 -0.218323
vn -0.970942 0.098016 -0.218323
vn -0.901373 0.382684 -0.202680
vn 0.095627 -0.995185 0.021502
vn 0.373362 -0.923879 0.083953
vn 0.373362 -0.923879 0.083953
vn 0.095627 -0.995185 0.021502
vn 0.689881 0.707107 0.155125
vn 0.373362 0.923879 0.083953
vn 0.373362 0.923879 0.083953
vn 0.689881 0.707107 0.155125
vn 0.970942 -0.098016 0.218323
vn 0.970942 0.098018 0.218323
vn 0.970942 0.098018 0.218323
vn 0.970942 -0.098016 0.218323
vn 0.373362 -0.923879 0.083953
vn 0.689884 -0.707104 0.155125
vn 0.689884 -0.707104 0.155125
vn 0.373362 -0.923879 0.083953
vn 0.901373 0.382684 0.202680
vn 0.689881 0.707107 0.155125
vn 0.689881 0.707107 0.155125
vn 0.901373 0.382684 0.202680
vn 0.095629 0.995185 0.021503
vn -0.095630 0.995185 -0.021503
vn -0.095630 0.995185 -0.021503
vn 0.095629 0.995185 0.021503
vn 0.689884 -0.707104 0.155125
vn 0.901373 -0.382683 0.202680
vn 0.901373 -0.382683 0.202680
vn 0.689884 -0.707104 0.155125
vn 0.970942 0.098018 0.218323
vn 0.901373 0.382684 0.202680
vn 0.901373 0.382684 0.202680
vn 0.970942 0.098018 0.218323
vn -0.970942 0.098016 -0.218323
vn -0.970942 -0.098018 -0.218323
vn -0.970942 -0.098018 -0.218323
vn -0.970942 0.098016 -0.218323
vn 0.901373 -0.382683 0.202680
vn 0.970942 -0.098016 0.218323
vn 0.970942 -0.098016 0.218323
vn 0.901373 -0.382683 0.202680
vn -0.373362 -0.923879 -0.083953
vn -0.095626 -0.995185 -0.021502
vn -0.095626 -0.995185 -0.021502
vn -0.373362 -0.923879 -0.083953
vn -0.095626 -0.995185 -0.021502
vn 0.095627 -0.995185 0.021502
vn 0.095627 -0.995185 0.021502
vn -0.095626 -0.995185 -0.021502
vn -0.095630 0.995185 -0.021503
vn -0.373364 0.923878 -0.083953
vn -0.373364 0.923878 -0.083953
vn -0.095630 0.995185 -0.021503
vn -0.095630 -0.995185 -0.021503
vn -0.095630 -0.995185 -0.021503
vn 0.095631 -0.995185 0.021503
vn 0.095631 -0.995185 0.021503
vn 0.095631 0.995185 0.021503
vn 0.095631 0.995185 0.021503
vn -0.095632 0.995184 -0.021504
vn -0.095632 0.995184 -0.021504
vn 0.970942 -0.098017 0.218323
vn 0.970942 -0.098017 0.218323
vn 0.970942 0.098018 0.218323
vn 0.970942 0.098018 0.218323
vn -0.689883 -0.707105 -0.155125
vn -0.689883 -0.707105 -0.155125
vn -0.373362 -0.923879 -0.083953
vn -0.373362 -0.923879 -0.083953
vn -0.095630 -0.995185 -0.021503
vn -0.373362 -0.923879 -0.083953
vn -0.373362 -0.923879 -0.083953
vn -0.095630 -0.995185 -0.021503
vn -0.373362 -0.923879 -0.083953
vn -0.689881 -0.707107 -0.155125
vn -0.689881 -0.707107 -0.155125
vn -0.373362 -0.923879 -0.083953
vn -0.689881 -0.707107 -0.155125
vn -0.901373 -0.382684 -0.202680
vn -0.901373 -0.382684 -0.202680
vn -0.689881 -0.707107 -0.155125
vn -0.901373 -0.382684 -0.202680
vn -0.970942 -0.098018 -0.218323
vn -0.970942 -0.098018 -0.218323
vn -0.901373 -0.382684 -0.202680
vn 0.095631 0.995185 0.021503
vn 0.373362 0.923879 0.083953
vn 0.373362 0.923879 0.083953
vn 0.095631 0.995185 0.021503
vn 0.373362 0.923879 0.083953
vn 0.689881 0.707107 0.155125
vn 0.689881 0.707107 0.155125
vn 0.373362 0.923879 0.083953
vn 0.689881 0.707107 0.155125
vn 0.901373 0.382684 0.202680
vn 0.901374 0.382683 0.202680
vn 0.689881 0.707107 0.155125
vn 0.901373 0.382684 0.202680
vn 0.970942 0.098018 0.218323
vn 0.970942 0.098018 0.218323
vn 0.901374 0.382683 0.202680
vn -0.095632 0.995184 -0.021504
vn -0.373363 0.923879 -0.083953
vn -0.373364 0.923879 -0.083953
vn -0.095632 0.995184 -0.021504
vn -0.373363 0.923879 -0.083953
vn -0.689882 0.707106 -0.155125
vn -0.689882 0.707106 -0.155125
vn -0.373364 0.923879 -0.083953
vn -0.689882 0.707106 -0.155125
vn -0.901374 0.382683 -0.202680
vn -0.901374 0.382683 -0.202680
vn -0.689882 0.707106 -0.155125
vn -0.901374 0.382683 -0.202680
vn -0.970942 0.098017 -0.218323
vn -0.970942 0.098017 -0.218323
vn -0.901374 0.382683 -0.202680
vn 0.095631 -0.995185 0.021503
vn 0.373363 -0.923879 0.083953
vn 0.373363 -0.923879 0.083953
vn 0.095631 -0.995185 0.021503
vn 0.373363 -0.923879 0.083953
vn 0.689882 -0.707106 0.155125
vn 0.689882 -0.707106 0.155125
vn 0.373363 -0.923879 0.083953
vn 0.689882 -0.707106 0.155125
vn 0.901374 -0.382682 0.202680
vn 0.901374 -0.382683 0.202680
vn 0.689882 -0.707106 0.155125
vn 0.901374 -0.382682 0.202680
vn 0.970942 -0.098017 0.218323
vn 0.970942 -0.098017 0.218323
vn 0.901374 -0.382683 0.202680
vn -0.970942 -0.098018 -0.218323
vn -0.970942 -0.098018 -0.218323
vn -0.970942 0.098017 -0.218323
vn -0.970942 0.098017 -0.218323
vn 0.219379 0.000000 -0.975640
vn 0.219379 0.000000 -0.975640
vn 0.219379 0.000000 -0.975640
vn 0.219379 0.000000 -0.975640
vn 0.219379 0.000000 -0.975640
vn 0.219379 0.000000 -0.975640
vn 0.219379 0.000000 -0.975640
vn 0.219379 0.000000 -0.975640
vn 0.219379 0.000000 -0.975640
vn 0.219379 0.000000 -0.975640
vn 0.219379 0.000000 -0.975640
vn 0.219379 0.000000 -0.975640
vn 0.219379 0.000000 -0.975640
vn 0.219379 0.000000 -0.975640
vn 0.219379 0.000000 -0.975640
vn 0.219379 0.000000 -0.975640
vn 0.219380 0.000000 -0.975640
vn 0.219380 0.000000 -0.975640
vn 0.219379 0.000000 -0.975640
vn 0.219379 0.000000 -0.975640
vn 0.219379 0.000000 -0.975640
vn 0.219379 0.000000 -0.975640
vn 0.219379 0.000000 -0.975640
vn 0.219379 0.000000 -0.975640
vn 0.219379 0.000000 -0.975640
vn 0.219379 0.000000 -0.975640
vn 0.219379 0.000000 -0.975640
vn 0.219379 0.000000 -0.975640
vn 0.219379 0.000000 -0.975640
vn 0.219379 0.000000 -0.975640
vn 0.219379 0.000000 -0.975640
vn 0.219379 0.000000 -0.975640
vn 0.219379 0.000000 -0.975640
vn 0.219379 0.000000 -0.975640
vn 0.219379 0.000000 -0.975640
vn 0.219379 0.000000 -0.975640
vn 0.219379 0.000000 -0.975640
vn 0.219379 0.000000 -0.975640
vn 0.219379 0.000000 -0.975640
vn 0.219379 0.000000 -0.975640
vn 0.219379 0.000000 -0.975640
vn 0.219379 0.000000 -0.975640
vn 0.219379 0.000000 -0.975640
vn 0.219379 0.000000 -0.975640
vn 0.219379 0.000000 -0.975640
vn 0.219379 0.000000 -0.975640
vn 0.219379 0.000000 -0.975640
vn 0.219379 0.000000 -0.975640
vn 0.219379 0.000000 -0.975640
vn 0.219379 0.000000 -0.975640
vn 0.219379 0.000000 -0.975640
vn 0.219379 0.000000 -0.975640
vn 0.219379 0.000000 -0.975640
vn 0.219379 0.000000 -0.975640
vn 0.219379 0.000000 -0.975640
vn 0.219379 0.000000 -0.975640
vn 0.219379 0.000000 -0.975640
vn 0.219379 0.000000 -0.975640
vn 0.219379 0.000000 -0.975640
vn 0.219379 0.000000 -0.975640
vn 0.219379 0.000000 -0.975640
vn 0.219379 0.000000 -0.975640
vn 0.219379 0.000000 -0.975640
vn 0.219379 0.000000 -0.975640
vn 0.219379 0.000000 -0.975640
vn 0.219379 0.000000 -0.975640
vn 0.219379 0.000000 -0.975640
vn 0.219379 0.000000 -0.975640
vn 0.219379 0.000000 -0.975640
vn 0.219379 0.000000 -0.975640
vn 0.219379 0.000000 -0.975640
vn 0.219379 0.000000 -0.975640
vn 0.219379 0.000000 -0.975640
vn 0.219379 0.000000 -0.975640
vn 0.219379 0.000000 -0.975640
vn 0.219379 0.000000 -0.975640
vn 0.219380 0.000000 -0.975640
vn 0.219380 0.000000 -0.975640
vn -0.373364 0.923878 -0.083953
vn -0.373364 0.923878 -0.083953
vn -0.689883 0.707106 -0.155125
vn -0.689883 0.707106 -0.155125
vn -0.901373 -0.382684 -0.202680
vn -0.901373 -0.382684 -0.202680
vn -0.689883 -0.707105 -0.155125
vn -0.689883 -0.707105 -0.155125
vn -0.689883 0.707106 -0.155125
vn -0.689883 0.707106 -0.155125
vn -0.901373 0.382684 -0.202680
vn -0.901373 0.382684 -0.202680
vn -0.970942 -0.098018 -0.218323
vn -0.970942 -0.098018 -0.218323
vn -0.901373 -0.382684 -0.202680
vn -0.901373 -0.382684 -0.202680
vn 0.373362 0.923879 0.083953
vn 0.373362 0.923879 0.083953
vn 0.095629 0.995185 0.021503
vn 0.095629 0.995185 0.021503
vn -0.901373 0.382684 -0.202680
vn -0.901373 0.382684 -0.202680
vn -0.970942 0.098016 -0.218323
vn -0.970942 0.098016 -0.218323
vn 0.095627 -0.995185 0.021502
vn 0.095627 -0.995185 0.021502
vn 0.373362 -0.923879 0.083953
vn 0.373362 -0.923879 0.083953
vn 0.689881 0.707107 0.155125
vn 0.689881 0.707107 0.155125
vn 0.373362 0.923879 0.083953
vn 0.373362 0.923879 0.083953
vn 0.970942 -0.098016 0.218323
vn 0.970942 -0.098016 0.218323
vn 0.970942 0.098018 0.218323
vn 0.970942 0.098018 0.218323
vn 0.373362 -0.923879 0.083953
vn 0.373362 -0.923879 0.083953
vn 0.689884 -0.707104 0.155125
vn 0.689884 -0.707104 0.155125
vn 0.901373 0.382684 0.202680
vn 0.901373 0.382684 0.202680
vn 0.689881 0.707107 0.155125
vn 0.689881 0.707107 0.155125
vn -0.095630 0.995185 -0.021503
vn 0.095629 0.995185 0.021503
vn 0.095629 0.995185 0.021503
vn -0.095630 0.995185 -0.021503
vn -0.373364 0.923878 -0.083953
vn -0.373364 0.923878 -0.083953
vn 0.689884 -0.707104 0.155125
vn 0.689884 -0.707104 0.155125
vn 0.901373 -0.382683 0.202680
vn 0.901373 -0.382683 0.202680
vn 0.970942 0.098018 0.218323
vn 0.970942 0.098018 0.218323
vn 0.901373 0.382684 0.202680
vn 0.901373 0.382684 0.202680
vn -0.970942 0.098016 -0.218323
vn -0.970942 0.098016 -0.218323
vn -0.970942 -0.098018 -0.218323
vn -0.970942 -0.098018 -0.218323
vn 0.901373 -0.382683 0.202680
vn 0.901373 -0.382683 0.202680
vn 0.970942 -0.098016 0.218323
vn 0.970942 -0.098016 0.218323
vn -0.373362 -0.923879 -0.083953
vn -0.373362 -0.923879 -0.083953
vn -0.095626 -0.995185 -0.021502
vn -0.095626 -0.995185 -0.021502
vn -0.095626 -0.995185 -0.021502
vn -0.095626 -0.995185 -0.021502
vn 0.095627 -0.995185 0.021502
vn 0.095627 -0.995185 0.021502
vn -0.219379 -0.000000 0.975640
vn -0.219379 -0.000000 0.975640
vn -0.219379 -0.000000 0.975640
vn -0.219379 -0.000000 0.975640
vn -0.219379 -0.000000 0.975640
vn -0.219379 -0.000000 0.975640
vn -0.219379 -0.000000 0.975640
vn -0.219379 -0.000000 0.975640
vn -0.219379 -0.000000 0.975640
vn -0.219379 -0.000000 0.975640
vn -0.219379 -0.000000 0.975640
vn -0.219379 -0.000000 0.975640
vn -0.219379 -0.000000 0.975640
vn -0.219379 -0.000000 0.975640
vn -0.219379 -0.000000 0.975640
vn -0.219379 -0.000000 0.975640
vn -0.219379 -0.000000 0.975640
vn -0.219379 -0.000000 0.975640
vn -0.219379 -0.000000 0.975640
vn -0.219379 -0.000000 0.975640
vn -0.219379 -0.000000 0.975640
vn -0.219379 -0.000000 0.975640
vn -0.219379 -0.000000 0.975640
vn -0.219379 -0.000000 0.975640
vn -0.219379 -0.000000 0.975640
vn -0.219379 -0.000000 0.975640
vn -0.219379 -0.000000 0.975640
vn -0.219379 -0.000000 0.975640
vn -0.219379 -0.000000 0.975640
vn -0.219379 -0.000000 0.975640
vn -0.219379 -0.000000 0.975640
vn -0.219379 -0.000000 0.975640
vn -0.219379 -0.000000 0.975640
vn -0.219379 -0.000000 0.975640
vn -0.219379 -0.000000 0.975640
vn -0.219379 -0.000000 0.975640
vn -0.219379 -0.000000 0.975640
vn -0.219379 -0.000000 0.975640
vn -0.219379 -0.000000 0.975640
vn -0.219379 -0.000000 0.975640
vn 0.219379 0.000000 -0.975640
vn 0.219379 0.000000 -0.975640
vn 0.219379 0.000000 -0.975640
vn 0.219379 0.000000 -0.975640
vn 0.219379 0.000000 -0.975640
vn 0.219379 0.000000 -0.975640
vn 0.219380 0.000000 -0.975640
vn 0.219380 0.000000 -0.975640
vn 0.219379 0.000000 -0.975640
vn 0.219379 0.000000 -0.975640
vn 0.219379 0.000000 -0.975640
vn 0.219380 -0.000000 -0.975640
vn 0.219380 0.000000 -0.975640
vn 0.219379 0.000000 -0.975640
vn 0.219379 -0.000000 -0.975640
vn 0.219380 0.000000 -0.975640
vn 0.219380 0.000000 -0.975640
vn 0.219380 0.000000 -0.975640
vn 0.219380 0.000000 -0.975640
vn 0.219379 -0.000000 -0.975640
vn 0.219379 -0.000000 -0.975640
vn 0.219379 -0.000000 -0.975640
vn 0.219380 0.000000 -0.975640
vn 0.219379 0.000000 -0.975640
vn 0.219380 0.000000 -0.975640
vn 0.219379 -0.000000 -0.975640
vn 0.219379 0.000000 -0.975640
vn 0.219379 0.000000 -0.975640
vn 0.219379 0.000000 -0.975640
vn 0.219379 -0.000000 -0.975640
vn 0.219379 0.000000 -0.975640
vn 0.219379 0.000000 -0.975640
vn 0.219380 0.000000 -0.975640
vn 0.219379 0.000000 -0.975640
vn 0.219379 0.000000 -0.975640
vn 0.219379 0.000000 -0.975640
vn 0.219379 -0.000000 -0.975640
vn 0.219379 -0.000000 -0.975640
vn 0.219379 -0.000000 -0.975640
vn 0.219379 -0.000000 -0.975640
vn 0.219379 0.000000 -0.975640
vn 0.576041 0.000000 -0.817421
vn 0.576041 0.000000 -0.817421
vn 0.219379 0.000000 -0.975640
vn -0.170681 -0.000000 -0.985326
vn -0.170681 -0.000000 -0.985326
vn 0.845006 0.000000 -0.534757
vn 0.576041 0.000000 -0.817421
vn 0.576041 0.000000 -0.817421
vn 0.845006 0.000000 -0.534757
vn 0.985326 0.000001 -0.170681
vn 0.985326 0.000001 -0.170681
vn 0.975640 0.000001 0.219379
vn 0.985326 0.000001 -0.170681
vn 0.985326 0.000001 -0.170681
vn 0.975640 0.000001 0.219379
vn 0.817421 0.000000 0.576041
vn 0.817421 0.000000 0.576041
vn 0.534757 0.000000 0.845006
vn 0.817421 0.000000 0.576041
vn 0.817421 0.000000 0.576041
vn 0.534757 0.000000 0.845006
vn 0.170681 0.000000 0.985326
vn 0.170681 0.000000 0.985326
vn -0.219379 -0.000000 0.975640
vn 0.170681 0.000000 0.985326
vn 0.170681 0.000000 0.985326
vn -0.219379 -0.000000 0.975640
vn -0.576041 -0.000000 0.817421
vn -0.576041 -0.000000 0.817421
vn -0.845006 -0.000000 0.534757
vn -0.576041 -0.000000 0.817421
vn -0.576041 -0.000000 0.817421
vn -0.845006 -0.000000 0.534757
vn -0.985326 -0.000001 0.170681
vn -0.985326 -0.000001 0.170681
vn -0.975640 -0.000001 -0.219379
vn -0.985326 -0.000001 0.170681
vn -0.985326 -0.000001 0.170681
vn -0.975640 -0.000001 -0.219379
vn -0.817421 -0.000000 -0.576041
vn -0.817421 -0.000000 -0.576041
vn -0.534757 -0.000000 -0.845006
vn -0.817421 -0.000000 -0.576041
vn -0.817421 -0.000000 -0.576041
vn -0.534757 -0.000000 -0.845006
vn -0.170681 -0.000000 -0.985326
vn -0.170681 -0.000000 -0.985326
vn 0.198491 0.972020 -0.125614
vn 0.231452 0.972020 -0.040093
vn 0.231452 0.972020 -0.040093
vn 0.198491 0.972020 -0.125614
vn 0.135311 0.972020 -0.192012
vn 0.135311 0.972020 -0.192012
vn -0.845006 -0.000000 0.534757
vn -0.985326 -0.000001 0.170681
vn -0.985326 -0.000001 0.170681
vn -0.845006 -0.000000 0.534757
vn -0.576041 -0.000000 0.817421
vn -0.576041 -0.000000 0.817421
vn -0.051533 0.972020 0.229178
vn 0.040092 0.972020 0.231453
vn 0.040092 0.972020 0.231453
vn -0.051533 0.972020 0.229178
vn -0.135312 0.972020 0.192012
vn -0.135312 0.972020 0.192012
vn 0.051532 0.972020 -0.229178
vn 0.135311 0.972020 -0.192012
vn 0.135311 0.972020 -0.192012
vn 0.051532 0.972020 -0.229178
vn -0.040094 0.972020 -0.231453
vn -0.040094 0.972020 -0.231453
vn -0.229178 0.972019 -0.051532
vn -0.192012 0.972019 -0.135312
vn -0.192012 0.972019 -0.135312
vn -0.229178 0.972019 -0.051532
vn -0.231454 0.972019 0.040093
vn -0.231454 0.972019 0.040093
vn 0.125614 0.972020 0.198491
vn 0.192011 0.972020 0.135312
vn 0.192011 0.972020 0.135312
vn 0.125614 0.972020 0.198491
vn 0.040092 0.972020 0.231453
vn 0.040092 0.972020 0.231453
vn -0.198492 0.972019 0.125614
vn -0.231454 0.972019 0.040093
vn -0.231454 0.972019 0.040093
vn -0.198492 0.972019 0.125614
vn -0.135312 0.972020 0.192012
vn -0.135312 0.972020 0.192012
vn 0.229177 0.972020 0.051532
vn 0.231452 0.972020 -0.040093
vn 0.231452 0.972020 -0.040093
vn 0.229177 0.972020 0.051532
vn 0.192011 0.972020 0.135312
vn 0.192011 0.972020 0.135312
vn -0.125615 0.972019 -0.198492
vn -0.192012 0.972019 -0.135312
vn -0.192012 0.972019 -0.135312
vn -0.125615 0.972019 -0.198492
vn -0.040094 0.972020 -0.231453
vn -0.040094 0.972020 -0.231453
vn 0.975640 0.000001 0.219379
vn 0.985326 0.000001 -0.170681
vn 0.985326 0.000001 -0.170681
vn 0.975640 0.000001 0.219379
vn 0.817421 0.000000 0.576041
vn 0.817421 0.000000 0.576041
vn -0.975640 -0.000001 -0.219379
vn -0.985326 -0.000001 0.170681
vn -0.985326 -0.000001 0.170681
vn -0.975640 -0.000001 -0.219379
vn -0.817421 -0.000000 -0.576041
vn -0.817421 -0.000000 -0.576041
vn 0.534757 0.000000 0.845006
vn 0.817421 0.000000 0.576041
vn 0.817421 0.000000 0.576041
vn 0.534757 0.000000 0.845006
vn 0.170681 0.000000 0.985326
vn 0.170681 0.000000 0.985326
vn -0.534757 -0.000000 -0.845006
vn -0.817421 -0.000000 -0.576041
vn -0.817421 -0.000000 -0.576041
vn -0.534757 -0.000000 -0.845006
vn -0.170681 -0.000000 -0.985326
vn -0.170681 -0.000000 -0.985326
vn -0.219379 -0.000000 0.975640
vn 0.170681 0.000000 0.985326
vn 0.170681 0.000000 0.985326
vn -0.219379 -0.000000 0.975640
vn -0.576041 -0.000000 0.817421
vn -0.576041 -0.000000 0.817421
vn 0.219379 0.000000 -0.975640
vn 0.576041 0.000000 -0.817421
vn 0.576041 0.000000 -0.817421
vn 0.219379 0.000000 -0.975640
vn -0.170681 -0.000000 -0.985326
vn -0.170681 -0.000000 -0.985326
vn 0.845006 0.000000 -0.534757
vn 0.576041 0.000000 -0.817421
vn 0.576041 0.000000 -0.817421
vn 0.845006 0.000000 -0.534757
vn 0.985326 0.000001 -0.170681
vn 0.985326 0.000001 -0.170681
vn -0.975640 -0.000001 -0.219379
vn -0.975640 -0.000001 -0.219379
vn -0.975640 -0.000001 -0.219379
vn -0.975640 -0.000001 -0.219379
vn 0.219379 0.000000 -0.975640
vn 0.219379 0.000000 -0.975640
vn 0.219379 0.000000 -0.975640
vn 0.219379 0.000000 -0.975640
vn 0.975640 0.000001 0.219379
vn 0.975640 0.000001 0.219379
vn 0.975640 0.000001 0.219379
vn 0.975640 0.000001 0.219379
vn -0.219379 -0.000000 0.975640
vn -0.219379 -0.000000 0.975640
vn -0.219379 -0.000000 0.975640
vn -0.219379 -0.000000 0.975640
vn 0.000001 -1.000000 0.000000
vn 0.000001 -1.000000 0.000000
vn 0.000001 -1.000000 0.000000
vn 0.000001 -1.000000 0.000000
vn -0.000001 1.000000 -0.000000
vn -0.000001 1.000000 -0.000000
vn -0.000001 1.000000 -0.000000
vn -0.000001 1.000000 -0.000000
vn -0.314658 0.946564 -0.070753
vn -0.314658 0.946564 -0.070753
vn -0.314658 0.946564 -0.070753
vn -0.314658 0.946564 -0.070753
vn 0.070752 0.946565 -0.314658
vn 0.070752 0.946565 -0.314658
vn 0.070752 0.946565 -0.314658
vn 0.070752 0.946565 -0.314658
vn 0.314657 0.946565 0.070753
vn 0.314657 0.946565 0.070753
vn 0.314657 0.946565 0.070753
vn 0.314657 0.946565 0.070753
vn -0.070754 0.946565 0.314658
vn -0.070754 0.946565 0.314658
vn -0.070754 0.946565 0.314658
vn -0.070754 0.946565 0.314658
s off
g FBXASC0495FBXASC046AdvertisingFBXASC046006
usemtl LandingTrack1StraightSG
f 21/365/1 32/366/2 157/367/3 141/368/4
f 36/377/5 27/378/6 152/379/7 146/380/8
f 31/221/9 37/222/10 150/223/11 160/224/12
f 168/273/13 20/277/14 67/278/15 68/274/16
f 21/365/17 141/368/18 142/373/19 23/374/20
f 23/255/21 142/256/22 143/250/23 24/249/24
f 24/249/25 143/250/26 144/246/27 25/245/28
f 25/245/29 144/246/30 145/247/31 22/248/32
f 36/377/33 146/380/34 147/385/35 38/386/36
f 38/239/37 147/240/38 148/234/39 39/233/40
f 39/233/41 148/234/42 149/228/43 40/227/44
f 40/227/45 149/228/46 150/223/47 37/222/48
f 152/379/49 27/378/50 30/383/51 151/384/52
f 151/265/53 30/266/54 29/263/55 153/262/56
f 153/262/57 29/263/58 28/259/59 154/258/60
f 154/258/61 28/259/62 26/252/63 155/251/64
f 157/367/65 32/366/66 35/371/67 156/372/68
f 156/241/69 35/242/70 34/236/71 158/235/72
f 158/235/73 34/236/74 33/230/75 159/229/76
f 159/229/77 33/230/78 31/221/79 160/224/80
f 145/247/81 155/251/82 26/252/83 22/248/84
f 161/1/85 162/2/86 42/3/87 41/4/88
f 162/2/89 163/5/90 43/6/91 42/3/92
f 163/5/93 164/9/94 44/10/95 43/6/96
f 164/9/97 165/13/98 45/14/99 44/10/100
f 166/37/101 167/39/102 47/40/103 46/38/104
f 167/39/105 19/35/106 48/36/107 47/40/108
f 19/35/109 169/31/110 49/32/111 48/36/112
f 169/31/113 170/27/114 50/28/115 49/32/116
f 171/29/117 172/33/118 52/34/119 51/30/120
f 173/25/121 171/29/122 51/30/123 53/26/124
f 174/21/125 173/25/126 53/26/127 54/22/128
f 175/17/129 174/21/130 54/22/131 55/18/132
f 176/11/133 177/7/134 57/8/135 56/12/136
f 178/15/137 176/11/138 56/12/139 58/16/140
f 179/19/141 178/15/142 58/16/143 59/20/144
f 180/23/145 179/19/146 59/20/147 60/24/148
f 165/13/149 175/17/150 55/18/151 45/14/152
f 177/7/153 161/1/154 41/4/155 57/8/156
f 170/27/157 180/23/158 60/24/159 50/28/160
f 172/33/161 166/37/162 46/38/163 52/34/164
f 13/283/165 14/281/166 78/282/167 76/284/168
f 18/270/169 168/273/170 68/274/171 69/271/172
f 14/281/173 15/279/174 79/280/175 78/282/176
f 16/269/177 18/270/178 69/271/179 70/272/180
f 5/389/181 2/390/182 61/391/183 62/392/184
f 15/279/185 12/275/186 80/276/187 79/280/188
f 6/397/189 8/398/190 71/399/191 72/400/192
f 4/293/193 5/297/194 62/298/195 63/294/196
f 7/285/197 1/286/198 65/287/199 75/288/200
f 8/299/201 9/295/202 73/296/203 71/300/204
f 3/289/205 4/293/206 63/294/207 64/290/208
f 2/390/209 11/393/210 77/394/211 61/391/212
f 9/295/213 10/291/214 74/292/215 73/296/216
f 1/286/217 3/289/218 64/290/219 65/287/220
f 12/275/221 16/269/222 70/272/223 80/276/224
f 10/291/225 7/285/226 75/288/227 74/292/228
f 20/403/229 17/401/230 66/402/231 67/404/232
f 17/401/233 6/397/234 72/400/235 66/402/236
f 11/393/237 13/395/238 76/396/239 77/394/240
f 21/365/241 181/369/242 197/370/243 32/366/244
f 36/377/245 186/381/246 192/382/247 27/378/248
f 31/221/249 200/225/250 190/226/251 37/222/252
f 208/308/253 128/307/254 127/311/255 100/312/256
f 21/365/257 23/374/258 182/375/259 181/369/260
f 23/255/261 24/249/262 183/257/263 182/261/264
f 24/249/265 25/245/266 184/254/267 183/257/268
f 25/245/269 22/248/270 185/253/271 184/254/272
f 36/377/273 38/386/274 187/387/275 186/381/276
f 38/239/277 39/233/278 188/238/279 187/244/280
f 39/233/281 40/227/282 189/232/283 188/238/284
f 40/227/285 37/222/286 190/226/287 189/232/288
f 192/382/289 191/388/290 30/383/291 27/378/292
f 191/268/293 193/267/294 29/263/295 30/266/296
f 193/267/297 194/264/298 28/259/299 29/263/300
f 194/264/301 195/260/302 26/252/303 28/259/304
f 197/370/305 196/376/306 35/371/307 32/366/308
f 196/243/309 198/237/310 34/236/311 35/242/312
f 198/237/313 199/231/314 33/230/315 34/236/316
f 199/231/317 200/225/318 31/221/319 33/230/320
f 185/253/321 22/248/322 26/252/323 195/260/324
f 201/41/325 101/42/326 102/43/327 202/44/328
f 202/44/329 102/43/330 103/49/331 203/50/332
f 203/50/333 103/49/334 104/53/335 204/54/336
f 204/54/337 104/53/338 105/57/339 205/58/340
f 206/79/341 106/80/342 107/76/343 207/75/344
f 207/75/345 107/76/346 108/72/347 99/71/348
f 99/71/349 108/72/350 109/68/351 209/67/352
f 209/67/353 109/68/354 110/64/355 210/63/356
f 211/74/357 111/73/358 112/77/359 212/78/360
f 213/70/361 113/69/362 111/73/363 211/74/364
f 214/66/365 114/65/366 113/69/367 213/70/368
f 215/62/369 115/61/370 114/65/371 214/66/372
f 217/45/373 216/46/374 116/47/375 117/48/376 101/42/377 201/41/378
f 218/51/379 118/52/380 116/47/381 216/46/382
f 219/55/383 119/56/384 118/52/385 218/51/386
f 220/59/387 120/60/388 119/56/389 219/55/390
f 205/58/391 105/57/392 115/61/393 215/62/394
f 210/63/395 110/64/396 120/60/397 220/59/398
f 212/78/399 112/77/400 106/80/401 206/79/402
f 93/315/403 136/316/404 138/314/405 94/313/406
f 98/304/407 129/303/408 128/307/409 208/308/410
f 94/313/411 138/314/412 139/310/413 95/309/414
f 96/301/415 130/302/416 129/303/417 98/304/418
f 85/405/419 122/406/420 121/407/421 82/408/422
f 95/309/423 139/310/424 140/306/425 92/305/426
f 86/413/427 132/414/428 131/415/429 88/416/430
f 84/328/431 123/327/432 122/331/433 85/332/434
f 87/317/435 135/318/436 125/319/437 81/320/438
f 88/329/439 131/330/440 133/326/441 89/325/442
f 83/324/443 124/323/444 123/327/445 84/328/446
f 91/409/447 82/408/448 121/407/449 137/410/450 136/411/451 93/412/452
f 89/325/453 133/326/454 134/322/455 90/321/456
f 81/320/457 125/319/458 124/323/459 83/324/460
f 92/305/461 140/306/462 130/302/463 96/301/464
f 90/321/465 134/322/466 135/318/467 87/317/468
f 100/419/469 127/420/470 126/418/471 97/417/472
f 97/417/473 126/418/474 132/414/475 86/413/476
f 244/81/477 222/82/478 238/83/479 239/84/480 241/85/481 236/86/482 234/87/483 232/88/484 230/89/485 228/90/486 250/91/487 249/92/488 248/93/489 247/94/490 246/95/491 245/96/492 225/97/493 226/98/494 258/99/495 255/100/496 223/101/497 224/102/498 251/103/499 252/104/500 253/105/501 254/106/502 227/107/503 229/108/504 231/109/505 233/110/506 235/111/507 242/112/508 240/113/509 237/114/510 221/115/511 243/116/512
f 255/100/513 258/99/514 257/117/515 256/118/516
f 263/119/517 264/120/518 296/121/519 293/122/520 261/123/521 262/124/522 289/125/523 290/126/524 291/127/525 292/128/526 265/129/527 267/130/528 269/131/529 271/132/530 273/133/531 280/134/532 278/135/533 275/136/534 259/137/535 281/138/536 282/139/537 260/140/538 276/141/539 277/142/540 279/143/541 274/144/542 272/145/543 270/146/544 268/147/545 266/148/546 288/149/547 287/150/548 286/151/549 285/152/550 284/153/551 283/154/552
f 293/122/553 296/121/554 295/155/555 294/156/556
f 298/157/557 300/158/558 374/159/559 373/160/560 388/161/561 328/162/562
f 375/163/563 374/159/564 300/158/565 302/164/566 304/165/567 376/166/568
f 377/333/569 376/334/570 304/335/571 306/336/572 308/337/573 378/338/574
f 379/177/575 378/178/576 308/179/577 310/180/578 312/173/579 380/172/580
f 381/171/581 380/172/582 312/173/583 314/174/584 316/175/585 382/176/586
f 383/181/587 382/176/588 316/175/589 318/182/590 320/183/591 384/184/592
f 385/339/593 384/340/594 320/341/595 322/342/596 324/343/597 386/344/598
f 387/167/599 386/168/600 324/169/601 326/170/602 328/162/603 388/161/604
f 301/421/605 303/422/606 392/423/607 391/424/608 390/425/609 299/426/610
f 339/195/611 400/196/612 356/197/613 355/198/614 354/190/615 338/189/616
f 397/443/617 396/438/618 311/437/619 313/444/620 315/445/621 398/446/622
f 297/431/623 299/426/624 390/425/625 389/432/626 404/433/627 327/434/628
f 321/447/629 323/441/630 402/440/631 401/448/632 340/449/633 319/450/634
f 395/435/635 394/430/636 307/429/637 309/436/638 311/437/639 396/438/640
f 317/451/641 319/450/642 340/449/643 399/452/644 398/446/645 315/445/646
f 393/427/647 392/423/648 303/422/649 305/428/650 307/429/651 394/430/652
f 403/439/653 402/440/654 323/441/655 325/442/656 327/434/657 404/433/658
f 349/345/659 348/346/660 332/347/661 333/348/662 334/349/663 350/350/664
f 357/351/665 356/352/666 400/353/667 341/354/668 342/355/669 358/356/670
f 351/191/671 350/192/672 334/193/673 335/194/674 336/187/675 352/186/676
f 359/209/677 358/210/678 342/211/679 343/212/680 344/204/681 360/203/682
f 353/185/683 352/186/684 336/187/685 337/188/686 338/189/687 354/190/688
f 329/199/689 330/200/690 346/201/691 345/202/692 360/203/693 344/204/694
f 347/205/695 346/201/696 330/200/697 331/206/698 332/207/699 348/208/700
f 407/357/701 409/358/702 411/359/703 405/360/704
f 406/213/705 412/214/706 415/215/707 413/216/708
f 414/361/709 416/362/710 419/363/711 417/364/712
f 418/217/713 420/218/714 410/219/715 408/220/716
f 363/453/717 367/454/718 365/455/719 361/456/720
f 368/457/721 364/458/722 362/459/723 366/460/724
f 362/459/725 364/458/726 370/462/727 369/463/728
f 364/458/729 368/457/730 371/461/731 370/462/732
f 368/457/733 366/460/734 372/464/735 371/461/736
f 366/460/737 362/459/738 369/463/739 372/464/740
