# Blender v3.4.1 OBJ File: 'Airport7_FINALb.blend'
# www.blender.org
mtllib Airport_Band4.mtl
o 12.4.Collider_Cube.594
v -0.875000 0.903992 0.000001
v -2.625000 0.908851 0.000000
v 0.000000 0.908851 0.875000
v 0.000001 0.908851 2.625001
v 0.000001 -0.000000 2.553950
v -2.555000 0.000000 0.000002
v -2.578393 0.908851 0.448225
v -2.462529 0.908851 0.889116
v -2.271865 0.908851 1.303190
v -2.012195 0.908851 1.677864
v -1.691408 0.908851 2.001756
v -1.319252 0.908851 2.265022
v -0.907034 0.908851 2.459665
v -0.467278 0.908851 2.579770
v -0.146016 0.908851 0.871829
v -0.295230 0.908851 0.837204
v -0.435100 0.908851 0.771160
v -0.561377 0.908851 0.681830
v -0.670224 0.908851 0.571930
v -0.758333 0.908851 0.444799
v -0.823027 0.908851 0.304299
v -0.862341 0.908851 0.154700
v -2.625000 0.417571 0.000002
v 0.000001 0.420000 2.625001
v -2.578393 0.420000 0.448225
v -2.462529 0.420000 0.889116
v -2.271865 0.420000 1.303190
v -2.012195 0.420000 1.677864
v -1.691408 0.420000 2.001756
v -1.319252 0.420000 2.265022
v -0.907034 0.420000 2.459665
v -0.467278 0.420000 2.579770
v -0.875000 0.417571 0.000001
v 0.000000 0.420000 0.875000
v -0.862341 0.420000 0.154700
v -0.823027 0.420000 0.304299
v -0.758333 0.420000 0.444799
v -0.670223 0.420000 0.571930
v -0.561377 0.420000 0.681830
v -0.435100 0.420000 0.771159
v -0.295230 0.420000 0.837204
v -0.146016 0.420000 0.871829
v -0.402117 -0.000000 2.515027
v -2.513232 -0.000000 0.383482
v -2.397367 -0.000000 0.824373
v -2.206704 -0.000000 1.238447
v -1.947034 -0.000000 1.613122
v -1.626247 -0.000000 1.937013
v -1.254091 -0.000000 2.200279
v -0.841872 -0.000000 2.394922
v -0.932595 -0.000000 0.164436
v -0.890023 -0.000000 0.326431
v -0.819968 -0.000000 0.478573
v -0.724558 -0.000000 0.616238
v -0.606693 -0.000000 0.735245
v -0.469952 -0.000000 0.831976
v -0.318492 -0.000000 0.903493
v -0.156914 -0.000000 0.941756
v 0.000000 -0.000000 0.946448
v -0.945000 0.000000 0.000001
vt 0.782596 0.907297
vt 0.782597 0.907297
vt 0.782597 0.907297
vt 0.782596 0.907297
vt 0.782596 0.907297
vt 0.782597 0.907297
vt 0.782597 0.907297
vt 0.782596 0.907297
vt 0.782597 0.907297
vt 0.782596 0.907297
vt 0.782597 0.907297
vt 0.782596 0.907297
vt 0.782597 0.907297
vt 0.782596 0.907297
vt 0.782597 0.907297
vt 0.782596 0.907297
vt 0.782597 0.907297
vt 0.782596 0.907297
vt 0.782597 0.907297
vt 0.782596 0.907297
vt 0.845506 0.906965
vt 0.845506 0.906965
vt 0.845506 0.906965
vt 0.845506 0.906965
vt 0.845506 0.906965
vt 0.845506 0.906965
vt 0.845506 0.906965
vt 0.845506 0.906965
vt 0.845506 0.906965
vt 0.845506 0.906965
vt 0.845506 0.906965
vt 0.845508 0.906963
vt 0.845506 0.906965
vt 0.845506 0.906965
vt 0.845506 0.906965
vt 0.845506 0.906965
vt 0.782597 0.907299
vt 0.782597 0.907299
vt 0.782597 0.907299
vt 0.782597 0.907299
vt 0.782597 0.907299
vt 0.782597 0.907299
vt 0.782596 0.907299
vt 0.782596 0.907299
vt 0.782596 0.907299
vt 0.782596 0.907299
vt 0.782596 0.907299
vt 0.782597 0.907299
vt 0.782596 0.907299
vt 0.782597 0.907299
vt 0.782596 0.907299
vt 0.782597 0.907299
vt 0.782596 0.907299
vt 0.782597 0.907299
vt 0.782596 0.907299
vt 0.782596 0.907299
vt 0.845506 0.906965
vt 0.845506 0.906965
vt 0.845506 0.906965
vt 0.845506 0.906965
vt 0.845510 0.906965
vt 0.845508 0.906965
vt 0.845508 0.906965
vt 0.845509 0.906964
vt 0.845510 0.906965
vt 0.845508 0.906965
vt 0.845508 0.906965
vt 0.845510 0.906965
vt 0.845508 0.906965
vt 0.845509 0.906965
vt 0.845508 0.906965
vt 0.845509 0.906965
vt 0.845508 0.906965
vt 0.845509 0.906965
vt 0.845508 0.906965
vt 0.845509 0.906965
vt 0.845508 0.906965
vt 0.845509 0.906965
vt 0.845508 0.906965
vt 0.845510 0.906965
vn 0.1256 -0.0840 -0.9885
vn 0.0850 0.7310 -0.6770
vn 0.5830 0.5785 -0.5705
vn 0.6972 -0.0599 -0.7144
vn 0.6946 -0.0589 -0.7170
vn 0.5569 0.5758 -0.5986
vn 0.6727 0.7304 -0.1185
vn 0.9824 -0.0833 -0.1670
vn 0.6461 0.7273 -0.2316
vn 0.9380 -0.0835 -0.3364
vn 0.5961 0.7273 -0.3403
vn 0.8654 -0.0832 -0.4942
vn 0.5279 0.7273 -0.4386
vn 0.7665 -0.0830 -0.6369
vn 0.4437 0.7273 -0.5237
vn 0.6442 -0.0829 -0.7603
vn 0.3460 0.7273 -0.5927
vn 0.5025 -0.0830 -0.8606
vn 0.2238 0.7318 -0.6437
vn 0.3278 -0.0835 -0.9411
vn 0.6143 -0.7823 -0.1034
vn 0.4994 -0.6205 -0.6046
vn 0.4037 -0.7811 -0.4764
vn 0.4803 -0.7811 -0.3990
vn 0.5927 -0.6199 -0.5142
vn 0.0794 -0.7846 -0.6149
vn 0.5422 -0.7812 -0.3094
vn 0.5875 -0.7814 -0.2105
vn -0.1310 0.6885 0.7133
vn 0.5512 0.5724 0.6071
vn -0.2515 0.6880 0.6807
vn -0.3659 0.6880 0.6267
vn -0.4691 0.6880 0.5537
vn -0.5582 0.6880 0.4638
vn -0.3472 -0.0974 0.9327
vn -0.1830 -0.0887 0.9791
vn -0.5027 -0.1034 0.8582
vn -0.6432 -0.1065 0.7583
vn -0.7644 -0.1064 0.6359
vn -0.6302 0.6880 0.3598
vn -0.8630 -0.1034 0.4945
vn -0.6831 0.6880 0.2449
vn -0.9360 -0.0973 0.3382
vn -0.7120 0.6906 0.1270
vn -0.9793 -0.0885 0.1820
vn -0.6078 0.5711 -0.5518
vn -0.7570 -0.0636 -0.6503
vn 0.6533 -0.0630 0.7545
vn 0.2041 -0.7849 -0.5850
vn 0.3148 -0.7811 -0.5393
vn -0.1151 -0.7500 0.6513
vn 0.5625 -0.6157 0.5518
vn -0.5551 -0.6153 -0.5597
vn -0.6489 -0.7521 0.1153
vn -0.6177 -0.7556 0.2179
vn -0.5656 -0.7598 0.3206
vn -0.4985 -0.7620 0.4133
vn -0.4181 -0.7620 0.4945
vn -0.3260 -0.7599 0.5624
vn -0.2238 -0.7557 0.6155
usemtl COLLIDERS
s 1
f 42/1/1 15/2/2 3/3/3 34/4/4
f 33/5/5 1/6/6 22/7/7 35/8/8
f 35/8/8 22/7/7 21/9/9 36/10/10
f 36/10/10 21/9/9 20/11/11 37/12/12
f 37/12/12 20/11/11 19/13/13 38/14/14
f 38/14/14 19/13/13 18/15/15 39/16/16
f 39/16/16 18/15/15 17/17/17 40/18/18
f 40/18/18 17/17/17 16/19/19 41/20/20
f 41/20/20 16/19/19 15/2/2 42/1/1
f 51/21/21 60/22/22 33/23/5 35/24/8
f 55/25/23 54/26/24 38/27/14 39/28/16
f 59/29/25 58/30/26 42/31/1 34/32/4
f 53/33/27 52/34/28 36/35/10 37/36/12
f 54/26/24 53/33/27 37/36/12 38/27/14
f 14/37/29 4/38/30 3/3/3 15/2/2
f 13/39/31 14/37/29 15/2/2 16/19/19
f 12/40/32 13/39/31 16/19/19 17/17/17
f 11/41/33 12/40/32 17/17/17 18/15/15
f 10/42/34 11/41/33 18/15/15 19/13/13
f 13/39/31 31/43/35 32/44/36 14/37/29
f 12/40/32 30/45/37 31/43/35 13/39/31
f 11/41/33 29/46/38 30/45/37 12/40/32
f 10/42/34 28/47/39 29/46/38 11/41/33
f 9/48/40 27/49/41 28/47/39 10/42/34
f 8/50/42 26/51/43 27/49/41 9/48/40
f 7/52/44 25/53/45 26/51/43 8/50/42
f 2/54/46 23/55/47 25/53/45 7/52/44
f 14/37/29 32/44/36 24/56/48 4/38/30
f 57/57/49 56/58/50 40/59/18 41/60/20
f 56/58/50 55/25/23 39/28/16 40/59/18
f 52/34/28 51/21/21 35/24/8 36/35/10
f 58/30/26 57/57/49 41/60/20 42/31/1
f 32/61/36 43/62/51 5/63/52 24/64/48
f 23/65/47 6/66/53 44/67/54 25/68/45
f 25/68/45 44/67/54 45/69/55 26/70/43
f 26/70/43 45/69/55 46/71/56 27/72/41
f 27/72/41 46/71/56 47/73/57 28/74/39
f 28/74/39 47/73/57 48/75/58 29/76/38
f 29/76/38 48/75/58 49/77/59 30/78/37
f 30/78/37 49/77/59 50/79/60 31/80/35
f 31/80/35 50/79/60 43/62/51 32/61/36
f 1/6/6 33/5/5 23/55/47 2/54/46
f 43/62/51 58/30/26 59/29/25 5/63/52
f 50/79/60 57/57/49 58/30/26 43/62/51
f 49/77/59 56/58/50 57/57/49 50/79/60
f 48/75/58 55/25/23 56/58/50 49/77/59
f 47/73/57 54/26/24 55/25/23 48/75/58
f 46/71/56 53/33/27 54/26/24 47/73/57
f 45/69/55 52/34/28 53/33/27 46/71/56
f 44/67/54 51/21/21 52/34/28 45/69/55
f 6/66/53 60/22/22 51/21/21 44/67/54
f 23/65/47 33/23/5 60/22/22 6/66/53
f 9/48/40 10/42/34 19/13/13 20/11/11
f 8/50/42 9/48/40 20/11/11 21/9/9
f 34/32/4 24/64/48 5/63/52 59/29/25
f 4/38/30 24/56/48 34/4/4 3/3/3
f 7/52/44 8/50/42 21/9/9 22/7/7
f 22/7/7 1/6/6 2/54/46 7/52/44
o 12.4.BaggageClaimBand_Cube.165
v -0.946699 0.420000 0.000000
v 0.000000 0.420000 0.946448
v -0.896080 0.875000 0.000000
v -0.875000 0.835142 0.000001
v -0.885251 0.859891 0.000002
v -2.625000 0.840000 0.000000
v -2.590001 0.875000 0.000000
v -2.614749 0.864749 0.000001
v 0.000000 0.840000 0.875000
v 0.000001 0.875000 0.910000
v 0.000000 0.864749 0.885251
v 0.000001 0.875000 2.590001
v 0.000001 0.840000 2.625001
v 0.000001 0.864749 2.614749
v -0.704300 0.875000 2.525306
v -0.296603 0.875000 0.836695
v -0.704300 0.895510 2.525306
v -0.296603 0.895510 0.836695
v -0.472742 0.875000 2.578773
v -0.179935 0.875000 0.867316
v -0.583520 0.895510 2.555960
v -0.185458 0.895510 0.869878
v -0.134966 0.896659 2.618271
v -0.033258 0.896659 0.891021
v -0.134966 0.917169 2.618271
v -0.033258 0.917169 0.891021
v -0.033258 0.896659 0.891021
v 0.007691 0.896659 0.957920
v -0.017442 0.896659 0.896699
v -0.004064 0.896659 0.911298
v 0.005027 0.896659 0.932745
v -0.012921 0.896659 2.532946
v -0.134966 0.896659 2.618271
v -0.020770 0.896659 2.566857
v -0.047433 0.896659 2.595305
v -0.087636 0.896659 2.613514
v 0.007691 0.917169 0.957920
v -0.033258 0.917169 0.891021
v 0.005027 0.917169 0.932745
v -0.004064 0.917169 0.911298
v -0.017442 0.917169 0.896699
v -0.134966 0.917169 2.618271
v -0.012921 0.917169 2.532946
v -0.087636 0.917169 2.613514
v -0.047433 0.917169 2.595305
v -0.020770 0.917169 2.566857
v -1.231962 0.875000 2.313769
v -0.469064 0.875000 0.750295
v -1.231962 0.895510 2.313769
v -0.469064 0.895510 0.750295
v -1.017428 0.875000 2.416009
v -0.362045 0.875000 0.806871
v -1.120659 0.895510 2.369797
v -0.367715 0.895510 0.806711
v -0.696168 0.896659 2.527563
v -0.223681 0.896659 0.860243
v -0.696168 0.917169 2.527563
v -0.223681 0.917169 0.860243
v -0.223681 0.896659 0.860243
v -0.197611 0.896659 0.934533
v -0.209465 0.896659 0.869205
v -0.199557 0.896659 0.886349
v -0.195316 0.896659 0.909254
v -0.557128 0.896659 2.470953
v -0.696168 0.896659 2.527563
v -0.573559 0.896659 2.502041
v -0.605741 0.896659 2.524054
v -0.648928 0.896659 2.533147
v -0.197611 0.917169 0.934533
v -0.223681 0.917169 0.860243
v -0.195316 0.917169 0.909254
v -0.199557 0.917169 0.886349
v -0.209465 0.917169 0.869205
v -0.696168 0.917169 2.527563
v -0.557128 0.917169 2.470953
v -0.648928 0.917169 2.533147
v -0.605741 0.917169 2.524054
v -0.573559 0.917169 2.502041
v -1.701446 0.875000 1.993207
v -0.618781 0.875000 0.628669
v -1.701446 0.895510 1.993207
v -0.618781 0.895510 0.628669
v -1.514074 0.875000 2.139390
v -0.524673 0.875000 0.708599
v -1.604880 0.895510 2.071963
v -0.532017 0.895510 0.705652
v -1.224509 0.896659 2.317730
v -0.402953 0.896659 0.789044
v -1.224509 0.917169 2.317730
v -0.402953 0.917169 0.789044
v -0.402953 0.896659 0.789044
v -0.393553 0.896659 0.867212
v -0.391010 0.896659 0.800866
v -0.385041 0.896659 0.819746
v -0.385849 0.896659 0.843026
v -1.076521 0.896659 2.292501
v -1.224509 0.896659 2.317730
v -1.099283 0.896659 2.319304
v -1.135461 0.896659 2.333844
v -1.179592 0.896659 2.333389
v -0.393553 0.917169 0.867212
v -0.402953 0.917169 0.789044
v -0.385849 0.917169 0.843026
v -0.385041 0.917169 0.819746
v -0.391010 0.917169 0.800866
v -1.224509 0.917169 2.317730
v -1.076521 0.917169 2.292501
v -1.179592 0.917169 2.333389
v -1.135461 0.917169 2.333844
v -1.099283 0.917169 2.319304
v -2.090568 0.875000 1.578769
v -0.738678 0.875000 0.477565
v -2.090568 0.895510 1.578769
v -0.738678 0.895510 0.477565
v -1.939212 0.875000 1.761987
v -0.661464 0.875000 0.579372
v -2.013302 0.895510 1.676531
v -0.670599 0.895510 0.571478
v -1.695026 0.896659 1.998685
v -0.562604 0.896659 0.680788
v -1.695026 0.917169 1.998685
v -0.562604 0.917169 0.680788
v -0.562604 0.896659 0.680788
v -0.570317 0.896659 0.759141
v -0.553498 0.896659 0.694912
v -0.551750 0.896659 0.714636
v -0.557570 0.896659 0.737191
v -1.545083 0.896659 2.006031
v -1.695026 0.896659 1.998685
v -1.573098 0.896659 2.027282
v -1.611563 0.896659 2.033660
v -1.654554 0.896659 2.023680
v -0.570317 0.917169 0.759141
v -0.562604 0.917169 0.680788
v -0.557570 0.917169 0.737191
v -0.551750 0.917169 0.714636
v -0.553498 0.917169 0.694912
v -1.695026 0.917169 1.998685
v -1.545083 0.917169 2.006031
v -1.654554 0.917169 2.023680
v -1.611563 0.917169 2.033660
v -1.573098 0.917169 2.027282
v -2.380942 0.875000 1.090038
v -0.823090 0.875000 0.304122
v -2.380942 0.895510 1.090038
v -0.823090 0.895510 0.304122
v -2.272753 0.875000 1.301634
v -0.767369 0.875000 0.425279
v -2.326627 0.895510 1.202186
v -0.776914 0.895510 0.410527
v -2.085484 0.896659 1.585505
v -0.695091 0.896659 0.540592
v -2.085484 0.917169 1.585505
v -0.695091 0.917169 0.540592
v -0.695091 0.896659 0.540592
v -0.719553 0.896659 0.615426
v -0.689252 0.896659 0.556350
v -0.691807 0.896659 0.575985
v -0.702363 0.896659 0.596750
v -1.940670 0.896659 1.625078
v -2.085484 0.896659 1.585505
v -1.972616 0.896659 1.639774
v -2.011551 0.896659 1.637689
v -2.051369 0.896659 1.618656
v -0.719553 0.917169 0.615426
v -0.695091 0.917169 0.540592
v -0.702363 0.917169 0.596750
v -0.691807 0.917169 0.575985
v -0.689252 0.917169 0.556350
v -2.085484 0.917169 1.585505
v -1.940670 0.917169 1.625078
v -2.051369 0.917169 1.618656
v -2.011551 0.917169 1.637689
v -1.972616 0.917169 1.639774
v -2.558846 0.875000 0.550107
v -0.868030 0.875000 0.116536
v -2.558846 0.895510 0.550107
v -0.868030 0.895510 0.116536
v -2.512062 0.875000 0.729696
v -0.839654 0.875000 0.247568
v -2.513100 0.897916 0.718692
v -0.845937 0.895510 0.230406
v -2.377433 0.896659 1.097713
v -0.794153 0.896659 0.375078
v -2.377433 0.917169 1.097713
v -0.794153 0.917169 0.375078
v -0.794153 0.896659 0.375078
v -0.834208 0.896659 0.442859
v -0.791857 0.896659 0.391726
v -0.798595 0.896659 0.410345
v -0.813388 0.896659 0.428339
v -2.244592 0.896659 1.167644
v -2.377433 0.896659 1.097713
v -2.278959 0.896659 1.175089
v -2.316523 0.896659 1.164640
v -2.351287 0.896659 1.137452
v -0.834208 0.917169 0.442859
v -0.794153 0.917169 0.375078
v -0.813388 0.917169 0.428339
v -0.798595 0.917169 0.410345
v -0.791857 0.917169 0.391726
v -2.377433 0.917169 1.097713
v -2.244592 0.917169 1.167644
v -2.351287 0.917169 1.137452
v -2.316523 0.917169 1.164640
v -2.278959 0.917169 1.175089
v -2.625000 0.875000 0.000000
v -0.875080 0.875000 0.000000
v -2.625000 0.895510 0.000000
v -0.875080 0.895510 0.000000
v -2.609559 0.875000 0.191216
v -0.873439 0.876882 0.042536
v -2.603943 0.899323 0.188166
v -0.874407 0.898468 0.039625
v -2.557078 0.896659 0.558359
v -0.855109 0.896659 0.192069
v -2.557078 0.917169 0.558359
v -0.855109 0.917169 0.192069
v -0.855109 0.896659 0.192069
v -0.908864 0.896659 0.249593
v -0.856464 0.896659 0.208820
v -0.867066 0.896659 0.225543
v -0.885399 0.896659 0.239915
v -2.442488 0.896659 0.655343
v -2.557078 0.896659 0.558359
v -2.477651 0.896659 0.655186
v -2.512070 0.896659 0.636867
v -2.540138 0.896659 0.602809
v -0.908864 0.917169 0.249593
v -0.855109 0.917169 0.192069
v -0.885399 0.917169 0.239915
v -0.867066 0.917169 0.225543
v -0.856464 0.917169 0.208820
v -2.557078 0.917169 0.558359
v -2.442488 0.917169 0.655343
v -2.540138 0.917169 0.602809
v -2.512070 0.917169 0.636867
v -2.477651 0.917169 0.655186
v -0.141796 0.875000 2.617911
v -0.109009 0.875000 0.883862
v -0.141796 0.895510 2.617911
v -0.109009 0.895510 0.883862
v 0.000001 0.875000 2.625001
v 0.000000 0.875000 0.875000
v 0.000001 0.895510 2.625001
v 0.000000 0.895510 0.875000
v 0.000001 -0.000000 2.553950
v -2.555000 0.000000 0.000002
v -0.156914 0.420000 0.941756
v -0.318492 0.420000 0.903493
v -0.469952 0.420000 0.831976
v -0.606693 0.420000 0.735245
v -0.724558 0.420000 0.616238
v -0.819968 0.420000 0.478573
v -0.890023 0.420000 0.326431
v -0.932595 0.420000 0.164436
v -0.462221 0.875000 2.551877
v -0.897210 0.875000 2.433074
v -1.304960 0.875000 2.240541
v -1.673082 0.875000 1.980129
v -1.990392 0.875000 1.659748
v -2.247247 0.875000 1.289135
v -2.435845 0.875000 0.879549
v -2.550452 0.875000 0.443437
v -2.570209 0.864749 0.446822
v -2.454713 0.864749 0.886314
v -2.264655 0.864749 1.299073
v -2.005809 0.864749 1.672558
v -1.686041 0.864749 1.995421
v -1.315066 0.864749 2.257852
v -0.904156 0.864749 2.451877
v -0.465797 0.864749 2.571600
v -2.578393 0.840000 0.448225
v -2.462529 0.840000 0.889116
v -2.271865 0.840000 1.303190
v -2.012195 0.840000 1.677864
v -1.691408 0.840000 2.001756
v -1.319252 0.840000 2.265022
v -0.907034 0.840000 2.459665
v -0.467278 0.840000 2.579770
v -0.146016 0.840000 0.871829
v -0.295230 0.840000 0.837204
v -0.435100 0.840000 0.771160
v -0.561377 0.840000 0.681830
v -0.670224 0.840000 0.571930
v -0.758333 0.840000 0.444799
v -0.823027 0.840000 0.304299
v -0.862341 0.840000 0.154700
v -0.868403 0.864749 0.155738
v -0.828817 0.864749 0.306375
v -0.763674 0.864749 0.447849
v -0.674954 0.864749 0.575861
v -0.565353 0.864749 0.686523
v -0.438201 0.864749 0.776471
v -0.297361 0.864749 0.842974
v -0.147113 0.864749 0.877882
v -0.883039 0.875000 0.158246
v -0.842795 0.875000 0.311386
v -0.776570 0.875000 0.455211
v -0.686375 0.875000 0.585351
v -0.574953 0.875000 0.697852
v -0.445688 0.875000 0.789295
v -0.302507 0.875000 0.856903
v -0.149762 0.875000 0.892493
v -2.625000 0.417571 0.000002
v 0.000001 0.420000 2.625001
v -2.578393 0.420000 0.448225
v -2.462529 0.420000 0.889116
v -2.271865 0.420000 1.303190
v -2.012195 0.420000 1.677864
v -1.691408 0.420000 2.001756
v -1.319252 0.420000 2.265022
v -0.907034 0.420000 2.459665
v -0.467278 0.420000 2.579770
v -0.875000 0.417571 0.000001
v 0.000000 0.420000 0.875000
v -0.862341 0.420000 0.154700
v -0.823027 0.420000 0.304299
v -0.758333 0.420000 0.444799
v -0.670223 0.420000 0.571930
v -0.561377 0.420000 0.681830
v -0.435100 0.420000 0.771159
v -0.295230 0.420000 0.837204
v -0.146016 0.420000 0.871829
v -0.402117 -0.000000 2.515027
v -2.513232 -0.000000 0.383482
v -2.397367 -0.000000 0.824373
v -2.206704 -0.000000 1.238447
v -1.947034 -0.000000 1.613122
v -1.626247 -0.000000 1.937013
v -1.254091 -0.000000 2.200279
v -0.841872 -0.000000 2.394922
v -2.555000 0.417571 0.000002
v 0.000001 0.420000 2.560258
v -2.513232 0.420000 0.383482
v -2.397367 0.420000 0.824373
v -2.206704 0.420000 1.238447
v -1.947034 0.420000 1.613122
v -1.626247 0.420000 1.937013
v -1.254091 0.420000 2.200279
v -0.841872 0.420000 2.394922
v -0.402117 0.420000 2.515027
v -0.932595 -0.000000 0.164436
v -0.890023 -0.000000 0.326431
v -0.819968 -0.000000 0.478573
v -0.724558 -0.000000 0.616238
v -0.606693 -0.000000 0.735245
v -0.469952 -0.000000 0.831976
v -0.318492 -0.000000 0.903493
v -0.156914 -0.000000 0.941756
v 0.000000 -0.000000 0.946448
v -0.945000 0.000000 0.000001
v -0.945000 0.417571 0.000001
v 0.000001 0.864749 2.614749
v 0.000001 0.864749 2.614749
v 0.000001 0.875000 2.590001
v -2.590001 0.875000 0.000000
v -2.614749 0.864749 0.000001
v -2.614749 0.864749 0.000001
v -0.465797 0.864749 2.571600
v 0.000001 0.840000 2.625001
v -2.625000 0.840000 0.000000
v 0.000000 0.864749 0.885251
v 0.000000 0.864749 0.885251
v 0.000000 0.840000 0.875000
v -0.875000 0.835142 0.000001
v -0.885251 0.859891 0.000002
v -0.147113 0.864749 0.877882
v 0.000001 0.875000 0.910000
v -0.896080 0.875000 0.000000
v -0.896080 0.875000 0.000000
v -0.875000 0.417571 0.000001
v -0.875000 0.417571 0.000001
v -2.625000 0.417571 0.000002
v -2.625000 0.417571 0.000002
v 0.000001 0.420000 2.625001
v 0.000001 0.420000 2.625001
v -0.472742 0.875000 2.578773
v -0.704300 0.875000 2.525306
v -0.704300 0.875000 2.525306
v -0.179935 0.875000 0.867316
v -0.296603 0.875000 0.836695
v -0.296603 0.875000 0.836695
v -0.583520 0.895510 2.555960
v -0.704300 0.895510 2.525306
v -0.704300 0.895510 2.525306
v -0.185458 0.895510 0.869878
v -0.296603 0.895510 0.836695
v -0.296603 0.895510 0.836695
v -0.134966 0.896659 2.618271
v -0.134966 0.896659 2.618271
v -0.033258 0.896659 0.891021
v -0.033258 0.896659 0.891021
v -0.134966 0.917169 2.618271
v -0.134966 0.917169 2.618271
v -0.033258 0.917169 0.891021
v -0.033258 0.917169 0.891021
v -0.017442 0.896659 0.896699
v -0.033258 0.896659 0.891021
v -0.033258 0.896659 0.891021
v -0.033258 0.917169 0.891021
v -0.033258 0.917169 0.891021
v -0.017442 0.917169 0.896699
v -0.004064 0.896659 0.911298
v -0.004064 0.917169 0.911298
v 0.005027 0.896659 0.932745
v 0.005027 0.917169 0.932745
v 0.007691 0.896659 0.957920
v 0.007691 0.917169 0.957920
v -0.087636 0.917169 2.613514
v -0.134966 0.917169 2.618271
v -0.134966 0.917169 2.618271
v -0.134966 0.896659 2.618271
v -0.134966 0.896659 2.618271
v -0.087636 0.896659 2.613514
v -0.047433 0.917169 2.595305
v -0.047433 0.896659 2.595305
v -0.020770 0.917169 2.566857
v -0.020770 0.917169 2.566857
v -0.020770 0.896659 2.566857
v -0.020770 0.896659 2.566857
v -0.012921 0.917169 2.532946
v -0.012921 0.896659 2.532946
v -1.017428 0.875000 2.416009
v -1.231962 0.875000 2.313769
v -1.231962 0.875000 2.313769
v -0.362045 0.875000 0.806871
v -0.469064 0.875000 0.750295
v -0.469064 0.875000 0.750295
v -1.120659 0.895510 2.369797
v -1.231962 0.895510 2.313769
v -1.231962 0.895510 2.313769
v -0.367715 0.895510 0.806711
v -0.469064 0.895510 0.750295
v -0.469064 0.895510 0.750295
v -0.696168 0.896659 2.527563
v -0.696168 0.896659 2.527563
v -0.223681 0.896659 0.860243
v -0.223681 0.896659 0.860243
v -0.696168 0.917169 2.527563
v -0.696168 0.917169 2.527563
v -0.223681 0.917169 0.860243
v -0.223681 0.917169 0.860243
v -0.209465 0.896659 0.869205
v -0.223681 0.896659 0.860243
v -0.223681 0.896659 0.860243
v -0.223681 0.917169 0.860243
v -0.223681 0.917169 0.860243
v -0.209465 0.917169 0.869205
v -0.199557 0.896659 0.886349
v -0.199557 0.917169 0.886349
v -0.195316 0.896659 0.909254
v -0.195316 0.917169 0.909254
v -0.197611 0.896659 0.934533
v -0.197611 0.917169 0.934533
v -0.648928 0.917169 2.533147
v -0.696168 0.917169 2.527563
v -0.696168 0.917169 2.527563
v -0.696168 0.896659 2.527563
v -0.696168 0.896659 2.527563
v -0.648928 0.896659 2.533147
v -0.605741 0.917169 2.524054
v -0.605741 0.896659 2.524054
v -0.573559 0.917169 2.502041
v -0.573559 0.896659 2.502041
v -0.557128 0.917169 2.470953
v -0.557128 0.896659 2.470953
v -1.514074 0.875000 2.139390
v -1.701446 0.875000 1.993207
v -1.701446 0.875000 1.993207
v -0.524673 0.875000 0.708599
v -0.618781 0.875000 0.628669
v -0.618781 0.875000 0.628669
v -1.604880 0.895510 2.071963
v -1.701446 0.895510 1.993207
v -1.701446 0.895510 1.993207
v -0.532017 0.895510 0.705652
v -0.618781 0.895510 0.628669
v -0.618781 0.895510 0.628669
v -1.224509 0.896659 2.317730
v -1.224509 0.896659 2.317730
v -0.402953 0.896659 0.789044
v -0.402953 0.896659 0.789044
v -1.224509 0.917169 2.317730
v -1.224509 0.917169 2.317730
v -0.402953 0.917169 0.789044
v -0.402953 0.917169 0.789044
v -0.391010 0.896659 0.800866
v -0.402953 0.896659 0.789044
v -0.402953 0.896659 0.789044
v -0.402953 0.917169 0.789044
v -0.402953 0.917169 0.789044
v -0.391010 0.917169 0.800866
v -0.385041 0.896659 0.819746
v -0.385041 0.917169 0.819746
v -0.385849 0.896659 0.843026
v -0.385849 0.917169 0.843026
v -0.393553 0.896659 0.867212
v -0.393553 0.917169 0.867212
v -1.179592 0.917169 2.333389
v -1.224509 0.917169 2.317730
v -1.224509 0.917169 2.317730
v -1.224509 0.896659 2.317730
v -1.224509 0.896659 2.317730
v -1.179592 0.896659 2.333389
v -1.135461 0.917169 2.333844
v -1.135461 0.896659 2.333844
v -1.099283 0.917169 2.319304
v -1.099283 0.896659 2.319304
v -1.076521 0.917169 2.292501
v -1.076521 0.896659 2.292501
v -1.939212 0.875000 1.761987
v -2.090568 0.875000 1.578769
v -2.090568 0.875000 1.578769
v -0.661464 0.875000 0.579372
v -0.738678 0.875000 0.477565
v -0.738678 0.875000 0.477565
v -2.013302 0.895510 1.676531
v -2.090568 0.895510 1.578769
v -2.090568 0.895510 1.578769
v -0.670599 0.895510 0.571478
v -0.738678 0.895510 0.477565
v -0.738678 0.895510 0.477565
v -1.695026 0.896659 1.998685
v -1.695026 0.896659 1.998685
v -0.562604 0.896659 0.680788
v -0.562604 0.896659 0.680788
v -1.695026 0.917169 1.998685
v -1.695026 0.917169 1.998685
v -0.562604 0.917169 0.680788
v -0.562604 0.917169 0.680788
v -0.553498 0.896659 0.694912
v -0.562604 0.896659 0.680788
v -0.562604 0.896659 0.680788
v -0.562604 0.917169 0.680788
v -0.562604 0.917169 0.680788
v -0.553498 0.917169 0.694912
v -0.551750 0.896659 0.714636
v -0.551750 0.917169 0.714636
v -0.557570 0.896659 0.737191
v -0.557570 0.917169 0.737191
v -0.570317 0.896659 0.759141
v -0.570317 0.917169 0.759141
v -1.654554 0.917169 2.023680
v -1.695026 0.917169 1.998685
v -1.695026 0.917169 1.998685
v -1.695026 0.896659 1.998685
v -1.695026 0.896659 1.998685
v -1.654554 0.896659 2.023680
v -1.611563 0.917169 2.033660
v -1.611563 0.896659 2.033660
v -1.573098 0.917169 2.027282
v -1.573098 0.896659 2.027282
v -1.545083 0.917169 2.006031
v -1.545083 0.896659 2.006031
v -2.272753 0.875000 1.301634
v -2.380942 0.875000 1.090038
v -2.380942 0.875000 1.090038
v -0.767369 0.875000 0.425279
v -0.823090 0.875000 0.304122
v -0.823090 0.875000 0.304122
v -2.326627 0.895510 1.202186
v -2.380942 0.895510 1.090038
v -2.380942 0.895510 1.090038
v -0.776914 0.895510 0.410527
v -0.823090 0.895510 0.304122
v -0.823090 0.895510 0.304122
v -2.085484 0.896659 1.585505
v -2.085484 0.896659 1.585505
v -0.695091 0.896659 0.540592
v -0.695091 0.896659 0.540592
v -2.085484 0.917169 1.585505
v -2.085484 0.917169 1.585505
v -0.695091 0.917169 0.540592
v -0.695091 0.917169 0.540592
v -0.689252 0.896659 0.556350
v -0.695091 0.896659 0.540592
v -0.695091 0.896659 0.540592
v -0.695091 0.917169 0.540592
v -0.695091 0.917169 0.540592
v -0.689252 0.917169 0.556350
v -0.691807 0.896659 0.575985
v -0.691807 0.917169 0.575985
v -0.702363 0.896659 0.596750
v -0.702363 0.917169 0.596750
v -0.719553 0.896659 0.615426
v -0.719553 0.917169 0.615426
v -2.051369 0.917169 1.618656
v -2.085484 0.917169 1.585505
v -2.085484 0.917169 1.585505
v -2.085484 0.896659 1.585505
v -2.085484 0.896659 1.585505
v -2.051369 0.896659 1.618656
v -2.011551 0.917169 1.637689
v -2.011551 0.896659 1.637689
v -1.972616 0.917169 1.639774
v -1.972616 0.896659 1.639774
v -1.940670 0.917169 1.625078
v -1.940670 0.896659 1.625078
v -2.512062 0.875000 0.729696
v -2.558846 0.875000 0.550107
v -2.558846 0.875000 0.550107
v -0.839654 0.875000 0.247568
v -0.868030 0.875000 0.116536
v -0.868030 0.875000 0.116536
v -2.513100 0.897916 0.718692
v -2.558846 0.895510 0.550107
v -2.558846 0.895510 0.550107
v -0.845937 0.895510 0.230406
v -0.868030 0.895510 0.116536
v -0.868030 0.895510 0.116536
v -2.377433 0.896659 1.097713
v -2.377433 0.896659 1.097713
v -0.794153 0.896659 0.375078
v -0.794153 0.896659 0.375078
v -2.377433 0.917169 1.097713
v -2.377433 0.917169 1.097713
v -0.794153 0.917169 0.375078
v -0.794153 0.917169 0.375078
v -0.791857 0.896659 0.391726
v -0.794153 0.896659 0.375078
v -0.794153 0.896659 0.375078
v -0.794153 0.917169 0.375078
v -0.794153 0.917169 0.375078
v -0.791857 0.917169 0.391726
v -0.798595 0.896659 0.410345
v -0.798595 0.917169 0.410345
v -0.813388 0.896659 0.428339
v -0.813388 0.917169 0.428339
v -0.834208 0.896659 0.442859
v -0.834208 0.917169 0.442859
v -2.351287 0.917169 1.137452
v -2.377433 0.917169 1.097713
v -2.377433 0.917169 1.097713
v -2.377433 0.896659 1.097713
v -2.377433 0.896659 1.097713
v -2.351287 0.896659 1.137452
v -2.316523 0.917169 1.164640
v -2.316523 0.896659 1.164640
v -2.278959 0.917169 1.175089
v -2.278959 0.896659 1.175089
v -2.244592 0.917169 1.167644
v -2.244592 0.896659 1.167644
v -2.609559 0.875000 0.191216
v -2.625000 0.875000 0.000000
v -2.625000 0.875000 0.000000
v -0.873439 0.876882 0.042536
v -0.875080 0.875000 0.000000
v -0.875080 0.875000 0.000000
v -2.603943 0.899323 0.188166
v -2.625000 0.895510 0.000000
v -2.625000 0.895510 0.000000
v -0.874407 0.898468 0.039625
v -0.875080 0.895510 0.000000
v -0.875080 0.895510 0.000000
v -2.557078 0.896659 0.558359
v -2.557078 0.896659 0.558359
v -0.855109 0.896659 0.192069
v -0.855109 0.896659 0.192069
v -2.557078 0.917169 0.558359
v -2.557078 0.917169 0.558359
v -0.855109 0.917169 0.192069
v -0.855109 0.917169 0.192069
v -0.856464 0.896659 0.208820
v -0.855109 0.896659 0.192069
v -0.855109 0.896659 0.192069
v -0.855109 0.917169 0.192069
v -0.855109 0.917169 0.192069
v -0.856464 0.917169 0.208820
v -0.867066 0.896659 0.225543
v -0.867066 0.917169 0.225543
v -0.885399 0.896659 0.239915
v -0.885399 0.917169 0.239915
v -0.908864 0.896659 0.249593
v -0.908864 0.917169 0.249593
v -2.540138 0.917169 0.602809
v -2.557078 0.917169 0.558359
v -2.557078 0.917169 0.558359
v -2.557078 0.896659 0.558359
v -2.557078 0.896659 0.558359
v -2.540138 0.896659 0.602809
v -2.512070 0.917169 0.636867
v -2.512070 0.896659 0.636867
v -2.477651 0.917169 0.655186
v -2.477651 0.896659 0.655186
v -2.442488 0.917169 0.655343
v -2.442488 0.896659 0.655343
v 0.000001 0.875000 2.625001
v 0.000001 0.875000 2.625001
v -0.141796 0.875000 2.617911
v -0.141796 0.875000 2.617911
v 0.000000 0.875000 0.875000
v 0.000000 0.875000 0.875000
v -0.109009 0.875000 0.883862
v -0.109009 0.875000 0.883862
v 0.000001 0.895510 2.625001
v 0.000001 0.895510 2.625001
v -0.141796 0.895510 2.617911
v -0.141796 0.895510 2.617911
v 0.000000 0.895510 0.875000
v 0.000000 0.895510 0.875000
v -0.109009 0.895510 0.883862
v -0.109009 0.895510 0.883862
v -2.555000 0.417571 0.000002
v -2.555000 0.417571 0.000002
v -2.555000 0.417571 0.000002
v 0.000001 0.420000 2.560258
v 0.000001 0.420000 2.560258
v -2.555000 0.000000 0.000002
v -2.555000 0.000000 0.000002
v -0.932595 0.420000 0.164436
v -0.890023 0.420000 0.326431
v -0.724558 0.420000 0.616238
v -0.606693 0.420000 0.735245
v -2.570209 0.864749 0.446822
v -2.454713 0.864749 0.886314
v -2.264655 0.864749 1.299073
v -2.005809 0.864749 1.672558
v -1.686041 0.864749 1.995421
v -1.315066 0.864749 2.257852
v -0.904156 0.864749 2.451877
v -0.828817 0.864749 0.306375
v -0.763674 0.864749 0.447849
v -0.674954 0.864749 0.575861
v -0.565353 0.864749 0.686523
v -0.438201 0.864749 0.776471
v -0.297361 0.864749 0.842974
v -0.883039 0.875000 0.158246
v -0.842795 0.875000 0.311386
v -0.776570 0.875000 0.455211
v -0.686375 0.875000 0.585351
v -0.574953 0.875000 0.697852
v -0.445688 0.875000 0.789295
v -0.302507 0.875000 0.856903
v -0.945000 0.000000 0.000001
v -0.945000 0.000000 0.000001
v -0.946699 0.420000 0.000000
v -0.946699 0.420000 0.000000
v 0.000000 0.420000 0.946448
v 0.000000 0.420000 0.946448
v 0.000000 -0.000000 0.946448
v 0.000000 -0.000000 0.946448
v -0.819968 0.420000 0.478573
v -0.469952 0.420000 0.831976
v -0.318492 0.420000 0.903493
v -0.156914 0.420000 0.941756
v -0.907034 0.420000 2.459665
v -0.467278 0.420000 2.579770
v -1.319252 0.420000 2.265022
v -1.691408 0.420000 2.001756
v -2.012195 0.420000 1.677864
v -2.271865 0.420000 1.303190
v -2.462529 0.420000 0.889116
v -2.578393 0.420000 0.448225
v 0.000000 0.420000 0.875000
v 0.000000 0.420000 0.875000
v -0.295230 0.420000 0.837204
v -0.146016 0.420000 0.871829
v -0.435100 0.420000 0.771159
v -0.561377 0.420000 0.681830
v -0.670223 0.420000 0.571930
v -0.758333 0.420000 0.444799
v -0.823027 0.420000 0.304299
v -0.862341 0.420000 0.154700
v -2.513232 -0.000000 0.383482
v -2.397367 -0.000000 0.824373
v -2.206704 -0.000000 1.238447
v -1.947034 -0.000000 1.613122
v -1.626247 -0.000000 1.937013
v -1.254091 -0.000000 2.200279
v -0.841872 -0.000000 2.394922
v -0.402117 -0.000000 2.515027
v -0.841872 0.420000 2.394922
v -0.402117 0.420000 2.515027
v -1.254091 0.420000 2.200279
v -1.626247 0.420000 1.937013
v -1.947034 0.420000 1.613122
v -2.206704 0.420000 1.238447
v -2.397367 0.420000 0.824373
v -2.513232 0.420000 0.383482
v 0.000001 -0.000000 2.553950
v 0.000001 -0.000000 2.553950
v -0.156914 -0.000000 0.941756
v -0.318492 -0.000000 0.903493
v -0.469952 -0.000000 0.831976
v -0.606693 -0.000000 0.735245
v -0.724558 -0.000000 0.616238
v -0.819968 -0.000000 0.478573
v -0.890023 -0.000000 0.326431
v -0.932595 -0.000000 0.164436
vt 0.782600 0.907299
vt 0.782597 0.907299
vt 0.782597 0.907299
vt 0.782600 0.907299
vt 0.782596 0.907299
vt 0.782596 0.907299
vt 0.782596 0.907299
vt 0.782596 0.907299
vt 0.782597 0.907299
vt 0.782597 0.907299
vt 0.782597 0.907299
vt 0.782597 0.907299
vt 0.782597 0.907299
vt 0.782597 0.907299
vt 0.782597 0.907299
vt 0.782597 0.907299
vt 0.782597 0.907297
vt 0.782597 0.907297
vt 0.782597 0.907297
vt 0.782597 0.907297
vt 0.782600 0.907299
vt 0.782600 0.907299
vt 0.782596 0.907297
vt 0.782597 0.907297
vt 0.782597 0.907297
vt 0.782596 0.907297
vt 0.093752 0.845440
vt 0.093752 0.845440
vt 0.093752 0.845440
vt 0.093752 0.845440
vt 0.093752 0.845440
vt 0.093752 0.845440
vt 0.093754 0.845440
vt 0.093754 0.845440
vt 0.093754 0.845440
vt 0.093754 0.845440
vt 0.093754 0.845440
vt 0.093754 0.845440
vt 0.093746 0.845435
vt 0.093746 0.845435
vt 0.093746 0.845435
vt 0.093746 0.845435
vt 0.093746 0.845435
vt 0.093746 0.845435
vt 0.093746 0.845435
vt 0.093746 0.845435
vt 0.093754 0.845440
vt 0.093752 0.845440
vt 0.093752 0.845440
vt 0.093754 0.845440
vt 0.093746 0.845435
vt 0.093746 0.845435
vt 0.093746 0.845435
vt 0.093746 0.845435
vt 0.093746 0.845435
vt 0.093746 0.845435
vt 0.093754 0.845440
vt 0.093752 0.845440
vt 0.093752 0.845440
vt 0.093754 0.845440
vt 0.093746 0.845435
vt 0.093746 0.845435
vt 0.093746 0.845435
vt 0.093746 0.845435
vt 0.093746 0.845435
vt 0.093746 0.845435
vt 0.093746 0.845435
vt 0.093746 0.845435
vt 0.093746 0.845435
vt 0.093746 0.845435
vt 0.093746 0.845435
vt 0.093746 0.845435
vt 0.093746 0.845435
vt 0.093746 0.845435
vt 0.093746 0.845435
vt 0.093746 0.845435
vt 0.093746 0.845435
vt 0.093746 0.845435
vt 0.093746 0.845435
vt 0.093746 0.845435
vt 0.093746 0.845435
vt 0.093746 0.845435
vt 0.093746 0.845435
vt 0.093746 0.845435
vt 0.093746 0.845435
vt 0.093746 0.845435
vt 0.093746 0.845435
vt 0.093746 0.845435
vt 0.093746 0.845435
vt 0.093746 0.845435
vt 0.093752 0.845440
vt 0.093746 0.845435
vt 0.093746 0.845435
vt 0.093746 0.845435
vt 0.093746 0.845435
vt 0.093746 0.845435
vt 0.093746 0.845435
vt 0.093746 0.845435
vt 0.093746 0.845435
vt 0.093746 0.845435
vt 0.093746 0.845435
vt 0.093746 0.845435
vt 0.093746 0.845435
vt 0.093746 0.845435
vt 0.093752 0.845440
vt 0.093752 0.845440
vt 0.093752 0.845440
vt 0.093752 0.845440
vt 0.093752 0.845440
vt 0.093752 0.845440
vt 0.093754 0.845440
vt 0.093754 0.845440
vt 0.093754 0.845440
vt 0.093754 0.845440
vt 0.093754 0.845440
vt 0.093754 0.845440
vt 0.093746 0.845435
vt 0.093746 0.845435
vt 0.093746 0.845435
vt 0.093746 0.845435
vt 0.093746 0.845435
vt 0.093746 0.845435
vt 0.093746 0.845435
vt 0.093746 0.845435
vt 0.093754 0.845440
vt 0.093752 0.845440
vt 0.093752 0.845440
vt 0.093754 0.845440
vt 0.093746 0.845435
vt 0.093746 0.845435
vt 0.093746 0.845435
vt 0.093746 0.845435
vt 0.093746 0.845435
vt 0.093746 0.845435
vt 0.093754 0.845440
vt 0.093752 0.845440
vt 0.093752 0.845440
vt 0.093754 0.845440
vt 0.093746 0.845435
vt 0.093746 0.845435
vt 0.093746 0.845435
vt 0.093746 0.845435
vt 0.093746 0.845435
vt 0.093746 0.845435
vt 0.093746 0.845435
vt 0.093746 0.845435
vt 0.093746 0.845435
vt 0.093746 0.845435
vt 0.093746 0.845435
vt 0.093746 0.845435
vt 0.093746 0.845435
vt 0.093746 0.845435
vt 0.093746 0.845435
vt 0.093746 0.845435
vt 0.093746 0.845435
vt 0.093746 0.845435
vt 0.093746 0.845435
vt 0.093746 0.845435
vt 0.093746 0.845435
vt 0.093746 0.845435
vt 0.093746 0.845435
vt 0.093746 0.845435
vt 0.093746 0.845435
vt 0.093746 0.845435
vt 0.093746 0.845435
vt 0.093746 0.845435
vt 0.093752 0.845440
vt 0.093746 0.845435
vt 0.093746 0.845435
vt 0.093746 0.845435
vt 0.093746 0.845435
vt 0.093746 0.845435
vt 0.093746 0.845435
vt 0.093746 0.845435
vt 0.093746 0.845435
vt 0.093746 0.845435
vt 0.093746 0.845435
vt 0.093746 0.845435
vt 0.093746 0.845435
vt 0.093746 0.845435
vt 0.093752 0.845440
vt 0.093752 0.845440
vt 0.093752 0.845440
vt 0.093752 0.845440
vt 0.093752 0.845440
vt 0.093752 0.845440
vt 0.093754 0.845440
vt 0.093754 0.845440
vt 0.093754 0.845440
vt 0.093754 0.845440
vt 0.093754 0.845440
vt 0.093754 0.845440
vt 0.093746 0.845435
vt 0.093746 0.845435
vt 0.093746 0.845435
vt 0.093746 0.845435
vt 0.093746 0.845435
vt 0.093746 0.845435
vt 0.093746 0.845435
vt 0.093746 0.845435
vt 0.093754 0.845440
vt 0.093752 0.845440
vt 0.093752 0.845440
vt 0.093754 0.845440
vt 0.093746 0.845435
vt 0.093746 0.845435
vt 0.093746 0.845435
vt 0.093746 0.845435
vt 0.093746 0.845435
vt 0.093746 0.845435
vt 0.093754 0.845440
vt 0.093752 0.845440
vt 0.093752 0.845440
vt 0.093754 0.845440
vt 0.093746 0.845435
vt 0.093746 0.845435
vt 0.093746 0.845435
vt 0.093746 0.845435
vt 0.093746 0.845435
vt 0.093746 0.845435
vt 0.093746 0.845435
vt 0.093746 0.845435
vt 0.093746 0.845435
vt 0.093746 0.845435
vt 0.093746 0.845435
vt 0.093746 0.845435
vt 0.093746 0.845435
vt 0.093746 0.845435
vt 0.093746 0.845435
vt 0.093746 0.845435
vt 0.093746 0.845435
vt 0.093746 0.845435
vt 0.093746 0.845435
vt 0.093746 0.845435
vt 0.093746 0.845435
vt 0.093746 0.845435
vt 0.093746 0.845435
vt 0.093746 0.845435
vt 0.093746 0.845435
vt 0.093746 0.845435
vt 0.093746 0.845435
vt 0.093746 0.845435
vt 0.093752 0.845440
vt 0.093746 0.845435
vt 0.093746 0.845435
vt 0.093746 0.845435
vt 0.093746 0.845435
vt 0.093746 0.845435
vt 0.093746 0.845435
vt 0.093746 0.845435
vt 0.093746 0.845435
vt 0.093746 0.845435
vt 0.093746 0.845435
vt 0.093746 0.845435
vt 0.093746 0.845435
vt 0.093746 0.845435
vt 0.093752 0.845440
vt 0.093752 0.845440
vt 0.093752 0.845440
vt 0.093752 0.845440
vt 0.093752 0.845440
vt 0.093752 0.845440
vt 0.093754 0.845440
vt 0.093754 0.845440
vt 0.093754 0.845440
vt 0.093754 0.845440
vt 0.093754 0.845440
vt 0.093754 0.845440
vt 0.093746 0.845435
vt 0.093746 0.845435
vt 0.093746 0.845435
vt 0.093746 0.845435
vt 0.093746 0.845435
vt 0.093746 0.845435
vt 0.093746 0.845435
vt 0.093746 0.845435
vt 0.093754 0.845440
vt 0.093752 0.845440
vt 0.093752 0.845440
vt 0.093754 0.845440
vt 0.093746 0.845435
vt 0.093746 0.845435
vt 0.093746 0.845435
vt 0.093746 0.845435
vt 0.093746 0.845435
vt 0.093746 0.845435
vt 0.093754 0.845440
vt 0.093752 0.845440
vt 0.093752 0.845440
vt 0.093754 0.845440
vt 0.093746 0.845435
vt 0.093746 0.845435
vt 0.093746 0.845435
vt 0.093746 0.845435
vt 0.093746 0.845435
vt 0.093746 0.845435
vt 0.093746 0.845435
vt 0.093746 0.845435
vt 0.093746 0.845435
vt 0.093746 0.845435
vt 0.093746 0.845435
vt 0.093746 0.845435
vt 0.093746 0.845435
vt 0.093746 0.845435
vt 0.093746 0.845435
vt 0.093746 0.845435
vt 0.093746 0.845435
vt 0.093746 0.845435
vt 0.093746 0.845435
vt 0.093746 0.845435
vt 0.093746 0.845435
vt 0.093746 0.845435
vt 0.093746 0.845435
vt 0.093746 0.845435
vt 0.093746 0.845435
vt 0.093746 0.845435
vt 0.093746 0.845435
vt 0.093746 0.845435
vt 0.093752 0.845440
vt 0.093746 0.845435
vt 0.093746 0.845435
vt 0.093746 0.845435
vt 0.093746 0.845435
vt 0.093746 0.845435
vt 0.093746 0.845435
vt 0.093746 0.845435
vt 0.093746 0.845435
vt 0.093746 0.845435
vt 0.093746 0.845435
vt 0.093746 0.845435
vt 0.093746 0.845435
vt 0.093746 0.845435
vt 0.093752 0.845440
vt 0.093752 0.845440
vt 0.093752 0.845440
vt 0.093752 0.845440
vt 0.093752 0.845440
vt 0.093752 0.845440
vt 0.093754 0.845440
vt 0.093754 0.845440
vt 0.093754 0.845440
vt 0.093754 0.845440
vt 0.093754 0.845440
vt 0.093754 0.845440
vt 0.093746 0.845435
vt 0.093746 0.845435
vt 0.093746 0.845435
vt 0.093746 0.845435
vt 0.093746 0.845435
vt 0.093746 0.845435
vt 0.093746 0.845435
vt 0.093746 0.845435
vt 0.093754 0.845440
vt 0.093752 0.845440
vt 0.093752 0.845440
vt 0.093754 0.845440
vt 0.093746 0.845435
vt 0.093746 0.845435
vt 0.093746 0.845435
vt 0.093746 0.845435
vt 0.093746 0.845435
vt 0.093746 0.845435
vt 0.093754 0.845440
vt 0.093752 0.845440
vt 0.093752 0.845440
vt 0.093754 0.845440
vt 0.093746 0.845435
vt 0.093746 0.845435
vt 0.093746 0.845435
vt 0.093746 0.845435
vt 0.093746 0.845435
vt 0.093746 0.845435
vt 0.093746 0.845435
vt 0.093746 0.845435
vt 0.093746 0.845435
vt 0.093746 0.845435
vt 0.093746 0.845435
vt 0.093746 0.845435
vt 0.093746 0.845435
vt 0.093746 0.845435
vt 0.093746 0.845435
vt 0.093746 0.845435
vt 0.093746 0.845435
vt 0.093746 0.845435
vt 0.093746 0.845435
vt 0.093746 0.845435
vt 0.093746 0.845435
vt 0.093746 0.845435
vt 0.093746 0.845435
vt 0.093746 0.845435
vt 0.093746 0.845435
vt 0.093746 0.845435
vt 0.093746 0.845435
vt 0.093746 0.845435
vt 0.093752 0.845440
vt 0.093746 0.845435
vt 0.093746 0.845435
vt 0.093746 0.845435
vt 0.093746 0.845435
vt 0.093746 0.845435
vt 0.093746 0.845435
vt 0.093746 0.845435
vt 0.093746 0.845435
vt 0.093746 0.845435
vt 0.093746 0.845435
vt 0.093746 0.845435
vt 0.093746 0.845435
vt 0.093746 0.845435
vt 0.093752 0.845440
vt 0.093752 0.845440
vt 0.093752 0.845440
vt 0.093752 0.845440
vt 0.093752 0.845440
vt 0.093752 0.845440
vt 0.093754 0.845440
vt 0.093754 0.845440
vt 0.093754 0.845440
vt 0.093754 0.845440
vt 0.093754 0.845440
vt 0.093754 0.845440
vt 0.093746 0.845435
vt 0.093746 0.845435
vt 0.093746 0.845435
vt 0.093746 0.845435
vt 0.093746 0.845435
vt 0.093746 0.845435
vt 0.093746 0.845435
vt 0.093746 0.845435
vt 0.093754 0.845440
vt 0.093752 0.845440
vt 0.093752 0.845440
vt 0.093754 0.845440
vt 0.093746 0.845435
vt 0.093747 0.845436
vt 0.093746 0.845435
vt 0.093746 0.845435
vt 0.093746 0.845435
vt 0.093746 0.845435
vt 0.093754 0.845440
vt 0.093752 0.845440
vt 0.093752 0.845440
vt 0.093754 0.845440
vt 0.093746 0.845435
vt 0.093746 0.845435
vt 0.093746 0.845435
vt 0.093746 0.845435
vt 0.093746 0.845435
vt 0.093746 0.845435
vt 0.093746 0.845435
vt 0.093746 0.845435
vt 0.093746 0.845435
vt 0.093746 0.845435
vt 0.093746 0.845435
vt 0.093746 0.845435
vt 0.093746 0.845435
vt 0.093746 0.845435
vt 0.093746 0.845435
vt 0.093746 0.845435
vt 0.093746 0.845435
vt 0.093746 0.845435
vt 0.093746 0.845435
vt 0.093746 0.845435
vt 0.093746 0.845435
vt 0.093746 0.845435
vt 0.093746 0.845435
vt 0.093746 0.845435
vt 0.093746 0.845435
vt 0.093746 0.845435
vt 0.093746 0.845435
vt 0.093747 0.845436
vt 0.093752 0.845440
vt 0.093746 0.845435
vt 0.093746 0.845435
vt 0.093746 0.845435
vt 0.093746 0.845435
vt 0.093746 0.845435
vt 0.093746 0.845435
vt 0.093746 0.845435
vt 0.093746 0.845435
vt 0.093746 0.845435
vt 0.093746 0.845435
vt 0.093746 0.845435
vt 0.093746 0.845435
vt 0.093746 0.845435
vt 0.093752 0.845440
vt 0.093752 0.845440
vt 0.093752 0.845440
vt 0.093752 0.845440
vt 0.093752 0.845440
vt 0.093752 0.845440
vt 0.093754 0.845440
vt 0.093754 0.845440
vt 0.093754 0.845440
vt 0.093754 0.845440
vt 0.093754 0.845440
vt 0.093754 0.845440
vt 0.093746 0.845435
vt 0.093746 0.845435
vt 0.093746 0.845435
vt 0.093746 0.845435
vt 0.093746 0.845435
vt 0.093746 0.845435
vt 0.093746 0.845435
vt 0.093746 0.845435
vt 0.093754 0.845440
vt 0.093752 0.845440
vt 0.093752 0.845440
vt 0.093754 0.845440
vt 0.093746 0.845435
vt 0.093746 0.845436
vt 0.093746 0.845435
vt 0.093746 0.845435
vt 0.093746 0.845435
vt 0.093746 0.845435
vt 0.093754 0.845440
vt 0.093752 0.845440
vt 0.093752 0.845440
vt 0.093754 0.845440
vt 0.093746 0.845435
vt 0.093746 0.845435
vt 0.093746 0.845435
vt 0.093746 0.845435
vt 0.093746 0.845435
vt 0.093746 0.845435
vt 0.093746 0.845435
vt 0.093746 0.845435
vt 0.093746 0.845435
vt 0.093746 0.845435
vt 0.093746 0.845435
vt 0.093746 0.845435
vt 0.093746 0.845435
vt 0.093746 0.845435
vt 0.093746 0.845435
vt 0.093746 0.845435
vt 0.093746 0.845435
vt 0.093746 0.845435
vt 0.093746 0.845435
vt 0.093746 0.845435
vt 0.093746 0.845435
vt 0.093746 0.845435
vt 0.093746 0.845435
vt 0.093746 0.845435
vt 0.093746 0.845435
vt 0.093746 0.845435
vt 0.093746 0.845435
vt 0.093746 0.845436
vt 0.093752 0.845440
vt 0.093746 0.845435
vt 0.093746 0.845435
vt 0.093746 0.845435
vt 0.093746 0.845435
vt 0.093746 0.845435
vt 0.093746 0.845435
vt 0.093746 0.845435
vt 0.093746 0.845435
vt 0.093746 0.845435
vt 0.093746 0.845435
vt 0.093746 0.845435
vt 0.093746 0.845435
vt 0.093746 0.845435
vt 0.093746 0.845435
vt 0.093746 0.845435
vt 0.093746 0.845435
vt 0.093746 0.845435
vt 0.093754 0.845440
vt 0.093752 0.845440
vt 0.093752 0.845440
vt 0.093754 0.845440
vt 0.093746 0.845435
vt 0.093746 0.845435
vt 0.093746 0.845435
vt 0.093746 0.845435
vt 0.093754 0.845440
vt 0.093752 0.845440
vt 0.093752 0.845440
vt 0.093754 0.845440
vt 0.782596 0.907297
vt 0.782596 0.907297
vt 0.782597 0.907297
vt 0.782596 0.907297
vt 0.782597 0.907297
vt 0.782596 0.907297
vt 0.782597 0.907297
vt 0.782596 0.907297
vt 0.782597 0.907297
vt 0.782596 0.907297
vt 0.782597 0.907297
vt 0.782596 0.907297
vt 0.782597 0.907297
vt 0.782596 0.907297
vt 0.782600 0.907299
vt 0.782600 0.907299
vt 0.782600 0.907299
vt 0.782600 0.907299
vt 0.782600 0.907299
vt 0.782600 0.907299
vt 0.782600 0.907299
vt 0.782600 0.907299
vt 0.782600 0.907299
vt 0.782600 0.907299
vt 0.782600 0.907299
vt 0.782600 0.907299
vt 0.782600 0.907299
vt 0.782600 0.907299
vt 0.782597 0.907297
vt 0.782597 0.907297
vt 0.782597 0.907297
vt 0.782597 0.907297
vt 0.782597 0.907297
vt 0.782597 0.907297
vt 0.782597 0.907297
vt 0.782597 0.907297
vt 0.782597 0.907299
vt 0.782597 0.907299
vt 0.782597 0.907299
vt 0.782597 0.907299
vt 0.782597 0.907299
vt 0.782597 0.907299
vt 0.782597 0.907299
vt 0.782597 0.907299
vt 0.782597 0.907299
vt 0.782597 0.907299
vt 0.782597 0.907299
vt 0.782597 0.907299
vt 0.782597 0.907299
vt 0.782597 0.907299
vt 0.782597 0.907299
vt 0.782597 0.907299
vt 0.782597 0.907299
vt 0.782597 0.907299
vt 0.782597 0.907299
vt 0.782597 0.907299
vt 0.782597 0.907299
vt 0.782597 0.907299
vt 0.782597 0.907299
vt 0.782597 0.907299
vt 0.782597 0.907299
vt 0.782597 0.907299
vt 0.782597 0.907299
vt 0.782597 0.907299
vt 0.782597 0.907299
vt 0.782597 0.907299
vt 0.782596 0.907299
vt 0.782596 0.907299
vt 0.782596 0.907299
vt 0.782596 0.907299
vt 0.782596 0.907299
vt 0.782596 0.907299
vt 0.782596 0.907299
vt 0.782596 0.907299
vt 0.782596 0.907299
vt 0.782596 0.907299
vt 0.782596 0.907299
vt 0.782596 0.907299
vt 0.782596 0.907299
vt 0.782596 0.907299
vt 0.782597 0.907299
vt 0.782596 0.907299
vt 0.782596 0.907299
vt 0.782596 0.907297
vt 0.782592 0.907299
vt 0.782592 0.907299
vt 0.782596 0.907297
vt 0.782596 0.907297
vt 0.782592 0.907299
vt 0.782592 0.907299
vt 0.782596 0.907297
vt 0.845506 0.906965
vt 0.845506 0.906965
vt 0.845506 0.906965
vt 0.845506 0.906965
vt 0.845506 0.906965
vt 0.845506 0.906965
vt 0.845506 0.906965
vt 0.845506 0.906965
vt 0.845506 0.906965
vt 0.845506 0.906965
vt 0.845506 0.906965
vt 0.845506 0.906965
vt 0.845506 0.906965
vt 0.845506 0.906965
vt 0.845506 0.906965
vt 0.845506 0.906965
vt 0.782600 0.907299
vt 0.782600 0.907299
vt 0.782600 0.907299
vt 0.782600 0.907299
vt 0.782600 0.907299
vt 0.782600 0.907299
vt 0.782600 0.907299
vt 0.782600 0.907299
vt 0.782596 0.907299
vt 0.782596 0.907299
vt 0.782596 0.907299
vt 0.782596 0.907299
vt 0.782596 0.907299
vt 0.782596 0.907299
vt 0.782596 0.907299
vt 0.782596 0.907299
vt 0.782596 0.907299
vt 0.782596 0.907299
vt 0.845506 0.906965
vt 0.845506 0.906965
vt 0.845506 0.906965
vt 0.845506 0.906965
vt 0.782596 0.907297
vt 0.782592 0.907299
vt 0.782596 0.907297
vt 0.782592 0.907299
vt 0.782596 0.907297
vt 0.782597 0.907297
vt 0.782596 0.907297
vt 0.782596 0.907297
vt 0.782592 0.907299
vt 0.845509 0.906965
vt 0.845508 0.906965
vt 0.845508 0.906965
vt 0.845509 0.906965
vt 0.845509 0.906965
vt 0.845508 0.906965
vt 0.845508 0.906965
vt 0.845509 0.906965
vt 0.845508 0.906965
vt 0.845509 0.906965
vt 0.845508 0.906965
vt 0.845509 0.906965
vt 0.845508 0.906965
vt 0.845509 0.906965
vt 0.845508 0.906965
vt 0.845509 0.906965
vt 0.845508 0.906965
vt 0.845509 0.906965
vt 0.845508 0.906965
vt 0.845509 0.906965
vt 0.782596 0.907299
vt 0.782596 0.907299
vt 0.782592 0.907299
vt 0.782596 0.907297
vt 0.782592 0.907299
vt 0.782596 0.907297
vt 0.845508 0.906965
vt 0.845506 0.906965
vt 0.845506 0.906965
vt 0.845508 0.906965
vt 0.845508 0.906965
vt 0.845506 0.906965
vt 0.845508 0.906965
vt 0.845506 0.906965
vt 0.845508 0.906965
vt 0.845506 0.906965
vt 0.845508 0.906965
vt 0.845506 0.906965
vt 0.845508 0.906965
vt 0.845506 0.906965
vt 0.845508 0.906965
vt 0.845506 0.906965
vt 0.845508 0.906965
vt 0.845506 0.906965
vt 0.845508 0.906965
vt 0.845506 0.906965
vt 0.845509 0.906965
vt 0.845506 0.906965
vt 0.845506 0.906965
vt 0.845508 0.906965
vt 0.782592 0.907299
vt 0.782596 0.907297
vt 0.782597 0.907299
vt 0.782597 0.907297
vt 0.782597 0.907299
vt 0.782600 0.907299
vt 0.845509 0.906962
vt 0.845509 0.906964
vt 0.845508 0.906965
vt 0.845506 0.906965
vt 0.782596 0.907299
vt 0.782596 0.907299
vt 0.782597 0.907299
vt 0.782597 0.907297
vt 0.782596 0.907297
vt 0.782596 0.907297
vt 0.782597 0.907297
vt 0.782597 0.907299
vt 0.782600 0.907299
vt 0.782597 0.907299
vt 0.093752 0.845440
vt 0.093746 0.845435
vt 0.093746 0.845435
vt 0.093754 0.845440
vt 0.093752 0.845440
vt 0.093754 0.845440
vt 0.093746 0.845435
vt 0.093746 0.845435
vn 0.0422 0.9660 -0.2551
vn -0.0424 0.9718 0.2320
vn -0.0196 0.9745 0.2236
vn 0.0184 0.9754 -0.2197
vn 0.0000 -1.0000 0.0000
vn -0.2312 0.9720 0.0419
vn -0.2243 0.9743 0.0212
vn -0.4156 0.9087 0.0393
vn -0.4290 0.9000 0.0775
vn -0.9273 0.3343 0.1686
vn -0.9320 0.3498 0.0949
vn -0.9793 0.1755 0.1008
vn -0.9698 0.1683 0.1764
vn 0.9745 0.1428 -0.1730
vn 0.9833 0.1572 -0.0917
vn 0.8434 0.5295 -0.0909
vn 0.8177 0.5561 -0.1486
vn 0.6997 0.7102 -0.0776
vn 0.6284 0.7699 -0.1117
vn 0.1245 -0.0000 -0.9922
vn 0.1269 0.1417 -0.9817
vn 0.0283 0.1591 -0.9869
vn 0.0217 -0.0000 -0.9998
vn -0.0344 0.9994 -0.0050
vn 0.0000 1.0000 -0.0000
vn -0.0361 0.9993 -0.0053
vn 0.0000 0.0000 1.0000
vn 0.1960 0.0874 -0.9767
vn 0.2684 0.0960 -0.9585
vn 0.2094 0.0890 -0.9738
vn -0.9721 0.0000 -0.2347
vn -0.2314 -0.0859 0.9691
vn -0.1418 0.1602 0.9768
vn -0.2249 -0.0667 0.9721
vn 0.1366 0.0800 -0.9874
vn -0.0356 0.9994 -0.0052
vn -0.1359 0.1753 0.9751
vn 0.9928 0.0000 0.1200
vn 0.9989 0.0000 -0.0462
vn 0.3379 0.0000 -0.9412
vn 0.5537 0.0000 -0.8327
vn 0.8412 0.0000 -0.5408
vn 0.9681 0.0000 -0.2505
vn 0.1000 0.0000 0.9950
vn 0.2597 0.0000 0.9657
vn 0.5823 0.0000 0.8130
vn 0.7296 0.0000 0.6839
vn 0.9742 0.0000 0.2255
vn 0.0427 -0.9991 0.0049
vn -0.0325 0.9994 -0.0123
vn -0.0341 0.9993 -0.0130
vn 0.4053 0.0525 -0.9127
vn 0.4758 0.0623 -0.8774
vn 0.4197 0.0545 -0.9060
vn -0.8987 0.0000 -0.4385
vn -0.4353 -0.0859 0.8962
vn -0.3496 0.1602 0.9231
vn -0.4296 -0.0667 0.9005
vn 0.3477 0.0444 -0.9365
vn -0.0337 0.9994 -0.0128
vn -0.3434 0.1753 0.9227
vn 0.9366 0.0000 0.3504
vn 0.9872 0.0000 0.1595
vn 0.5333 0.0000 -0.8459
vn 0.7206 0.0000 -0.6934
vn 0.9381 0.0000 -0.3462
vn 0.9989 0.0000 -0.0463
vn -0.1174 0.0000 0.9931
vn 0.0449 0.0000 0.9990
vn 0.3928 0.0000 0.9196
vn 0.7461 0.0000 0.6658
vn 0.0406 -0.9991 0.0140
vn -0.0290 0.9994 -0.0190
vn -0.0306 0.9993 -0.0200
vn 0.5891 0.0475 -0.8067
vn 0.6540 0.0629 -0.7539
vn 0.6093 0.0522 -0.7912
vn -0.7834 0.0000 -0.6216
vn -0.6187 -0.0859 0.7809
vn -0.5408 0.1602 0.8258
vn -0.6141 -0.0667 0.7864
vn 0.5421 0.0367 -0.8395
vn -0.0291 0.9994 -0.0190
vn -0.0301 0.9994 -0.0197
vn -0.5347 0.1753 0.8267
vn 0.8390 0.0000 0.5442
vn 0.9295 0.0000 0.3687
vn 0.7035 0.0000 -0.7107
vn 0.8534 0.0000 -0.5213
vn 0.9908 0.0000 -0.1353
vn 0.9853 0.0000 0.1707
vn -0.3292 0.0000 0.9443
vn -0.1720 0.0000 0.9851
vn 0.1848 0.0000 0.9828
vn 0.5847 0.0000 0.8113
vn 0.0366 -0.9991 0.0224
vn -0.0243 0.9994 -0.0248
vn -0.0256 0.9993 -0.0261
vn 0.7445 0.0375 -0.6666
vn 0.8013 0.0640 -0.5948
vn 0.7706 0.0493 -0.6354
vn -0.6316 0.0000 -0.7753
vn -0.7728 -0.0859 0.6288
vn -0.7065 0.1602 0.6894
vn -0.7695 -0.0667 0.6351
vn 0.7111 0.0231 -0.7027
vn -0.0244 0.9994 -0.0249
vn -0.0251 0.9994 -0.0257
vn -0.7007 0.1753 0.6916
vn 0.7019 0.0000 0.7122
vn 0.8282 0.0000 0.5604
vn 0.8404 0.0000 -0.5419
vn 0.9459 0.0000 -0.3245
vn 0.9966 0.0000 0.0820
vn 0.9252 0.0000 0.3796
vn -0.5255 0.0000 0.8508
vn -0.3808 0.0000 0.9247
vn -0.0319 0.0000 0.9995
vn 0.3955 0.0000 0.9185
vn 0.0309 -0.9991 0.0298
vn -0.0184 0.9994 -0.0294
vn -0.0194 0.9993 -0.0310
vn 0.8672 0.0229 -0.4974
vn 0.9107 0.0653 -0.4078
vn 0.8932 0.0470 -0.4471
vn -0.4504 0.0000 -0.8928
vn -0.8904 -0.0859 0.4470
vn -0.8387 0.1602 0.5204
vn -0.8886 -0.0667 0.4538
vn 0.8464 0.0055 -0.5325
vn -0.0185 0.9994 -0.0296
vn -0.0190 0.9994 -0.0305
vn -0.8336 0.1753 0.5239
vn 0.5320 0.0000 0.8467
vn 0.6881 0.0000 0.7256
vn 0.9377 0.0000 -0.3475
vn 0.9937 0.0000 -0.1125
vn 0.9554 0.0000 0.2954
vn 0.8213 0.0000 0.5705
vn -0.6969 0.0000 0.7172
vn -0.5716 0.0000 0.8205
vn -0.2471 0.0000 0.9690
vn 0.1877 0.0000 0.9822
vn 0.0237 -0.9991 0.0357
vn -0.0121 0.9994 -0.0336
vn -0.0128 0.9993 -0.0354
vn 0.9540 0.0210 -0.2991
vn 0.9773 0.0654 -0.2014
vn 0.9690 0.0468 -0.2428
vn -0.2484 0.0000 -0.9687
vn -0.9657 0.0419 0.2563
vn -0.9500 0.0552 0.3074
vn -0.9568 0.0497 0.2864
vn 0.9415 0.0032 -0.3370
vn -0.0015 1.0000 -0.0082
vn -0.0131 0.9992 -0.0382
vn -0.0131 0.9992 -0.0383
vn -0.9396 0.0628 0.3365
vn 0.3373 0.0000 0.9414
vn 0.5157 0.0000 0.8568
vn 0.9906 0.0000 -0.1366
vn 0.9945 0.0000 0.1049
vn 0.8690 0.0000 0.4949
vn 0.6786 0.0000 0.7345
vn -0.8354 0.0000 0.5496
vn -0.7354 0.0000 0.6776
vn -0.4507 0.0000 0.8927
vn -0.0290 0.0000 0.9996
vn 0.0149 -0.9991 0.0402
vn -0.0049 0.9994 -0.0333
vn -0.0051 0.9994 -0.0352
vn 0.9967 0.0175 -0.0790
vn 0.9993 0.0210 -0.0294
vn 0.9969 0.0177 -0.0763
vn -0.0000 0.0000 -1.0000
vn -0.9871 0.1300 0.0937
vn -0.9852 0.1309 0.1103
vn -0.9854 0.1309 0.1089
vn 0.9920 0.0142 -0.1254
vn -0.0010 0.9996 -0.0296
vn -0.0054 0.9988 -0.0487
vn -0.0055 0.9988 -0.0489
vn -0.9833 0.1317 0.1254
vn 0.1268 0.0000 0.9919
vn 0.3192 0.0000 0.9477
vn 0.9967 0.0000 0.0806
vn 0.9483 0.0000 0.3173
vn 0.7415 0.0000 0.6709
vn 0.5038 0.0000 0.8638
vn -0.9344 0.0000 0.3561
vn -0.8645 0.0000 0.5027
vn -0.6329 0.0000 0.7742
vn -0.2443 0.0000 0.9697
vn 0.0072 -0.9989 0.0466
vn -0.0810 0.0000 -0.9967
vn -0.9998 0.0000 -0.0189
vn -0.0499 0.0000 0.9988
vn 0.9967 0.0000 -0.0816
vn 0.9858 0.0000 -0.1681
vn 0.9343 0.1223 -0.3350
vn 0.9413 0.0000 -0.3375
vn 0.8619 0.1223 -0.4921
vn 0.8684 0.0000 -0.4958
vn 0.7634 0.1223 -0.6343
vn 0.7691 0.0000 -0.6391
vn 0.6416 0.1223 -0.7572
vn 0.6465 0.0000 -0.7629
vn 0.5004 0.1223 -0.8571
vn 0.5042 0.0000 -0.8636
vn 0.3258 0.1227 -0.9375
vn 0.3284 0.0000 -0.9445
vn 0.0385 0.8873 -0.4596
vn 0.0831 0.8575 -0.5077
vn 0.1860 0.8233 -0.5362
vn 0.1871 0.8233 -0.5358
vn 0.2864 0.8229 -0.4906
vn 0.3673 0.8229 -0.4334
vn 0.4370 0.8229 -0.3631
vn 0.4934 0.8229 -0.2817
vn 0.5348 0.8229 -0.1917
vn 0.1281 0.2779 -0.9520
vn 0.0341 0.3133 -0.9490
vn 0.3190 0.2415 -0.9165
vn 0.4893 0.2412 -0.8381
vn 0.6274 0.2412 -0.7404
vn 0.7464 0.2412 -0.6202
vn 0.8428 0.2412 -0.4812
vn 0.9135 0.2412 -0.3275
vn -0.0883 0.3498 0.9327
vn -0.1697 0.3345 0.9270
vn -0.1777 0.1683 0.9696
vn -0.0939 0.1756 0.9800
vn -0.3285 0.3181 0.8893
vn -0.3421 0.1597 0.9260
vn -0.4780 0.3181 0.8188
vn -0.4977 0.1597 0.8525
vn -0.6129 0.3181 0.7233
vn -0.6382 0.1597 0.7531
vn -0.7292 0.3181 0.6059
vn -0.7593 0.1597 0.6309
vn -0.8233 0.3181 0.4701
vn -0.8573 0.1597 0.4895
vn -0.8924 0.3181 0.3200
vn -0.9292 0.1597 0.3332
vn -0.0785 0.9000 0.4287
vn -0.0364 0.9086 0.4160
vn -0.0854 0.9692 0.2311
vn -0.1578 0.8903 0.4271
vn -0.1242 0.9692 0.2128
vn -0.2296 0.8903 0.3932
vn -0.1593 0.9692 0.1880
vn -0.2944 0.8903 0.3474
vn -0.1895 0.9692 0.1575
vn -0.3502 0.8903 0.2910
vn -0.2140 0.9692 0.1222
vn -0.3954 0.8903 0.2258
vn -0.2319 0.9692 0.0832
vn -0.4286 0.8903 0.1537
vn 0.0008 -1.0000 0.0017
vn 0.0027 -1.0000 0.0056
vn 0.0018 -1.0000 0.0038
vn 0.9858 0.0010 -0.1679
vn 0.9968 0.0020 -0.0803
vn 0.0299 0.0000 -0.9996
vn 0.1308 0.0000 -0.9914
vn -0.3465 0.0000 0.9380
vn -0.1806 0.0000 0.9836
vn -0.5042 0.0000 0.8636
vn -0.6465 0.0000 0.7629
vn -0.7691 0.0000 0.6391
vn -0.8684 0.0000 0.4958
vn -0.9413 -0.0000 0.3375
vn -0.9838 -0.0000 0.1792
vn -0.9946 0.0000 0.1034
vn -0.0963 -0.0000 0.9953
vn 0.3305 0.0000 -0.9438
vn -0.1844 -0.0037 0.9828
vn -0.1041 -0.0075 0.9945
vn -0.9941 0.0000 0.1083
vn -0.9833 0.0000 0.1817
vn -0.9833 0.0000 0.1819
vn -0.0084 -1.0000 0.0046
vn -0.0081 -1.0000 0.0044
vn -0.0165 -0.9998 0.0090
vn 0.0000 -0.0001 -1.0000
vn 1.0000 0.0000 -0.0000
usemtl AIRPORT
s 1
f 364/81/61 317/82/62 416/83/63 429/84/64
f 374/85/65 807/86/65 833/87/65 402/88/65
f 324/89/66 417/90/67 418/91/68 775/92/69
f 325/93/70 419/94/71 422/95/72 333/96/73
f 348/97/74 426/98/75 427/99/76 349/100/77
f 349/100/77 427/99/76 430/101/78 788/102/79
f 384/103/80 341/104/81 425/105/82 815/106/83
f 85/107/84 471/108/85 470/109/85 476/110/85 478/111/85 482/112/85 469/113/85 467/114/85 465/115/85 463/116/85 462/117/85 457/118/86
f 451/119/87 473/120/87 472/121/87 455/122/87
f 441/123/88 442/124/89 448/125/89 447/126/90
f 443/127/91 440/128/91 446/129/91 449/130/91
f 439/131/92 438/132/93 444/133/94 445/134/92
f 452/135/95 441/123/88 447/126/90 456/136/95
f 78/137/85 77/138/85 81/139/84 82/140/96
f 438/132/93 450/141/97 454/142/97 444/133/94
f 82/140/96 81/139/84 85/107/84 457/118/86
f 453/143/87 86/144/87 461/145/87 460/146/87
f 483/147/98 468/148/99 97/149/99 103/150/98
f 459/151/100 98/152/100 101/153/101 458/154/101
f 458/154/101 101/153/101 100/155/102 464/156/102
f 464/156/102 100/155/102 99/157/103 466/158/103
f 466/158/103 99/157/103 97/149/99 468/148/99
f 102/159/104 474/160/104 475/161/105 104/162/105
f 104/162/105 475/161/105 477/163/106 105/164/106
f 105/164/106 477/163/106 480/165/107 479/166/107
f 106/167/108 481/168/108 483/147/98 103/150/98
f 83/169/109 79/170/109 75/171/109 76/172/109 80/173/109 84/174/109 87/175/109 89/176/109 90/177/109 91/178/109 88/179/109 92/180/109 94/181/109 95/182/109 96/183/109 93/184/109
f 117/185/110 517/186/85 516/187/85 522/188/85 524/189/85 526/190/85 515/191/85 513/192/85 511/193/85 509/194/85 508/195/85 503/196/111
f 497/197/87 519/198/87 518/199/87 501/200/87
f 487/201/112 488/202/113 494/203/113 493/204/114
f 489/205/115 486/206/115 492/207/115 495/208/115
f 485/209/116 484/210/117 490/211/118 491/212/116
f 498/213/119 487/201/112 493/204/114 502/214/119
f 110/215/85 109/216/85 113/217/110 114/218/120
f 484/210/117 496/219/121 500/220/121 490/211/118
f 114/218/120 113/217/110 117/185/110 503/196/111
f 499/221/87 118/222/87 507/223/87 506/224/87
f 527/225/122 514/226/123 129/227/123 135/228/122
f 505/229/124 130/230/124 133/231/125 504/232/125
f 504/232/125 133/231/125 132/233/126 510/234/126
f 510/234/126 132/233/126 131/235/127 512/236/127
f 512/236/127 131/235/127 129/227/123 514/226/123
f 134/237/128 520/238/128 521/239/129 136/240/129
f 136/240/129 521/239/129 523/241/130 137/242/130
f 137/242/130 523/241/130 525/243/131 138/244/131
f 138/244/131 525/243/131 527/225/122 135/228/122
f 115/245/132 111/246/132 107/247/132 108/248/132 112/249/132 116/250/132 119/251/132 121/252/132 122/253/132 123/254/132 120/255/132 124/256/132 126/257/132 127/258/132 128/259/132 125/260/132
f 149/261/133 561/262/85 560/263/85 566/264/85 568/265/85 570/266/85 559/267/85 557/268/85 555/269/85 553/270/85 552/271/85 547/272/134
f 541/273/87 563/274/87 562/275/87 545/276/87
f 531/277/135 532/278/136 538/279/136 537/280/137
f 533/281/138 530/282/138 536/283/138 539/284/138
f 529/285/139 528/286/140 534/287/141 535/288/139
f 542/289/142 531/277/135 537/280/137 546/290/142
f 142/291/85 141/292/85 145/293/143 146/294/144
f 528/286/140 540/295/145 544/296/145 534/287/141
f 146/294/144 145/293/143 149/261/133 547/272/134
f 543/297/87 150/298/87 551/299/87 550/300/87
f 571/301/146 558/302/147 161/303/147 167/304/146
f 549/305/148 162/306/148 165/307/149 548/308/149
f 548/308/149 165/307/149 164/309/150 554/310/150
f 554/310/150 164/309/150 163/311/151 556/312/151
f 556/312/151 163/311/151 161/303/147 558/302/147
f 166/313/152 564/314/152 565/315/153 168/316/153
f 168/316/153 565/315/153 567/317/154 169/318/154
f 169/318/154 567/317/154 569/319/155 170/320/155
f 170/320/155 569/319/155 571/301/146 167/304/146
f 147/321/156 143/322/156 139/323/156 140/324/156 144/325/156 148/326/156 151/327/156 153/328/156 154/329/156 155/330/156 152/331/156 156/332/156 158/333/156 159/334/156 160/335/156 157/336/156
f 181/337/157 605/338/85 604/339/85 610/340/85 612/341/85 614/342/85 603/343/85 601/344/85 599/345/85 597/346/85 596/347/85 591/348/158
f 585/349/87 607/350/87 606/351/87 589/352/87
f 575/353/159 576/354/160 582/355/160 581/356/161
f 577/357/162 574/358/162 580/359/162 583/360/162
f 573/361/163 572/362/164 578/363/165 579/364/163
f 586/365/166 575/353/159 581/356/161 590/366/166
f 174/367/85 173/368/85 177/369/167 178/370/168
f 572/362/164 584/371/169 588/372/169 578/363/165
f 178/370/168 177/369/167 181/337/157 591/348/158
f 587/373/87 182/374/87 595/375/87 594/376/87
f 615/377/170 602/378/171 193/379/171 199/380/170
f 593/381/172 194/382/172 197/383/173 592/384/173
f 592/384/173 197/383/173 196/385/174 598/386/174
f 598/386/174 196/385/174 195/387/175 600/388/175
f 600/388/175 195/387/175 193/379/171 602/378/171
f 198/389/176 608/390/176 609/391/177 200/392/177
f 200/392/177 609/391/177 611/393/178 201/394/178
f 201/394/178 611/393/178 613/395/179 202/396/179
f 202/396/179 613/395/179 615/377/170 199/380/170
f 179/397/180 175/398/180 171/399/180 172/400/180 176/401/180 180/402/180 183/403/180 185/404/180 186/405/180 187/406/180 184/407/180 188/408/180 190/409/180 191/410/180 192/411/180 189/412/180
f 213/413/181 649/414/85 648/415/85 654/416/85 656/417/85 658/418/85 647/419/85 645/420/85 643/421/85 641/422/85 640/423/85 635/424/182
f 629/425/87 651/426/87 650/427/87 633/428/87
f 619/429/183 620/430/184 626/431/184 625/432/185
f 621/433/186 618/434/186 624/435/186 627/436/186
f 617/437/187 616/438/188 622/439/189 623/440/187
f 630/441/190 619/429/183 625/432/185 634/442/190
f 206/443/85 205/444/85 209/445/191 210/446/192
f 616/438/188 628/447/193 632/448/193 622/439/189
f 210/446/192 209/445/191 213/413/181 635/424/182
f 631/449/87 214/450/87 639/451/87 638/452/87
f 659/453/194 646/454/195 225/455/195 231/456/194
f 637/457/196 226/458/196 229/459/197 636/460/197
f 636/460/197 229/459/197 228/461/198 642/462/198
f 642/462/198 228/461/198 227/463/199 644/464/199
f 644/464/199 227/463/199 225/455/195 646/454/195
f 230/465/200 652/466/200 653/467/201 232/468/201
f 232/468/201 653/467/201 655/469/202 233/470/202
f 233/470/202 655/469/202 657/471/203 234/472/203
f 234/472/203 657/471/203 659/453/194 231/456/194
f 211/473/204 207/474/204 203/475/204 204/476/204 208/477/204 212/478/204 215/479/204 217/480/204 218/481/204 219/482/204 216/483/204 220/484/204 222/485/204 223/486/204 224/487/204 221/488/204
f 245/489/205 693/490/85 692/491/85 698/492/85 700/493/85 702/494/85 691/495/85 689/496/85 687/497/85 685/498/85 684/499/85 679/500/206
f 673/501/87 695/502/87 694/503/87 677/504/87
f 663/505/207 664/506/208 670/507/208 669/508/209
f 665/509/210 662/510/210 668/511/210 671/512/210
f 661/513/211 660/514/212 666/515/213 667/516/211
f 674/517/214 663/505/207 669/508/209 678/518/214
f 238/519/215 237/520/215 241/521/216 242/522/217
f 660/514/212 672/523/218 676/524/218 666/515/213
f 242/522/217 241/521/216 245/489/205 679/500/206
f 675/525/87 246/526/87 683/527/87 682/528/87
f 703/529/219 690/530/220 257/531/220 263/532/219
f 681/533/221 258/534/221 261/535/222 680/536/222
f 680/536/222 261/535/222 260/537/223 686/538/223
f 686/538/223 260/537/223 259/539/224 688/540/224
f 688/540/224 259/539/224 257/531/220 690/530/220
f 262/541/225 696/542/225 697/543/226 264/544/226
f 264/544/226 697/543/226 699/545/227 265/546/227
f 265/546/227 699/545/227 701/547/228 266/548/228
f 266/548/228 701/547/228 703/529/219 263/532/219
f 243/549/229 239/550/229 235/551/229 236/552/229 240/553/229 244/554/229 247/555/229 249/556/229 250/557/229 251/558/229 248/559/229 252/560/229 254/561/229 255/562/229 256/563/229 253/564/229
f 277/565/230 737/566/85 736/567/85 742/568/85 744/569/85 746/570/85 735/571/85 733/572/85 731/573/85 729/574/85 728/575/85 723/576/231
f 717/577/87 739/578/87 738/579/87 721/580/87
f 707/581/232 708/582/233 714/583/233 713/584/234
f 709/585/235 706/586/235 712/587/235 715/588/235
f 705/589/236 704/590/237 710/591/238 711/592/236
f 718/593/239 707/581/232 713/584/234 722/594/239
f 270/595/240 269/596/240 273/597/241 274/598/242
f 704/590/237 716/599/243 720/600/243 710/591/238
f 274/598/242 273/597/241 277/565/230 723/576/231
f 719/601/87 278/602/87 727/603/87 726/604/87
f 747/605/244 734/606/245 289/607/245 295/608/244
f 725/609/246 290/610/246 293/611/247 724/612/247
f 724/612/247 293/611/247 292/613/248 730/614/248
f 730/614/248 292/613/248 291/615/249 732/616/249
f 732/616/249 291/615/249 289/607/245 734/606/245
f 294/617/250 740/618/250 741/619/251 296/620/251
f 296/620/251 741/619/251 743/621/252 297/622/252
f 297/622/252 743/621/252 745/623/253 298/624/253
f 298/624/253 745/623/253 747/605/244 295/608/244
f 275/625/254 271/626/254 267/627/254 268/628/254 272/629/254 276/630/254 279/631/254 281/632/254 282/633/254 283/634/254 280/635/254 284/636/254 286/637/254 287/638/254 288/639/254 285/640/254
f 752/641/255 754/642/255 762/643/255 760/644/255
f 755/645/256 751/646/256 759/647/256 763/648/256
f 750/649/257 748/650/257 756/651/257 758/652/257
f 302/653/85 301/654/85 757/655/85 761/656/85
f 432/657/258 426/98/75 348/97/74 377/658/259
f 377/658/259 348/97/74 347/659/260 378/660/261
f 378/660/261 347/659/260 346/661/262 379/662/263
f 379/662/263 346/661/262 345/663/264 380/664/265
f 380/664/265 345/663/264 344/665/266 381/666/267
f 381/666/267 344/665/266 343/667/268 382/668/269
f 382/668/269 343/667/268 342/669/270 383/670/271
f 383/670/271 342/669/270 341/104/81 384/103/80
f 424/671/272 428/672/273 364/81/61 429/84/64
f 428/672/273 787/673/274 794/674/275 364/81/61
f 787/673/274 786/675/276 793/676/276 794/674/275
f 786/675/276 785/677/277 792/678/277 793/676/276
f 785/677/277 784/679/278 791/680/278 792/678/277
f 784/679/278 783/681/279 790/682/279 791/680/278
f 783/681/279 782/683/280 789/684/280 790/682/279
f 782/683/280 349/100/77 788/102/79 789/684/280
f 425/105/82 341/104/81 356/685/281 423/686/282
f 341/104/81 342/669/270 355/687/283 356/685/281
f 342/669/270 343/667/268 354/688/284 355/687/283
f 343/667/268 344/665/266 353/689/285 354/688/284
f 344/665/266 345/663/264 352/690/286 353/689/285
f 345/663/264 346/661/262 351/691/287 352/690/286
f 346/661/262 347/659/260 350/692/288 351/691/287
f 347/659/260 348/97/74 349/100/77 350/692/288
f 415/693/289 420/694/290 340/695/291 421/696/292
f 420/694/290 781/697/293 339/698/294 340/695/291
f 781/697/293 780/699/295 338/700/296 339/698/294
f 780/699/295 779/701/297 337/702/298 338/700/296
f 779/701/297 778/703/299 336/704/300 337/702/298
f 778/703/299 777/705/301 335/706/302 336/704/300
f 777/705/301 776/707/303 334/708/304 335/706/302
f 776/707/303 325/93/70 333/96/73 334/708/304
f 416/83/63 317/82/62 332/709/305 414/710/306
f 317/82/62 318/711/307 331/712/308 332/709/305
f 318/711/307 319/713/309 330/714/310 331/712/308
f 319/713/309 320/715/311 329/716/312 330/714/310
f 320/715/311 321/717/313 328/718/314 329/716/312
f 321/717/313 322/719/315 327/720/316 328/718/314
f 322/719/315 323/721/317 326/722/318 327/720/316
f 323/721/317 324/89/66 775/92/69 326/722/318
f 367/723/319 435/724/320 764/725/320 395/726/321
f 368/727/65 367/723/319 395/726/321 839/728/65
f 812/729/65 368/727/65 839/728/65 838/730/65
f 811/731/65 812/729/65 838/730/65 837/732/65
f 371/733/65 811/731/65 837/732/65 836/734/65
f 372/735/65 371/733/65 836/734/65 835/736/65
f 66/737/235 766/738/235 434/739/235
f 819/740/65 804/741/65 312/742/65 820/743/65
f 818/744/65 806/745/65 805/746/65 817/747/65
f 403/748/322 795/749/323 797/750/323 771/751/322
f 407/752/267 847/753/265 313/754/265 774/755/267
f 801/756/324 843/757/325 309/758/325 799/759/324
f 848/760/263 849/761/261 772/762/261 314/763/263
f 847/753/265 848/760/263 314/763/263 313/754/265
f 431/764/85 417/90/67 324/89/66 357/765/85
f 357/765/85 324/89/66 323/721/317 358/766/85
f 358/766/85 323/721/317 322/719/315 359/767/85
f 359/767/85 322/719/315 321/717/313 360/768/85
f 360/768/85 321/717/313 320/715/311 361/769/85
f 361/769/85 320/715/311 319/713/309 362/770/85
f 362/770/85 319/713/309 318/711/307 363/771/85
f 363/771/85 318/711/307 317/82/62 364/81/61
f 339/698/294 373/772/326 808/773/327 340/695/291
f 338/700/296 809/774/328 373/772/326 339/698/294
f 337/702/298 810/775/329 809/774/328 338/700/296
f 336/704/300 370/776/330 810/775/329 337/702/298
f 335/706/302 369/777/331 370/776/330 336/704/300
f 334/708/304 813/778/332 369/777/331 335/706/302
f 333/96/73 814/779/333 813/778/332 334/708/304
f 422/95/72 365/780/334 814/779/333 333/96/73
f 340/695/291 808/773/327 436/781/335 421/696/292
f 409/782/336 845/783/269 311/784/269 310/785/336
f 845/783/269 407/752/267 774/755/267 311/784/269
f 849/761/261 403/748/322 771/751/322 772/762/261
f 843/757/325 409/782/336 310/785/336 309/758/325
f 806/745/65 818/744/65 816/786/65 62/787/65
f 819/740/65 817/747/65 805/746/65 804/741/65
f 821/788/65 820/743/65 312/742/65 773/789/65
f 413/790/235 64/791/235 433/792/235
f 822/793/65 821/788/65 773/789/65 803/794/65
f 834/795/337 385/796/337 841/797/338 394/798/338
f 765/799/339 769/800/339 386/801/340 840/802/341
f 840/802/341 386/801/340 387/803/332 396/804/332
f 396/804/332 387/803/332 388/805/331 397/806/331
f 397/806/331 388/805/331 389/807/330 398/808/330
f 398/808/330 389/807/330 390/809/329 399/810/329
f 399/810/329 390/809/329 391/811/328 400/812/328
f 400/812/328 391/811/328 392/813/326 401/814/326
f 401/814/326 392/813/326 385/796/337 834/795/337
f 437/815/65 374/85/65 402/88/65 767/816/65
f 807/86/65 372/735/65 835/736/65 833/87/65
f 822/793/65 803/794/65 315/817/65 823/818/65
f 315/817/65 316/819/342 824/820/343 823/818/65
f 64/791/235 413/790/235 766/738/235 66/737/235
f 832/821/65 410/822/65 802/823/65 842/824/65
f 831/825/65 844/826/65 410/822/65 832/821/65
f 830/827/65 408/828/65 844/826/65 831/825/65
f 829/829/65 846/830/65 408/828/65 830/827/65
f 828/831/65 406/832/65 846/830/65 829/829/65
f 827/833/65 405/834/65 406/832/65 828/831/65
f 826/835/65 404/836/65 405/834/65 827/833/65
f 825/837/65 850/838/65 404/836/65 826/835/65
f 770/839/65 796/840/65 850/838/65 825/837/65
f 393/841/235 798/842/235 412/843/235 308/844/235
f 316/819/342 61/845/344 375/846/344 824/820/343
f 68/847/235 65/848/235 64/791/235 66/737/235
f 67/849/345 63/850/345 65/848/235 68/847/235
f 800/851/346 768/852/346 307/853/346 411/854/346
f 366/855/346 768/856/346 73/857/346
f 69/858/346 800/859/346 376/860/346
f 73/857/346 768/856/346 800/859/346 69/858/346
f 73/857/346 69/858/346 71/861/346 74/862/346
f 74/862/346 71/861/346 70/863/346 72/864/346
f 305/865/346 749/866/346 753/867/346 306/868/346
f 299/869/65 300/870/65 304/871/65 303/872/65
