# Blender v3.4.1 OBJ File: 'Airport7_FINALb.blend'
# www.blender.org
mtllib Airport_Band3.mtl
o 12.3.Collider_Cube.592
v 0.248823 0.000000 -1.010252
v 0.318028 0.000000 -0.000000
v 0.248823 2.686790 -0.000000
v -0.000000 0.000000 -1.328110
v 0.248823 0.000000 -1.328110
v 0.000000 3.012234 0.000000
v 0.248823 3.012234 -0.000000
v -0.000000 3.012234 -1.105542
v -0.000000 2.786151 -1.328110
v 0.248823 2.786151 -1.328110
v 0.248823 3.012234 -1.105542
v 0.318028 2.392164 -0.000000
v 0.248823 2.686790 -0.947348
v 0.248823 2.622893 -1.010252
v 0.318028 2.392164 -0.867487
v 0.619787 2.278270 -0.991913
v 0.619787 2.243378 -0.876416
v 0.619787 2.343266 -0.000000
v 0.619787 2.343266 -0.937214
v 0.619787 2.243378 -0.000000
v 0.619787 0.000000 -0.991914
v 0.619787 0.000000 -0.876416
v -0.000000 2.780603 -0.981810
v 0.000000 2.780603 0.000000
v -0.000000 0.000000 -1.093094
v -0.000000 2.667562 -1.093094
v -4.655545 0.000000 0.000000
v -4.655545 0.000000 -0.858077
v -4.932719 0.000000 -1.093094
v -4.932719 0.775983 0.000000
v -4.932719 0.775983 -0.981810
v -4.932719 0.000000 0.000000
v -4.932719 0.662942 -1.093094
v -2.240972 2.645812 -1.093094
v 0.453034 2.325597 -0.871482
v -2.150671 2.548972 0.000000
v 0.453035 2.325597 -0.000000
v -2.150671 2.548972 -0.858078
v 0.318028 0.000000 -0.867487
v -2.240671 2.759131 -0.981810
v 0.453035 0.000000 -0.000000
v -2.240559 2.759235 0.000000
v 0.453034 0.000000 -0.871482
v 0.248823 0.000000 1.010252
v 0.000000 0.000000 1.328110
v 0.248823 0.000000 1.328110
v 0.000000 3.012234 1.105542
v 0.000000 2.786151 1.328110
v 0.248823 2.786151 1.328110
v 0.248823 3.012234 1.105542
v 0.248823 2.686790 0.947348
v 0.248823 2.622893 1.010252
v 0.318028 2.392164 0.867487
v 0.619787 2.278270 0.991913
v 0.619787 2.243378 0.876416
v 0.619787 2.343266 0.937214
v 0.619787 0.000000 0.991914
v 0.619787 0.000000 0.876416
v 0.000000 2.780603 0.981810
v 0.000000 0.000000 1.093094
v 0.000000 2.667562 1.093094
v -4.655545 0.000000 0.858078
v -4.932719 0.000000 1.093094
v -4.932719 0.775983 0.981810
v -4.932719 0.662942 1.093094
v -2.240972 2.645812 1.093094
v 0.453035 2.325597 0.871482
v -2.150671 2.548972 0.858078
v 0.318028 0.000000 0.867487
v -2.240671 2.759131 0.981810
v 0.453035 0.000000 0.871482
vt 0.781908 0.908962
vt 0.781908 0.908963
vt 0.781908 0.908963
vt 0.781908 0.908963
vt 0.844891 0.908162
vt 0.844891 0.908162
vt 0.844891 0.908162
vt 0.844891 0.908162
vt 0.781908 0.908963
vt 0.781908 0.908963
vt 0.781908 0.908963
vt 0.781908 0.908963
vt 0.781908 0.908963
vt 0.781908 0.908963
vt 0.781908 0.908963
vt 0.781908 0.908963
vt 0.781908 0.908963
vt 0.781908 0.908963
vt 0.844891 0.908162
vt 0.844891 0.908162
vt 0.844891 0.908162
vt 0.844891 0.908162
vt 0.844891 0.908162
vt 0.844891 0.908162
vt 0.781908 0.908963
vt 0.781908 0.908963
vt 0.781908 0.908963
vt 0.781908 0.908963
vt 0.781908 0.908963
vt 0.781908 0.908963
vt 0.781908 0.908963
vt 0.781908 0.908963
vt 0.781908 0.908963
vt 0.781908 0.908963
vt 0.844891 0.908162
vt 0.844891 0.908162
vt 0.781908 0.908963
vt 0.781908 0.908963
vt 0.781908 0.908963
vt 0.844891 0.908162
vt 0.844891 0.908162
vt 0.844891 0.908162
vt 0.844891 0.908162
vt 0.781908 0.908963
vt 0.781908 0.908963
vt 0.844891 0.908162
vt 0.781908 0.908963
vt 0.781908 0.908963
vt 0.781908 0.908963
vt 0.781908 0.908963
vt 0.781908 0.908963
vt 0.781908 0.908963
vt 0.844891 0.908162
vt 0.844891 0.908162
vt 0.844891 0.908162
vt 0.844891 0.908162
vt 0.781907 0.908962
vt 0.781908 0.908962
vt 0.844891 0.908162
vt 0.844891 0.908162
vt 0.844891 0.908162
vt 0.781908 0.908962
vt 0.781908 0.908963
vt 0.781908 0.908963
vt 0.781908 0.908963
vt 0.844891 0.908162
vt 0.844891 0.908162
vt 0.844891 0.908162
vt 0.844891 0.908162
vt 0.781908 0.908963
vt 0.781908 0.908963
vt 0.781908 0.908963
vt 0.781908 0.908963
vt 0.781908 0.908963
vt 0.844891 0.908162
vt 0.844891 0.908162
vt 0.844891 0.908162
vt 0.844891 0.908162
vt 0.781908 0.908963
vt 0.781908 0.908963
vt 0.781908 0.908963
vt 0.781908 0.908963
vt 0.781908 0.908963
vt 0.781908 0.908963
vt 0.781908 0.908963
vt 0.844891 0.908162
vt 0.781908 0.908963
vt 0.781908 0.908963
vt 0.844891 0.908162
vt 0.844891 0.908162
vt 0.844891 0.908162
vt 0.844891 0.908162
vt 0.781908 0.908963
vt 0.844891 0.908162
vt 0.781908 0.908963
vt 0.781908 0.908963
vt 0.781908 0.908963
vt 0.781908 0.908963
vt 0.844891 0.908162
vt 0.844891 0.908162
vt 0.781908 0.908962
vt 0.844891 0.908162
vt 0.844891 0.908162
vn 0.0494 0.0000 -0.9988
vn 1.0000 0.0000 -0.0000
vn -0.4422 -0.8969 0.0000
vn 0.6794 0.7337 0.0000
vn 0.0000 0.0000 -1.0000
vn 0.0000 1.0000 0.0000
vn -1.0000 0.0000 0.0000
vn -0.0096 1.0000 -0.0001
vn 0.0000 0.7015 -0.7126
vn 0.0000 -1.0000 0.0000
vn 0.0296 0.0000 0.9996
vn -0.5931 0.8051 -0.0000
vn -0.0634 -0.9980 0.0000
vn -0.0068 0.7011 -0.7130
vn 0.7132 -0.7009 0.0000
vn -0.4591 0.6232 -0.6332
vn 0.0038 0.0000 1.0000
vn 0.0019 -0.0019 1.0000
vn 0.5470 0.5642 -0.6184
vn 0.0494 0.0000 0.9988
vn 0.0000 0.0000 1.0000
vn -0.0096 1.0000 0.0001
vn 0.0000 0.7015 0.7126
vn 0.0296 0.0000 -0.9996
vn -0.0068 0.7011 0.7130
vn -0.4591 0.6232 0.6332
vn 0.0038 0.0000 -1.0000
vn 0.0019 -0.0019 -1.0000
vn 0.5470 0.5642 0.6184
usemtl COLLIDERS
s off
f 21/1/1 1/2/1 14/3/1 16/4/1
f 14/5/2 1/6/2 5/7/2 10/8/2
f 35/9/3 17/10/3 20/11/3 37/12/3
f 19/13/4 13/14/4 3/15/4 18/16/4
f 35/9/2 37/12/2 41/17/2 43/18/2
f 5/7/5 4/19/5 9/20/5 10/8/5
f 11/21/6 8/22/6 6/23/6 7/24/6
f 25/25/7 26/26/7 9/27/7 4/28/7
f 23/29/7 24/30/7 6/31/7 8/32/7
f 24/30/8 23/29/8 40/33/8 42/34/8
f 3/35/2 13/36/2 11/21/2 7/24/2
f 10/8/2 11/21/2 13/36/2 14/5/2
f 8/22/9 11/21/9 10/8/9 9/20/9
f 39/37/10 43/18/10 41/17/10 2/38/10
f 43/18/11 22/39/11 17/10/11 35/9/11
f 17/10/2 22/39/2 21/1/2 16/4/2
f 17/10/2 19/13/2 18/16/2 20/11/2
f 16/4/2 19/13/2 17/10/2
f 5/7/10 1/6/10 25/40/10 4/19/10
f 21/41/10 22/42/10 43/43/10
f 42/34/12 40/33/12 31/44/12 30/45/12
f 8/32/7 9/27/7 26/26/7 23/29/7
f 39/46/10 25/40/10 1/6/10
f 34/47/5 25/25/5 33/48/5
f 15/49/13 12/50/13 36/51/13 38/52/13
f 28/53/10 27/54/10 32/55/10 29/56/10
f 23/29/14 26/26/14 34/47/14 40/33/14
f 25/40/10 39/46/10 28/53/10 29/56/10
f 38/52/15 36/51/15 27/57/15 28/58/15
f 40/33/16 34/47/16 33/48/16 31/44/16
f 31/59/7 33/60/7 29/56/7
f 29/56/7 32/55/7 30/61/7 31/59/7
f 39/37/11 43/18/11 35/9/11 15/49/11
f 39/37/17 15/49/17 38/52/17
f 39/37/18 38/52/18 28/58/18
f 1/6/10 21/41/10 39/46/10
f 13/14/19 19/13/19 16/4/19 14/3/19
f 12/50/7 15/49/7 39/37/7 2/38/7
f 26/26/5 25/25/5 34/47/5
f 21/41/10 43/43/10 39/46/10
f 33/60/5 25/40/5 29/56/5
f 57/62/20 54/63/20 52/64/20 44/65/20
f 52/66/2 49/67/2 46/68/2 44/69/2
f 67/70/3 37/12/3 20/11/3 55/71/3
f 56/72/4 18/16/4 3/15/4 51/73/4
f 67/70/2 71/74/2 41/17/2 37/12/2
f 46/68/21 49/67/21 48/75/21 45/76/21
f 50/77/6 7/24/6 6/23/6 47/78/6
f 60/79/7 45/80/7 48/81/7 61/82/7
f 59/83/7 47/84/7 6/31/7 24/30/7
f 24/30/22 42/34/22 70/85/22 59/83/22
f 3/35/2 7/24/2 50/77/2 51/86/2
f 49/67/2 52/66/2 51/86/2 50/77/2
f 47/78/23 48/75/23 49/67/23 50/77/23
f 69/87/10 2/38/10 41/17/10 71/74/10
f 71/74/24 67/70/24 55/71/24 58/88/24
f 55/71/2 54/63/2 57/62/2 58/88/2
f 55/71/2 20/11/2 18/16/2 56/72/2
f 54/63/2 55/71/2 56/72/2
f 46/68/10 45/76/10 60/89/10 44/69/10
f 57/90/10 71/91/10 58/92/10
f 42/34/12 30/45/12 64/93/12 70/85/12
f 47/84/7 59/83/7 61/82/7 48/81/7
f 69/94/10 44/69/10 60/89/10
f 66/95/21 65/96/21 60/79/21
f 53/97/13 68/98/13 36/51/13 12/50/13
f 62/99/10 63/100/10 32/55/10 27/54/10
f 59/83/25 70/85/25 66/95/25 61/82/25
f 60/89/10 63/100/10 62/99/10 69/94/10
f 68/98/15 62/101/15 27/57/15 36/51/15
f 70/85/26 64/93/26 65/96/26 66/95/26
f 64/102/7 63/100/7 65/103/7
f 63/100/7 64/102/7 30/61/7 32/55/7
f 69/87/24 53/97/24 67/70/24 71/74/24
f 69/87/27 68/98/27 53/97/27
f 69/87/28 62/101/28 68/98/28
f 44/69/10 69/94/10 57/90/10
f 51/73/29 52/64/29 54/63/29 56/72/29
f 12/50/7 2/38/7 69/87/7 53/97/7
f 61/82/21 66/95/21 60/79/21
f 57/90/10 69/94/10 71/91/10
f 65/103/21 63/100/21 60/89/21
o 12.3.BaggageClaimBand_Cube.161
v -0.000000 0.000000 -0.858078
v 0.248823 0.000000 -1.010252
v -0.000000 2.548972 -0.858078
v 0.595746 2.221093 -0.858078
v 0.000000 2.548972 0.000000
v 0.595746 2.221093 -0.000000
v 0.595746 2.358911 -0.000000
v 0.248823 2.686790 -0.000000
v -0.000000 0.000000 -1.328110
v 0.248823 0.000000 -1.328110
v 0.000000 3.012234 0.000000
v 0.248823 3.012234 -0.000000
v -0.000000 3.012234 -1.105542
v -0.000000 2.786151 -1.328110
v 0.248823 2.786151 -1.328110
v 0.248823 3.012234 -1.105542
v 0.595746 2.295014 -1.010252
v 0.595746 2.358911 -0.947348
v 0.248823 2.686790 -0.947348
v 0.248823 2.622893 -1.010252
v 0.595746 0.000000 -1.010252
v 0.595746 0.000000 -0.858078
v 0.619787 2.278270 -0.991913
v 0.619787 2.243378 -0.876416
v 0.619787 2.343266 -0.000000
v 0.619787 2.343266 -0.937214
v 0.619787 2.243378 -0.000000
v 0.619787 0.000000 -0.991914
v 0.619787 0.000000 -0.876416
v -0.000000 2.780603 -0.981810
v 0.000000 2.780603 0.000000
v -0.000000 0.000000 -1.093094
v -0.000000 2.667562 -1.093094
v -4.655545 0.000000 0.000000
v -4.655545 0.000000 -0.858077
v -4.932719 0.000000 -1.093094
v -4.655545 0.253394 -0.858077
v -4.655545 0.253394 0.000000
v -4.932719 0.775983 0.000000
v -4.932719 0.775983 -0.981810
v -4.932719 0.000000 0.000000
v -4.932719 0.662942 -1.093094
v -2.325443 2.593304 -1.093094
v -2.150671 2.667562 -1.093094
v -2.240972 2.645812 -1.093094
v -2.324717 2.473456 0.000000
v -2.150671 2.548972 0.000000
v -2.240759 2.526854 0.000000
v -2.150671 2.548972 -0.858078
v -2.325162 2.473035 -0.858078
v -2.240889 2.526730 -0.858078
v -2.238490 0.000000 -0.858078
v -2.238536 0.000000 -1.093094
v -2.150671 2.780603 -0.981810
v -2.324418 2.707294 -0.981810
v -2.240671 2.759131 -0.981810
v -2.150671 2.780603 0.000000
v -2.324034 2.707649 0.000000
v -2.240559 2.759235 0.000000
v -2.238862 0.662942 -1.093094
v -0.000000 0.662942 -1.093094
v 0.248823 0.000000 -1.010252
v 0.248823 0.000000 -1.010252
v 0.248823 0.000000 -1.328110
v 0.248823 0.000000 -1.328110
v 0.595746 0.000000 -1.010252
v 0.595746 0.000000 -1.010252
v 0.619787 0.000000 -0.991914
v 0.619787 0.000000 -0.991914
v -0.000000 2.786151 -1.328110
v -0.000000 2.786151 -1.328110
v -0.000000 0.000000 -1.328110
v -0.000000 0.000000 -1.328110
v -0.000000 2.548972 -0.858078
v 0.595746 2.221093 -0.858078
v 0.595746 2.221093 -0.858078
v 0.595746 2.221093 -0.858078
v 0.595746 2.221093 -0.000000
v 0.248823 2.786151 -1.328110
v 0.248823 2.786151 -1.328110
v 0.619787 0.000000 -0.876416
v 0.619787 0.000000 -0.876416
v 0.248823 3.012234 -1.105542
v 0.248823 3.012234 -1.105542
v 0.248823 3.012234 -0.000000
v -0.000000 3.012234 -1.105542
v -0.000000 3.012234 -1.105542
v 0.000000 3.012234 0.000000
v 0.595746 2.295014 -1.010252
v 0.595746 2.358911 -0.947348
v 0.248823 2.686790 -0.947348
v 0.248823 2.622893 -1.010252
v 0.595746 2.358911 -0.000000
v 0.248823 2.686790 -0.000000
v 0.595746 0.000000 -0.858078
v 0.595746 0.000000 -0.858078
v -0.000000 0.000000 -0.858078
v 0.619787 2.243378 -0.876416
v 0.619787 2.243378 -0.876416
v 0.619787 2.343266 -0.937214
v 0.619787 2.343266 -0.000000
v 0.619787 2.278270 -0.991913
v 0.619787 2.243378 -0.000000
v 0.000000 2.780603 0.000000
v -0.000000 2.780603 -0.981810
v -0.000000 2.780603 -0.981810
v -0.000000 0.000000 -1.093094
v -0.000000 0.000000 -1.093094
v -4.655545 0.000000 -0.858077
v -4.655545 0.000000 -0.858077
v -4.655545 0.000000 -0.858077
v -4.655545 0.000000 -0.858077
v -4.655545 0.000000 0.000000
v -0.000000 0.662942 -1.093094
v -4.932719 0.000000 -1.093094
v -4.932719 0.000000 -1.093094
v -4.932719 0.000000 -1.093094
v -4.932719 0.000000 -1.093094
v -4.932719 0.000000 0.000000
v -0.000000 2.667562 -1.093094
v -0.000000 2.667562 -1.093094
v -4.932719 0.662942 -1.093094
v -4.932719 0.662942 -1.093094
v -2.238490 0.000000 -0.858078
v -4.655545 0.253394 -0.858077
v -4.655545 0.253394 -0.858077
v -4.932719 0.775983 0.000000
v -4.932719 0.775983 -0.981810
v -4.932719 0.775983 -0.981810
v -2.150671 2.548972 -0.858078
v -2.240889 2.526730 -0.858078
v -2.325162 2.473035 -0.858078
v -2.150671 2.780603 -0.981810
v -2.240671 2.759131 -0.981810
v -2.324418 2.707294 -0.981810
v -2.240972 2.645812 -1.093094
v -2.150671 2.667562 -1.093094
v -2.325443 2.593304 -1.093094
v -2.238536 0.000000 -1.093094
v 0.000000 0.000000 0.858078
v 0.248823 0.000000 1.010252
v 0.000000 2.548972 0.858078
v 0.595746 2.221093 0.858078
v 0.000000 0.000000 1.328110
v 0.248823 0.000000 1.328110
v 0.000000 3.012234 1.105542
v 0.000000 2.786151 1.328110
v 0.248823 2.786151 1.328110
v 0.248823 3.012234 1.105542
v 0.595746 2.295014 1.010252
v 0.595746 2.358911 0.947348
v 0.248823 2.686790 0.947348
v 0.248823 2.622893 1.010252
v 0.595746 0.000000 1.010252
v 0.595746 0.000000 0.858078
v 0.619787 2.278270 0.991913
v 0.619787 2.243378 0.876416
v 0.619787 2.343266 0.937214
v 0.619787 0.000000 0.991914
v 0.619787 0.000000 0.876416
v 0.000000 2.780603 0.981810
v 0.000000 0.000000 1.093094
v 0.000000 2.667562 1.093094
v -4.655545 0.000000 0.858078
v -4.932719 0.000000 1.093094
v -4.655545 0.253394 0.858078
v -4.932719 0.775983 0.981810
v -4.932719 0.662942 1.093094
v -2.325443 2.593304 1.093094
v -2.150671 2.667562 1.093094
v -2.240972 2.645812 1.093094
v -2.150671 2.548972 0.858078
v -2.325162 2.473035 0.858078
v -2.240889 2.526730 0.858078
v -2.238490 0.000000 0.858078
v -2.238536 0.000000 1.093094
v -2.150671 2.780603 0.981810
v -2.324418 2.707294 0.981810
v -2.240671 2.759131 0.981810
v -2.238862 0.662942 1.093094
v 0.000000 0.662942 1.093094
v 0.248823 0.000000 1.010252
v 0.248823 0.000000 1.010252
v 0.248823 0.000000 1.328110
v 0.248823 0.000000 1.328110
v 0.595746 0.000000 1.010252
v 0.595746 0.000000 1.010252
v 0.619787 0.000000 0.991914
v 0.619787 0.000000 0.991914
v 0.000000 2.786151 1.328110
v 0.000000 2.786151 1.328110
v 0.000000 0.000000 1.328110
v 0.000000 0.000000 1.328110
v 0.000000 2.548972 0.858078
v 0.595746 2.221093 0.858078
v 0.595746 2.221093 0.858078
v 0.595746 2.221093 0.858078
v 0.248823 2.786151 1.328110
v 0.248823 2.786151 1.328110
v 0.619787 0.000000 0.876416
v 0.619787 0.000000 0.876416
v 0.248823 3.012234 1.105542
v 0.248823 3.012234 1.105542
v 0.000000 3.012234 1.105542
v 0.000000 3.012234 1.105542
v 0.595746 2.295014 1.010252
v 0.595746 2.358911 0.947348
v 0.248823 2.686790 0.947348
v 0.248823 2.622893 1.010252
v 0.595746 0.000000 0.858078
v 0.595746 0.000000 0.858078
v 0.000000 0.000000 0.858078
v 0.619787 2.243378 0.876416
v 0.619787 2.243378 0.876416
v 0.619787 2.343266 0.937214
v 0.619787 2.278270 0.991913
v 0.000000 2.780603 0.981810
v 0.000000 2.780603 0.981810
v 0.000000 0.000000 1.093094
v 0.000000 0.000000 1.093094
v -4.655545 0.000000 0.858078
v -4.655545 0.000000 0.858078
v -4.655545 0.000000 0.858078
v -4.655545 0.000000 0.858078
v 0.000000 0.662942 1.093094
v -4.932719 0.000000 1.093094
v -4.932719 0.000000 1.093094
v -4.932719 0.000000 1.093094
v -4.932719 0.000000 1.093094
v 0.000000 2.667562 1.093094
v 0.000000 2.667562 1.093094
v -4.932719 0.662942 1.093094
v -4.932719 0.662942 1.093094
v -2.238490 0.000000 0.858078
v -4.655545 0.253394 0.858078
v -4.655545 0.253394 0.858078
v -4.932719 0.775983 0.981810
v -4.932719 0.775983 0.981810
v -2.150671 2.548972 0.858078
v -2.240889 2.526730 0.858078
v -2.325162 2.473035 0.858078
v -2.150671 2.780603 0.981810
v -2.240671 2.759131 0.981810
v -2.324418 2.707294 0.981810
v -2.240972 2.645812 1.093094
v -2.150671 2.667562 1.093094
v -2.325443 2.593304 1.093094
v -2.238536 0.000000 1.093094
v 0.438062 0.939586 0.852661
v 0.418542 2.323626 0.861481
v 0.405408 0.938873 0.853718
v 0.386034 2.323626 0.861481
v 0.464189 0.927966 0.574569
v 0.428585 0.927863 0.574596
v 0.459704 0.959677 0.835525
v 0.439086 2.304405 0.845869
v 0.439086 2.304405 0.591345
v 0.488072 0.948014 0.589901
v 0.418542 1.717109 0.861481
v 0.386034 1.717109 0.861481
v 0.386169 1.717109 0.575732
v 0.418687 1.717109 0.575732
v 0.439087 1.717109 0.845869
v 0.439233 1.717109 0.591345
v 0.389530 1.456125 0.861481
v 0.398486 1.196128 0.859840
v 0.392878 1.456081 0.575732
v 0.409585 1.192016 0.575596
v 0.425489 1.456078 0.575732
v 0.442487 1.192008 0.575581
v 0.445771 1.462510 0.591345
v 0.461978 1.205296 0.591174
v 0.432423 1.196194 0.859735
v 0.422539 1.456125 0.861481
v 0.453625 1.208823 0.844340
v 0.443289 1.462532 0.845869
v 0.418542 1.965371 0.861481
v 0.439086 1.959355 0.845869
v 0.386034 1.965406 0.861481
v 0.386034 1.965406 0.575732
v 0.418542 1.965371 0.575732
v 0.439086 1.959355 0.591345
v 0.402098 1.067642 0.856418
v 0.421450 1.059267 0.574891
v 0.454948 1.059309 0.574860
v 0.473816 1.076163 0.590356
v 0.436514 1.067871 0.856071
v 0.458361 1.083483 0.840908
v 0.418446 0.934403 0.713953
v 0.386034 2.323626 0.718607
v 0.451818 0.934527 0.713776
v 0.418542 2.323626 0.718607
v 0.472629 0.953801 0.713723
v 0.439086 2.304405 0.718607
v 0.439170 1.717109 0.718607
v 0.386061 1.717109 0.718607
v 0.404180 1.194561 0.717492
v 0.391388 1.456125 0.718607
v 0.459324 1.207422 0.717597
v 0.445068 1.462532 0.718607
v 0.439086 1.959355 0.718607
v 0.386034 1.965401 0.718607
v 0.467838 1.080527 0.715305
v 0.410636 1.064467 0.715164
v 0.412929 0.929619 0.574624
v 0.418542 2.323626 0.575732
v 0.380543 0.929728 0.574721
v 0.386034 2.323626 0.575732
v 0.420665 0.934627 0.289983
v 0.389124 0.933994 0.289983
v 0.433328 0.948302 0.559206
v 0.439086 2.304405 0.560120
v 0.439086 2.304405 0.305596
v 0.438141 0.954235 0.305596
v 0.418542 1.717109 0.575732
v 0.386034 1.717109 0.575732
v 0.386034 1.717109 0.289983
v 0.418542 1.717109 0.289983
v 0.439086 1.717109 0.560120
v 0.439086 1.717109 0.305596
v 0.385805 1.456083 0.575732
v 0.383128 1.192470 0.575619
v 0.385835 1.456083 0.289983
v 0.389518 1.194238 0.289983
v 0.418345 1.456078 0.289983
v 0.422060 1.194239 0.289983
v 0.438687 1.462490 0.305596
v 0.441511 1.206914 0.305596
v 0.415125 1.192592 0.575595
v 0.418214 1.456078 0.575732
v 0.435541 1.205498 0.560069
v 0.438715 1.462490 0.560120
v 0.418542 1.965371 0.575732
v 0.439086 1.959355 0.560120
v 0.386034 1.965406 0.575732
v 0.386034 1.965406 0.289983
v 0.418542 1.965371 0.289983
v 0.439086 1.959355 0.305596
v 0.381877 1.060407 0.574987
v 0.390141 1.063823 0.289983
v 0.422538 1.063923 0.289983
v 0.441842 1.079514 0.305596
v 0.413646 1.060628 0.574912
v 0.434002 1.076616 0.559540
v 0.381398 0.927826 0.432858
v 0.386034 2.323626 0.432858
v 0.413674 0.926922 0.432858
v 0.418542 2.323626 0.432858
v 0.434149 0.944949 0.432858
v 0.439086 2.304405 0.432858
v 0.439086 1.717109 0.432858
v 0.386034 1.717109 0.432858
v 0.384320 1.192254 0.432858
v 0.385391 1.456009 0.432858
v 0.436395 1.205647 0.432858
v 0.438280 1.462435 0.432858
v 0.439086 1.959355 0.432858
v 0.386034 1.965401 0.432858
v 0.435194 1.076327 0.432858
v 0.383924 1.059147 0.432858
v 0.447521 0.927103 0.289983
v 0.418542 2.323626 0.289983
v 0.414357 0.927124 0.289983
v 0.386034 2.323626 0.289983
v 0.487228 0.933604 0.004234
v 0.451357 0.933581 0.004234
v 0.470856 0.946900 0.274371
v 0.439086 2.304405 0.274371
v 0.439086 2.304405 0.019847
v 0.506995 0.952680 0.019847
v 0.418542 1.717109 0.289983
v 0.386034 1.717109 0.289983
v 0.386034 1.717109 0.004234
v 0.418542 1.717109 0.004234
v 0.439086 1.717109 0.274371
v 0.439086 1.717109 0.019847
v 0.386882 1.456082 0.289983
v 0.400065 1.191943 0.289983
v 0.389768 1.456125 0.004234
v 0.414529 1.195006 0.004234
v 0.422349 1.456125 0.004234
v 0.447979 1.195006 0.004234
v 0.442576 1.462532 0.019847
v 0.466829 1.207785 0.019847
v 0.433308 1.191903 0.289983
v 0.419420 1.456078 0.289983
v 0.454200 1.205169 0.274371
v 0.440024 1.462510 0.274371
v 0.418542 1.965371 0.289983
v 0.439086 1.959355 0.274371
v 0.386034 1.965406 0.289983
v 0.386034 1.965406 0.004234
v 0.418542 1.965371 0.004234
v 0.439086 1.959355 0.019847
v 0.409355 1.058727 0.289983
v 0.435602 1.064185 0.004234
v 0.470155 1.064196 0.004234
v 0.488156 1.080124 0.019847
v 0.443253 1.058689 0.289983
v 0.465073 1.075452 0.274371
v 0.438523 0.931226 0.147109
v 0.386034 2.323626 0.147109
v 0.473638 0.931274 0.147109
v 0.418542 2.323626 0.147109
v 0.496296 0.950545 0.147109
v 0.439086 2.304405 0.147109
v 0.439086 1.717109 0.147109
v 0.386034 1.717109 0.147109
v 0.408694 1.193798 0.147109
v 0.388718 1.456125 0.147109
v 0.463139 1.206737 0.147109
v 0.441600 1.462532 0.147109
v 0.439086 1.959355 0.147109
v 0.386034 1.965401 0.147109
v 0.480978 1.078304 0.147109
v 0.425385 1.062109 0.147109
v 0.469978 0.933590 0.004234
v 0.418542 2.323626 0.004234
v 0.433714 0.933578 0.004234
v 0.386034 2.323626 0.004234
v 0.418048 0.934157 -0.281515
v 0.418542 2.323626 -0.281515
v 0.387729 0.934157 -0.281515
v 0.495253 0.952970 -0.011378
v 0.439086 2.304405 -0.011378
v 0.439086 2.304405 -0.265902
v 0.437340 0.953378 -0.265902
v 0.418542 1.717109 0.004234
v 0.386034 1.717109 0.004234
v 0.386071 1.717109 -0.281515
v 0.418582 1.717109 -0.281515
v 0.439086 1.717109 -0.011378
v 0.439108 1.717109 -0.265902
v 0.389768 1.456125 0.004234
v 0.409850 1.195007 0.004234
v 0.389951 1.456125 -0.281515
v 0.396815 1.195141 -0.281515
v 0.422531 1.456125 -0.281515
v 0.429339 1.195141 -0.281515
v 0.442762 1.462532 -0.265902
v 0.450309 1.207955 -0.265902
v 0.442173 1.195005 0.004234
v 0.422349 1.456125 0.004234
v 0.461115 1.207900 -0.011378
v 0.442620 1.462532 -0.011378
v 0.418542 1.965371 0.004234
v 0.439086 1.959355 -0.011378
v 0.386034 1.965406 0.004234
v 0.386034 1.965406 -0.281515
v 0.418542 1.965371 -0.281515
v 0.439086 1.959355 -0.265902
v 0.424856 1.064186 0.004234
v 0.393463 1.064649 -0.281515
v 0.425620 1.064649 -0.281515
v 0.448032 1.080666 -0.265902
v 0.457432 1.064190 0.004234
v 0.475215 1.080370 -0.011378
v 0.411191 0.934157 -0.138640
v 0.386034 2.323626 -0.138640
v 0.444250 0.934157 -0.138640
v 0.418542 2.323626 -0.138640
v 0.465242 0.953378 -0.138640
v 0.439086 2.304405 -0.138640
v 0.439086 1.717109 -0.138640
v 0.386034 1.717109 -0.138640
v 0.405166 1.195141 -0.138640
v 0.389750 1.456125 -0.138640
v 0.456185 1.207955 -0.138640
v 0.442590 1.462532 -0.138640
v 0.439086 1.959355 -0.138640
v 0.386034 1.965401 -0.138640
v 0.462436 1.080666 -0.138640
v 0.412819 1.064649 -0.138640
v 0.393279 0.934157 -0.281515
v 0.363486 0.934157 -0.281515
v 0.386034 2.323626 -0.281515
v 0.403017 0.934157 -0.567264
v 0.418542 2.323626 -0.567264
v 0.370491 0.934157 -0.567264
v 0.416816 0.953378 -0.297127
v 0.439086 2.304405 -0.297127
v 0.439086 2.304405 -0.551652
v 0.423734 0.953378 -0.551652
v 0.418535 1.717109 -0.281515
v 0.386026 1.717109 -0.281515
v 0.386485 1.717109 -0.567264
v 0.419004 1.717109 -0.567264
v 0.439104 1.717109 -0.297127
v 0.439550 1.717109 -0.551652
v 0.383871 1.456125 -0.281515
v 0.381510 1.195141 -0.281515
v 0.388876 1.456125 -0.567264
v 0.387282 1.195141 -0.567264
v 0.421295 1.456125 -0.567264
v 0.420555 1.195141 -0.567264
v 0.441534 1.462532 -0.551652
v 0.442607 1.207955 -0.551652
v 0.414298 1.195141 -0.281515
v 0.416434 1.456125 -0.281515
v 0.434928 1.207955 -0.297127
v 0.437115 1.462532 -0.297127
v 0.418542 1.965371 -0.281515
v 0.439086 1.959355 -0.297127
v 0.386034 1.965406 -0.281515
v 0.386034 1.965406 -0.567264
v 0.418542 1.965371 -0.567264
v 0.439086 1.959355 -0.551652
v 0.374855 1.064649 -0.281515
v 0.377457 1.064649 -0.567264
v 0.410108 1.064649 -0.567264
v 0.431068 1.080666 -0.551652
v 0.407699 1.064649 -0.281515
v 0.428796 1.080666 -0.297127
v 0.365530 0.934157 -0.424389
v 0.386034 2.323626 -0.424389
v 0.398108 0.934157 -0.424389
v 0.418542 2.323626 -0.424389
v 0.419527 0.953378 -0.424389
v 0.439086 2.304405 -0.424389
v 0.439401 1.717109 -0.424389
v 0.386346 1.717109 -0.424389
v 0.382341 1.195141 -0.424389
v 0.386183 1.456125 -0.424389
v 0.435719 1.207955 -0.424389
v 0.439142 1.462532 -0.424389
v 0.439086 1.959355 -0.424389
v 0.386034 1.965401 -0.424389
v 0.427916 1.080666 -0.424389
v 0.374518 1.064649 -0.424389
v 0.461742 0.934157 -0.567264
v 0.426457 0.934157 -0.567264
v 0.386034 2.323626 -0.567264
v 0.430410 0.934157 -0.853013
v 0.418542 2.323626 -0.853013
v 0.397653 0.934157 -0.853013
v 0.386034 2.323626 -0.853013
v 0.485486 0.953378 -0.582876
v 0.439086 2.304405 -0.582876
v 0.439086 2.304405 -0.837401
v 0.452250 0.953378 -0.837401
v 0.419004 1.717109 -0.567264
v 0.386485 1.717109 -0.567264
v 0.386041 1.717109 -0.853013
v 0.418550 1.717109 -0.853013
v 0.439540 1.717109 -0.582876
v 0.439107 1.717109 -0.837401
v 0.395898 1.456125 -0.567264
v 0.418854 1.195141 -0.567264
v 0.388492 1.456125 -0.853013
v 0.393021 1.195141 -0.853013
v 0.421359 1.456125 -0.853013
v 0.426715 1.195141 -0.853013
v 0.442296 1.462532 -0.837401
v 0.448652 1.207955 -0.837401
v 0.452050 1.195141 -0.567264
v 0.428547 1.456125 -0.567264
v 0.470267 1.207955 -0.582876
v 0.448568 1.462532 -0.582876
v 0.418542 1.965371 -0.567264
v 0.439086 1.959355 -0.582876
v 0.386034 1.965406 -0.567264
v 0.386034 1.965406 -0.853013
v 0.418542 1.965371 -0.853013
v 0.439086 1.959355 -0.837401
v 0.423978 1.064649 -0.567264
v 0.392770 1.064649 -0.853013
v 0.426025 1.064649 -0.853013
v 0.449229 1.080666 -0.837401
v 0.457375 1.064649 -0.567264
v 0.476346 1.080666 -0.582876
v 0.412863 0.934157 -0.710138
v 0.386034 2.323626 -0.710138
v 0.446198 0.934157 -0.710138
v 0.418542 2.323626 -0.710138
v 0.467189 0.953378 -0.710138
v 0.439086 2.304405 -0.710138
v 0.439344 1.717109 -0.710138
v 0.386285 1.717109 -0.710138
v 0.404721 1.195141 -0.710138
v 0.392618 1.456125 -0.710138
v 0.459832 1.207955 -0.710138
v 0.446077 1.462532 -0.710138
v 0.439086 1.959355 -0.710138
v 0.386034 1.965401 -0.710138
v 0.464791 1.080666 -0.710138
v 0.407602 1.064649 -0.710138
v 0.405408 0.938873 0.853718
v 0.405408 0.938873 0.853718
v 0.386034 2.323626 0.861481
v 0.386034 2.323626 0.861481
v 0.402098 1.067642 0.856418
v 0.418446 0.934403 0.713953
v 0.421450 1.059267 0.574891
v 0.428585 0.927863 0.574596
v 0.428585 0.927863 0.574596
v 0.464189 0.927966 0.574569
v 0.439086 1.959355 0.845869
v 0.439086 2.304405 0.845869
v 0.473816 1.076163 0.590356
v 0.488072 0.948014 0.589901
v 0.488072 0.948014 0.589901
v 0.472629 0.953801 0.713723
v 0.439086 2.304405 0.718607
v 0.386034 1.965406 0.861481
v 0.386034 1.717109 0.861481
v 0.386034 1.965406 0.575732
v 0.386169 1.717109 0.575732
v 0.443289 1.462532 0.845869
v 0.439087 1.717109 0.845869
v 0.439086 1.959355 0.591345
v 0.439233 1.717109 0.591345
v 0.389530 1.456125 0.861481
v 0.398486 1.196128 0.859840
v 0.392878 1.456081 0.575732
v 0.409585 1.192016 0.575596
v 0.445771 1.462510 0.591345
v 0.461978 1.205296 0.591174
v 0.458361 1.083483 0.840908
v 0.453625 1.208823 0.844340
v 0.439086 2.304405 0.591345
v 0.459704 0.959677 0.835525
v 0.386034 2.323626 0.718607
v 0.380543 0.929728 0.574721
v 0.380543 0.929728 0.574721
v 0.418542 2.323626 0.575732
v 0.386034 2.323626 0.575732
v 0.386034 2.323626 0.575732
v 0.386034 2.323626 0.575732
v 0.386034 2.323626 0.575732
v 0.386034 2.323626 0.575732
v 0.381877 1.060407 0.574987
v 0.381398 0.927826 0.432858
v 0.390141 1.063823 0.289983
v 0.389124 0.933994 0.289983
v 0.389124 0.933994 0.289983
v 0.439086 1.959355 0.560120
v 0.439086 2.304405 0.560120
v 0.441842 1.079514 0.305596
v 0.438141 0.954235 0.305596
v 0.434149 0.944949 0.432858
v 0.439086 2.304405 0.432858
v 0.386034 1.965406 0.575732
v 0.386034 1.717109 0.575732
v 0.386034 1.965406 0.289983
v 0.386034 1.717109 0.289983
v 0.438715 1.462490 0.560120
v 0.439086 1.717109 0.560120
v 0.439086 1.959355 0.305596
v 0.439086 1.717109 0.305596
v 0.385805 1.456083 0.575732
v 0.383128 1.192470 0.575619
v 0.385835 1.456083 0.289983
v 0.389518 1.194238 0.289983
v 0.438687 1.462490 0.305596
v 0.441511 1.206914 0.305596
v 0.434002 1.076616 0.559540
v 0.435541 1.205498 0.560069
v 0.439086 2.304405 0.305596
v 0.433328 0.948302 0.559206
v 0.386034 2.323626 0.432858
v 0.414357 0.927124 0.289983
v 0.414357 0.927124 0.289983
v 0.418542 2.323626 0.289983
v 0.386034 2.323626 0.289983
v 0.386034 2.323626 0.289983
v 0.386034 2.323626 0.289983
v 0.386034 2.323626 0.289983
v 0.386034 2.323626 0.289983
v 0.409355 1.058727 0.289983
v 0.438523 0.931226 0.147109
v 0.435602 1.064185 0.004234
v 0.451357 0.933581 0.004234
v 0.451357 0.933581 0.004234
v 0.487228 0.933604 0.004234
v 0.439086 1.959355 0.274371
v 0.439086 2.304405 0.274371
v 0.488156 1.080124 0.019847
v 0.506995 0.952680 0.019847
v 0.506995 0.952680 0.019847
v 0.496296 0.950545 0.147109
v 0.439086 2.304405 0.147109
v 0.386034 1.965406 0.289983
v 0.386034 1.717109 0.289983
v 0.386034 1.965406 0.004234
v 0.386034 1.717109 0.004234
v 0.440024 1.462510 0.274371
v 0.439086 1.717109 0.274371
v 0.439086 1.959355 0.019847
v 0.439086 1.717109 0.019847
v 0.386882 1.456082 0.289983
v 0.400065 1.191943 0.289983
v 0.389768 1.456125 0.004234
v 0.414529 1.195006 0.004234
v 0.442576 1.462532 0.019847
v 0.466829 1.207785 0.019847
v 0.465073 1.075452 0.274371
v 0.454200 1.205169 0.274371
v 0.439086 2.304405 0.019847
v 0.470856 0.946900 0.274371
v 0.386034 2.323626 0.147109
v 0.433714 0.933578 0.004234
v 0.433714 0.933578 0.004234
v 0.469978 0.933590 0.004234
v 0.418542 2.323626 0.004234
v 0.386034 2.323626 0.004234
v 0.386034 2.323626 0.004234
v 0.386034 2.323626 0.004234
v 0.386034 2.323626 0.004234
v 0.386034 2.323626 0.004234
v 0.424856 1.064186 0.004234
v 0.411191 0.934157 -0.138640
v 0.393463 1.064649 -0.281515
v 0.387729 0.934157 -0.281515
v 0.387729 0.934157 -0.281515
v 0.439086 1.959355 -0.011378
v 0.439086 2.304405 -0.011378
v 0.448032 1.080666 -0.265902
v 0.437340 0.953378 -0.265902
v 0.465242 0.953378 -0.138640
v 0.439086 2.304405 -0.138640
v 0.495253 0.952970 -0.011378
v 0.495253 0.952970 -0.011378
v 0.386034 1.965406 0.004234
v 0.386034 1.717109 0.004234
v 0.386034 1.965406 -0.281515
v 0.386071 1.717109 -0.281515
v 0.442620 1.462532 -0.011378
v 0.439086 1.717109 -0.011378
v 0.439086 1.959355 -0.265902
v 0.439108 1.717109 -0.265902
v 0.389768 1.456125 0.004234
v 0.409850 1.195007 0.004234
v 0.389951 1.456125 -0.281515
v 0.396815 1.195141 -0.281515
v 0.442762 1.462532 -0.265902
v 0.450309 1.207955 -0.265902
v 0.475215 1.080370 -0.011378
v 0.461115 1.207900 -0.011378
v 0.439086 2.304405 -0.265902
v 0.386034 2.323626 -0.138640
v 0.363486 0.934157 -0.281515
v 0.363486 0.934157 -0.281515
v 0.374855 1.064649 -0.281515
v 0.365530 0.934157 -0.424389
v 0.377457 1.064649 -0.567264
v 0.370491 0.934157 -0.567264
v 0.370491 0.934157 -0.567264
v 0.439086 1.959355 -0.297127
v 0.439086 2.304405 -0.297127
v 0.431068 1.080666 -0.551652
v 0.423734 0.953378 -0.551652
v 0.419527 0.953378 -0.424389
v 0.439086 2.304405 -0.424389
v 0.386034 1.965406 -0.281515
v 0.386026 1.717109 -0.281515
v 0.386034 1.965406 -0.567264
v 0.386485 1.717109 -0.567264
v 0.437115 1.462532 -0.297127
v 0.439104 1.717109 -0.297127
v 0.439086 1.959355 -0.551652
v 0.439550 1.717109 -0.551652
v 0.383871 1.456125 -0.281515
v 0.381510 1.195141 -0.281515
v 0.388876 1.456125 -0.567264
v 0.387282 1.195141 -0.567264
v 0.441534 1.462532 -0.551652
v 0.442607 1.207955 -0.551652
v 0.428796 1.080666 -0.297127
v 0.434928 1.207955 -0.297127
v 0.386034 2.323626 -0.281515
v 0.386034 2.323626 -0.281515
v 0.386034 2.323626 -0.281515
v 0.386034 2.323626 -0.281515
v 0.386034 2.323626 -0.281515
v 0.439086 2.304405 -0.551652
v 0.416816 0.953378 -0.297127
v 0.386034 2.323626 -0.424389
v 0.426457 0.934157 -0.567264
v 0.426457 0.934157 -0.567264
v 0.461742 0.934157 -0.567264
v 0.423978 1.064649 -0.567264
v 0.412863 0.934157 -0.710138
v 0.386034 2.323626 -0.710138
v 0.386034 2.323626 -0.853013
v 0.386034 2.323626 -0.853013
v 0.392770 1.064649 -0.853013
v 0.397653 0.934157 -0.853013
v 0.397653 0.934157 -0.853013
v 0.439086 1.959355 -0.582876
v 0.439086 2.304405 -0.582876
v 0.449229 1.080666 -0.837401
v 0.452250 0.953378 -0.837401
v 0.467189 0.953378 -0.710138
v 0.439086 2.304405 -0.710138
v 0.485486 0.953378 -0.582876
v 0.485486 0.953378 -0.582876
v 0.386034 1.965406 -0.567264
v 0.386485 1.717109 -0.567264
v 0.386034 1.965406 -0.853013
v 0.386041 1.717109 -0.853013
v 0.448568 1.462532 -0.582876
v 0.439540 1.717109 -0.582876
v 0.439086 1.959355 -0.837401
v 0.439107 1.717109 -0.837401
v 0.395898 1.456125 -0.567264
v 0.418854 1.195141 -0.567264
v 0.388492 1.456125 -0.853013
v 0.393021 1.195141 -0.853013
v 0.442296 1.462532 -0.837401
v 0.448652 1.207955 -0.837401
v 0.476346 1.080666 -0.582876
v 0.470267 1.207955 -0.582876
v 0.386034 2.323626 -0.567264
v 0.386034 2.323626 -0.567264
v 0.386034 2.323626 -0.567264
v 0.386034 2.323626 -0.567264
v 0.386034 2.323626 -0.567264
v 0.439086 2.304405 -0.837401
v 0.418542 2.323626 -0.281515
v 0.418542 2.323626 -0.567264
vt 0.781908 0.908963
vt 0.781908 0.908963
vt 0.781908 0.908963
vt 0.781908 0.908963
vt 0.844891 0.908162
vt 0.844891 0.908162
vt 0.844891 0.908162
vt 0.844891 0.908162
vt 0.781908 0.908963
vt 0.781908 0.908963
vt 0.781908 0.908963
vt 0.781908 0.908963
vt 0.781908 0.908963
vt 0.781908 0.908963
vt 0.781908 0.908963
vt 0.781908 0.908963
vt 0.781908 0.908963
vt 0.781908 0.908963
vt 0.781908 0.908963
vt 0.781908 0.908963
vt 0.844891 0.908162
vt 0.844891 0.908162
vt 0.844891 0.908162
vt 0.844891 0.908162
vt 0.844891 0.908162
vt 0.844891 0.908162
vt 0.844891 0.908162
vt 0.844891 0.908162
vt 0.781908 0.908963
vt 0.781908 0.908963
vt 0.781908 0.908963
vt 0.781908 0.908963
vt 0.781908 0.908963
vt 0.781908 0.908963
vt 0.781908 0.908963
vt 0.781908 0.908963
vt 0.781908 0.908963
vt 0.781908 0.908963
vt 0.781908 0.908963
vt 0.781908 0.908963
vt 0.781908 0.908963
vt 0.844891 0.908162
vt 0.844891 0.908162
vt 0.844891 0.908162
vt 0.844891 0.908162
vt 0.844891 0.908162
vt 0.844891 0.908162
vt 0.844891 0.908162
vt 0.844891 0.908162
vt 0.781908 0.908963
vt 0.781908 0.908963
vt 0.781908 0.908963
vt 0.781908 0.908963
vt 0.781908 0.908963
vt 0.781908 0.908963
vt 0.781908 0.908963
vt 0.781908 0.908963
vt 0.781908 0.908963
vt 0.781908 0.908963
vt 0.781908 0.908963
vt 0.781908 0.908963
vt 0.781908 0.908963
vt 0.781908 0.908963
vt 0.781908 0.908963
vt 0.781908 0.908963
vt 0.781908 0.908963
vt 0.781908 0.908963
vt 0.781908 0.908963
vt 0.781908 0.908963
vt 0.781908 0.908963
vt 0.781908 0.908963
vt 0.781908 0.908963
vt 0.844891 0.908162
vt 0.844891 0.908162
vt 0.844891 0.908162
vt 0.844891 0.908162
vt 0.844891 0.908162
vt 0.844891 0.908162
vt 0.844891 0.908162
vt 0.844891 0.908162
vt 0.844891 0.908162
vt 0.781908 0.908963
vt 0.781908 0.908963
vt 0.781908 0.908963
vt 0.781908 0.908963
vt 0.781908 0.908963
vt 0.781908 0.908963
vt 0.781908 0.908963
vt 0.781908 0.908963
vt 0.781908 0.908963
vt 0.844891 0.908162
vt 0.844891 0.908162
vt 0.844891 0.908162
vt 0.844891 0.908162
vt 0.781908 0.908963
vt 0.781908 0.908963
vt 0.781908 0.908963
vt 0.781908 0.908963
vt 0.844891 0.908162
vt 0.844891 0.908162
vt 0.844891 0.908162
vt 0.844891 0.908162
vt 0.781908 0.908963
vt 0.781908 0.908963
vt 0.781908 0.908963
vt 0.781908 0.908963
vt 0.781908 0.908963
vt 0.781908 0.908963
vt 0.781908 0.908963
vt 0.781908 0.908963
vt 0.844891 0.908162
vt 0.844891 0.908162
vt 0.844891 0.908162
vt 0.844891 0.908162
vt 0.844891 0.908162
vt 0.781908 0.908963
vt 0.781908 0.908963
vt 0.781908 0.908963
vt 0.781908 0.908963
vt 0.781908 0.908963
vt 0.781908 0.908963
vt 0.781908 0.908963
vt 0.781908 0.908963
vt 0.781908 0.908963
vt 0.781908 0.908963
vt 0.781908 0.908963
vt 0.781908 0.908963
vt 0.781908 0.908963
vt 0.781908 0.908963
vt 0.781908 0.908963
vt 0.781908 0.908963
vt 0.781908 0.908963
vt 0.781908 0.908963
vt 0.781908 0.908963
vt 0.844891 0.908162
vt 0.844891 0.908162
vt 0.844891 0.908162
vt 0.844891 0.908162
vt 0.844891 0.908162
vt 0.844891 0.908162
vt 0.844891 0.908162
vt 0.844891 0.908162
vt 0.844891 0.908162
vt 0.844891 0.908162
vt 0.781908 0.908963
vt 0.781908 0.908963
vt 0.781908 0.908963
vt 0.781908 0.908963
vt 0.844891 0.908162
vt 0.844891 0.908162
vt 0.844891 0.908162
vt 0.844891 0.908162
vt 0.781908 0.908963
vt 0.781908 0.908963
vt 0.781908 0.908963
vt 0.781908 0.908963
vt 0.781908 0.908963
vt 0.781908 0.908963
vt 0.844891 0.908162
vt 0.844891 0.908162
vt 0.844891 0.908162
vt 0.844891 0.908162
vt 0.844891 0.908162
vt 0.844891 0.908162
vt 0.781908 0.908963
vt 0.781908 0.908963
vt 0.781908 0.908963
vt 0.781908 0.908963
vt 0.781908 0.908963
vt 0.781908 0.908963
vt 0.781908 0.908963
vt 0.781908 0.908963
vt 0.781908 0.908963
vt 0.844891 0.908162
vt 0.844891 0.908162
vt 0.844891 0.908162
vt 0.844891 0.908162
vt 0.844891 0.908162
vt 0.844891 0.908162
vt 0.781908 0.908963
vt 0.781908 0.908963
vt 0.781908 0.908963
vt 0.781908 0.908963
vt 0.781908 0.908963
vt 0.781908 0.908963
vt 0.781908 0.908963
vt 0.781908 0.908963
vt 0.781908 0.908963
vt 0.781908 0.908963
vt 0.781908 0.908963
vt 0.781908 0.908963
vt 0.781908 0.908963
vt 0.781908 0.908963
vt 0.781908 0.908963
vt 0.781908 0.908963
vt 0.781908 0.908963
vt 0.781908 0.908963
vt 0.781908 0.908963
vt 0.844891 0.908162
vt 0.844891 0.908162
vt 0.844891 0.908162
vt 0.844891 0.908162
vt 0.844891 0.908162
vt 0.844891 0.908162
vt 0.844891 0.908162
vt 0.844891 0.908162
vt 0.844891 0.908162
vt 0.781908 0.908963
vt 0.781908 0.908963
vt 0.781908 0.908963
vt 0.781908 0.908963
vt 0.781908 0.908963
vt 0.781908 0.908963
vt 0.844891 0.908162
vt 0.844891 0.908162
vt 0.781908 0.908963
vt 0.781908 0.908963
vt 0.781908 0.908963
vt 0.781908 0.908963
vt 0.844891 0.908162
vt 0.844891 0.908162
vt 0.844891 0.908162
vt 0.844891 0.908162
vt 0.781908 0.908963
vt 0.781908 0.908963
vt 0.781908 0.908963
vt 0.781908 0.908963
vt 0.781908 0.908963
vt 0.781908 0.908963
vt 0.844891 0.908162
vt 0.844891 0.908162
vt 0.844891 0.908162
vt 0.781908 0.908963
vt 0.781908 0.908963
vt 0.781908 0.908963
vt 0.781908 0.908963
vt 0.781908 0.908963
vt 0.781908 0.908963
vt 0.781908 0.908963
vt 0.781908 0.908963
vt 0.781908 0.908963
vt 0.781908 0.908963
vt 0.781908 0.908963
vt 0.781908 0.908963
vt 0.781908 0.908963
vt 0.781908 0.908963
vt 0.781908 0.908963
vt 0.781908 0.908963
vt 0.781908 0.908963
vt 0.844891 0.908162
vt 0.844891 0.908162
vt 0.844891 0.908162
vt 0.844891 0.908162
vt 0.844891 0.908162
vt 0.844891 0.908162
vt 0.844891 0.908162
vt 0.844891 0.908162
vt 0.719549 0.907257
vt 0.719550 0.907257
vt 0.719550 0.907259
vt 0.719549 0.907259
vt 0.719549 0.907261
vt 0.719550 0.907261
vt 0.719550 0.907262
vt 0.719549 0.907262
vt 0.719549 0.907262
vt 0.719550 0.907262
vt 0.719550 0.907264
vt 0.719549 0.907264
vt 0.719551 0.907264
vt 0.719552 0.907264
vt 0.719552 0.907264
vt 0.719551 0.907264
vt 0.719546 0.907262
vt 0.719547 0.907262
vt 0.719547 0.907264
vt 0.719546 0.907264
vt 0.719551 0.907262
vt 0.719552 0.907262
vt 0.719549 0.907266
vt 0.719550 0.907266
vt 0.719550 0.907267
vt 0.719549 0.907267
vt 0.719550 0.907264
vt 0.719549 0.907264
vt 0.719548 0.907257
vt 0.719547 0.907257
vt 0.719547 0.907257
vt 0.719548 0.907257
vt 0.719547 0.907264
vt 0.719546 0.907264
vt 0.719549 0.907257
vt 0.719549 0.907257
vt 0.719549 0.907257
vt 0.719548 0.907264
vt 0.719549 0.907264
vt 0.719549 0.907264
vt 0.719548 0.907264
vt 0.719548 0.907266
vt 0.719549 0.907266
vt 0.719549 0.907267
vt 0.719548 0.907267
vt 0.719548 0.907262
vt 0.719549 0.907262
vt 0.719548 0.907261
vt 0.719549 0.907261
vt 0.719549 0.907262
vt 0.719548 0.907262
vt 0.719548 0.907257
vt 0.719549 0.907259
vt 0.719548 0.907259
vt 0.719548 0.907257
vt 0.719548 0.907259
vt 0.719548 0.907259
vt 0.719548 0.907261
vt 0.719548 0.907261
vt 0.719548 0.907262
vt 0.719548 0.907262
vt 0.719548 0.907262
vt 0.719548 0.907262
vt 0.719548 0.907264
vt 0.719548 0.907264
vt 0.719548 0.907266
vt 0.719548 0.907266
vt 0.719548 0.907267
vt 0.719548 0.907267
vt 0.719548 0.907264
vt 0.719548 0.907264
vt 0.719548 0.907257
vt 0.719548 0.907257
vt 0.719550 0.907257
vt 0.719547 0.907264
vt 0.719547 0.907264
vt 0.719547 0.907266
vt 0.719547 0.907267
vt 0.719547 0.907262
vt 0.719547 0.907261
vt 0.719547 0.907262
vt 0.719547 0.907259
vt 0.719547 0.907259
vt 0.719548 0.907259
vt 0.719547 0.907264
vt 0.719548 0.907264
vt 0.719549 0.907259
vt 0.719549 0.907259
vt 0.719549 0.907264
vt 0.719549 0.907264
vt 0.719548 0.907264
vt 0.719548 0.907264
vt 0.719548 0.907259
vt 0.719548 0.907259
vt 0.719550 0.907264
vt 0.719550 0.907262
vt 0.719545 0.907262
vt 0.719550 0.907259
vt 0.719549 0.907257
vt 0.719550 0.907257
vt 0.719550 0.907259
vt 0.719549 0.907259
vt 0.719549 0.907261
vt 0.719550 0.907261
vt 0.719550 0.907262
vt 0.719549 0.907262
vt 0.719549 0.907262
vt 0.719550 0.907262
vt 0.719550 0.907264
vt 0.719549 0.907264
vt 0.719551 0.907264
vt 0.719552 0.907264
vt 0.719552 0.907264
vt 0.719551 0.907264
vt 0.719546 0.907262
vt 0.719547 0.907262
vt 0.719547 0.907264
vt 0.719546 0.907264
vt 0.719551 0.907262
vt 0.719552 0.907262
vt 0.719549 0.907266
vt 0.719550 0.907266
vt 0.719550 0.907267
vt 0.719549 0.907267
vt 0.719550 0.907264
vt 0.719549 0.907264
vt 0.719548 0.907257
vt 0.719547 0.907257
vt 0.719547 0.907257
vt 0.719548 0.907257
vt 0.719547 0.907264
vt 0.719546 0.907264
vt 0.719549 0.907257
vt 0.719549 0.907257
vt 0.719549 0.907257
vt 0.719548 0.907264
vt 0.719549 0.907264
vt 0.719549 0.907264
vt 0.719548 0.907264
vt 0.719548 0.907266
vt 0.719549 0.907266
vt 0.719549 0.907267
vt 0.719548 0.907267
vt 0.719548 0.907262
vt 0.719549 0.907262
vt 0.719548 0.907261
vt 0.719549 0.907261
vt 0.719549 0.907262
vt 0.719548 0.907262
vt 0.719548 0.907257
vt 0.719549 0.907259
vt 0.719548 0.907259
vt 0.719548 0.907257
vt 0.719548 0.907259
vt 0.719548 0.907259
vt 0.719548 0.907261
vt 0.719548 0.907261
vt 0.719548 0.907262
vt 0.719548 0.907262
vt 0.719548 0.907262
vt 0.719548 0.907262
vt 0.719548 0.907264
vt 0.719548 0.907264
vt 0.719548 0.907266
vt 0.719548 0.907266
vt 0.719548 0.907267
vt 0.719548 0.907267
vt 0.719548 0.907264
vt 0.719548 0.907264
vt 0.719548 0.907257
vt 0.719548 0.907257
vt 0.719550 0.907257
vt 0.719547 0.907266
vt 0.719547 0.907267
vt 0.719547 0.907262
vt 0.719547 0.907261
vt 0.719547 0.907262
vt 0.719547 0.907259
vt 0.719547 0.907259
vt 0.719548 0.907259
vt 0.719547 0.907264
vt 0.719548 0.907264
vt 0.719549 0.907259
vt 0.719549 0.907259
vt 0.719549 0.907264
vt 0.719549 0.907264
vt 0.719548 0.907264
vt 0.719548 0.907264
vt 0.719548 0.907259
vt 0.719548 0.907259
vt 0.719550 0.907264
vt 0.719550 0.907262
vt 0.719545 0.907262
vt 0.719550 0.907259
vt 0.719549 0.907257
vt 0.719550 0.907257
vt 0.719550 0.907259
vt 0.719549 0.907259
vt 0.719549 0.907261
vt 0.719550 0.907261
vt 0.719550 0.907262
vt 0.719549 0.907262
vt 0.719549 0.907262
vt 0.719550 0.907262
vt 0.719550 0.907264
vt 0.719549 0.907264
vt 0.719551 0.907264
vt 0.719552 0.907264
vt 0.719552 0.907264
vt 0.719551 0.907264
vt 0.719546 0.907262
vt 0.719547 0.907262
vt 0.719547 0.907264
vt 0.719546 0.907264
vt 0.719551 0.907262
vt 0.719552 0.907262
vt 0.719549 0.907266
vt 0.719550 0.907266
vt 0.719550 0.907267
vt 0.719549 0.907267
vt 0.719550 0.907264
vt 0.719549 0.907264
vt 0.719548 0.907257
vt 0.719547 0.907257
vt 0.719547 0.907257
vt 0.719548 0.907257
vt 0.719547 0.907264
vt 0.719546 0.907264
vt 0.719549 0.907257
vt 0.719549 0.907257
vt 0.719549 0.907257
vt 0.719548 0.907264
vt 0.719549 0.907264
vt 0.719549 0.907264
vt 0.719548 0.907264
vt 0.719548 0.907266
vt 0.719549 0.907266
vt 0.719549 0.907267
vt 0.719548 0.907267
vt 0.719548 0.907262
vt 0.719549 0.907262
vt 0.719548 0.907261
vt 0.719549 0.907261
vt 0.719549 0.907262
vt 0.719548 0.907262
vt 0.719548 0.907257
vt 0.719549 0.907259
vt 0.719548 0.907259
vt 0.719548 0.907257
vt 0.719548 0.907259
vt 0.719548 0.907259
vt 0.719548 0.907261
vt 0.719548 0.907261
vt 0.719548 0.907262
vt 0.719548 0.907262
vt 0.719548 0.907262
vt 0.719548 0.907262
vt 0.719548 0.907264
vt 0.719548 0.907264
vt 0.719548 0.907266
vt 0.719548 0.907266
vt 0.719548 0.907267
vt 0.719548 0.907267
vt 0.719548 0.907264
vt 0.719548 0.907264
vt 0.719548 0.907257
vt 0.719548 0.907257
vt 0.719550 0.907257
vt 0.719547 0.907264
vt 0.719547 0.907264
vt 0.719547 0.907266
vt 0.719547 0.907267
vt 0.719547 0.907262
vt 0.719547 0.907261
vt 0.719547 0.907262
vt 0.719547 0.907259
vt 0.719547 0.907259
vt 0.719548 0.907259
vt 0.719547 0.907264
vt 0.719548 0.907264
vt 0.719549 0.907259
vt 0.719549 0.907259
vt 0.719549 0.907264
vt 0.719549 0.907264
vt 0.719548 0.907264
vt 0.719548 0.907264
vt 0.719548 0.907259
vt 0.719548 0.907259
vt 0.719550 0.907264
vt 0.719550 0.907262
vt 0.719545 0.907262
vt 0.719550 0.907259
vt 0.719549 0.907257
vt 0.719550 0.907257
vt 0.719550 0.907259
vt 0.719549 0.907259
vt 0.719549 0.907261
vt 0.719550 0.907261
vt 0.719550 0.907262
vt 0.719549 0.907262
vt 0.719549 0.907262
vt 0.719550 0.907262
vt 0.719550 0.907264
vt 0.719549 0.907264
vt 0.719551 0.907264
vt 0.719552 0.907264
vt 0.719552 0.907264
vt 0.719551 0.907264
vt 0.719546 0.907262
vt 0.719547 0.907262
vt 0.719547 0.907264
vt 0.719546 0.907264
vt 0.719551 0.907262
vt 0.719552 0.907262
vt 0.719549 0.907266
vt 0.719550 0.907266
vt 0.719550 0.907267
vt 0.719549 0.907267
vt 0.719550 0.907264
vt 0.719549 0.907264
vt 0.719548 0.907257
vt 0.719547 0.907257
vt 0.719547 0.907257
vt 0.719548 0.907257
vt 0.719547 0.907264
vt 0.719546 0.907264
vt 0.719549 0.907257
vt 0.719549 0.907257
vt 0.719549 0.907257
vt 0.719548 0.907264
vt 0.719549 0.907264
vt 0.719549 0.907264
vt 0.719548 0.907264
vt 0.719548 0.907266
vt 0.719549 0.907266
vt 0.719549 0.907267
vt 0.719548 0.907267
vt 0.719548 0.907262
vt 0.719549 0.907262
vt 0.719548 0.907261
vt 0.719549 0.907261
vt 0.719549 0.907262
vt 0.719548 0.907262
vt 0.719548 0.907257
vt 0.719549 0.907259
vt 0.719548 0.907259
vt 0.719548 0.907257
vt 0.719548 0.907259
vt 0.719548 0.907259
vt 0.719548 0.907261
vt 0.719548 0.907261
vt 0.719548 0.907262
vt 0.719548 0.907262
vt 0.719548 0.907262
vt 0.719548 0.907262
vt 0.719548 0.907264
vt 0.719548 0.907264
vt 0.719548 0.907266
vt 0.719548 0.907266
vt 0.719548 0.907267
vt 0.719548 0.907267
vt 0.719548 0.907264
vt 0.719548 0.907264
vt 0.719548 0.907257
vt 0.719548 0.907257
vt 0.719550 0.907257
vt 0.719547 0.907266
vt 0.719547 0.907267
vt 0.719547 0.907262
vt 0.719547 0.907261
vt 0.719547 0.907262
vt 0.719547 0.907259
vt 0.719547 0.907259
vt 0.719548 0.907259
vt 0.719547 0.907264
vt 0.719548 0.907264
vt 0.719549 0.907259
vt 0.719549 0.907259
vt 0.719549 0.907264
vt 0.719549 0.907264
vt 0.719548 0.907264
vt 0.719548 0.907264
vt 0.719548 0.907259
vt 0.719548 0.907259
vt 0.719545 0.907264
vt 0.719545 0.907264
vt 0.719550 0.907264
vt 0.719550 0.907262
vt 0.719545 0.907262
vt 0.719550 0.907259
vt 0.719549 0.907257
vt 0.719550 0.907257
vt 0.719550 0.907259
vt 0.719549 0.907259
vt 0.719549 0.907261
vt 0.719550 0.907261
vt 0.719550 0.907262
vt 0.719549 0.907262
vt 0.719549 0.907262
vt 0.719550 0.907262
vt 0.719550 0.907264
vt 0.719549 0.907264
vt 0.719551 0.907264
vt 0.719552 0.907264
vt 0.719552 0.907264
vt 0.719551 0.907264
vt 0.719546 0.907262
vt 0.719547 0.907262
vt 0.719547 0.907264
vt 0.719546 0.907264
vt 0.719551 0.907262
vt 0.719552 0.907262
vt 0.719549 0.907266
vt 0.719550 0.907266
vt 0.719550 0.907267
vt 0.719549 0.907267
vt 0.719550 0.907264
vt 0.719549 0.907264
vt 0.719548 0.907257
vt 0.719547 0.907257
vt 0.719547 0.907257
vt 0.719548 0.907257
vt 0.719547 0.907264
vt 0.719546 0.907264
vt 0.719549 0.907257
vt 0.719549 0.907257
vt 0.719549 0.907257
vt 0.719548 0.907264
vt 0.719549 0.907264
vt 0.719549 0.907264
vt 0.719548 0.907264
vt 0.719548 0.907266
vt 0.719549 0.907266
vt 0.719549 0.907267
vt 0.719548 0.907267
vt 0.719548 0.907262
vt 0.719549 0.907262
vt 0.719548 0.907261
vt 0.719549 0.907261
vt 0.719549 0.907262
vt 0.719548 0.907262
vt 0.719548 0.907257
vt 0.719549 0.907259
vt 0.719548 0.907259
vt 0.719548 0.907257
vt 0.719548 0.907259
vt 0.719548 0.907259
vt 0.719548 0.907261
vt 0.719548 0.907261
vt 0.719548 0.907262
vt 0.719548 0.907262
vt 0.719548 0.907262
vt 0.719548 0.907262
vt 0.719548 0.907264
vt 0.719548 0.907264
vt 0.719548 0.907266
vt 0.719548 0.907266
vt 0.719548 0.907267
vt 0.719548 0.907267
vt 0.719548 0.907264
vt 0.719548 0.907264
vt 0.719548 0.907257
vt 0.719548 0.907257
vt 0.719550 0.907257
vt 0.719547 0.907266
vt 0.719547 0.907267
vt 0.719547 0.907262
vt 0.719547 0.907261
vt 0.719547 0.907262
vt 0.719547 0.907259
vt 0.719547 0.907259
vt 0.719548 0.907259
vt 0.719547 0.907264
vt 0.719548 0.907264
vt 0.719549 0.907259
vt 0.719549 0.907259
vt 0.719549 0.907264
vt 0.719549 0.907264
vt 0.719548 0.907264
vt 0.719548 0.907264
vt 0.719548 0.907259
vt 0.719548 0.907259
vt 0.719550 0.907264
vt 0.719550 0.907262
vt 0.719545 0.907262
vt 0.719550 0.907259
vt 0.719549 0.907257
vt 0.719550 0.907257
vt 0.719550 0.907259
vt 0.719549 0.907259
vt 0.719549 0.907261
vt 0.719550 0.907261
vt 0.719550 0.907262
vt 0.719549 0.907262
vt 0.719549 0.907262
vt 0.719550 0.907262
vt 0.719550 0.907264
vt 0.719549 0.907264
vt 0.719551 0.907264
vt 0.719552 0.907264
vt 0.719552 0.907264
vt 0.719551 0.907264
vt 0.719546 0.907262
vt 0.719547 0.907262
vt 0.719547 0.907264
vt 0.719546 0.907264
vt 0.719551 0.907262
vt 0.719552 0.907262
vt 0.719549 0.907266
vt 0.719550 0.907266
vt 0.719550 0.907267
vt 0.719549 0.907267
vt 0.719550 0.907264
vt 0.719549 0.907264
vt 0.719548 0.907257
vt 0.719547 0.907257
vt 0.719547 0.907257
vt 0.719548 0.907257
vt 0.719547 0.907264
vt 0.719546 0.907264
vt 0.719549 0.907257
vt 0.719549 0.907257
vt 0.719549 0.907257
vt 0.719548 0.907264
vt 0.719549 0.907264
vt 0.719549 0.907264
vt 0.719548 0.907264
vt 0.719548 0.907266
vt 0.719549 0.907266
vt 0.719549 0.907267
vt 0.719548 0.907267
vt 0.719548 0.907262
vt 0.719549 0.907262
vt 0.719548 0.907261
vt 0.719549 0.907261
vt 0.719549 0.907262
vt 0.719548 0.907262
vt 0.719548 0.907257
vt 0.719549 0.907259
vt 0.719548 0.907259
vt 0.719548 0.907257
vt 0.719548 0.907259
vt 0.719548 0.907259
vt 0.719548 0.907261
vt 0.719548 0.907261
vt 0.719548 0.907262
vt 0.719548 0.907262
vt 0.719548 0.907262
vt 0.719548 0.907262
vt 0.719548 0.907264
vt 0.719548 0.907264
vt 0.719548 0.907266
vt 0.719548 0.907266
vt 0.719548 0.907267
vt 0.719548 0.907267
vt 0.719548 0.907264
vt 0.719548 0.907264
vt 0.719548 0.907257
vt 0.719548 0.907257
vt 0.719550 0.907257
vt 0.719547 0.907266
vt 0.719547 0.907267
vt 0.719547 0.907262
vt 0.719547 0.907261
vt 0.719547 0.907262
vt 0.719547 0.907259
vt 0.719547 0.907259
vt 0.719548 0.907259
vt 0.719547 0.907264
vt 0.719548 0.907264
vt 0.719549 0.907259
vt 0.719549 0.907259
vt 0.719549 0.907264
vt 0.719549 0.907264
vt 0.719548 0.907264
vt 0.719548 0.907264
vt 0.719548 0.907259
vt 0.719548 0.907259
vt 0.719545 0.907264
vt 0.719545 0.907264
vt 0.719550 0.907264
vt 0.719550 0.907262
vt 0.719545 0.907262
vt 0.719550 0.907259
vn -0.0000 0.0000 -1.0000
vn 0.4346 0.4598 -0.7744
vn 0.1902 0.2013 -0.9609
vn 1.0000 0.0000 -0.0000
vn -0.2489 -0.9685 0.0000
vn -0.4822 -0.8761 0.0000
vn 0.6419 0.6792 -0.3560
vn 0.6648 0.7034 -0.2513
vn 0.6869 0.7268 -0.0000
vn 0.6381 0.7176 -0.2791
vn 0.6456 0.6960 -0.3143
vn 0.5454 0.8381 -0.0000
vn 0.0000 1.0000 0.0000
vn -1.0000 0.0000 0.0000
vn -0.1166 0.9932 -0.0000
vn 0.0000 0.7015 -0.7126
vn 0.6674 0.3098 -0.6773
vn 0.6575 0.2232 -0.7196
vn 0.0000 -0.0000 1.0000
vn 0.6798 -0.7334 0.0000
vn 0.6065 0.0000 -0.7951
vn 0.6065 0.0000 0.7951
vn 0.0000 -1.0000 0.0000
vn -0.5610 0.8278 -0.0000
vn -0.5951 0.8037 -0.0000
vn 0.1203 -0.9927 0.0000
vn -0.0874 0.6987 -0.7101
vn -0.0785 0.6992 -0.7106
vn 0.6163 -0.7875 0.0000
vn 0.6162 -0.7876 0.0000
vn 0.9192 -0.3939 0.0000
vn -0.4216 0.6357 -0.6467
vn -0.4382 0.6302 -0.6410
vn -0.4608 0.6224 -0.6327
vn -0.3838 0.9234 -0.0001
vn -0.3837 0.9234 -0.0000
vn 0.3931 -0.9195 0.0000
vn 0.3932 -0.9195 0.0001
vn -0.2620 0.6766 -0.6882
vn -0.3038 0.6679 -0.6794
vn 0.6467 0.0000 -0.7627
vn 0.1902 0.2013 0.9609
vn 0.4346 0.4598 0.7744
vn 0.6419 0.6792 0.3560
vn 0.6648 0.7034 0.2513
vn 0.6381 0.7176 0.2791
vn 0.6456 0.6960 0.3143
vn 0.0000 0.7015 0.7126
vn 0.6674 0.3098 0.6773
vn 0.6575 0.2232 0.7196
vn -0.0785 0.6992 0.7106
vn -0.0874 0.6987 0.7101
vn -0.4216 0.6357 0.6467
vn -0.4608 0.6224 0.6327
vn -0.4382 0.6302 0.6410
vn -0.3838 0.9234 0.0001
vn 0.3932 -0.9195 -0.0001
vn -0.3038 0.6679 0.6794
vn -0.2620 0.6766 0.6882
vn 0.6467 0.0000 0.7627
vn 0.3192 0.0000 0.9477
vn 0.3646 0.6635 0.6533
vn -1.0000 -0.0001 -0.0001
vn -1.0000 -0.0002 -0.0002
vn 0.3646 0.6635 -0.6533
vn 0.3192 0.0001 -0.9477
vn 0.3673 0.9301 0.0000
vn 0.7646 0.4207 0.4882
vn 0.6832 0.7302 0.0000
vn 0.0087 -0.9991 0.0410
vn 0.0034 -0.9989 0.0473
vn 0.2981 -0.9515 0.0762
vn 0.3636 -0.9284 0.0772
vn 1.0000 0.0002 0.0001
vn 1.0000 0.0001 0.0002
vn 0.7646 0.4207 -0.4882
vn 0.6051 0.0002 -0.7962
vn 0.3234 -0.0209 0.9460
vn 0.3564 -0.6549 0.6664
vn 0.7485 -0.4161 0.5163
vn 0.5894 -0.0088 0.8078
vn 0.6369 -0.7640 0.1032
vn 0.6670 -0.7380 0.1023
vn 0.3170 0.0025 0.9484
vn 0.6036 0.0048 0.7973
vn 0.6051 0.0000 0.7962
vn 0.3159 0.0152 -0.9487
vn 0.3172 0.0042 -0.9484
vn 0.6055 0.0081 -0.7958
vn 0.6054 0.0258 -0.7955
vn 0.9992 0.0379 0.0131
vn 0.9999 0.0112 0.0027
vn 0.9999 0.0100 0.0038
vn 0.9993 0.0339 0.0182
vn -0.0001 0.0003 -1.0000
vn -0.9993 -0.0343 -0.0155
vn -0.9999 -0.0101 -0.0032
vn -0.9999 -0.0117 -0.0030
vn -0.9991 -0.0395 -0.0146
vn 0.3112 0.0058 0.9503
vn 0.0008 -0.0032 1.0000
vn 0.3083 -0.0064 0.9513
vn 0.0041 -0.0167 0.9999
vn 0.0139 -0.0254 0.9996
vn -0.9967 -0.0513 -0.0631
vn -0.9980 -0.0509 -0.0386
vn -0.9973 -0.0625 -0.0398
vn -0.9960 -0.0625 -0.0641
vn -0.0008 0.0038 -1.0000
vn -0.0005 0.0028 -1.0000
vn 0.3145 0.0291 -0.9488
vn 0.2997 0.0310 -0.9535
vn 0.9963 0.0563 0.0656
vn 0.9977 0.0592 0.0334
vn 0.9978 0.0495 0.0438
vn 0.9966 0.0370 0.0737
vn 0.6029 0.0468 -0.7965
vn 0.5845 0.0578 -0.8093
vn 0.5965 0.0132 0.8025
vn 0.5857 0.0104 0.8105
vn 0.2323 0.0234 -0.9724
vn 0.5538 0.0525 -0.8310
vn 0.9951 0.0488 0.0859
vn 0.9958 0.0219 0.0894
vn -0.0008 0.0022 -1.0000
vn -0.9961 -0.0493 -0.0738
vn -0.9958 -0.0565 -0.0722
vn 0.0212 -0.0234 0.9995
vn -0.9963 -0.0417 -0.0754
vn -0.9973 -0.0397 -0.0620
vn 0.9939 0.0736 0.0826
vn 0.9954 0.0762 0.0581
vn -1.0000 -0.0085 -0.0033
vn 0.9999 0.0124 0.0016
vn 0.9973 0.0692 0.0226
vn 0.9991 0.0419 0.0079
vn -0.9985 -0.0397 -0.0376
vn -0.9994 -0.0292 -0.0164
vn 0.0133 -0.9993 0.0355
vn 0.3192 0.0000 -0.9477
vn -0.0101 -0.9998 -0.0157
vn -0.0042 -0.9988 -0.0487
vn 0.3770 -0.6500 -0.6598
vn 0.3595 -0.9331 -0.0078
vn 0.6051 0.0000 -0.7962
vn 0.3207 -0.0055 0.9472
vn 0.3533 -0.6634 0.6596
vn 0.7549 -0.4268 0.4980
vn 0.6077 -0.0089 0.7941
vn 0.7882 -0.3942 -0.4727
vn 0.6905 -0.7234 0.0021
vn 0.3195 -0.0002 0.9476
vn 0.6053 -0.0004 0.7960
vn 0.3218 0.0022 -0.9468
vn 0.3199 -0.0002 -0.9475
vn 0.6060 -0.0004 -0.7954
vn 0.6104 0.0029 -0.7921
vn 1.0000 -0.0032 0.0058
vn 1.0000 -0.0012 -0.0000
vn 1.0000 -0.0012 -0.0009
vn 1.0000 -0.0061 -0.0000
vn -1.0000 0.0014 -0.0057
vn -1.0000 0.0008 -0.0000
vn -1.0000 0.0008 -0.0008
vn -0.9999 -0.0017 -0.0107
vn 0.3213 -0.0026 0.9470
vn 0.0002 -0.0002 1.0000
vn 0.3215 -0.0065 0.9469
vn 0.0010 -0.0028 1.0000
vn 0.0021 -0.0036 1.0000
vn -0.9996 0.0085 -0.0275
vn -0.9998 0.0019 -0.0185
vn -0.9996 -0.0029 -0.0298
vn -0.9990 0.0062 -0.0440
vn 0.3306 0.0021 -0.9438
vn 0.3457 -0.0049 -0.9383
vn 0.9996 -0.0098 0.0258
vn 0.9998 -0.0055 0.0194
vn 0.9999 -0.0102 0.0049
vn 0.9999 -0.0086 0.0081
vn 0.6191 0.0057 -0.7853
vn 0.6357 -0.0032 -0.7720
vn 0.6065 -0.0037 0.7951
vn 0.6082 -0.0087 0.7938
vn 0.9996 -0.0125 0.0242
vn 0.9999 -0.0066 0.0080
vn -0.9995 0.0142 -0.0291
vn -0.9987 0.0136 -0.0482
vn 0.0027 -0.0021 1.0000
vn -0.9998 0.0147 -0.0104
vn -0.9999 0.0105 -0.0109
vn 0.9990 -0.0185 0.0409
vn 0.9990 -0.0108 0.0435
vn -1.0000 0.0008 0.0007
vn 1.0000 -0.0012 0.0008
vn 0.9994 -0.0008 0.0338
vn 0.9999 -0.0003 0.0116
vn -1.0000 0.0067 -0.0071
vn -1.0000 0.0044 -0.0006
vn -0.0156 -0.9997 0.0161
vn 0.0007 -0.9997 -0.0231
vn 0.0010 -0.9999 -0.0163
vn 0.3070 -0.9516 0.0120
vn 0.3642 -0.9308 0.0315
vn 0.2970 0.0156 0.9548
vn 0.3255 -0.6721 0.6651
vn 0.7200 -0.4293 0.5452
vn 0.5647 0.0371 0.8244
vn 0.6602 -0.7496 0.0470
vn 0.6624 -0.7455 0.0739
vn 0.3187 0.0006 0.9479
vn 0.6047 0.0011 0.7965
vn 0.3124 0.0190 -0.9497
vn 0.3185 0.0022 -0.9479
vn 0.6061 0.0043 -0.7954
vn 0.6066 0.0304 -0.7944
vn 0.9989 0.0443 0.0176
vn 1.0000 0.0046 0.0025
vn 1.0000 0.0034 0.0031
vn 0.9990 0.0381 0.0239
vn -0.9990 -0.0418 -0.0179
vn -1.0000 -0.0048 -0.0025
vn -1.0000 -0.0061 -0.0018
vn -0.9987 -0.0488 -0.0140
vn 0.3100 0.0099 0.9507
vn 0.3009 0.0210 0.9534
vn -0.9903 -0.1044 -0.0917
vn -0.9940 -0.0969 -0.0515
vn -0.9927 -0.1137 -0.0407
vn -0.9896 -0.1259 -0.0694
vn 0.3103 0.0438 -0.9496
vn 0.3150 0.0471 -0.9479
vn 0.9885 0.1188 0.0940
vn 0.9932 0.1050 0.0507
vn 0.9935 0.0898 0.0702
vn 0.9868 0.0954 0.1305
vn 0.6022 0.0745 -0.7949
vn 0.5939 0.0939 -0.7991
vn 0.5988 0.0149 0.8008
vn 0.5830 0.0367 0.8116
vn 0.2575 0.0358 -0.9656
vn 0.5888 0.0820 -0.8041
vn 0.9874 0.1067 0.1170
vn 0.9835 0.0810 0.1618
vn -0.9898 -0.0888 -0.1114
vn -0.9906 -0.1095 -0.0816
vn -0.9877 -0.0683 -0.1407
vn -0.9900 -0.0826 -0.1144
vn 0.9886 0.1323 0.0715
vn 0.9882 0.1417 0.0576
vn -1.0000 -0.0034 -0.0032
vn 1.0000 0.0059 0.0019
vn 0.9923 0.1202 0.0312
vn 0.9987 0.0506 0.0112
vn -0.9948 -0.0802 -0.0623
vn -0.9992 -0.0348 -0.0217
vn 0.0004 -0.9996 -0.0289
vn -1.0000 -0.0000 -0.0001
vn 0.3193 0.0000 -0.9477
vn 0.0001 -1.0000 -0.0018
vn 0.3292 -0.6663 -0.6691
vn 0.3580 -0.9307 -0.0745
vn 0.6052 0.0000 -0.7961
vn 0.3006 0.0366 0.9531
vn 0.2408 0.0304 0.9701
vn 0.5476 0.0692 0.8339
vn 0.5913 0.0696 0.8034
vn 0.7487 -0.4066 -0.5236
vn 0.6568 -0.7418 -0.1352
vn 0.3184 0.0023 0.9480
vn 0.6059 0.0043 0.7955
vn 0.3167 0.0070 -0.9485
vn 0.3186 0.0024 -0.9479
vn 0.6063 0.0045 -0.7953
vn 0.6037 0.0123 -0.7971
vn 0.9994 0.0331 -0.0103
vn 1.0000 0.0070 0.0002
vn 1.0000 0.0069 -0.0001
vn 0.9992 0.0384 -0.0098
vn -0.9993 -0.0348 0.0110
vn -1.0000 -0.0072 -0.0002
vn -1.0000 -0.0073 -0.0005
vn -0.9995 -0.0286 0.0138
vn 0.3153 0.0153 0.9489
vn 0.3197 0.0317 0.9470
vn -0.9941 -0.0257 0.1057
vn -0.9973 -0.0533 0.0499
vn -0.9976 -0.0295 0.0625
vn -0.9925 0.0058 0.1225
vn 0.3172 -0.0015 -0.9484
vn 0.3263 -0.0183 -0.9451
vn 0.9921 0.0382 -0.1196
vn 0.9976 0.0499 -0.0476
vn 0.9965 0.0712 -0.0443
vn 0.9895 0.0839 -0.1176
vn 0.5959 0.0059 -0.8030
vn 0.6004 -0.0233 -0.7993
vn 0.6076 0.0245 0.7938
vn 0.6105 0.0543 0.7902
vn 0.9859 0.0291 -0.1647
vn 0.9824 0.0881 -0.1649
vn -0.9910 0.0002 0.1341
vn -0.9886 0.0279 0.1481
vn -0.9924 -0.0275 0.1199
vn -0.9944 -0.0567 0.0893
vn 0.9860 -0.0305 -0.1639
vn 0.9925 -0.0076 -0.1219
vn -1.0000 -0.0071 0.0000
vn 1.0000 0.0071 0.0004
vn 0.9983 0.0285 -0.0509
vn 0.9996 0.0278 -0.0108
vn -0.9963 -0.0771 0.0373
vn -0.9991 -0.0411 0.0082
vn 0.3062 -0.9496 -0.0668
vn 0.6094 -0.7824 -0.1286
vn 0.0002 -1.0000 -0.0040
vn -1.0000 -0.0005 -0.0004
vn -1.0000 -0.0008 -0.0002
vn 0.3191 0.0003 -0.9477
vn 0.3609 -0.6704 -0.6483
vn 0.3534 -0.9354 0.0109
vn 1.0000 0.0006 0.0004
vn 1.0000 0.0003 0.0006
vn 0.6051 0.0007 -0.7961
vn 0.3259 -0.0280 0.9450
vn 0.3370 -0.6749 0.6565
vn 0.7356 -0.4622 0.4953
vn 0.6099 -0.0399 0.7915
vn 0.7615 -0.4410 -0.4749
vn 0.6615 -0.7497 0.0204
vn 0.3196 -0.0013 0.9476
vn 0.6044 -0.0024 0.7967
vn 0.6049 0.0000 0.7963
vn 0.3170 0.0012 -0.9484
vn 0.3193 0.0016 -0.9476
vn 0.6063 0.0031 -0.7952
vn 0.6017 0.0031 -0.7987
vn 0.9999 -0.0042 0.0167
vn 1.0000 0.0003 0.0052
vn 1.0000 -0.0019 0.0052
vn 0.9999 -0.0077 0.0101
vn -0.9999 0.0056 -0.0142
vn -1.0000 -0.0005 -0.0052
vn -1.0000 -0.0029 -0.0052
vn -0.9998 0.0031 -0.0183
vn 0.3188 -0.0026 0.9478
vn 0.3258 -0.0115 0.9454
vn -0.9977 0.0654 -0.0157
vn -0.9992 0.0363 -0.0167
vn -0.9989 0.0389 -0.0271
vn -0.9976 0.0642 -0.0275
vn 0.3257 -0.0181 -0.9453
vn 0.3230 -0.0210 -0.9462
vn 0.9975 -0.0679 0.0187
vn 0.9991 -0.0365 0.0216
vn 0.9994 -0.0328 0.0054
vn 0.9977 -0.0672 0.0034
vn 0.5994 -0.0176 -0.8003
vn 0.6119 -0.0466 -0.7896
vn 0.6042 -0.0049 0.7968
vn 0.6072 -0.0137 0.7944
vn 0.9973 -0.0707 0.0180
vn 0.9968 -0.0798 0.0072
vn -0.9974 0.0694 -0.0168
vn -0.9978 0.0610 -0.0276
vn -0.9970 0.0778 -0.0060
vn -0.9978 0.0666 -0.0038
vn 0.9977 -0.0616 0.0288
vn 0.9971 -0.0687 0.0341
vn -1.0000 0.0019 -0.0052
vn -1.0000 -0.0003 -0.0006
vn 1.0000 0.0025 0.0053
vn 1.0000 0.0008 0.0003
vn 0.9985 -0.0401 0.0379
vn 0.9997 -0.0006 0.0232
vn -0.9994 0.0336 -0.0064
vn -0.9999 0.0082 -0.0101
vn 0.3191 0.0003 0.9477
vn -1.0000 -0.0005 0.0004
vn -1.0000 -0.0003 0.0004
vn 0.3393 -0.6607 -0.6696
vn 0.3526 -0.9348 -0.0420
vn 1.0000 0.0005 -0.0004
vn 1.0000 0.0007 -0.0004
vn 0.6050 0.0000 -0.7962
vn 0.3123 0.0155 0.9499
vn 0.2371 0.0124 0.9714
vn 0.5736 0.0301 0.8186
vn 0.6116 0.0286 0.7906
vn 0.7331 -0.4177 -0.5367
vn 0.6564 -0.7503 -0.0785
vn 0.3169 0.0060 0.9484
vn 0.6065 0.0116 0.7950
vn 0.6052 0.0006 0.7961
vn 0.3104 0.0056 -0.9506
vn 0.3169 0.0018 -0.9485
vn 0.6028 0.0035 -0.7979
vn 0.5938 0.0097 -0.8045
vn 0.9986 0.0398 -0.0339
vn 0.9999 0.0131 -0.0070
vn 0.9999 0.0162 -0.0057
vn 0.9983 0.0502 -0.0306
vn -0.9987 -0.0364 0.0359
vn -0.9999 -0.0122 0.0073
vn -0.9999 -0.0087 0.0081
vn -0.9991 -0.0243 0.0353
vn 0.3185 0.0208 0.9477
vn 0.3357 0.0200 0.9418
vn -0.9944 -0.0272 0.1018
vn -0.9963 -0.0348 0.0787
vn -0.9970 -0.0209 0.0739
vn -0.9948 -0.0243 0.0985
vn 0.3036 0.0025 -0.9528
vn 0.2917 0.0055 -0.9565
vn 0.9938 0.0327 -0.1065
vn 0.9962 0.0434 -0.0750
vn 0.9961 0.0562 -0.0684
vn 0.9939 0.0441 -0.1012
vn 0.5791 0.0084 -0.8152
vn 0.5663 0.0053 -0.8242
vn 0.6111 0.0359 0.7908
vn 0.6206 0.0446 0.7829
vn 0.9925 0.0331 -0.1177
vn 0.9922 0.0450 -0.1164
vn -0.9940 -0.0340 0.1044
vn -0.9938 -0.0386 0.1045
vn -0.9941 -0.0295 0.1043
vn -0.9940 -0.0300 0.1052
vn 0.9927 0.0211 -0.1190
vn 0.9935 0.0214 -0.1117
vn -0.9999 -0.0158 0.0064
vn -1.0000 -0.0007 0.0004
vn 0.9999 0.0100 -0.0084
vn 1.0000 0.0003 -0.0005
vn 0.9962 0.0305 -0.0816
vn 0.9989 0.0294 -0.0372
vn -0.9953 -0.0486 0.0835
vn -0.9982 -0.0486 0.0365
vn 0.3011 -0.9528 -0.0377
vn 0.6336 -0.7696 -0.0794
usemtl AIRPORT
s 1
f 138/104/30 134/105/30 91/106/31 88/107/32
f 163/108/33 133/109/33 135/110/33 150/111/33
f 145/112/34 146/113/35 149/114/35 76/115/34
f 89/116/36 90/117/37 165/118/38 164/119/38
f 171/120/39 161/121/40 78/122/41 172/123/41
f 136/124/30 143/125/30 141/126/30 151/127/30
f 154/128/42 157/129/42 159/130/42 156/131/42
f 179/132/43 185/133/43 191/134/43 85/135/43 144/136/43
f 176/137/43 175/138/43 82/139/43 84/140/43
f 102/141/42 177/142/42 204/143/44 128/144/44
f 79/145/33 162/146/33 155/147/33 83/148/33
f 150/111/33 155/147/33 162/146/33 163/108/33
f 158/149/45 87/150/45 86/151/45 142/152/45
f 160/153/46 161/121/40 171/120/39 173/154/47
f 90/117/37 89/116/36 88/107/32 91/106/31
f 168/155/48 166/156/48 147/157/48 74/158/48
f 169/159/33 152/160/33 140/161/33 94/162/33
f 169/159/33 97/163/33 96/164/33 174/165/33
f 148/166/49 170/167/49 98/168/49 77/169/49
f 94/162/33 97/163/33 169/159/33
f 173/154/47 139/170/50 137/171/50 160/153/46
f 167/172/51 153/173/51 95/174/51 75/175/51
f 81/176/52 73/177/52 178/178/52 80/179/52
f 73/177/52 92/180/52 93/181/52 72/182/52
f 92/180/52 99/183/52 100/184/52 93/181/52
f 129/185/53 206/186/53 200/187/54 198/188/54
f 84/140/43 85/135/43 191/134/43 176/137/43
f 72/182/52 178/178/52 73/177/52
f 209/189/30 131/190/30 113/191/30
f 145/112/34 76/115/34 118/192/55 120/193/55
f 180/194/52 105/195/52 190/196/52 187/197/52
f 101/198/45 192/199/45 115/200/56 125/201/57
f 210/202/52 195/203/52 181/204/52 188/205/52
f 121/206/58 117/207/59 109/208/60 196/209/60
f 126/210/61 114/211/62 194/212/63 111/213/63
f 199/214/43 193/215/43 186/216/43
f 186/216/43 112/217/43 110/218/43 199/214/43
f 178/178/52 72/182/52 195/203/52 210/202/52
f 168/155/48 74/158/48 201/219/48 123/220/48
f 123/220/48 203/221/48 108/222/48 106/223/48
f 123/220/48 201/219/48 202/224/48
f 123/220/48 202/224/48 203/221/48
f 128/144/44 204/143/44 205/225/64 130/226/65
f 130/226/65 205/225/64 206/186/53 129/185/53
f 120/193/55 118/192/55 119/227/66 122/228/67
f 122/228/67 119/227/66 117/207/59 121/206/58
f 208/229/30 131/190/30 207/230/30
f 207/230/30 131/190/30 209/189/30
f 114/211/62 126/210/61 127/231/68 116/232/69
f 116/232/69 127/231/68 125/201/57 115/200/56
f 104/233/30 132/234/30 131/190/30 208/229/30
f 189/235/70 197/236/70 182/237/70
f 196/238/60 109/239/60 184/240/33 183/241/33
f 131/242/30 132/243/30 103/244/30 124/245/30
f 113/246/30 131/242/30 124/245/30 107/247/30
f 258/248/48 221/249/71 224/250/72 254/251/48
f 280/252/33 269/253/33 255/254/33 253/255/33
f 265/256/34 76/115/34 149/114/35 266/257/35
f 222/258/73 164/119/38 165/118/38 223/259/74
f 286/260/75 172/123/41 78/122/41 278/261/76
f 256/262/48 270/263/48 261/264/48 263/265/48
f 273/266/42 156/131/42 159/130/42 275/267/42
f 291/268/43 264/269/43 218/270/43 301/271/43 296/272/43
f 288/273/43 217/274/43 82/139/43 175/138/43
f 102/141/42 128/144/44 313/275/44 289/276/42
f 79/145/33 83/148/33 274/277/33 279/278/33
f 269/253/33 280/252/33 279/278/33 274/277/33
f 276/279/77 262/280/77 219/281/77 220/282/77
f 277/283/78 287/284/79 286/260/75 278/261/76
f 223/259/74 224/250/72 221/249/71 222/258/73
f 283/285/30 213/286/30 267/287/30 281/288/30
f 284/289/33 227/290/33 260/291/33 271/292/33
f 284/289/33 174/165/33 96/164/33 229/293/33
f 268/294/49 77/169/49 98/168/49 285/295/49
f 227/290/33 284/289/33 229/293/33
f 287/284/79 277/283/78 257/296/51 259/297/51
f 282/298/50 214/299/50 228/300/50 272/301/50
f 216/302/52 215/303/52 290/304/52 212/305/52
f 212/305/52 211/306/52 226/307/52 225/308/52
f 225/308/52 226/307/52 231/309/52 230/310/52
f 129/185/53 198/188/54 309/311/54 315/312/53
f 217/274/43 288/273/43 301/271/43 218/270/43
f 211/306/52 212/305/52 290/304/52
f 318/313/48 239/314/48 251/315/48
f 265/256/34 243/316/55 118/192/55 76/115/34
f 292/317/52 298/318/52 190/196/52 105/195/52
f 232/319/77 248/320/80 241/321/81 302/322/77
f 319/323/52 299/324/52 293/325/52 305/326/52
f 244/327/58 306/328/60 109/208/60 117/207/59
f 249/329/82 238/330/83 304/331/83 240/332/84
f 308/333/43 297/334/43 303/335/43
f 297/334/43 308/333/43 110/218/43 112/217/43
f 290/304/52 319/323/52 305/326/52 211/306/52
f 283/285/30 246/336/30 310/337/30 213/286/30
f 246/336/30 235/338/30 237/339/30 312/340/30
f 246/336/30 311/341/30 310/337/30
f 246/336/30 312/340/30 311/341/30
f 128/144/44 130/226/65 314/342/85 313/275/44
f 130/226/65 129/185/53 315/312/53 314/342/85
f 243/316/55 245/343/86 119/227/66 118/192/55
f 245/343/86 244/327/58 117/207/59 119/227/66
f 317/344/48 316/345/48 251/315/48
f 316/345/48 318/313/48 251/315/48
f 240/332/84 242/346/87 250/347/88 249/329/82
f 242/346/87 241/321/81 248/320/80 250/347/88
f 234/348/48 317/344/48 251/315/48 252/349/48
f 300/350/89 294/351/89 307/352/89
f 306/353/60 295/354/33 184/240/33 109/239/60
f 251/355/48 247/356/48 233/357/48 252/358/48
f 239/359/48 236/360/48 247/356/48 251/355/48
f 348/361/90 321/362/91 660/363/48 675/364/48
f 373/365/92 361/366/43 699/367/43 351/368/93
f 677/369/30 700/370/30 377/371/94 352/372/95
f 363/373/96 321/374/91 327/375/97 674/376/98
f 360/377/99 666/378/100 667/379/101 362/380/102
f 693/381/42 661/382/42 321/374/91 363/373/96
f 372/383/103 365/384/33 669/385/33 668/386/104
f 352/372/95 377/371/94 691/387/105 681/388/106
f 358/389/107 320/390/108 692/391/109 359/392/110
f 362/380/102 667/379/101 672/393/111 673/394/112
f 348/361/90 330/395/113 334/396/114 349/397/115
f 340/398/116 333/399/117 682/400/118 687/401/119
f 371/402/120 366/403/121 680/404/122 679/405/123
f 685/406/124 678/407/30 333/399/117 340/398/116
f 369/408/125 367/409/126 332/410/127 338/411/128
f 345/412/129 330/395/113 676/413/48 683/414/130
f 358/389/107 344/415/131 684/416/132 662/417/133
f 344/415/131 345/412/129 683/414/130 684/416/132
f 375/418/134 368/419/135 686/420/136 355/421/137
f 368/419/135 369/408/125 338/411/128 686/420/136
f 664/422/138 339/423/139 341/424/140 356/425/141
f 339/423/139 685/406/124 340/398/116 341/424/140
f 374/426/142 370/427/143 690/428/144 689/429/145
f 370/427/143 371/402/120 679/405/123 690/428/144
f 356/425/141 341/424/140 688/430/146 670/431/147
f 341/424/140 340/398/116 687/401/119 688/430/146
f 330/395/113 345/412/129 347/432/148 334/396/114
f 345/412/129 344/415/131 346/433/149 347/432/148
f 321/362/91 348/361/90 349/397/115 327/434/97
f 333/399/117 352/372/95 681/388/106 682/400/118
f 366/403/121 372/383/103 668/386/104 680/404/122
f 678/407/30 677/369/30 352/372/95 333/399/117
f 367/409/126 373/365/92 351/368/93 332/410/127
f 330/395/113 348/361/90 675/364/48 676/413/48
f 324/435/150 356/425/141 670/431/147 671/436/151
f 364/437/152 374/426/142 689/429/145 326/438/153
f 665/439/154 664/422/138 356/425/141 324/435/150
f 663/440/155 375/418/134 355/421/137 325/441/156
f 320/390/108 358/389/107 662/417/133 658/442/157
f 344/415/131 358/389/107 359/392/110 346/433/149
f 659/443/158 354/444/159 375/418/134 663/440/155
f 329/445/160 357/446/161 374/426/142 364/437/152
f 331/447/162 350/448/43 373/365/92 367/409/126
f 335/449/163 353/450/103 372/383/103 366/403/121
f 343/451/164 342/452/165 371/402/120 370/427/143
f 357/446/161 343/451/164 370/427/143 374/426/142
f 337/453/166 336/454/167 369/408/125 368/419/135
f 354/444/159 337/453/166 368/419/135 375/418/134
f 336/454/167 331/447/162 367/409/126 369/408/125
f 342/452/165 335/449/163 366/403/121 371/402/120
f 320/390/108 362/380/102 673/394/112 692/391/109
f 353/450/103 328/455/33 365/384/33 372/383/103
f 701/456/42 693/381/42 363/373/96 377/371/94
f 322/457/168 360/377/99 362/380/102 320/390/108
f 377/371/94 363/373/96 674/376/98 691/387/105
f 350/448/43 323/458/43 361/366/43 373/365/92
f 404/459/90 696/460/91 697/461/48 713/462/48
f 429/463/43 417/464/43 737/465/43 407/466/43
f 715/467/30 738/468/30 433/469/94 408/470/169
f 419/471/96 696/472/91 383/473/97 712/474/98
f 416/475/170 706/476/171 380/477/172 418/478/173
f 731/479/42 698/480/42 696/472/91 419/471/96
f 428/481/33 421/482/33 708/483/33 707/484/33
f 408/470/169 433/469/94 729/485/105 719/486/174
f 414/487/175 376/488/176 730/489/177 415/490/178
f 418/478/173 380/477/172 710/491/179 711/492/180
f 404/459/90 386/493/181 390/494/182 405/495/115
f 396/496/183 389/497/184 720/498/185 725/499/186
f 427/500/187 422/501/188 718/502/189 717/503/190
f 723/504/30 716/505/30 389/497/184 396/496/183
f 425/506/191 423/507/192 388/508/193 394/509/194
f 401/510/195 386/493/181 714/511/48 721/512/196
f 414/487/175 400/513/197 722/514/198 702/515/199
f 400/513/197 401/510/195 721/512/196 722/514/198
f 431/516/200 424/517/201 724/518/202 411/519/203
f 424/517/201 425/506/191 394/509/194 724/518/202
f 704/520/30 395/521/30 397/522/204 412/523/205
f 395/521/30 723/504/30 396/496/183 397/522/204
f 430/524/206 426/525/207 728/526/208 727/527/209
f 426/525/207 427/500/187 717/503/190 728/526/208
f 412/523/205 397/522/204 726/528/210 709/529/211
f 397/522/204 396/496/183 725/499/186 726/528/210
f 386/493/181 401/510/195 403/530/212 390/494/182
f 401/510/195 400/513/197 402/531/213 403/530/212
f 696/460/91 404/459/90 405/495/115 383/532/97
f 389/497/184 408/470/169 719/486/174 720/498/185
f 422/501/188 428/481/33 707/484/33 718/502/189
f 716/505/30 715/467/30 408/470/169 389/497/184
f 423/507/192 429/463/43 407/466/43 388/508/193
f 386/493/181 404/459/90 713/462/48 714/511/48
f 380/477/172 412/523/205 709/529/211 710/491/179
f 420/533/214 430/524/206 727/527/209 382/534/215
f 705/535/30 704/520/30 412/523/205 380/477/172
f 703/536/216 431/516/200 411/519/203 381/537/217
f 376/488/176 414/487/175 702/515/199 694/538/218
f 400/513/197 414/487/175 415/490/178 402/531/213
f 695/539/219 410/540/220 431/516/200 703/536/216
f 385/541/221 413/542/222 430/524/206 420/533/214
f 387/543/223 406/544/43 429/463/43 423/507/192
f 391/545/224 409/546/33 428/481/33 422/501/188
f 399/547/225 398/548/226 427/500/187 426/525/207
f 413/542/222 399/547/225 426/525/207 430/524/206
f 393/549/227 392/550/228 425/506/191 424/517/201
f 410/540/220 393/549/227 424/517/201 431/516/200
f 392/550/228 387/543/223 423/507/192 425/506/191
f 398/548/226 391/545/224 422/501/188 427/500/187
f 376/488/176 418/478/173 711/492/180 730/489/177
f 409/546/33 384/551/33 421/482/33 428/481/33
f 739/552/42 731/479/42 419/471/96 433/469/94
f 378/553/229 416/475/170 418/478/173 376/488/176
f 433/469/94 419/471/96 712/474/98 729/485/105
f 406/544/43 379/554/43 417/464/43 429/463/43
f 460/555/90 734/556/91 735/557/48 753/558/48
f 485/559/43 473/560/43 778/561/43 463/562/43
f 755/563/30 779/564/30 489/565/94 464/566/169
f 475/567/96 734/568/91 439/569/97 752/570/98
f 472/571/230 744/572/231 745/573/232 474/574/233
f 771/575/42 736/576/42 734/568/91 475/567/96
f 484/577/33 477/578/33 747/579/33 746/580/33
f 464/566/169 489/565/94 769/581/105 759/582/174
f 470/583/234 432/584/235 770/585/236 471/586/237
f 474/574/233 745/573/232 750/587/238 751/588/239
f 460/555/90 442/589/240 446/590/241 461/591/115
f 452/592/242 445/593/243 760/594/244 765/595/245
f 483/596/246 478/597/247 758/598/248 757/599/249
f 763/600/30 756/601/30 445/593/243 452/592/242
f 481/602/250 479/603/251 444/604/252 450/605/253
f 457/606/254 442/589/240 754/607/48 761/608/48
f 470/583/234 456/609/255 762/610/48 740/611/48
f 456/609/255 457/606/254 761/608/48 762/610/48
f 487/612/256 480/613/257 764/614/258 467/615/259
f 480/613/257 481/602/250 450/605/253 764/614/258
f 742/616/30 451/617/30 453/618/260 468/619/261
f 451/617/30 763/600/30 452/592/242 453/618/260
f 486/620/262 482/621/263 768/622/264 767/623/265
f 482/621/263 483/596/246 757/599/249 768/622/264
f 468/619/261 453/618/260 766/624/266 748/625/267
f 453/618/260 452/592/242 765/595/245 766/624/266
f 442/589/240 457/606/254 459/626/268 446/590/241
f 457/606/254 456/609/255 458/627/269 459/626/268
f 734/556/91 460/555/90 461/591/115 439/628/97
f 445/593/243 464/566/169 759/582/174 760/594/244
f 478/597/247 484/577/33 746/580/33 758/598/248
f 756/601/30 755/563/30 464/566/169 445/593/243
f 479/603/251 485/559/43 463/562/43 444/604/252
f 442/589/240 460/555/90 753/558/48 754/607/48
f 436/629/270 468/619/261 748/625/267 749/630/271
f 476/631/272 486/620/262 767/623/265 438/632/273
f 743/633/30 742/616/30 468/619/261 436/629/270
f 741/634/274 487/612/256 467/615/259 437/635/275
f 432/584/235 470/583/234 740/611/48 732/636/48
f 456/609/255 470/583/234 471/586/237 458/627/269
f 733/637/276 466/638/277 487/612/256 741/634/274
f 441/639/278 469/640/279 486/620/262 476/631/272
f 443/641/280 462/642/43 485/559/43 479/603/251
f 447/643/281 465/644/33 484/577/33 478/597/247
f 455/645/282 454/646/283 483/596/246 482/621/263
f 469/640/279 455/645/282 482/621/263 486/620/262
f 449/647/284 448/648/285 481/602/250 480/613/257
f 466/638/277 449/647/284 480/613/257 487/612/256
f 448/648/285 443/641/280 479/603/251 481/602/250
f 454/646/283 447/643/281 478/597/247 483/596/246
f 432/584/235 474/574/233 751/588/239 770/585/236
f 465/644/33 440/649/33 477/578/33 484/577/33
f 780/650/42 771/575/42 475/567/96 489/565/94
f 434/651/286 472/571/230 474/574/233 432/584/235
f 489/565/94 475/567/96 752/570/98 769/581/105
f 462/642/43 435/652/43 473/560/43 485/559/43
f 517/653/90 775/654/91 776/655/48 794/656/48
f 542/657/43 530/658/43 843/659/43 520/660/287
f 796/661/30 844/662/30 890/663/94 521/664/288
f 532/665/96 775/666/91 496/667/97 791/668/98
f 529/669/289 785/670/52 492/671/290 531/672/291
f 811/673/42 777/674/42 775/666/91 532/665/96
f 541/675/33 534/676/33 787/677/33 786/678/33
f 521/664/288 890/663/94 810/679/105 800/680/292
f 527/681/293 774/682/294 792/683/295 528/684/296
f 531/672/291 492/671/290 789/685/297 790/686/298
f 517/653/90 499/687/299 503/688/300 518/689/115
f 509/690/301 502/691/302 801/692/303 806/693/304
f 540/694/305 535/695/306 799/696/307 798/697/308
f 804/698/30 797/699/30 502/691/302 509/690/301
f 538/700/309 536/701/310 501/702/311 507/703/312
f 514/704/313 499/687/299 795/705/48 802/706/48
f 527/681/293 513/707/314 803/708/48 781/709/48
f 513/707/314 514/704/313 802/706/48 803/708/48
f 544/710/315 537/711/316 805/712/317 524/713/318
f 537/711/316 538/700/309 507/703/312 805/712/317
f 783/714/30 508/715/30 510/716/319 525/717/320
f 508/715/30 804/698/30 509/690/301 510/716/319
f 543/718/321 539/719/322 809/720/323 808/721/324
f 539/719/322 540/694/305 798/697/308 809/720/323
f 525/717/320 510/716/319 807/722/325 788/723/326
f 510/716/319 509/690/301 806/693/304 807/722/325
f 499/687/299 514/704/313 516/724/327 503/688/300
f 514/704/313 513/707/314 515/725/328 516/724/327
f 775/654/91 517/653/90 518/689/115 496/726/97
f 502/691/302 521/664/288 800/680/292 801/692/303
f 535/695/306 541/675/33 786/678/33 799/696/307
f 797/699/30 796/661/30 521/664/288 502/691/302
f 536/701/310 542/657/43 520/660/287 501/702/311
f 499/687/299 517/653/90 794/656/48 795/705/48
f 492/671/290 525/717/320 788/723/326 789/685/297
f 533/727/329 543/718/321 808/721/324 793/728/330
f 784/729/30 783/714/30 525/717/320 492/671/290
f 782/730/331 544/710/315 524/713/318 494/731/332
f 774/682/294 527/681/293 781/709/48 772/732/48
f 513/707/314 527/681/293 528/684/296 515/725/328
f 773/733/333 523/734/334 544/710/315 782/730/331
f 498/735/335 526/736/336 543/718/321 533/727/329
f 500/737/337 519/738/43 542/657/43 536/701/310
f 504/739/338 522/740/33 541/675/33 535/695/306
f 512/741/339 511/742/340 540/694/305 539/719/322
f 526/736/336 512/741/339 539/719/322 543/718/321
f 506/743/341 505/744/342 538/700/309 537/711/316
f 523/734/334 506/743/341 537/711/316 544/710/315
f 505/744/342 500/737/337 536/701/310 538/700/309
f 511/742/340 504/739/338 535/695/306 540/694/305
f 488/745/343 531/672/291 790/686/298 495/746/344
f 522/740/33 497/747/33 534/676/33 541/675/33
f 845/748/42 811/673/42 532/665/96 890/663/94
f 490/749/345 529/669/289 531/672/291 488/745/343
f 890/663/94 532/665/96 791/668/98 810/679/105
f 519/738/43 491/750/43 530/658/43 542/657/43
f 573/751/90 493/752/91 841/753/48 825/754/48
f 598/755/346 586/756/43 886/757/43 576/758/347
f 827/759/30 887/760/30 891/761/94 577/762/348
f 588/763/96 493/764/91 552/765/97 824/766/98
f 585/767/52 818/768/52 548/769/349 587/770/350
f 848/771/42 842/772/42 493/764/91 588/763/96
f 597/773/351 590/774/33 820/775/33 819/776/352
f 577/762/348 891/761/94 846/777/105 831/778/353
f 583/779/354 545/780/355 847/781/356 584/782/357
f 587/770/350 548/769/349 822/783/358 823/784/359
f 573/751/90 555/785/360 559/786/361 574/787/362
f 565/788/363 558/789/364 832/790/365 837/791/366
f 596/792/367 591/793/368 830/794/369 829/795/370
f 835/796/30 828/797/30 558/789/364 565/788/363
f 594/798/371 592/799/372 557/800/373 563/801/374
f 570/802/375 555/785/360 826/803/48 833/804/48
f 583/779/354 569/805/376 834/806/48 814/807/48
f 569/805/376 570/802/375 833/804/48 834/806/48
f 600/808/377 593/809/378 836/810/379 580/811/380
f 593/809/378 594/798/371 563/801/374 836/810/379
f 816/812/30 564/813/30 566/814/381 581/815/382
f 564/813/30 835/796/30 565/788/363 566/814/381
f 599/816/383 595/817/384 840/818/385 839/819/386
f 595/817/384 596/792/367 829/795/370 840/818/385
f 581/815/382 566/814/381 838/820/387 821/821/388
f 566/814/381 565/788/363 837/791/366 838/820/387
f 555/785/360 570/802/375 572/822/389 559/786/361
f 570/802/375 569/805/376 571/823/390 572/822/389
f 493/752/91 573/751/90 574/787/362 552/824/97
f 558/789/364 577/762/348 831/778/353 832/790/365
f 591/793/368 597/773/351 819/776/352 830/794/369
f 828/797/30 827/759/30 577/762/348 558/789/364
f 592/799/372 598/755/346 576/758/347 557/800/373
f 555/785/360 573/751/90 825/754/48 826/803/48
f 548/769/349 581/815/382 821/821/388 822/783/358
f 589/825/391 599/816/383 839/819/386 551/826/392
f 817/827/30 816/812/30 581/815/382 548/769/349
f 815/828/393 600/808/377 580/811/380 550/829/394
f 545/780/355 583/779/354 814/807/48 812/830/48
f 569/805/376 583/779/354 584/782/357 571/823/390
f 813/831/395 579/832/396 600/808/377 815/828/393
f 554/833/397 582/834/398 599/816/383 589/825/391
f 556/835/399 575/836/400 598/755/346 592/799/372
f 560/837/401 578/838/402 597/773/351 591/793/368
f 568/839/403 567/840/404 596/792/367 595/817/384
f 582/834/398 568/839/403 595/817/384 599/816/383
f 562/841/405 561/842/406 594/798/371 593/809/378
f 579/832/396 562/841/405 593/809/378 600/808/377
f 561/842/406 556/835/399 592/799/372 594/798/371
f 567/840/404 560/837/401 591/793/368 596/792/367
f 545/780/355 587/770/350 823/784/359 847/781/356
f 578/838/402 553/843/33 590/774/33 597/773/351
f 888/844/42 848/771/42 588/763/96 891/761/94
f 546/845/52 585/767/52 587/770/350 545/780/355
f 891/761/94 588/763/96 824/766/98 846/777/105
f 575/836/400 547/846/43 586/756/43 598/755/346
f 630/847/407 549/848/91 884/849/48 868/850/48
f 655/851/408 854/852/43 855/853/43 633/854/409
f 870/855/30 856/856/30 605/857/94 634/858/169
f 645/859/96 549/860/91 609/861/97 865/862/98
f 642/863/52 859/864/52 604/865/410 644/866/411
f 643/867/42 885/868/42 549/860/91 645/859/96
f 654/869/412 647/870/33 861/871/33 860/872/413
f 634/858/169 605/857/94 889/873/105 874/874/414
f 640/875/415 851/876/416 866/877/417 641/878/418
f 644/866/411 604/865/410 863/879/419 864/880/420
f 630/847/407 612/881/421 616/882/422 631/883/423
f 622/884/424 615/885/425 875/886/426 880/887/427
f 653/888/428 648/889/429 873/890/430 872/891/431
f 878/892/30 871/893/30 615/885/425 622/884/424
f 651/894/432 649/895/433 614/896/434 620/897/435
f 627/898/436 612/881/421 869/899/48 876/900/48
f 640/875/415 626/901/437 877/902/48 852/903/48
f 626/901/437 627/898/436 876/900/48 877/902/48
f 657/904/438 650/905/439 879/906/440 637/907/441
f 650/905/439 651/894/432 620/897/435 879/906/440
f 857/908/30 621/909/30 623/910/442 638/911/443
f 621/909/30 878/892/30 622/884/424 623/910/442
f 656/912/444 652/913/445 883/914/446 882/915/447
f 652/913/445 653/888/428 872/891/431 883/914/446
f 638/911/443 623/910/442 881/916/448 862/917/449
f 623/910/442 622/884/424 880/887/427 881/916/448
f 612/881/421 627/898/436 629/918/450 616/882/422
f 627/898/436 626/901/437 628/919/451 629/918/450
f 549/848/91 630/847/407 631/883/423 609/920/97
f 615/885/425 634/858/169 874/874/414 875/886/426
f 648/889/429 654/869/412 860/872/413 873/890/430
f 871/893/30 870/855/30 634/858/169 615/885/425
f 649/895/433 655/851/408 633/854/409 614/896/434
f 612/881/421 630/847/407 868/850/48 869/899/48
f 604/865/410 638/911/443 862/917/449 863/879/419
f 646/921/452 656/912/444 882/915/447 867/922/453
f 858/923/30 857/908/30 638/911/443 604/865/410
f 853/924/454 657/904/438 637/907/441 606/925/455
f 851/876/416 640/875/415 852/903/48 849/926/48
f 626/901/437 640/875/415 641/878/418 628/919/451
f 850/927/456 636/928/457 657/904/438 853/924/454
f 611/929/458 639/930/459 656/912/444 646/921/452
f 613/931/460 632/932/461 655/851/408 649/895/433
f 617/933/462 635/934/463 654/869/412 648/889/429
f 625/935/464 624/936/465 653/888/428 652/913/445
f 639/930/459 625/935/464 652/913/445 656/912/444
f 619/937/466 618/938/467 651/894/432 650/905/439
f 636/928/457 619/937/466 650/905/439 657/904/438
f 618/938/467 613/931/460 649/895/433 651/894/432
f 624/936/465 617/933/462 648/889/429 653/888/428
f 601/939/468 644/866/411 864/880/420 608/940/469
f 635/934/463 610/941/33 647/870/33 654/869/412
f 607/942/42 643/867/42 645/859/96 605/857/94
f 602/943/52 642/863/52 644/866/411 601/939/468
f 605/857/94 645/859/96 865/862/98 889/873/105
f 632/932/461 603/944/43 854/852/43 655/851/408
