# This file uses centimeters as units for non-parametric coordinates.

mtllib DetectorMetales_Model.mtl
g default
v -11.901404 0.026730 36.202574
v -11.901404 0.091221 36.267066
v -11.965895 0.091221 36.202574
v -7.909092 0.091221 36.202574
v -7.973582 0.091221 36.267066
v -7.973582 0.026730 36.202574
v -11.965895 0.220227 36.202574
v -11.901404 0.220227 36.267066
v -11.901404 0.284718 36.202574
v -7.973582 0.284718 36.202574
v -7.973582 0.220227 36.267066
v -7.909092 0.220227 36.202574
v -11.965895 0.220227 14.440655
v -11.901404 0.284718 14.440655
v -11.901404 0.220227 14.376164
v -7.973582 0.220227 14.376164
v -7.973582 0.284718 14.440655
v -7.909092 0.220227 14.440655
v -11.965895 0.091221 14.440655
v -11.901404 0.091221 14.376164
v -11.901404 0.026730 14.440655
v -7.973582 0.026730 14.440655
v -7.973582 0.091221 14.376164
v -7.909092 0.091221 14.440655
vt 0.124695 0.971389
vt 0.124695 0.512164
vt 0.127417 0.512164
vt 0.127417 0.971389
vt 0.123334 0.971389
vt 0.123334 0.512164
vt 0.127417 0.510803
vt 0.124695 0.510803
vt 0.128778 0.971389
vt 0.128778 0.512164
vt 0.124695 0.972750
vt 0.127417 0.972750
vt 0.029997 0.971389
vt 0.029997 0.512164
vt 0.032719 0.512164
vt 0.032719 0.971389
vt 0.028636 0.512164
vt 0.028636 0.971389
vt 0.029997 0.510803
vt 0.032719 0.510803
vt 0.034080 0.512164
vt 0.034080 0.971389
vt 0.032719 0.972750
vt 0.029997 0.972750
vt 0.131858 0.512164
vt 0.214744 0.512164
vt 0.214744 0.971389
vt 0.131858 0.971389
vt 0.131858 0.510803
vt 0.214744 0.510803
vt 0.131858 0.972750
vt 0.214744 0.972750
vt 0.037245 0.512164
vt 0.120131 0.512164
vt 0.120131 0.971389
vt 0.037245 0.971389
vt 0.037245 0.510803
vt 0.120131 0.510803
vt 0.037245 0.972750
vt 0.120131 0.972750
vt 0.217947 0.593689
vt 0.217947 0.510803
vt 0.220670 0.510803
vt 0.220670 0.593689
vt 0.223914 0.593689
vt 0.223914 0.510804
vt 0.226636 0.510804
vt 0.226636 0.593689
vn -0.707104 -0.707109 0.000000
vn -0.707104 -0.707109 0.000000
vn -0.707104 -0.707109 0.000000
vn -0.707104 -0.707109 0.000000
vn 0.000000 -0.707113 0.707100
vn 0.000000 -0.707113 0.707100
vn 0.000000 -0.707113 0.707100
vn 0.000000 -0.707113 0.707100
vn -0.707110 0.000000 0.707104
vn -0.707110 0.000000 0.707104
vn -0.707110 0.000000 0.707104
vn -0.707110 0.000000 0.707104
vn 0.707107 -0.707106 0.000000
vn 0.707107 -0.707106 0.000000
vn 0.707107 -0.707106 0.000000
vn 0.707107 -0.707106 0.000000
vn 0.707114 0.000000 0.707100
vn 0.707114 0.000000 0.707100
vn 0.707114 0.000000 0.707100
vn 0.707114 0.000000 0.707100
vn -0.707104 0.707109 0.000000
vn -0.707104 0.707109 0.000000
vn -0.707104 0.707109 0.000000
vn -0.707104 0.707109 0.000000
vn 0.000000 0.707113 0.707100
vn 0.000000 0.707113 0.707100
vn 0.000000 0.707113 0.707100
vn 0.000000 0.707113 0.707100
vn 0.707107 0.707106 0.000000
vn 0.707107 0.707106 0.000000
vn 0.707107 0.707106 0.000000
vn 0.707107 0.707106 0.000000
vn -0.707104 0.000000 -0.707109
vn -0.707104 0.000000 -0.707109
vn -0.707104 0.000000 -0.707109
vn -0.707104 0.000000 -0.707109
vn 0.000000 0.707106 -0.707108
vn 0.000000 0.707106 -0.707108
vn 0.000000 0.707106 -0.707108
vn 0.000000 0.707106 -0.707108
vn 0.707108 0.000000 -0.707105
vn 0.707108 0.000000 -0.707105
vn 0.707108 0.000000 -0.707105
vn 0.707108 0.000000 -0.707105
vn 0.000000 -0.707106 -0.707108
vn 0.000000 -0.707106 -0.707108
vn 0.000000 -0.707106 -0.707108
vn 0.000000 -0.707106 -0.707108
vn 0.000000 0.000000 1.000000
vn 0.000000 0.000000 1.000000
vn 0.000000 0.000000 1.000000
vn 0.000000 0.000000 1.000000
vn 0.000000 1.000000 0.000000
vn 0.000000 1.000000 0.000000
vn 0.000000 1.000000 0.000000
vn 0.000000 1.000000 0.000000
vn 0.000000 0.000000 -1.000000
vn 0.000000 0.000000 -1.000000
vn 0.000000 0.000000 -1.000000
vn 0.000000 0.000000 -1.000000
vn 0.000000 -1.000000 0.000000
vn 0.000000 -1.000000 0.000000
vn 0.000000 -1.000000 0.000000
vn 0.000000 -1.000000 0.000000
vn 1.000000 0.000000 0.000000
vn 1.000000 0.000000 0.000000
vn 1.000000 0.000000 0.000000
vn 1.000000 0.000000 0.000000
vn -1.000000 0.000000 0.000000
vn -1.000000 0.000000 0.000000
vn -1.000000 0.000000 0.000000
vn -1.000000 0.000000 0.000000
vn -0.577347 -0.577358 0.577346
vn -0.577347 -0.577358 0.577346
vn -0.577347 -0.577358 0.577346
vn 0.577351 -0.577356 0.577344
vn 0.577351 -0.577356 0.577344
vn 0.577351 -0.577356 0.577344
vn -0.577347 0.577358 0.577346
vn -0.577347 0.577358 0.577346
vn -0.577347 0.577358 0.577346
vn 0.577351 0.577356 0.577344
vn 0.577351 0.577356 0.577344
vn 0.577351 0.577356 0.577344
vn -0.577339 0.577355 -0.577357
vn -0.577339 0.577355 -0.577357
vn -0.577339 0.577355 -0.577357
vn 0.577343 0.577353 -0.577355
vn 0.577343 0.577353 -0.577355
vn 0.577343 0.577353 -0.577355
vn -0.577339 -0.577355 -0.577357
vn -0.577339 -0.577355 -0.577357
vn -0.577339 -0.577355 -0.577357
vn 0.577343 -0.577352 -0.577355
vn 0.577343 -0.577352 -0.577355
vn 0.577343 -0.577352 -0.577355
s off
g pCube4
usemtl initialShadingGroup
f 1/17/1 3/14/2 19/13/3 21/18/4
f 2/39/5 1/36/6 6/35/7 5/40/8
f 3/14/9 2/19/10 8/20/11 7/15/12
f 4/1/13 6/5/14 22/6/15 24/2/16
f 5/11/17 4/1/18 12/4/19 11/12/20
f 7/15/21 9/21/22 14/22/23 13/16/24
f 9/25/25 8/29/26 11/30/27 10/26/28
f 10/9/29 12/4/30 18/3/31 17/10/32
f 13/16/33 15/23/34 20/24/35 19/13/36
f 15/31/37 14/28/38 17/27/39 16/32/40
f 16/7/41 18/3/42 24/2/43 23/8/44
f 21/33/45 20/37/46 23/38/47 22/34/48
f 2/41/49 5/42/50 11/43/51 8/44/52
f 9/25/53 10/26/54 17/27/55 14/28/56
f 15/45/57 16/46/58 23/47/59 20/48/60
f 21/33/61 22/34/62 6/35/63 1/36/64
f 4/1/65 24/2/66 18/3/67 12/4/68
f 19/13/69 3/14/70 7/15/71 13/16/72
f 1/17/73 2/19/74 3/14/75
f 4/1/76 5/11/77 6/5/78
f 7/15/79 8/20/80 9/21/81
f 10/9/82 11/12/83 12/4/84
f 13/16/85 14/22/86 15/23/87
f 16/7/88 17/10/89 18/3/90
f 19/13/91 20/24/92 21/18/93
f 22/6/94 23/8/95 24/2/96
g default
v -7.319107 0.555533 27.094009
v -7.319107 0.555533 23.549229
v -6.900630 0.555533 27.094009
v -6.900630 0.555533 23.549229
v -6.900630 9.309647 27.094009
v -6.900630 9.309647 23.549229
v -7.318446 9.309647 27.094009
v -7.318446 9.309647 23.549229
v -6.900630 7.987250 27.094009
v -7.319107 7.988956 27.094009
v -7.319107 7.988956 23.549229
v -6.900630 7.987250 23.549229
v -9.570711 9.309647 27.094009
v -9.570711 9.309647 23.549229
v -12.518769 0.555533 23.549229
v -12.518769 0.555533 27.094009
v -12.937246 0.555533 23.549229
v -12.937246 0.555533 27.094009
v -12.937246 9.309647 23.549229
v -12.937246 9.309647 27.094009
v -12.518769 9.309647 23.549229
v -12.518769 9.309647 27.094009
v -12.937246 7.987250 23.549229
v -12.518769 7.988956 23.549229
v -12.518769 7.988956 27.094009
v -12.937246 7.987250 27.094009
v -10.097317 9.309647 23.549229
v -10.097317 9.309647 27.094009
v -8.704420 8.957661 27.094009
v -8.704729 8.340943 27.094009
v -11.132793 8.957661 27.094009
v -11.132793 8.340943 27.094009
v -8.704420 8.957661 27.094009
v -8.704729 8.340943 27.094009
v -11.132793 8.957661 27.094009
v -11.132793 8.340943 27.094009
v -8.704420 8.957661 27.216589
v -8.704729 8.340943 27.216589
v -11.132793 8.957661 27.216589
v -11.132793 8.340943 27.216589
v -7.682121 0.022628 27.094009
v -7.682121 0.022628 23.549229
v -6.531726 0.022628 23.549229
v -6.531726 0.022628 27.094009
v -12.155755 0.022628 23.549229
v -12.155755 0.022628 27.094009
v -13.306150 0.022628 27.094009
v -13.306150 0.022628 23.549229
v -6.900630 8.172616 24.406487
v -6.900630 8.172616 26.236752
v -6.900630 9.124280 24.406487
v -6.900630 9.124280 26.236752
v -6.837071 8.172616 24.406487
v -6.837071 8.172616 26.236752
v -6.837071 9.124280 24.406487
v -6.837071 9.124280 26.236752
v -6.837071 8.266092 24.921146
v -6.837071 8.266092 25.722092
v -6.837071 9.030805 24.921146
v -6.837071 9.030805 25.722092
v -6.750632 8.266092 24.921146
v -6.750632 8.266092 25.722092
v -6.750632 9.030805 24.921146
v -6.750632 9.030805 25.722092
vt 0.720154 0.186852
vt 0.905983 0.186852
vt 0.905983 0.576448
vt 0.720154 0.576448
vt 0.720154 0.158916
vt 0.905983 0.158916
vt 0.861043 0.586165
vt 0.765094 0.586165
vt 0.905983 0.645772
vt 0.861043 0.636055
vt 0.720154 0.645772
vt 0.765094 0.636055
vt 0.902328 0.970147
vt 0.814362 0.970147
vt 0.814362 0.785682
vt 0.902328 0.785682
vt 0.814362 0.772458
vt 0.902328 0.772458
vt 0.197600 0.374303
vt 0.197600 0.328696
vt 0.241143 0.328696
vt 0.241143 0.374303
vt 0.728596 0.469813
vt 0.914425 0.469813
vt 0.914425 0.859409
vt 0.728596 0.859409
vt 0.728596 0.441877
vt 0.914425 0.441877
vt 0.914425 0.928733
vt 0.728596 0.928733
vt 0.811458 0.970147
vt 0.723492 0.970147
vt 0.723492 0.785682
vt 0.811458 0.785682
vt 0.723492 0.772458
vt 0.811458 0.772458
vt 0.176758 0.429000
vt 0.176758 0.464117
vt 0.169778 0.464117
vt 0.169778 0.429000
vt 0.180532 0.464117
vt 0.180532 0.429000
vt 0.187512 0.429000
vt 0.187512 0.464117
vt 0.392111 0.459378
vt 0.392111 0.355161
vt 0.397434 0.384466
vt 0.397434 0.430073
vt 0.446300 0.355161
vt 0.440978 0.384466
vt 0.446300 0.459378
vt 0.440978 0.430073
vt 0.636272 0.740705
vt 0.636272 0.554876
vt 0.696580 0.554876
vt 0.696580 0.740705
vt 0.984400 0.553604
vt 0.984400 0.739433
vt 0.924092 0.739433
vt 0.924092 0.553604
vt 0.721198 0.392932
vt 0.721198 0.265992
vt 0.721198 0.238385
vt 0.721198 0.120314
vt 0.721198 0.098410
vt 0.907027 0.098410
vt 0.907027 0.120314
vt 0.907027 0.238385
vt 0.907027 0.265992
vt 0.907027 0.392932
vt 0.907027 0.414870
vt 0.721198 0.414870
vt 0.356362 0.543112
vt 0.542191 0.543112
vt 0.542191 0.815696
vt 0.356362 0.815696
vt 0.115379 0.325557
vt 0.115379 0.463831
vt 0.108399 0.463831
vt 0.108399 0.325557
vt 0.119605 0.463813
vt 0.119605 0.325557
vt 0.126585 0.325557
vt 0.126585 0.463813
vt 0.370942 0.459378
vt 0.370942 0.355161
vt 0.374561 0.355161
vt 0.374561 0.459378
vt 0.381527 0.459378
vt 0.381527 0.355161
vt 0.385146 0.355161
vt 0.385146 0.459378
vt 0.248861 0.374076
vt 0.248861 0.328470
vt 0.253783 0.328470
vt 0.253783 0.374076
vt 0.261562 0.374076
vt 0.261562 0.328470
vt 0.266484 0.328470
vt 0.266484 0.374076
vt 0.949072 0.511242
vt 0.949072 0.121557
vt 0.971010 0.121647
vt 0.971010 0.511242
vt 0.949107 0.052323
vt 0.971010 0.052323
vt 0.990349 0.539179
vt 0.930041 0.539179
vt 0.676488 0.121557
vt 0.676488 0.052323
vt 0.654550 0.121647
vt 0.654550 0.052323
vt 0.676488 0.511242
vt 0.654550 0.511242
vt 0.695519 0.539179
vt 0.635211 0.539179
vt 0.609865 0.907315
vt 0.587927 0.907404
vt 0.587927 0.517719
vt 0.609865 0.517719
vt 0.587961 0.976639
vt 0.609865 0.976639
vt 0.568896 0.489783
vt 0.629204 0.489783
vt 0.515304 0.958187
vt 0.515288 0.925857
vt 0.315343 0.976639
vt 0.388001 0.958187
vt 0.315343 0.907404
vt 0.388001 0.925857
vt 0.293405 0.907315
vt 0.293405 0.976639
vt 0.315343 0.517719
vt 0.293405 0.517719
vt 0.274066 0.489783
vt 0.334374 0.489783
vt 0.130060 0.325575
vt 0.165177 0.325557
vt 0.165177 0.463831
vt 0.130060 0.463831
vt 0.453502 0.409350
vt 0.453502 0.355161
vt 0.457121 0.355161
vt 0.457121 0.409350
vt 0.464086 0.409349
vt 0.464086 0.355161
vt 0.467705 0.355161
vt 0.467705 0.409349
vt 0.274264 0.372013
vt 0.274264 0.328470
vt 0.279186 0.328470
vt 0.279186 0.372013
vt 0.286965 0.372013
vt 0.286965 0.328470
vt 0.291887 0.328470
vt 0.291887 0.372013
vn 0.000000 -1.000000 0.000000
vn 0.000000 -1.000000 0.000000
vn 0.000000 -1.000000 0.000000
vn 0.000000 -1.000000 0.000000
vn 1.000000 0.000000 0.000000
vn 1.000000 0.000000 0.000000
vn 1.000000 0.000000 0.000000
vn 1.000000 0.000000 0.000000
vn -1.000000 0.000000 0.000000
vn -1.000000 0.000000 0.000000
vn -1.000000 0.000000 0.000000
vn -1.000000 0.000000 0.000000
vn 0.000000 0.000000 -1.000000
vn 0.000000 0.000000 -1.000000
vn 0.000000 0.000000 -1.000000
vn 0.000000 0.000000 -1.000000
vn 0.000000 0.000000 1.000000
vn 0.000000 0.000000 1.000000
vn 0.000000 0.000000 1.000000
vn 0.000000 0.000000 1.000000
vn 0.000000 0.000000 1.000000
vn 0.000000 0.000000 1.000000
vn 0.000000 0.000000 -1.000000
vn 0.000000 0.000000 -1.000000
vn 1.000000 0.000000 0.000000
vn 1.000000 0.000000 0.000000
vn 1.000000 0.000000 0.000000
vn 1.000000 0.000000 0.000000
vn 0.000000 -1.000000 0.000000
vn 0.000000 -1.000000 0.000000
vn 0.000000 -1.000000 0.000000
vn 0.000000 -1.000000 0.000000
vn -1.000000 0.000000 0.000000
vn -1.000000 0.000000 0.000000
vn -1.000000 0.000000 0.000000
vn -1.000000 0.000000 0.000000
vn 1.000000 0.000000 0.000000
vn 1.000000 0.000000 0.000000
vn 1.000000 0.000000 0.000000
vn 1.000000 0.000000 0.000000
vn 0.000000 0.000000 1.000000
vn 0.000000 0.000000 1.000000
vn 0.000000 0.000000 1.000000
vn 0.000000 0.000000 1.000000
vn 0.000000 0.000000 -1.000000
vn 0.000000 0.000000 -1.000000
vn 0.000000 0.000000 -1.000000
vn 0.000000 0.000000 -1.000000
vn 0.000000 0.000000 -1.000000
vn 0.000000 0.000000 -1.000000
vn 0.000000 0.000000 1.000000
vn 0.000000 0.000000 1.000000
vn -1.000000 0.000000 0.000000
vn -1.000000 0.000000 0.000000
vn 0.000000 1.000000 -0.000000
vn 0.000000 1.000000 -0.000000
vn 0.000000 1.000000 -0.000000
vn 0.000000 1.000000 -0.000000
vn 0.000000 1.000000 -0.000000
vn 0.000000 1.000000 -0.000000
vn 0.000000 1.000000 -0.000000
vn 0.000000 1.000000 -0.000000
vn 0.000000 1.000000 -0.000000
vn 0.000000 1.000000 -0.000000
vn 0.000000 1.000000 -0.000000
vn 0.000000 1.000000 -0.000000
vn 0.000000 -1.000000 0.000000
vn 0.000000 -1.000000 0.000000
vn 0.000000 -1.000000 0.000000
vn 0.000000 -1.000000 0.000000
vn 0.000000 0.000000 1.000000
vn 0.000000 0.000000 1.000000
vn 0.000000 0.000000 1.000000
vn 0.000000 0.000000 1.000000
vn 0.000000 0.000000 -1.000000
vn 0.000000 0.000000 -1.000000
vn 0.000000 0.000000 -1.000000
vn 0.000000 0.000000 -1.000000
vn 0.000001 0.000000 1.000000
vn 0.000001 0.000000 1.000000
vn 0.000001 0.000000 1.000000
vn 0.000001 0.000000 1.000000
vn 0.000000 0.000000 1.000000
vn 0.000000 0.000000 1.000000
vn 0.000000 0.000000 1.000000
vn 0.000000 0.000000 1.000000
vn -0.000002 0.000000 1.000000
vn -0.000002 0.000000 1.000000
vn -0.000002 0.000000 1.000000
vn -0.000002 0.000000 1.000000
vn 0.000000 0.000000 1.000000
vn 0.000000 0.000000 1.000000
vn 0.000000 0.000000 1.000000
vn 0.000000 0.000000 1.000000
vn 0.000000 0.000000 0.000000
vn 0.000000 0.000000 0.000000
vn 0.000000 0.000000 0.000000
vn 0.000000 0.000000 0.000000
vn 0.000000 0.000000 0.000000
vn 0.000000 0.000000 0.000000
vn 0.000000 0.000000 0.000000
vn 0.000000 0.000000 0.000000
vn 0.000000 0.000000 0.000000
vn 0.000000 0.000000 0.000000
vn 0.000000 0.000000 0.000000
vn 0.000000 0.000000 0.000000
vn 0.000000 0.000000 0.000000
vn 0.000000 0.000000 0.000000
vn 0.000000 0.000000 0.000000
vn 0.000000 0.000000 0.000000
vn 1.000000 -0.000501 0.000000
vn 1.000000 -0.000501 0.000000
vn 1.000000 -0.000501 0.000000
vn 1.000000 -0.000501 0.000000
vn 0.000000 1.000000 0.000000
vn 0.000000 1.000000 0.000000
vn 0.000000 1.000000 0.000000
vn 0.000000 1.000000 0.000000
vn -1.000000 0.000000 0.000000
vn -1.000000 0.000000 0.000000
vn -1.000000 0.000000 0.000000
vn -1.000000 0.000000 0.000000
vn 0.000000 -1.000000 0.000000
vn 0.000000 -1.000000 0.000000
vn 0.000000 -1.000000 0.000000
vn 0.000000 -1.000000 0.000000
vn -0.826466 0.562987 0.000000
vn -0.826466 0.562987 0.000000
vn -0.826466 0.562987 0.000000
vn -0.826466 0.562987 0.000000
vn 0.000000 0.000000 -1.000000
vn 0.000000 0.000000 -1.000000
vn 0.000000 0.000000 -1.000000
vn 0.000000 0.000000 -1.000000
vn 0.822214 0.569179 0.000000
vn 0.822214 0.569179 0.000000
vn 0.822214 0.569179 0.000000
vn 0.822214 0.569179 0.000000
vn 0.000000 0.000000 1.000000
vn 0.000000 0.000000 1.000000
vn 0.000000 0.000000 1.000000
vn 0.000000 0.000000 1.000000
vn 0.826466 0.562986 0.000000
vn 0.826466 0.562986 0.000000
vn 0.826466 0.562986 0.000000
vn 0.826466 0.562986 0.000000
vn 0.000000 0.000000 1.000000
vn 0.000000 0.000000 1.000000
vn 0.000000 0.000000 1.000000
vn 0.000000 0.000000 1.000000
vn -0.822214 0.569179 0.000000
vn -0.822214 0.569179 0.000000
vn -0.822214 0.569179 0.000000
vn -0.822214 0.569179 0.000000
vn 0.000000 0.000000 -1.000000
vn 0.000000 0.000000 -1.000000
vn 0.000000 0.000000 -1.000000
vn 0.000000 0.000000 -1.000000
vn 1.000000 -0.000003 0.000000
vn 1.000000 -0.000003 0.000000
vn 1.000000 -0.000003 0.000000
vn 1.000000 -0.000003 0.000000
vn 1.000000 0.000000 0.000000
vn 1.000000 0.000000 0.000000
vn 1.000000 0.000000 0.000000
vn 1.000000 0.000000 0.000000
vn 1.000000 0.000003 0.000000
vn 1.000000 0.000003 0.000000
vn 1.000000 0.000003 0.000000
vn 1.000000 0.000003 0.000000
vn 1.000000 0.000000 0.000000
vn 1.000000 0.000000 0.000000
vn 1.000000 0.000000 0.000000
vn 1.000000 0.000000 0.000000
vn 0.000000 -1.000000 0.000000
vn 0.000000 -1.000000 0.000000
vn 0.000000 -1.000000 0.000000
vn 0.000000 -1.000000 0.000000
vn 0.000000 0.000000 -1.000000
vn 0.000000 0.000000 -1.000000
vn 0.000000 0.000000 -1.000000
vn 0.000000 0.000000 -1.000000
vn 0.000000 1.000000 0.000000
vn 0.000000 1.000000 0.000000
vn 0.000000 1.000000 0.000000
vn 0.000000 1.000000 0.000000
vn 0.000000 0.000000 1.000000
vn 0.000000 0.000000 1.000000
vn 0.000000 0.000000 1.000000
vn 0.000000 0.000000 1.000000
vn 1.000000 0.000002 0.000000
vn 1.000000 0.000002 0.000000
vn 1.000000 0.000002 0.000000
vn 1.000000 0.000002 0.000000
vn 1.000000 0.000000 0.000000
vn 1.000000 0.000000 0.000000
vn 1.000000 0.000000 0.000000
vn 1.000000 0.000000 0.000000
vn 1.000000 -0.000002 0.000000
vn 1.000000 -0.000002 0.000000
vn 1.000000 -0.000002 0.000000
vn 1.000000 -0.000002 0.000000
vn 1.000000 0.000000 0.000000
vn 1.000000 0.000000 0.000000
vn 1.000000 0.000000 0.000000
vn 1.000000 0.000000 0.000000
vn 0.000000 -1.000000 0.000000
vn 0.000000 -1.000000 0.000000
vn 0.000000 -1.000000 0.000000
vn 0.000000 -1.000000 0.000000
vn 0.000000 0.000000 -1.000000
vn 0.000000 0.000000 -1.000000
vn 0.000000 0.000000 -1.000000
vn 0.000000 0.000000 -1.000000
vn 0.000000 1.000000 0.000000
vn 0.000000 1.000000 0.000000
vn 0.000000 1.000000 0.000000
vn 0.000000 1.000000 0.000000
vn 0.000000 0.000000 1.000000
vn 0.000000 0.000000 1.000000
vn 0.000000 0.000000 1.000000
vn 0.000000 0.000000 1.000000
s off
g pCube8
usemtl initialShadingGroup
f 65/101/97 66/102/98 67/103/99 68/104/100
f 27/49/101 28/50/102 36/51/103 33/52/104
f 34/61/105 35/62/106 26/63/107 25/64/108
s 1
f 26/149/109 35/150/110 36/151/111 28/152/112
s 2
f 33/165/113 34/166/114 25/167/115 27/168/116
f 31/169/117 34/166/114 33/165/113 29/170/118
s 1
f 36/151/111 35/150/110 32/153/119 30/154/120
s off
f 86/67/121 85/68/122 87/69/123 88/70/124
f 69/105/125 70/106/126 71/107/127 72/108/128
s 3
f 41/71/129 42/72/130 50/73/131 47/74/132
s off
f 48/79/133 49/80/134 40/81/135 39/82/136
s 4
f 40/181/137 49/177/138 50/179/139 42/182/140
s 5
f 47/159/141 48/157/142 39/161/143 41/162/144
f 45/158/145 48/157/142 47/159/141 43/160/146
s 4
f 50/179/139 49/177/138 46/175/147 44/180/148
s 3
f 47/74/132 50/73/131 44/77/149 43/78/150
s off
f 46/109/151 52/110/152 37/111/153 31/112/154 29/113/155 30/114/156 32/115/157 38/116/158 51/117/159 45/118/160 43/119/161 44/120/162
f 35/121/163 34/122/164 49/123/165 48/124/166
f 62/185/167 61/186/168 63/187/169 64/188/170
f 32/153/171 35/150/172 48/157/173 45/158/174
f 34/166/175 31/169/176 53/173/177 54/174/178
f 31/169/179 46/175/180 55/176/181 53/173/182
f 46/175/183 49/177/184 56/178/185 55/176/186
f 49/177/187 34/166/188 54/174/189 56/178/190
f 54//191 53//192 57//193 58//194
f 53//195 55//196 59//197 57//198
f 55//199 56//200 60//201 59//202
f 56//203 54//204 58//205 60//206
f 58/85/207 57/86/208 61/87/209 62/88/210
f 57/125/211 59/126/212 63/127/213 61/128/214
f 59/89/215 60/90/216 64/91/217 63/92/218
f 60/129/219 58/130/220 62/131/221 64/132/222
f 25/64/223 26/63/224 66/65/225 65/66/226
f 26/149/227 28/152/228 67/155/229 66/156/230
f 28/50/231 27/49/232 68/53/233 67/54/234
f 27/168/235 25/167/236 65/171/237 68/172/238
f 39/82/239 40/81/240 70/83/241 69/84/242
f 40/181/243 42/182/244 71/183/245 70/184/246
f 42/72/247 41/71/248 72/75/249 71/76/250
f 41/162/251 39/161/252 69/163/253 72/164/254
f 33/52/255 36/51/256 73/55/257 74/56/258
f 36/51/259 30/57/260 75/58/261 73/55/262
f 30/57/263 29/59/264 76/60/265 75/58/266
f 29/59/267 33/52/268 74/56/269 76/60/270
f 74/133/271 73/134/272 77/135/273 78/136/274
f 73/189/275 75/190/276 79/191/277 77/192/278
f 75/137/279 76/138/280 80/139/281 79/140/282
f 76/193/283 74/194/284 78/195/285 80/196/286
f 78/93/287 77/94/288 81/95/289 82/96/290
f 77/94/291 79/97/292 83/98/293 81/95/294
f 79/97/295 80/99/296 84/100/297 83/98/298
f 80/99/299 78/93/300 82/96/301 84/100/302
f 82/141/303 81/142/304 85/143/305 86/144/306
f 81/197/307 83/198/308 87/199/309 85/200/310
f 83/145/311 84/146/312 88/147/313 87/148/314
f 84/201/315 82/202/316 86/203/317 88/204/318
g default
v -17.443713 3.761603 27.030329
v -15.119914 3.761603 27.030329
v -17.443713 4.440465 27.030329
v -15.119914 4.440465 27.030329
v -17.443713 4.440465 23.612915
v -15.119914 4.440465 23.612915
v -17.443713 3.761603 23.612915
v -15.119914 3.761603 23.612915
v -17.266950 4.440465 26.770376
v -15.296678 4.440465 26.770376
v -15.296678 4.440465 23.872868
v -17.266950 4.440465 23.872868
v -17.266950 3.926867 26.770376
v -15.296678 3.926867 26.770376
v -15.296678 3.926867 23.872868
v -17.266950 3.926867 23.872868
v -18.026385 3.355446 30.110813
v -18.026385 3.460055 30.218792
v -18.133323 3.460055 30.110813
v -14.430305 3.460055 30.110813
v -14.537242 3.460055 30.218792
v -14.537242 3.355446 30.110813
v -18.133323 3.669314 30.110813
v -18.026385 3.669314 30.218792
v -18.026385 3.773923 30.110813
v -14.537242 3.773923 30.110813
v -14.537242 3.669314 30.218792
v -14.430305 3.669314 30.110813
v -18.133323 3.669314 20.532429
v -18.026385 3.773923 20.532429
v -18.026385 3.669314 20.424446
v -14.537242 3.669314 20.424446
v -14.537242 3.773923 20.532429
v -14.430305 3.669314 20.532429
v -18.133323 3.460055 20.532429
v -18.026385 3.460055 20.424446
v -18.026385 3.355446 20.532429
v -14.537242 3.355446 20.532429
v -14.537242 3.460055 20.424446
v -14.430305 3.460055 20.532429
v -17.876965 0.010439 29.924297
v -14.686662 0.010439 29.924297
v -17.876965 3.400135 29.924297
v -14.686662 3.400135 29.924297
v -17.876965 3.400135 20.718945
v -14.686662 3.400135 20.718945
v -17.876965 0.010439 20.718945
v -14.686662 0.010439 20.718945
vt 0.320681 0.267225
vt 0.320681 0.212802
vt 0.331492 0.212802
vt 0.331492 0.267225
vt 0.308055 0.267225
vt 0.308055 0.212802
vt 0.318866 0.212802
vt 0.318866 0.267225
vt 0.308960 0.153271
vt 0.308960 0.199414
vt 0.300781 0.199414
vt 0.300781 0.153271
vt 0.319336 0.153271
vt 0.319336 0.199414
vt 0.311156 0.199414
vt 0.311156 0.153271
vt 0.166995 0.183118
vt 0.166995 0.030581
vt 0.170327 0.030581
vt 0.170327 0.183118
vt 0.165329 0.183118
vt 0.165329 0.030581
vt 0.170327 0.028861
vt 0.166995 0.028861
vt 0.171993 0.183118
vt 0.171993 0.030581
vt 0.166995 0.184838
vt 0.170327 0.184838
vt 0.100649 0.183118
vt 0.100649 0.030581
vt 0.103982 0.030581
vt 0.103982 0.183118
vt 0.098983 0.030581
vt 0.098983 0.183118
vt 0.100649 0.028861
vt 0.103982 0.028861
vt 0.105648 0.030581
vt 0.105648 0.183118
vt 0.103982 0.184838
vt 0.100649 0.184838
vt 0.522599 0.184785
vt 0.522599 0.038189
vt 0.576580 0.038189
vt 0.576580 0.184785
vt 0.524502 0.332562
vt 0.524502 0.185966
vt 0.578484 0.185966
vt 0.578484 0.332562
vt 0.267291 0.153271
vt 0.298668 0.153271
vt 0.298668 0.199414
vt 0.267291 0.199414
vt 0.333306 0.212802
vt 0.370313 0.212802
vt 0.370313 0.267225
vt 0.333306 0.267225
vt 0.269234 0.222182
vt 0.306241 0.222182
vt 0.303426 0.226322
vt 0.272049 0.226322
vt 0.306241 0.276605
vt 0.303426 0.272465
vt 0.269234 0.276605
vt 0.272049 0.272465
vt 0.173975 0.030581
vt 0.229540 0.030581
vt 0.229540 0.183118
vt 0.173975 0.183118
vt 0.173975 0.028861
vt 0.229540 0.028861
vt 0.173975 0.184838
vt 0.229540 0.184838
vt 0.107687 0.030581
vt 0.163252 0.030581
vt 0.163252 0.183118
vt 0.107687 0.183118
vt 0.107687 0.028861
vt 0.163252 0.028861
vt 0.107687 0.184838
vt 0.163252 0.184838
vt 0.416538 0.038189
vt 0.467344 0.038189
vt 0.467344 0.184785
vt 0.416538 0.184785
vt 0.469568 0.038189
vt 0.520375 0.038189
vt 0.520375 0.184785
vt 0.469568 0.184785
vt 0.321532 0.190278
vt 0.321532 0.153271
vt 0.332343 0.153271
vt 0.332343 0.190278
vt 0.334213 0.190278
vt 0.334213 0.153271
vt 0.345024 0.153271
vt 0.345024 0.190278
vt 0.346894 0.184648
vt 0.346894 0.153271
vt 0.355073 0.153271
vt 0.355073 0.184648
vt 0.365449 0.153271
vt 0.365449 0.184648
vt 0.357270 0.184648
vt 0.357270 0.153271
vt 0.242981 0.086380
vt 0.242981 0.030815
vt 0.246314 0.030815
vt 0.246314 0.086380
vt 0.237834 0.086380
vt 0.237834 0.030815
vt 0.241167 0.030815
vt 0.241167 0.086380
vt 0.463200 0.195346
vt 0.514006 0.195346
vt 0.514006 0.249327
vt 0.463200 0.249327
vt 0.410580 0.195345
vt 0.461386 0.195345
vt 0.461386 0.249327
vt 0.410580 0.249327
vn 0.000000 0.000000 1.000000
vn 0.000000 0.000000 1.000000
vn 0.000000 0.000000 1.000000
vn 0.000000 0.000000 1.000000
vn 0.000000 1.000000 0.000000
vn 0.000000 1.000000 0.000000
vn 0.000000 1.000000 0.000000
vn 0.000000 1.000000 0.000000
vn 0.000000 0.000000 -1.000000
vn 0.000000 0.000000 -1.000000
vn 0.000000 0.000000 -1.000000
vn 0.000000 0.000000 -1.000000
vn 0.000000 -1.000000 0.000000
vn 0.000000 -1.000000 0.000000
vn 0.000000 -1.000000 0.000000
vn 0.000000 -1.000000 0.000000
vn 1.000000 0.000000 0.000000
vn 1.000000 0.000000 0.000000
vn 1.000000 0.000000 0.000000
vn 1.000000 0.000000 0.000000
vn -1.000000 0.000000 0.000000
vn -1.000000 0.000000 0.000000
vn -1.000000 0.000000 0.000000
vn -1.000000 0.000000 0.000000
vn 0.000000 1.000000 0.000000
vn 0.000000 1.000000 0.000000
vn 0.000000 1.000000 0.000000
vn 0.000000 1.000000 0.000000
vn 0.000000 1.000000 0.000000
vn 0.000000 1.000000 0.000000
vn 0.000000 1.000000 0.000000
vn 0.000000 1.000000 0.000000
vn 0.000000 1.000000 0.000000
vn 0.000000 1.000000 0.000000
vn 0.000000 1.000000 0.000000
vn 0.000000 1.000000 0.000000
vn 0.000000 1.000000 0.000000
vn 0.000000 1.000000 0.000000
vn 0.000000 1.000000 0.000000
vn 0.000000 1.000000 0.000000
vn 0.000000 0.000000 -1.000000
vn 0.000000 0.000000 -1.000000
vn 0.000000 0.000000 -1.000000
vn 0.000000 0.000000 -1.000000
vn -1.000000 0.000000 0.000000
vn -1.000000 0.000000 0.000000
vn -1.000000 0.000000 0.000000
vn -1.000000 0.000000 0.000000
vn 0.000000 0.000000 1.000000
vn 0.000000 0.000000 1.000000
vn 0.000000 0.000000 1.000000
vn 0.000000 0.000000 1.000000
vn 1.000000 0.000000 0.000000
vn 1.000000 0.000000 0.000000
vn 1.000000 0.000000 0.000000
vn 1.000000 0.000000 0.000000
vn -0.699286 -0.714843 0.000000
vn -0.699286 -0.714843 0.000000
vn -0.699286 -0.714843 0.000000
vn -0.699286 -0.714843 0.000000
vn 0.000000 -0.718225 0.695811
vn 0.000000 -0.718225 0.695811
vn 0.000000 -0.718225 0.695811
vn 0.000000 -0.718225 0.695811
vn -0.710529 0.000000 0.703668
vn -0.710529 0.000000 0.703668
vn -0.710529 0.000000 0.703668
vn -0.710529 0.000000 0.703668
vn 0.699280 -0.714848 0.000000
vn 0.699280 -0.714848 0.000000
vn 0.699280 -0.714848 0.000000
vn 0.699280 -0.714848 0.000000
vn 0.710529 0.000000 0.703668
vn 0.710529 0.000000 0.703668
vn 0.710529 0.000000 0.703668
vn 0.710529 0.000000 0.703668
vn -0.699286 0.714843 0.000000
vn -0.699286 0.714843 0.000000
vn -0.699286 0.714843 0.000000
vn -0.699286 0.714843 0.000000
vn 0.000000 0.718225 0.695811
vn 0.000000 0.718225 0.695811
vn 0.000000 0.718225 0.695811
vn 0.000000 0.718225 0.695811
vn 0.699280 0.714848 0.000000
vn 0.699280 0.714848 0.000000
vn 0.699280 0.714848 0.000000
vn 0.699280 0.714848 0.000000
vn -0.710537 0.000000 -0.703660
vn -0.710537 0.000000 -0.703660
vn -0.710537 0.000000 -0.703660
vn -0.710537 0.000000 -0.703660
vn 0.000000 0.718237 -0.695798
vn 0.000000 0.718237 -0.695798
vn 0.000000 0.718237 -0.695798
vn 0.000000 0.718237 -0.695798
vn 0.710537 0.000000 -0.703660
vn 0.710537 0.000000 -0.703660
vn 0.710537 0.000000 -0.703660
vn 0.710537 0.000000 -0.703660
vn 0.000000 -0.718237 -0.695798
vn 0.000000 -0.718237 -0.695798
vn 0.000000 -0.718237 -0.695798
vn 0.000000 -0.718237 -0.695798
vn 0.000000 0.000000 1.000000
vn 0.000000 0.000000 1.000000
vn 0.000000 0.000000 1.000000
vn 0.000000 0.000000 1.000000
vn 0.000000 1.000000 0.000000
vn 0.000000 1.000000 0.000000
vn 0.000000 1.000000 0.000000
vn 0.000000 1.000000 0.000000
vn 0.000000 0.000000 -1.000000
vn 0.000000 0.000000 -1.000000
vn 0.000000 0.000000 -1.000000
vn 0.000000 0.000000 -1.000000
vn 0.000000 -1.000000 0.000000
vn 0.000000 -1.000000 0.000000
vn 0.000000 -1.000000 0.000000
vn 0.000000 -1.000000 0.000000
vn 1.000000 0.000000 0.000000
vn 1.000000 0.000000 0.000000
vn 1.000000 0.000000 0.000000
vn 1.000000 0.000000 0.000000
vn -1.000000 0.000000 0.000000
vn -1.000000 0.000000 0.000000
vn -1.000000 0.000000 0.000000
vn -1.000000 0.000000 0.000000
vn -0.574880 -0.587670 0.569347
vn -0.574880 -0.587670 0.569347
vn -0.574880 -0.587670 0.569347
vn 0.574872 -0.587686 0.569339
vn 0.574872 -0.587686 0.569339
vn 0.574872 -0.587686 0.569339
vn -0.574879 0.587669 0.569349
vn -0.574880 0.587669 0.569349
vn -0.574880 0.587669 0.569349
vn 0.574871 0.587685 0.569341
vn 0.574871 0.587685 0.569341
vn 0.574871 0.587685 0.569341
vn -0.574879 0.587693 -0.569325
vn -0.574879 0.587693 -0.569325
vn -0.574879 0.587693 -0.569325
vn 0.574883 0.587685 -0.569329
vn 0.574883 0.587685 -0.569329
vn 0.574883 0.587685 -0.569329
vn -0.574880 -0.587694 -0.569323
vn -0.574880 -0.587694 -0.569323
vn -0.574880 -0.587694 -0.569323
vn 0.574884 -0.587686 -0.569327
vn 0.574884 -0.587686 -0.569327
vn 0.574884 -0.587686 -0.569327
vn 0.000000 0.000000 1.000000
vn 0.000000 0.000000 1.000000
vn 0.000000 0.000000 1.000000
vn 0.000000 0.000000 1.000000
vn 0.000000 1.000000 0.000000
vn 0.000000 1.000000 0.000000
vn 0.000000 1.000000 0.000000
vn 0.000000 1.000000 0.000000
vn 0.000000 0.000000 -1.000000
vn 0.000000 0.000000 -1.000000
vn 0.000000 0.000000 -1.000000
vn 0.000000 0.000000 -1.000000
vn 0.000000 -1.000000 0.000000
vn 0.000000 -1.000000 0.000000
vn 0.000000 -1.000000 0.000000
vn 0.000000 -1.000000 0.000000
vn 1.000000 0.000000 0.000000
vn 1.000000 0.000000 0.000000
vn 1.000000 0.000000 0.000000
vn 1.000000 0.000000 0.000000
vn -1.000000 0.000000 0.000000
vn -1.000000 0.000000 0.000000
vn -1.000000 0.000000 0.000000
vn -1.000000 0.000000 0.000000
s off
g pCube9
usemtl initialShadingGroup
f 89/293/319 90/294/320 92/295/321 91/296/322
f 101/253/323 102/254/324 103/255/325 104/256/326
f 93/297/327 94/298/328 96/299/329 95/300/330
f 95/257/331 96/258/332 90/259/333 89/260/334
f 90/205/335 96/206/336 94/207/337 92/208/338
f 95/209/339 89/210/340 91/211/341 93/212/342
f 91/261/343 92/262/344 98/263/345 97/264/346
f 92/262/347 94/265/348 99/266/349 98/263/350
f 94/265/351 93/267/352 100/268/353 99/266/354
f 93/267/355 91/261/356 97/264/357 100/268/358
f 97/301/359 98/302/360 102/303/361 101/304/362
f 98/213/363 99/214/364 103/215/365 102/216/366
f 99/305/367 100/306/368 104/307/369 103/308/370
f 100/217/371 97/218/372 101/219/373 104/220/374
f 105/237/375 107/234/376 123/233/377 125/238/378
f 106/283/379 105/280/380 110/279/381 109/284/382
f 107/234/383 106/239/384 112/240/385 111/235/386
f 108/221/387 110/225/388 126/226/389 128/222/390
f 109/231/391 108/221/392 116/224/393 115/232/394
f 111/235/395 113/241/396 118/242/397 117/236/398
f 113/269/399 112/273/400 115/274/401 114/270/402
f 114/229/403 116/224/404 122/223/405 121/230/406
f 117/236/407 119/243/408 124/244/409 123/233/410
f 119/275/411 118/272/412 121/271/413 120/276/414
f 120/227/415 122/223/416 128/222/417 127/228/418
f 125/277/419 124/281/420 127/282/421 126/278/422
f 106/309/423 109/310/424 115/311/425 112/312/426
f 113/269/427 114/270/428 121/271/429 118/272/430
f 119/313/431 120/314/432 127/315/433 124/316/434
f 125/277/435 126/278/436 110/279/437 105/280/438
f 108/221/439 128/222/440 122/223/441 116/224/442
f 123/233/443 107/234/444 111/235/445 117/236/446
f 105/237/447 106/239/448 107/234/449
f 108/221/450 109/231/451 110/225/452
f 111/235/453 112/240/454 113/241/455
f 114/229/456 115/232/457 116/224/458
f 117/236/459 118/242/460 119/243/461
f 120/227/462 121/230/463 122/223/464
f 123/233/465 124/244/466 125/238/467
f 126/226/468 127/228/469 128/222/470
f 129/317/471 130/318/472 132/319/473 131/320/474
f 131/285/475 132/286/476 134/287/477 133/288/478
f 133/321/479 134/322/480 136/323/481 135/324/482
f 135/289/483 136/290/484 130/291/485 129/292/486
f 130/245/487 136/246/488 134/247/489 132/248/490
f 135/249/491 129/250/492 131/251/493 133/252/494
